<svg xmlns="http://www.w3.org/2000/svg" viewBox="0 0 262 280">
<rect width="100%" height="100%" fill="#dbcbba"/>
<path d="M0 1400 l0 -1400 1310 0 1310 0 0 1400 0 1400 -1310 0 -1310 0 0
-1400z m1227 1044 c6 -19 -23 -41 -64 -49 -108 -20 -254 -129 -316 -237 -31
-53 -57 -145 -57 -200 0 -41 -21 -61 -43 -39 -20 20 9 147 54 240 69 141 194
244 345 286 56 15 76 15 81 -1z m81 -7 c4 -20 -25 -34 -40 -19 -15 15 -1 44
19 40 10 -2 19 -11 21 -21z m167 -10 c164 -55 274 -168 329 -338 41 -127 44
-319 5 -327 -15 -3 -17 14 -21 130 -5 136 -16 185 -61 278 -50 103 -212 221
-321 236 -47 7 -73 25 -61 43 7 12 50 5 130 -22z m-169 -72 c19 -15 19 -15 0
-30 -11 -8 -23 -15 -26 -15 -3 0 -15 7 -26 15 -19 15 -19 15 0 30 11 8 23 15
26 15 3 0 15 -7 26 -15z m114 -10 c15 -18 5 -35 -21 -35 -12 0 -19 7 -19 18 0
33 20 42 40 17z m-232 -18 c2 -9 -4 -20 -13 -23 -20 -8 -50 19 -40 36 10 17
49 8 53 -13z m340 -29 c7 -7 12 -20 12 -30 0 -21 -30 -24 -48 -6 -7 7 -12 20
-12 30 0 21 30 24 48 6z m-438 -16 c0 -25 -19 -42 -47 -42 -25 0 -29 11 -13
41 14 25 60 26 60 1z m218 -29 c5 -17 -26 -29 -40 -15 -6 6 -7 15 -3 22 9 14
37 9 43 -7z m155 -19 c119 -61 187 -166 195 -305 6 -104 -34 -229 -73 -229
-21 0 -19 20 11 83 81 179 -32 407 -218 441 -40 7 -53 19 -42 37 9 15 68 3
127 -27z m-233 11 c0 -9 -27 -27 -64 -44 -178 -81 -253 -260 -181 -436 29 -70
30 -75 10 -75 -8 0 -26 22 -40 50 -73 144 -47 299 70 415 76 77 205 133 205
90z m398 -28 c4 -21 -25 -34 -40 -19 -8 8 -8 16 2 27 16 19 34 15 38 -8z
m-650 -20 c4 -21 -25 -34 -40 -19 -8 8 -8 16 2 27 16 19 34 15 38 -8z m710
-59 c16 -16 15 -48 -1 -48 -19 0 -37 21 -37 42 0 21 20 24 38 6z m-763 -28 c8
-25 -10 -50 -36 -50 -13 0 -19 7 -19 23 0 43 43 64 55 27z m387 3 c21 -19 24
-86 8 -174 -5 -30 -12 -75 -15 -101 -4 -27 -9 -48 -13 -48 -15 0 -63 276 -53
303 15 38 44 46 73 20z m426 -86 c4 -20 -25 -34 -40 -19 -15 15 -1 44 19 40
10 -2 19 -11 21 -21z m-290 -9 c21 -21 13 -44 -29 -77 -22 -18 -48 -48 -56
-67 -18 -36 -33 -45 -33 -18 0 39 25 105 52 138 31 38 46 44 66 24z m-261 -25
c28 -31 57 -90 68 -140 9 -46 -6 -40 -31 10 -12 25 -38 54 -63 71 -48 32 -59
50 -41 71 18 22 38 18 67 -12z m-309 -6 c4 -20 -25 -34 -40 -19 -15 15 -1 44
19 40 10 -2 19 -11 21 -21z m1122 -88 c103 -28 163 -63 241 -139 90 -88 158
-228 142 -290 -9 -36 -28 -21 -41 33 -42 180 -194 321 -386 361 -72 15 -93 27
-82 45 10 16 42 14 126 -10z m-503 -15 c10 -27 -12 -49 -55 -55 -23 -3 -50
-13 -61 -23 -20 -18 -61 -15 -61 5 0 6 9 8 19 4 14 -4 23 1 32 17 23 46 51 68
86 68 22 0 36 -6 40 -16z m273 6 c0 -13 -34 -30 -59 -30 -24 0 -27 10 -9 28
14 14 68 16 68 2z m-906 -10 c38 -14 37 -53 -1 -43 -52 15 -215 8 -271 -11
-171 -58 -291 -189 -335 -364 -14 -56 -29 -78 -46 -68 -12 8 -6 47 16 121 56
181 211 324 392 360 80 16 210 19 245 5z m327 -19 c29 -29 37 -51 20 -51 -6 0
-13 5 -16 10 -3 6 -29 10 -56 10 -53 0 -72 17 -49 45 21 25 68 18 101 -14z
m557 -68 c-3 -40 -32 -59 -49 -32 -6 10 -11 6 -18 -14 -8 -21 -32 -40 -31 -24
2 26 33 85 51 94 41 22 50 17 47 -24z m-954 -6 c7 -19 6 -31 -2 -39 -16 -16
-28 -2 -37 40 -6 29 -5 33 11 30 10 -2 23 -16 28 -31z m1161 13 c0 -22 -29
-18 -33 3 -3 14 1 18 15 15 10 -2 18 -10 18 -18z m-1060 -10 c13 -11 39 -80
32 -86 -3 -3 -22 3 -43 13 -39 18 -71 64 -58 84 6 11 51 4 69 -11z m308 -31
c20 -21 33 -28 47 -24 27 8 27 -31 1 -62 -24 -29 -31 -29 -31 1 0 40 -37 78
-74 74 -24 -2 -32 -8 -34 -26 -5 -30 -26 -23 -30 10 -2 18 5 32 24 47 33 26
59 21 97 -20z m-556 15 c8 -21 -13 -42 -28 -27 -13 13 -5 43 11 43 6 0 13 -7
17 -16z m831 4 c14 -14 16 -48 3 -48 -6 0 -13 5 -16 10 -10 17 -51 11 -70 -10
-11 -12 -18 -35 -18 -60 0 -22 -4 -40 -8 -40 -5 0 -9 6 -9 13 0 8 -9 22 -20
32 -11 10 -20 29 -20 42 0 20 4 22 25 17 15 -4 25 -2 25 5 0 38 80 67 108 39z
m592 -17 c15 -29 13 -33 -17 -29 -20 2 -29 9 -31 26 -4 28 33 31 48 3z m-1500
-34 c0 -19 -21 -37 -42 -37 -21 0 -22 4 -8 31 12 21 50 26 50 6z m1361 -1
c138 -42 253 -160 261 -268 4 -51 -23 -42 -41 14 -41 133 -175 228 -322 228
-56 0 -140 -28 -155 -51 -8 -14 -46 -11 -42 3 12 36 131 86 208 87 25 1 66 -6
91 -13z m227 -29 c4 -20 -25 -34 -40 -19 -15 15 -1 44 19 40 10 -2 19 -11 21
-21z m-1263 -21 c51 -26 68 -47 46 -61 -5 -3 -24 3 -43 14 -165 95 -390 1
-458 -192 -18 -50 -42 -68 -48 -36 -6 33 41 134 87 182 114 123 279 159 416
93z m283 -24 c5 -34 -15 -52 -57 -52 -45 0 -82 23 -65 40 9 9 17 9 31 -1 22
-13 58 -5 48 11 -9 15 5 32 23 28 10 -2 18 -14 20 -26z m272 8 c12 -22 40 -26
58 -8 9 9 15 9 25 -1 23 -24 -60 -64 -91 -44 -24 14 -36 39 -29 57 9 22 24 20
37 -4z m-993 -6 c3 -8 1 -20 -6 -27 -14 -14 -47 15 -37 32 10 16 36 13 43 -5z
m1761 -26 c16 -16 15 -48 -1 -48 -19 0 -37 21 -37 42 0 21 20 24 38 6z m-938
-33 c0 -8 -12 -18 -27 -21 -81 -20 -138 -70 -168 -149 -10 -25 -24 -45 -32
-45 -32 0 32 137 83 176 56 43 144 67 144 39z m149 -18 c63 -32 130 -123 131
-179 0 -34 -27 -18 -39 23 -16 54 -94 131 -150 147 -25 8 -41 19 -41 28 0 20
34 13 99 -19z m166 6 c-19 -44 -18 -63 3 -63 29 0 48 -26 32 -45 -44 -53 -105
39 -70 106 14 25 45 26 35 2z m-556 -43 c12 -38 12 -47 0 -69 -19 -33 -74 -38
-74 -6 0 13 7 20 20 20 24 0 32 34 15 65 -6 11 -8 25 -5 31 12 19 30 3 44 -41z
m881 40 c0 -5 -4 -10 -10 -10 -16 0 -11 -23 10 -50 25 -32 25 -48 -2 -77 -29
-31 -17 -39 33 -23 35 12 45 12 67 -1 70 -40 37 -91 -55 -87 -52 3 -52 3 -38
-19 20 -30 19 -46 -5 -68 -11 -10 -20 -31 -20 -47 0 -35 -14 -36 -36 -3 -15
22 -15 32 -5 67 15 47 4 65 -51 82 -44 15 -45 47 -2 61 58 19 67 33 59 93 -5
43 -3 57 11 73 18 20 44 26 44 9z m-1520 -18 c0 -21 -18 -42 -37 -42 -16 0
-17 32 -1 48 18 18 38 15 38 -6z m1310 -7 c11 -28 20 -31 39 -12 10 10 15 8
27 -8 19 -25 14 -47 -11 -60 -17 -8 -19 -14 -11 -37 13 -37 -6 -59 -45 -51
-35 7 -51 -20 -26 -44 13 -13 19 -14 31 -4 9 7 23 11 31 7 17 -6 20 -51 4 -62
-6 -4 2 -17 23 -34 40 -35 31 -65 -20 -66 -17 0 -40 -8 -51 -18 -17 -15 -23
-16 -36 -6 -20 17 -19 30 3 30 26 0 42 20 42 52 0 39 -32 68 -75 68 -39 0 -44
9 -15 28 27 17 25 41 -5 52 -39 15 -31 33 10 26 43 -8 69 5 85 44 15 36 -7 80
-40 80 -11 0 -20 6 -20 13 0 36 47 37 60 2z m-620 5 c0 -5 -7 -10 -15 -10 -8
0 -15 5 -15 10 0 6 7 10 15 10 8 0 15 -4 15 -10z m-172 -12 c17 -17 15 -38 -3
-38 -8 0 -19 -9 -25 -21 -26 -48 23 -107 80 -95 32 6 39 -4 16 -24 -8 -6 -16
-23 -18 -38 -2 -15 -12 -31 -24 -37 -64 -32 -75 -84 -24 -110 17 -9 30 -20 30
-26 0 -20 -32 -21 -53 -1 -17 16 -26 18 -40 11 -9 -6 -22 -7 -27 -4 -17 10
-11 63 8 74 14 8 15 12 5 22 -19 19 -16 43 7 64 l20 18 -22 24 c-20 21 -21 26
-9 45 12 19 11 23 -5 35 -10 7 -21 13 -26 13 -14 0 -9 37 7 50 8 6 23 9 35 5
13 -4 20 -2 20 7 0 14 19 38 30 38 3 0 11 -5 18 -12z m-198 -13 c12 -14 11
-31 -6 -99 -8 -33 13 -56 51 -56 33 0 61 -35 45 -55 -7 -8 -18 -15 -26 -15 -7
0 -25 -11 -40 -24 -26 -21 -27 -25 -15 -53 7 -17 11 -43 9 -59 -4 -33 -28 -46
-28 -15 0 13 -9 25 -24 31 -39 14 -44 50 -11 76 35 28 17 41 -27 20 -29 -15
-34 -15 -61 1 -50 30 -57 50 -24 79 30 26 66 31 99 13 32 -17 44 5 14 25 -32
20 -35 61 -6 76 13 7 20 21 20 40 0 33 11 38 30 15z m603 -3 c29 -32 -14 -145
-44 -115 -22 22 -24 105 -4 120 24 17 29 17 48 -5z m724 -8 c6 -16 -19 -44
-39 -44 -10 0 -11 44 -1 53 12 13 34 7 40 -9z m231 -18 c6 -29 -15 -43 -35
-24 -14 14 -14 20 -3 33 16 19 34 15 38 -9z m-1687 -32 c5 -15 8 -29 6 -31 -9
-8 -57 17 -57 30 0 36 37 36 51 1z m610 14 c22 -18 49 -64 49 -83 0 -21 -22
-19 -64 6 -43 25 -56 57 -30 76 22 16 26 16 45 1z m239 -3 c19 -23 1 -55 -46
-77 -48 -24 -59 -21 -50 15 15 60 69 95 96 62z m-1093 -31 c3 -8 1 -20 -6 -27
-14 -14 -47 15 -37 32 10 16 36 13 43 -5z m1948 -70 c0 -19 -6 -30 -17 -32
-14 -3 -18 3 -18 26 0 16 3 32 7 36 14 13 28 -1 28 -30z m-805 1 c15 -18 10
-45 -12 -58 -21 -14 -113 13 -113 33 0 29 104 50 125 25z m716 4 c10 -17 -13
-36 -27 -22 -12 12 -4 33 11 33 5 0 12 -5 16 -11z m-1025 -11 c45 -13 50 -34
12 -49 -62 -23 -116 7 -83 46 15 18 22 18 71 3z m129 -3 c15 -18 6 -45 -15
-45 -18 0 -30 24 -21 45 7 19 20 19 36 0z m-972 -30 c3 -26 -13 -50 -27 -41
-19 12 -14 68 7 64 9 -2 18 -12 20 -23z m-91 -1 c8 -21 -13 -42 -28 -27 -13
13 -5 43 11 43 6 0 13 -7 17 -16z m181 -7 c2 -10 -3 -17 -12 -17 -18 0 -29 16
-21 31 9 14 29 6 33 -14z m1774 -28 c-5 -51 -63 -148 -117 -198 -74 -67 -145
-94 -251 -94 -106 0 -228 51 -185 77 5 3 31 -4 57 -16 37 -17 68 -22 129 -22
162 -1 283 95 339 267 9 26 32 15 28 -14z m-802 1 c21 -11 42 -25 45 -30 12
-19 -4 -60 -23 -60 -31 0 -90 78 -77 100 8 13 10 13 55 -10z m160 2 c0 -72
-110 -185 -193 -199 -56 -9 -50 21 7 37 63 17 110 60 137 125 22 53 49 74 49
37z m830 4 c0 -8 -5 -16 -10 -18 -6 -2 -12 -26 -14 -53 -4 -60 -51 -158 -103
-215 -53 -59 -149 -128 -189 -136 -18 -3 -34 -10 -34 -16 0 -15 -62 -36 -115
-40 -44 -3 -50 -1 -50 16 0 16 12 22 61 32 156 32 319 163 374 302 7 17 15 32
19 32 4 0 8 17 8 37 1 21 6 39 12 41 6 2 11 10 11 18 0 8 7 14 15 14 8 0 15
-6 15 -14z m-1306 -39 c22 -58 73 -106 138 -128 62 -20 81 -53 26 -43 -102 19
-208 119 -208 199 0 31 28 13 44 -28z m176 33 c0 -18 -27 -64 -48 -83 -16 -15
-24 -16 -41 -7 -30 15 -26 33 14 69 35 30 75 41 75 21z m-240 -10 c0 -5 -7
-10 -15 -10 -8 0 -15 5 -15 10 0 6 7 10 15 10 8 0 15 -4 15 -10z m314 -52 c5
-25 6 -53 3 -62 -18 -45 -83 -15 -74 34 19 92 56 107 71 28z m954 29 c4 -21
-25 -34 -40 -19 -8 8 -8 16 2 27 16 19 34 15 38 -8z m-1848 -45 c62 -176 289
-263 459 -177 29 14 55 24 58 21 27 -27 -88 -86 -182 -94 -164 -13 -332 103
-375 257 -20 73 14 67 40 -7z m-179 -18 c53 -196 200 -325 418 -368 38 -7 56
-16 56 -26 0 -22 -89 -15 -177 15 -166 56 -291 190 -334 354 -8 35 -13 69 -10
78 11 28 31 6 47 -53z m1367 44 c18 -18 15 -27 -13 -38 -27 -10 -33 -38 -13
-58 9 -9 9 -15 -1 -24 -18 -19 -41 16 -41 63 0 50 41 84 68 57z m410 -5 c5
-17 -26 -29 -40 -15 -6 6 -7 15 -3 22 9 14 37 9 43 -7z m-1002 -28 c19 -29 12
-93 -12 -102 -20 -8 -30 5 -16 19 19 19 15 48 -7 48 -28 0 -47 26 -31 45 19
22 47 18 66 -10z m-681 -15 c0 -7 -6 -15 -12 -17 -8 -3 -13 4 -13 17 0 13 5
20 13 18 6 -3 12 -11 12 -18z m235 1 c0 -22 -25 -45 -40 -36 -11 7 -14 38 -3
48 14 15 43 7 43 -12z m1648 -43 c-4 -30 -48 -39 -48 -10 0 24 8 32 32 32 14
0 19 -6 16 -22z m-708 -13 c0 -8 -7 -15 -15 -15 -16 0 -20 12 -8 23 11 12 23
8 23 -8z m-1112 -57 c4 -30 -14 -38 -36 -16 -21 21 -15 50 11 46 16 -2 23 -11
25 -30z m1100 6 c37 -10 27 -34 -12 -27 -30 5 -35 3 -38 -18 -4 -28 -26 -32
-41 -7 -23 36 32 67 91 52z m-334 -23 c23 -25 17 -55 -12 -59 -18 -3 -22 1
-22 22 0 21 -5 26 -24 26 -14 0 -28 -4 -31 -10 -9 -14 -25 -12 -25 3 0 39 83
52 114 18z m984 -14 c4 -20 -25 -34 -40 -19 -15 15 -1 44 19 40 10 -2 19 -11
21 -21z m-912 -14 c17 -23 18 -63 1 -63 -7 0 -23 -14 -36 -31 -19 -25 -28 -30
-59 -27 -26 2 -38 8 -40 21 -3 15 1 17 22 11 40 -10 75 18 82 66 7 45 11 48
30 23z m134 -19 c0 -53 55 -85 88 -52 16 16 29 1 16 -20 -21 -33 -104 -22
-104 13 0 17 -26 20 -35 5 -13 -20 -25 -9 -19 18 16 74 54 100 54 36z m-903
-10 c8 -21 -13 -42 -28 -27 -13 13 -5 43 11 43 6 0 13 -7 17 -16z m1149 -48
c37 -81 42 -167 14 -257 -19 -65 -29 -80 -88 -139 -70 -69 -162 -114 -186 -90
-13 13 -2 23 56 44 107 39 187 148 196 267 4 64 -16 168 -40 196 -11 13 -3 33
13 33 6 0 21 -24 35 -54z m444 41 c0 -19 -21 -37 -42 -37 -21 0 -24 20 -6 38
16 16 48 15 48 -1z m-1053 -19 c-3 -13 -15 -48 -26 -78 -61 -164 33 -340 213
-399 57 -18 73 -41 29 -40 -105 2 -242 119 -282 239 -26 80 -13 200 29 268 23
37 45 43 37 10z m716 -15 c9 -9 17 -27 17 -40 0 -19 -5 -23 -30 -23 -25 0 -32
6 -45 36 -8 20 -15 41 -15 46 0 14 51 0 73 -19z m-793 8 c0 -30 -26 -71 -55
-87 -42 -22 -50 -16 -39 32 7 29 16 39 44 49 45 16 50 17 50 6z m-362 -23 c22
-22 14 -40 -15 -36 -20 2 -29 9 -31 26 -4 25 25 31 46 10z m1254 -34 c42 -235
-81 -482 -287 -579 -91 -42 -162 -62 -177 -47 -20 20 0 38 58 51 230 51 395
286 370 527 -3 34 -3 69 0 78 10 27 28 12 36 -30z m136 23 c4 -20 -25 -34 -40
-19 -15 15 -1 44 19 40 10 -2 19 -11 21 -21z m-1164 -79 c-20 -235 119 -452
334 -518 35 -11 75 -20 89 -20 18 0 24 -5 21 -18 -5 -24 -83 -19 -151 10 -213
91 -337 277 -337 503 0 80 11 115 36 115 12 0 14 -12 8 -72z m1076 57 c0 -8
-4 -15 -10 -15 -5 0 -10 7 -10 15 0 8 5 15 10 15 6 0 10 -7 10 -15z m-1213
-11 c8 -21 -13 -42 -28 -27 -13 13 -5 43 11 43 6 0 13 -7 17 -16z m731 -15
c18 -13 34 -18 50 -14 20 5 23 3 18 -10 -3 -9 0 -18 9 -21 27 -11 16 -24 -19
-24 -28 0 -41 7 -65 37 -45 54 -41 70 7 32z m-168 6 c0 -4 -6 -18 -14 -33 -29
-56 -121 -73 -121 -22 0 23 4 25 47 28 25 2 52 10 58 18 12 14 30 19 30 9z
m93 -88 c10 -51 20 -103 24 -115 4 -17 1 -22 -13 -22 -17 0 -16 -1 2 -14 15
-12 17 -18 8 -33 -14 -22 -50 -29 -70 -13 -26 22 -15 100 14 100 14 0 14 1 -1
13 -14 10 -15 22 -7 82 5 39 9 76 10 83 0 6 3 12 8 12 4 0 15 -42 25 -93z
m-59 36 c-17 -102 -82 -184 -119 -153 -25 21 -17 39 40 92 30 27 58 61 61 74
10 39 26 28 18 -13z m96 6 c12 -28 66 -79 85 -79 16 0 45 -33 45 -51 0 -25
-35 -43 -59 -30 -43 23 -101 130 -101 185 0 18 19 2 30 -25z m398 -1 c26 -26
14 -41 -25 -33 -45 8 -47 10 -40 30 7 18 48 20 65 3z m-858 -23 c0 -21 -49
-40 -64 -25 -8 8 -6 15 8 26 26 18 56 18 56 -1z m837 -91 c8 -21 -13 -42 -28
-27 -13 13 -5 43 11 43 6 0 13 -7 17 -16z m-829 -41 c5 -17 -26 -29 -40 -15
-6 6 -7 15 -3 22 9 14 37 9 43 -7z m802 -56 c0 -25 -17 -47 -37 -47 -16 0 -17
42 -1 58 19 19 38 14 38 -11z m-762 -49 c4 -31 0 -33 -29 -18 -28 15 -25 52 4
48 16 -2 23 -11 25 -30z m700 -55 c5 -17 -26 -29 -40 -15 -6 6 -7 15 -3 22 9
14 37 9 43 -7z m-641 -19 c8 -21 -13 -42 -28 -27 -13 13 -5 43 11 43 6 0 13
-7 17 -16z m320 -30 c8 -21 -13 -42 -28 -27 -13 13 -5 43 11 43 6 0 13 -7 17
-16z m243 0 c0 -20 -24 -44 -45 -44 -27 0 -33 18 -13 38 12 12 58 17 58 6z
m-462 -47 c3 -14 -1 -18 -20 -15 -12 2 -24 11 -26 21 -3 14 1 18 20 15 12 -2
24 -11 26 -21z m337 -27 c0 -22 -29 -18 -33 3 -3 14 1 18 15 15 10 -2 18 -10
18 -18z m-238 -6 c8 -21 -13 -42 -28 -27 -13 13 -5 43 11 43 6 0 13 -7 17 -16z
m139 -6 c4 -6 -1 -17 -11 -25 -24 -16 -27 -16 -51 2 -16 13 -17 16 -4 25 20
13 57 13 66 -2z m-20 -89 c10 -17 -13 -36 -27 -22 -12 12 -4 33 11 33 5 0 12
-5 16 -11z"/>
</g>
</svg>

<path d="M27 2760 c4 -31 2 -41 -11 -46 -24 -9 -21 -60 4 -67 17 -4 20 -14 20
-61 0 -56 6 -66 27 -45 15 15 33 3 33 -21 0 -25 -17 -35 -36 -19 -8 6 -17 10
-19 7 -3 -2 0 -172 7 -377 11 -370 9 -405 -21 -387 -6 4 -11 36 -11 72 0 36
-4 64 -10 64 -6 0 -10 -33 -10 -79 0 -71 2 -80 20 -86 26 -8 26 -31 0 -47 -19
-12 -20 -24 -20 -321 l0 -308 31 -26 c71 -60 79 -86 80 -260 1 -87 4 -210 8
-273 5 -105 8 -115 25 -113 25 2 55 -35 56 -69 0 -31 -36 -41 -46 -13 -4 8
-10 15 -15 15 -10 0 -12 -184 -3 -254 l7 -46 446 0 445 0 -52 53 c-47 48 -69
97 -43 97 5 0 46 -34 90 -76 l80 -75 78 4 78 5 -3 30 c-5 44 39 74 68 47 11
-10 20 -31 20 -46 0 -26 2 -28 66 -34 l66 -8 92 92 c50 50 95 91 99 91 4 0 7
-10 7 -22 0 -14 -25 -47 -67 -90 l-67 -68 80 0 c77 0 81 1 80 23 -1 16 5 22
19 22 14 0 20 -6 19 -22 0 -17 5 -23 21 -23 16 0 21 6 21 23 -1 16 5 22 19 22
14 0 20 -6 19 -22 0 -18 5 -23 24 -23 21 0 23 2 12 15 -10 12 -10 19 -2 27 17
17 45 1 39 -22 -4 -15 0 -20 14 -20 11 0 16 5 13 13 -8 22 23 42 41 27 9 -7
14 -19 11 -27 -3 -8 2 -13 13 -13 12 0 17 7 17 22 -1 14 6 24 18 26 27 6 42
-13 26 -33 -11 -13 -9 -15 12 -15 19 0 24 5 24 23 -1 13 5 22 14 22 9 0 15 -9
14 -22 -1 -23 1 -23 141 -23 l142 0 -4 24 c-6 30 14 43 35 23 13 -13 13 -19 2
-31 -11 -14 -8 -16 18 -16 27 0 31 4 34 33 2 24 8 32 23 32 15 0 21 -8 23 -32
4 -46 42 -48 42 -3 0 17 5 30 10 30 6 0 10 -13 10 -30 0 -20 5 -30 15 -30 12
0 15 14 15 70 l0 70 -35 0 c-40 0 -55 21 -34 46 9 11 22 14 41 10 l28 -5 0
408 c0 318 -3 411 -12 415 -10 5 -10 7 0 12 6 3 12 17 12 32 l0 26 -33 -32
c-34 -33 -67 -42 -67 -19 0 7 23 35 50 62 l50 49 0 94 c0 80 -3 98 -21 124
l-21 29 21 23 c18 20 21 34 21 120 l0 98 -55 61 c-30 34 -55 65 -55 70 0 20
49 4 75 -25 l30 -33 3 420 c1 276 -1 421 -8 423 -13 5 -13 32 0 32 6 0 10 11
10 24 0 26 -47 44 -56 22 -3 -7 -10 -196 -17 -421 -12 -399 -13 -410 -32 -410
-20 0 -20 6 -17 308 2 191 -1 307 -7 307 -5 0 -11 -6 -14 -12 -7 -21 -47 21
-47 49 0 28 24 40 45 23 9 -7 18 -11 21 -8 2 3 7 80 11 172 l6 166 -441 0
c-342 0 -442 -3 -446 -12 -5 -10 -7 -10 -12 0 -8 17 -54 15 -54 -2 0 -8 25
-36 55 -63 53 -47 74 -93 41 -93 -12 0 -80 67 -138 138 -24 29 -32 32 -81 32
-40 0 -56 -4 -61 -15 -7 -20 -33 -19 -46 3 -9 13 -10 9 -5 -22 10 -64 -33 -95
-84 -60 -16 12 -22 23 -18 40 3 20 0 24 -20 24 -13 0 -26 7 -29 15 -4 10 -20
15 -50 15 -39 0 -49 -5 -77 -37 -60 -70 -150 -163 -159 -163 -26 0 -1 50 57
111 36 38 65 74 65 79 0 15 -47 12 -54 -2 -5 -10 -7 -10 -12 0 -10 21 -61 15
-67 -8 -3 -11 -13 -20 -22 -20 -9 0 -19 9 -22 20 -7 27 -31 25 -35 -2 -2 -15
-10 -23 -23 -23 -13 0 -21 8 -23 23 -2 12 -10 22 -17 22 -7 0 -15 -10 -17 -22
-2 -15 -10 -23 -23 -23 -13 0 -21 8 -23 23 -2 12 -10 22 -17 22 -7 0 -15 -10
-17 -22 -2 -15 -10 -23 -23 -23 -13 0 -21 8 -23 23 -2 12 -10 22 -17 22 -7 0
-15 -10 -17 -22 -2 -15 -10 -23 -23 -23 -13 0 -21 8 -23 23 -5 32 -42 30 -42
-2 0 -14 -5 -28 -10 -31 -17 -10 -41 16 -35 36 5 16 1 19 -24 19 -26 0 -30 -3
-28 -27 2 -22 -2 -28 -18 -28 -14 0 -21 8 -23 28 -3 21 -9 27 -28 27 -21 0
-24 -4 -22 -27 2 -22 -1 -28 -17 -28 -14 0 -21 8 -23 28 -3 21 -9 27 -27 27
-20 0 -23 -5 -22 -27 2 -22 -2 -28 -18 -28 -16 0 -20 6 -18 28 2 24 -2 27 -28
27 -25 0 -29 -3 -24 -19 6 -21 -18 -46 -35 -36 -7 4 -9 18 -6 31 5 20 3 24
-18 24 -22 0 -24 -3 -19 -40z m913 -5 c0 -16 -27 -32 -37 -21 -7 7 16 36 28
36 5 0 9 -7 9 -15z m1120 -35 c0 -6 -33 -10 -80 -10 -47 0 -80 4 -80 10 0 6
33 10 80 10 47 0 80 -4 80 -10z m320 0 c0 -6 -57 -10 -150 -10 -93 0 -150 4
-150 10 0 6 57 10 150 10 93 0 150 -4 150 -10z m-1570 -30 c0 -6 -55 -10 -145
-10 -90 0 -145 4 -145 10 0 6 55 10 145 10 90 0 145 -4 145 -10z m1677 -78 c1
-39 -2 -55 -13 -59 -25 -9 -41 14 -26 37 18 30 17 30 -58 30 -72 0 -87 -8 -48
-25 30 -14 33 -31 9 -44 -15 -9 -27 -6 -55 12 -40 25 -45 37 -16 37 11 0 20 5
20 11 0 9 -79 11 -302 8 -298 -4 -303 -4 -303 16 0 19 8 20 200 25 110 3 288
6 395 5 l195 0 2 -53z m-1632 3 c0 -30 -42 -33 -440 -35 l-350 -1 0 23 0 23
360 5 c470 7 430 9 430 -15z m1330 -36 c0 -7 -8 -15 -17 -17 -18 -3 -25 18
-11 32 10 10 28 1 28 -15z m-1905 -39 c13 -8 12 -11 -5 -24 -25 -19 -95 -21
-95 -3 0 33 64 50 100 27z m138 -8 c3 -9 -2 -13 -14 -10 -9 1 -19 9 -22 16 -3
9 2 13 14 10 9 -1 19 -9 22 -16z m1796 -2 c26 -10 63 -56 52 -67 -3 -3 -15 6
-27 20 -30 39 -98 31 -82 -9 6 -16 -13 -19 -22 -4 -15 24 8 54 52 69 1 1 13
-3 27 -9z m190 -17 c3 -10 2 -31 -2 -48 -7 -27 -13 -30 -50 -33 l-42 -3 0 35
c0 31 5 38 33 50 43 19 55 19 61 -1z m-2190 -53 c32 -12 39 -80 9 -80 -10 0
-27 -3 -38 -6 -16 -4 -24 3 -37 32 -26 57 2 79 66 54z m200 -9 c21 -23 18 -54
-7 -59 -13 -3 -17 3 -17 23 0 14 -7 28 -15 31 -19 8 -65 -22 -65 -41 0 -8 -4
-15 -10 -15 -20 0 -9 39 16 59 33 26 76 27 98 2z m-294 -62 c10 -22 10 -33 1
-42 -6 -6 -11 -21 -11 -34 0 -30 -14 -29 -28 2 -13 28 -16 88 -5 98 14 15 31
6 43 -24z m2065 4 c11 -14 16 -15 44 -3 28 11 34 11 48 -2 13 -14 13 -18 -2
-42 -17 -25 -17 -28 0 -46 23 -25 10 -43 -25 -36 -18 3 -33 0 -40 -9 -7 -8
-28 -15 -46 -15 -30 0 -34 3 -34 27 0 14 7 35 17 45 14 15 14 22 3 42 -22 43
8 77 35 39z m199 -24 c32 -25 35 -76 7 -110 -16 -20 -23 -22 -38 -13 -25 16
-22 37 6 44 36 8 36 26 2 61 -17 17 -31 32 -31 35 0 11 30 2 54 -17z m-2069
-31 c14 -31 45 -36 52 -8 4 14 12 20 27 18 19 -3 21 -10 23 -80 1 -87 -13
-104 -61 -73 -16 11 -26 13 -31 6 -3 -6 -15 -11 -26 -11 -26 0 -37 30 -16 42
22 12 22 44 1 56 -12 7 -15 17 -9 41 8 36 26 40 40 9z m-105 -27 c0 -5 -7 -11
-15 -15 -46 -17 -36 -102 10 -90 28 7 33 -7 11 -25 -33 -27 -81 30 -69 80 10
41 63 83 63 50z m2268 -23 c-6 -18 -28 -21 -28 -4 0 9 7 16 16 16 9 0 14 -5
12 -12z m132 -78 c0 -40 -4 -70 -10 -70 -6 0 -10 30 -10 70 0 40 4 70 10 70 6
0 10 -30 10 -70z m-2500 0 c0 -5 -7 -10 -15 -10 -8 0 -15 5 -15 10 0 6 7 10
15 10 8 0 15 -4 15 -10z m2490 -300 c0 -27 -4 -50 -10 -50 -5 0 -10 23 -10 50
0 28 5 50 10 50 6 0 10 -22 10 -50z m-80 -950 c0 -5 -9 -10 -20 -10 -11 0 -20
5 -20 10 0 6 9 10 20 10 11 0 20 -4 20 -10z m74 -26 c7 -18 0 -34 -15 -34 -5
0 -9 11 -9 25 0 28 15 34 24 9z m-83 -255 c19 -10 20 -20 18 -232 -1 -122 -5
-246 -9 -275 -5 -41 -4 -55 7 -59 38 -15 0 -23 -107 -23 -73 0 -120 4 -120 10
0 6 34 10 83 10 46 0 86 2 88 4 2 2 2 29 1 59 -4 53 -5 55 -30 54 -18 -1 -27
3 -27 13 0 10 9 15 25 14 14 -1 28 4 32 10 4 6 8 104 8 219 0 114 3 207 6 207
3 0 14 -5 25 -11z m-316 -139 c4 -6 21 -8 40 -4 37 7 59 -12 31 -28 -18 -10
-22 -43 -6 -53 12 -8 13 -25 0 -45 -8 -12 -11 -12 -28 3 -23 21 -31 21 -54 0
-14 -12 -21 -14 -30 -5 -11 11 -20 120 -12 134 7 12 52 10 59 -2z m195 -19 c5
-11 10 -24 10 -30 0 -19 -52 -71 -71 -71 -25 0 -24 16 1 23 26 7 36 35 22 58
-7 10 -12 23 -12 29 0 18 39 11 50 -9z m-1920 -16 c0 -8 -6 -15 -14 -15 -18 0
-33 -19 -41 -53 -10 -37 9 -35 25 3 18 44 26 37 24 -20 -2 -60 -5 -66 -33 -48
-17 10 -25 10 -41 0 -26 -16 -27 -16 -33 10 -4 15 0 30 13 43 10 11 20 33 22
50 2 21 10 31 28 36 40 11 50 10 50 -6z m-195 -35 c0 -9 -9 -15 -24 -15 -34 0
-37 -20 -6 -51 14 -14 24 -28 22 -30 -10 -10 -39 11 -53 38 -14 27 -14 32 1
54 18 28 60 30 60 4z m-99 -11 c10 -17 -13 -36 -27 -22 -12 12 -4 33 11 33 5
0 12 -5 16 -11z m2280 -55 c8 -31 -10 -74 -31 -74 -19 0 -20 51 -3 80 17 27
26 25 34 -6z m-87 -38 c7 -8 13 -27 14 -43 2 -25 -1 -28 -27 -26 -40 3 -59 24
-50 56 7 30 43 37 63 13z m-211 -28 c-4 -30 35 -37 63 -12 10 9 22 14 27 10
11 -11 -46 -56 -70 -56 -39 0 -74 51 -51 73 15 16 34 6 31 -15z m-1858 -36 c0
-20 -8 -32 -30 -45 -46 -27 -62 -9 -40 47 15 39 70 38 70 -2z m190 -3 c25 -46
-56 -79 -108 -43 -12 8 -22 22 -22 30 0 19 6 18 31 -7 25 -25 64 -22 65 6 2
31 3 35 14 35 5 0 14 -9 20 -21z m2090 -34 c0 -19 -4 -35 -10 -35 -5 0 -10 16
-10 35 0 19 5 35 10 35 6 0 10 -16 10 -35z m-234 -7 c8 -13 -31 -48 -55 -48
-37 1 -46 17 -20 39 27 23 64 27 75 9z m-160 -19 c10 -17 -13 -36 -27 -22 -12
12 -4 33 11 33 5 0 12 -5 16 -11z m-1815 -30 c20 -12 0 -28 -44 -36 -38 -6
-67 8 -67 33 0 15 88 18 111 3z m-173 -22 c4 -20 -25 -34 -40 -19 -15 15 -1
44 19 40 10 -2 19 -11 21 -21z m2247 -22 c0 -20 -8 -20 -368 -23 -347 -2 -368
-1 -365 15 4 20 177 29 543 28 183 0 190 -1 190 -20z m-1540 -35 c0 -19 -89
-26 -390 -31 l-220 -4 -3 24 c-4 24 -3 24 60 18 35 -3 70 -2 78 4 9 5 113 8
245 7 197 -3 230 -5 230 -18z m-637 -17 c3 -21 0 -23 -52 -23 -56 0 -72 9 -62
36 4 11 19 14 58 12 46 -3 53 -6 56 -25z m2002 -13 c0 -5 -9 -10 -20 -10 -11
0 -20 5 -20 10 0 6 9 10 20 10 11 0 20 -4 20 -10z m-1430 -40 c0 -6 -30 -10
-70 -10 -40 0 -70 4 -70 10 0 6 30 10 70 10 40 0 70 -4 70 -10z m-390 -10 c0
-6 -30 -10 -70 -10 -40 0 -70 4 -70 10 0 6 30 10 70 10 40 0 70 -4 70 -10z
m1820 -5 c15 -18 5 -35 -21 -35 -12 0 -19 7 -19 18 0 33 20 42 40 17z m80 0
c15 -18 5 -35 -21 -35 -12 0 -19 7 -19 18 0 33 20 42 40 17z m-152 -12 c5 -17
-26 -29 -40 -15 -6 6 -7 15 -3 22 9 14 37 9 43 -7z"/>
<path d="M2560 2734 c0 -56 2 -65 16 -60 9 3 22 6 30 6 10 0 14 15 14 60 l0
60 -30 0 -30 0 0 -66z"/>
<path d="M0 846 c0 -68 4 -126 9 -128 4 -2 11 -94 14 -206 4 -169 3 -204 -9
-209 -10 -4 -14 -25 -14 -83 0 -78 0 -79 27 -82 39 -4 39 -42 1 -46 -29 -3
-38 -26 -15 -36 9 -5 9 -7 -1 -12 -30 -14 -12 -40 28 -41 l40 -2 0 97 c0 53
-5 219 -10 367 -5 149 -10 318 -12 377 -2 101 -3 107 -26 117 -12 6 -25 11
-27 11 -3 0 -5 -56 -5 -124z"/>
</g>
</svg>

<path d="M0 2340 c0 -300 3 -460 10 -460 6 0 10 -16 10 -35 0 -19 -4 -35 -10
-35 -7 0 -10 -167 -10 -480 0 -313 3 -480 10 -480 6 0 10 -25 10 -55 0 -30 -4
-55 -10 -55 -13 0 -14 -437 -1 -442 15 -5 19 -138 4 -138 -10 0 -13 -21 -13
-80 l0 -80 1310 0 1310 0 0 1378 c0 757 -3 1387 -6 1400 l-6 22 -333 0 c-257
0 -335 -3 -339 -12 -5 -10 -7 -10 -12 0 -4 9 -207 12 -965 12 l-959 0 0 -460z
m2410 395 c0 -8 -4 -15 -10 -15 -5 0 -10 7 -10 15 0 8 5 15 10 15 6 0 10 -7
10 -15z m-510 -10 c0 -16 -99 -22 -134 -9 -36 14 -11 24 59 24 60 0 75 -3 75
-15z m160 -55 c0 -5 -7 -10 -15 -10 -8 0 -15 5 -15 10 0 6 7 10 15 10 8 0 15
-4 15 -10z m240 -60 c0 -5 -9 -10 -20 -10 -11 0 -20 5 -20 10 0 6 9 10 20 10
11 0 20 -4 20 -10z m210 -15 c0 -8 -4 -15 -10 -15 -5 0 -10 7 -10 15 0 8 5 15
10 15 6 0 10 -7 10 -15z m-1160 -580 c0 -8 -4 -15 -10 -15 -5 0 -10 7 -10 15
0 8 5 15 10 15 6 0 10 -7 10 -15z m10 -40 c0 -8 -7 -15 -15 -15 -8 0 -15 7
-15 15 0 8 7 15 15 15 8 0 15 -7 15 -15z m1160 -195 c0 -5 -7 -10 -15 -10 -8
0 -15 5 -15 10 0 6 7 10 15 10 8 0 15 -4 15 -10z m-505 -132 c35 -16 33 -40
-2 -36 -20 2 -29 9 -31 26 -4 25 -2 26 33 10z m-195 -578 c0 -11 -4 -20 -10
-20 -5 0 -10 9 -10 20 0 11 5 20 10 20 6 0 10 -9 10 -20z m-12 -77 c-5 -25
-28 -28 -28 -4 0 12 6 21 16 21 9 0 14 -7 12 -17z m-510 -82 c3 -8 -1 -12 -9
-9 -7 2 -15 10 -17 17 -3 8 1 12 9 9 7 -2 15 -10 17 -17z m1232 -106 c0 -69
-4 -125 -9 -125 -35 0 -56 32 -28 43 8 4 9 8 2 14 -7 5 -9 44 -7 101 4 82 6
92 23 92 18 0 19 -9 19 -125z m-1022 67 c2 -7 -3 -12 -12 -12 -9 0 -16 7 -16
16 0 17 22 14 28 -4z m872 -237 c0 -8 -4 -15 -10 -15 -5 0 -10 7 -10 15 0 8 5
15 10 15 6 0 10 -7 10 -15z m-2090 -55 c0 -5 -7 -10 -15 -10 -8 0 -15 5 -15
10 0 6 7 10 15 10 8 0 15 -4 15 -10z m180 -100 c0 -5 -4 -10 -9 -10 -5 0 -14
-13 -21 -30 -7 -16 -17 -30 -22 -30 -12 0 -1 49 14 67 12 15 38 17 38 3z m-80
-19 c0 -25 -20 -38 -31 -20 -15 23 -10 39 11 39 13 0 20 -7 20 -19z m2170
-226 c0 -8 -4 -15 -10 -15 -5 0 -10 7 -10 15 0 8 5 15 10 15 6 0 10 -7 10 -15z"/>
</g>
</svg>

</svg>