<svg xmlns="http://www.w3.org/2000/svg" viewBox="0 0 320 320">
<rect width="100%" height="100%" fill="#d1c2a0"/>
<path d="M0 2945 l0 -255 32 2 c49 4 78 -44 78 -132 0 -81 -12 -96 -70 -86
l-40 6 0 -170 c0 -156 8 -204 25 -151 17 55 75 47 101 -14 19 -45 9 -137 -17
-161 -24 -22 -66 -11 -81 21 -6 14 -15 25 -20 25 -4 0 -8 -233 -7 -517 l0
-518 35 -29 c26 -21 39 -26 52 -20 10 5 96 90 193 189 96 99 201 205 233 235
l58 55 207 5 206 5 0 65 c0 36 -4 125 -9 199 l-8 133 89 87 c48 47 157 151
241 230 83 80 152 151 152 158 0 18 -390 407 -440 438 l-40 25 -1 183 c-2 169
-3 201 -7 235 -2 9 -106 12 -482 12 l-480 0 0 -255z m192 -12 c35 -32 10 -127
-37 -139 -35 -9 -54 9 -37 36 6 11 12 37 12 58 0 57 27 77 62 45z m202 -66
c41 -30 -11 -147 -64 -147 -24 0 -37 25 -22 43 6 6 13 30 17 52 12 64 32 79
69 52z m194 -169 c21 -21 13 -49 -22 -84 -37 -37 -84 -46 -106 -19 -13 16 -6
35 14 35 15 0 50 37 59 63 7 20 37 23 55 5z m-274 -121 c28 -21 13 -92 -29
-134 -27 -27 -41 -33 -74 -33 -78 0 -80 73 -4 140 48 42 77 49 107 27z m373
-93 c23 -36 3 -72 -52 -91 -36 -12 -42 -12 -65 5 -33 25 -32 46 5 52 20 3 34
14 43 33 17 34 46 35 69 1z m-286 -114 c29 -16 25 -65 -7 -87 -41 -27 -134
-30 -164 -5 -22 18 -23 22 -12 46 21 47 130 74 183 46z m195 -130 c6 -6 29
-12 53 -14 55 -5 68 -17 53 -51 -21 -46 -134 -24 -148 30 -10 39 17 60 42 35z
m-298 -40 c46 -33 62 -57 62 -94 0 -31 -9 -37 -61 -39 -36 -1 -46 4 -80 40
-39 42 -56 81 -45 108 10 27 78 19 124 -15z m242 -132 c7 -13 28 -37 48 -55
36 -31 36 -32 18 -52 -28 -31 -60 -26 -95 14 -35 40 -39 69 -14 97 21 24 30
23 43 -4z m-127 -182 c38 -46 46 -73 25 -94 -18 -18 -33 -15 -67 14 -33 28
-43 88 -19 112 18 18 20 16 61 -32z m-208 -78 c5 -21 16 -43 23 -50 15 -15 16
-40 0 -56 -48 -48 -123 64 -83 124 22 34 47 27 60 -18z"/>
<path d="M1102 3048 c4 -194 -8 -174 307 -493 139 -141 241 -252 241 -263 0
-26 -13 -40 -115 -125 -49 -41 -162 -145 -250 -230 l-160 -154 -3 -139 c-2
-77 2 -181 8 -232 17 -135 21 -132 -184 -132 -89 0 -198 -3 -243 -6 l-81 -7
-60 -56 c-54 -51 -168 -174 -370 -399 -78 -88 -100 -97 -152 -67 -39 22 -40
21 -40 -90 l0 -105 33 0 c28 0 46 -14 142 -113 61 -62 185 -185 277 -275 l167
-162 123 0 c78 0 165 8 238 20 l115 20 17 -20 c13 -16 28 -20 81 -20 60 0 65
2 71 23 12 50 44 77 90 77 48 0 69 -17 87 -68 6 -18 18 -32 26 -32 24 0 192
121 226 162 34 43 43 46 51 20 8 -25 -16 -71 -70 -131 l-46 -51 112 0 113 0
-47 44 c-41 38 -46 47 -40 72 9 40 11 40 42 17 89 -66 156 -78 204 -38 60 50
160 15 166 -58 l3 -37 81 0 80 0 -6 43 c-10 66 -6 67 188 56 93 -5 178 -7 189
-3 11 3 23 1 27 -6 5 -9 20 -10 46 -6 52 10 153 112 376 382 l38 46 -1 281 -1
282 -153 144 c-84 79 -164 151 -178 159 -22 14 -47 14 -239 0 -123 -8 -220
-11 -230 -6 -16 8 -18 31 -18 260 l0 252 -127 121 c-146 139 -280 256 -336
293 -56 37 -73 76 -51 110 10 15 109 119 220 232 112 113 218 225 236 250 l33
45 -3 133 -3 132 -235 0 c-149 0 -234 -4 -234 -10 0 -5 20 -10 44 -10 33 0 52
-7 81 -30 43 -34 54 -36 100 -14 45 21 70 15 70 -16 0 -21 -9 -29 -59 -48 -81
-32 -158 -32 -229 1 -66 30 -157 96 -157 114 0 7 -4 13 -10 13 -5 0 -10 -10
-10 -22 0 -29 -92 -117 -155 -149 -41 -20 -64 -24 -130 -23 -140 1 -175 15
-142 56 10 13 21 15 62 8 49 -9 50 -8 85 30 19 21 56 47 83 59 69 29 60 41
-33 41 -47 0 -80 -4 -80 -10 0 -5 -9 -10 -20 -10 -11 0 -20 5 -20 10 0 6 -50
10 -131 10 l-131 0 4 -152z m568 -65 c0 -16 9 -48 20 -72 11 -24 20 -58 20
-77 0 -29 -3 -34 -24 -34 -54 0 -85 113 -51 180 19 38 35 38 35 3z m118 -15
c22 -22 15 -114 -11 -144 -13 -15 -29 -24 -35 -20 -11 7 -15 123 -5 159 5 20
33 23 51 5z m21 -1074 c33 -41 37 -88 11 -124 -22 -31 -44 -38 -55 -19 -8 12
-14 150 -8 162 8 15 32 6 52 -19z m-91 -132 c3 -98 2 -102 -18 -102 -40 0 -60
19 -60 55 0 18 -5 35 -11 37 -8 3 -4 19 11 48 30 60 40 71 59 68 13 -3 17 -21
19 -106z m478 -47 c18 -14 18 -16 1 -29 -9 -7 -41 -16 -70 -19 -44 -6 -56 -12
-80 -41 -17 -21 -57 -49 -101 -70 -39 -19 -92 -53 -118 -75 -25 -23 -51 -41
-57 -41 -16 0 -14 66 3 98 28 54 161 152 241 178 57 18 157 18 181 -1z m-754
-74 c75 -10 126 -32 213 -94 52 -37 61 -49 69 -85 13 -62 0 -70 -66 -38 -29
14 -68 37 -87 51 -20 15 -48 25 -66 25 -21 0 -51 13 -85 36 -31 21 -70 38 -94
41 -47 6 -66 18 -66 42 0 32 22 43 70 37 25 -4 75 -10 112 -15z m719 -57 c67
-34 70 -133 5 -173 -42 -26 -59 -26 -106 0 l-38 22 -35 -22 c-20 -12 -70 -49
-113 -81 -93 -72 -104 -74 -104 -20 0 34 6 46 43 79 90 85 228 188 264 198 53
15 51 15 84 -3z m-754 -124 c3 -11 9 -20 14 -20 5 0 9 9 9 20 0 25 -2 26 82
-10 143 -61 233 -158 209 -224 -13 -33 -14 -33 -59 12 -41 41 -152 102 -186
102 -11 0 -32 -12 -47 -26 -64 -61 -179 -29 -179 50 0 52 66 106 143 115 5 1
11 -8 14 -19z m754 -149 c30 -24 18 -39 -42 -52 -28 -7 -53 -22 -73 -43 -19
-21 -48 -38 -76 -46 -51 -14 -99 -41 -147 -83 -38 -33 -53 -29 -53 16 1 42 37
82 131 145 76 51 126 69 225 81 7 0 22 -8 35 -18z m-598 -102 c70 -23 152 -72
161 -95 3 -9 6 -31 6 -50 0 -44 -11 -44 -111 6 -64 33 -87 39 -113 34 -24 -4
-48 1 -81 15 -26 12 -62 21 -79 21 -53 0 -72 35 -39 72 24 27 171 25 256 -3z
m710 -20 c24 -45 18 -153 -11 -229 -38 -96 -171 -240 -223 -240 -29 0 -23 16
29 81 52 64 102 171 102 218 0 20 8 34 25 45 28 19 34 66 13 112 -11 23 -10
28 7 40 26 19 37 14 58 -27z m424 9 c11 -22 17 -58 17 -104 1 -63 -3 -79 -39
-150 -44 -87 -163 -218 -193 -212 -28 5 -24 34 11 85 48 67 65 103 78 165 8
34 24 68 47 97 l36 43 -23 40 c-18 31 -20 42 -10 54 21 26 57 17 76 -18z
m-236 8 c57 -24 74 -50 74 -115 -1 -65 -27 -117 -122 -238 -82 -106 -101 -123
-134 -123 -29 0 -41 22 -19 35 6 4 22 28 35 55 14 27 43 77 65 111 47 73 48
77 15 125 -32 47 -32 88 1 131 28 37 37 39 85 19z m-1374 -103 c68 -32 98
-124 48 -143 -14 -5 -35 -9 -47 -7 -16 1 -25 -6 -32 -25 -10 -29 -1 -42 97
-138 52 -51 54 -75 7 -100 -29 -16 -50 -1 -130 93 -92 108 -125 210 -85 263 8
10 15 27 15 37 0 36 71 47 127 20z m-259 -16 c6 -7 12 -37 14 -67 3 -48 6 -55
33 -70 26 -14 31 -24 35 -67 4 -38 13 -59 37 -87 18 -20 35 -49 38 -64 4 -15
10 -35 16 -44 14 -26 12 -28 -29 -28 -66 0 -161 103 -188 202 -34 129 -4 283
44 225z m424 -66 c5 -44 12 -58 37 -78 26 -21 31 -31 31 -68 0 -37 5 -47 30
-65 17 -12 30 -27 30 -34 0 -7 16 -27 35 -46 60 -58 34 -83 -59 -56 -65 19
-138 93 -158 159 -18 59 -17 209 1 231 26 31 45 15 53 -43z m1686 -167 c18
-12 23 -22 20 -52 -3 -42 -19 -49 -108 -51 -62 -1 -80 10 -80 49 0 66 101 98
168 54z m-2205 -105 c38 -31 48 -64 25 -87 -8 -8 -48 -12 -115 -12 -101 0
-104 1 -115 25 -38 85 121 143 205 74z m2175 -34 c11 -10 -32 -58 -65 -71 -63
-27 -114 6 -93 60 l11 29 71 -7 c40 -3 74 -8 76 -11z m-423 -5 c3 -5 19 -10
34 -10 42 0 125 -85 162 -165 30 -67 41 -186 19 -200 -16 -10 -40 14 -40 38 0
24 -27 57 -47 57 -7 0 -29 33 -47 73 -19 39 -57 97 -85 129 -55 61 -61 74 -33
81 28 8 31 7 37 -3z m-343 -39 c79 -63 158 -204 158 -285 0 -84 -48 -103 -65
-25 -4 16 -18 37 -31 46 -14 9 -34 35 -44 59 -11 23 -45 75 -75 116 -30 40
-55 78 -55 85 0 28 78 30 112 4z m290 -88 c117 -121 151 -207 106 -273 -57
-85 -161 -78 -183 12 -8 31 7 65 43 95 25 21 26 23 10 55 -8 18 -45 65 -82
104 -36 40 -66 75 -66 78 0 3 22 6 48 6 47 0 50 -2 124 -77z m-1102 28 c0 -11
-13 -53 -30 -94 -16 -42 -30 -85 -30 -97 0 -12 -10 -30 -22 -40 -22 -18 -22
-18 -5 -72 22 -70 21 -85 -3 -98 -25 -13 -36 -7 -54 28 -45 90 -15 246 71 360
28 37 73 45 73 13z m-456 -21 c8 -44 -36 -169 -68 -195 -32 -26 -32 -48 -1
-104 30 -52 31 -67 6 -81 -33 -17 -41 -12 -66 43 -37 78 -34 149 9 240 53 116
107 159 120 97z m246 17 c0 -7 -13 -31 -29 -53 -15 -21 -42 -66 -59 -98 l-31
-60 39 -43 c49 -53 53 -96 14 -142 -63 -75 -174 -11 -174 100 0 91 125 293
183 295 15 1 30 4 34 8 11 10 23 7 23 -7z m-585 -17 l18 -20 23 21 c24 23 85
22 108 -1 17 -17 -32 -60 -68 -60 -38 0 -110 40 -114 63 -5 23 11 22 33 -3z
m1293 -232 c51 -36 110 -58 155 -58 16 0 40 -9 54 -20 14 -11 41 -22 62 -26
44 -8 61 -21 61 -45 0 -43 -121 -52 -222 -18 -142 47 -203 108 -178 175 12 30
12 30 68 -8z m-124 -21 c23 -39 -157 -170 -275 -200 -70 -18 -152 -10 -157 16
-7 35 18 49 74 42 50 -6 53 -5 66 22 8 17 26 32 48 40 19 6 73 32 120 57 91
48 107 51 124 23z"/>
<path d="M2454 3148 c3 -29 8 -84 11 -123 3 -38 11 -86 17 -106 13 -46 10 -52
-83 -136 -101 -90 -379 -389 -379 -407 0 -15 98 -106 333 -311 l148 -128 -2
-214 c0 -118 1 -216 4 -219 2 -3 60 0 128 6 68 6 159 13 201 17 l78 6 87 -84
c49 -46 114 -108 146 -138 l57 -55 0 214 0 215 -63 19 c-245 75 -440 278 -504
526 -23 90 -23 274 0 360 26 93 98 234 160 310 88 109 239 209 364 243 35 9
43 15 43 34 l0 23 -376 0 -376 0 6 -52z"/>
<path d="M3111 3086 c-271 -110 -443 -350 -458 -641 -16 -314 183 -602 485
-700 29 -9 55 -15 58 -12 3 2 3 51 2 108 -2 67 -6 97 -11 84 -29 -70 -60 -92
-87 -60 -11 13 -10 23 9 60 21 43 32 49 79 48 9 -1 12 25 12 98 l0 99 -24 -6
c-28 -7 -66 34 -66 72 0 25 43 64 71 64 16 0 19 8 19 50 l0 49 -41 -14 c-80
-29 -129 -10 -129 48 0 48 66 62 133 28 l37 -19 0 46 c0 40 -4 49 -40 79 -22
19 -40 40 -40 47 0 22 40 66 61 66 18 0 19 9 19 220 0 121 -1 220 -2 220 -2 0
-41 -16 -87 -34z m1 -133 c8 -10 20 -37 27 -59 28 -87 -27 -84 -76 3 -18 31
-16 50 5 62 23 14 27 14 44 -6z m-172 -175 c30 -21 36 -41 24 -72 -9 -23 -25
-20 -67 15 -70 58 -30 111 43 57z m-125 -238 c3 -5 16 -10 27 -10 24 0 58 -27
58 -45 0 -17 -68 -29 -84 -15 -8 5 -20 8 -28 5 -27 -11 -43 21 -24 50 17 26
40 33 51 15z m81 -255 c20 -31 13 -41 -35 -49 -22 -3 -46 -9 -54 -12 -10 -3
-20 3 -27 16 -31 59 79 102 116 45z m118 -194 c14 -22 -53 -101 -86 -101 -15
0 -38 19 -38 32 0 4 14 23 31 43 30 34 80 48 93 26z"/>
<path d="M13 343 c-10 -3 -13 -48 -13 -174 l0 -169 206 0 c187 0 205 1 193 16
-27 33 -357 334 -365 333 -5 0 -15 -3 -21 -6z"/>
<path d="M3174 273 c-12 -15 -70 -82 -129 -148 l-109 -120 129 -3 c70 -1 129
-1 132 1 2 2 2 70 1 151 l-3 148 -21 -29z"/>
</g>
</svg>

<path d="M0 2779 c0 -397 1 -421 18 -414 9 5 31 10 49 13 62 8 85 -81 31 -121
-25 -18 -30 -19 -55 -7 -15 8 -31 16 -35 18 -5 2 -8 -84 -8 -192 l0 -196 68 0
c38 0 92 7 121 16 29 8 55 13 58 10 16 -16 -54 -54 -104 -56 -27 0 -104 -6
-130 -9 -10 -1 -13 -75 -13 -333 l1 -333 40 -28 c23 -15 44 -27 49 -25 4 2 75
75 158 163 83 88 175 181 205 207 l55 47 172 10 c94 5 175 13 179 17 5 5 5 43
0 84 -4 41 -8 110 -8 153 -1 98 -4 93 232 313 126 118 177 172 177 188 0 14
-16 34 -48 58 -61 47 -289 271 -327 322 l-30 39 -5 191 -5 191 -57 0 c-64 0
-82 10 -54 31 25 18 151 19 163 2 4 -7 8 -96 8 -198 l0 -185 45 -55 c53 -64
193 -204 309 -308 44 -41 81 -82 81 -91 0 -25 -55 -75 -74 -68 -10 4 -16 1
-16 -8 0 -8 -77 -90 -170 -182 l-170 -168 1 -115 c0 -63 4 -142 8 -175 5 -33
4 -65 0 -71 -6 -7 -78 -13 -190 -17 -144 -5 -187 -10 -207 -23 -44 -29 -191
-175 -309 -307 -63 -70 -119 -127 -125 -127 -6 0 -26 11 -44 25 -18 14 -35 25
-38 25 -3 0 -6 -83 -6 -185 l0 -185 40 -36 c50 -46 50 -56 0 -48 l-40 7 0
-222 c0 -121 2 -221 5 -221 3 0 14 6 26 13 21 13 19 15 177 -156 l53 -57 464
0 463 0 4 41 c2 24 -1 44 -9 51 -11 9 -146 4 -461 -19 l-63 -5 -142 139 c-78
76 -197 189 -265 252 -123 115 -141 141 -99 141 16 0 93 -69 267 -238 l245
-238 195 9 c107 5 234 10 282 11 l86 2 6 -29 c3 -16 6 -49 6 -73 l0 -44 495 0
495 0 -6 85 c-9 116 19 156 90 129 22 -8 20 -24 -3 -24 -33 0 -40 -21 -34
-108 l6 -82 458 0 459 0 0 57 0 56 -23 -21 c-28 -26 -37 -28 -37 -7 0 22 36
59 49 50 8 -4 11 105 11 372 l0 379 -159 147 c-88 81 -185 168 -216 194 l-57
46 -167 -7 c-91 -3 -201 -9 -243 -12 -75 -7 -77 -6 -87 17 -5 13 -16 143 -24
289 l-15 264 -98 94 c-55 52 -128 118 -165 147 -107 87 -229 223 -229 256 0
16 5 29 11 29 7 0 75 -62 153 -139 77 -76 200 -195 271 -264 l130 -126 3 -207
c2 -113 7 -227 11 -253 l6 -46 40 1 c22 1 127 2 233 4 l192 2 38 -26 c20 -14
109 -93 197 -176 88 -82 163 -150 168 -150 4 0 7 93 7 208 l-1 207 -118 110
c-83 78 -127 112 -152 117 -19 4 -103 3 -187 -3 -83 -6 -157 -7 -162 -4 -6 4
-10 77 -10 187 l0 180 -97 97 c-54 53 -149 143 -210 200 -81 73 -113 109 -113
125 0 22 137 166 229 243 19 15 70 68 113 118 l78 90 -2 177 -3 178 -144 0
-143 0 4 -125 c4 -107 2 -125 -11 -130 -9 -3 -25 -20 -37 -38 -26 -39 -472
-507 -484 -507 -15 0 -21 36 -11 63 6 14 47 63 93 109 92 93 232 245 326 356
l62 73 0 100 0 99 -510 0 -510 0 0 -121 c0 -135 -2 -130 104 -249 23 -25 71
-79 107 -120 37 -41 115 -122 173 -180 102 -100 124 -136 90 -147 -14 -5 -392
380 -469 476 l-59 75 2 133 1 133 -355 0 c-368 0 -379 -1 -331 -41 17 -14 39
-18 99 -19 73 0 101 -11 82 -30 -5 -5 -50 -12 -100 -16 l-91 -7 -24 32 c-12
17 -28 31 -35 31 -7 0 -21 11 -32 25 -20 25 -20 25 -191 25 l-171 0 0 -421z
m1655 -586 c4 -13 -6 -29 -37 -58 -24 -22 -97 -89 -162 -150 -114 -106 -146
-129 -146 -106 0 6 5 11 10 11 6 0 10 8 10 17 0 20 38 63 57 63 8 0 16 8 20
18 8 23 212 222 228 222 7 0 16 -8 20 -17z m-941 -35 c-8 -28 -12 -33 -20 -25
-9 8 6 47 17 47 6 0 7 -10 3 -22z m-24 -68 c0 -16 -54 -120 -62 -120 -11 0
-10 5 11 53 10 23 21 50 25 60 6 18 26 24 26 7z m-70 -138 c0 -16 -88 -122
-102 -122 -5 0 -21 -14 -36 -31 -25 -30 -174 -109 -206 -109 -25 0 -19 18 11
32 17 9 27 20 25 31 -4 21 11 22 28 2 11 -13 15 -13 39 3 32 21 57 37 93 60
16 9 28 22 28 27 0 6 9 16 20 23 11 7 20 18 20 26 0 8 11 17 24 20 13 3 26 15
29 26 5 19 27 29 27 12z m682 -77 c0 -8 1 -20 2 -25 1 -6 -17 -29 -39 -51
l-40 -41 -1 -279 c0 -188 -4 -283 -11 -290 -7 -7 -29 -9 -55 -6 -79 11 -373
18 -400 10 -35 -11 -173 -120 -271 -215 -44 -43 -85 -78 -93 -78 -8 0 -14 -6
-14 -13 0 -25 -94 -127 -117 -127 -13 0 -23 3 -23 6 0 26 357 390 436 445 l45
31 215 -1 c119 -1 220 -3 226 -4 8 -1 11 76 9 263 l-3 266 59 62 c61 65 72 72
75 47z m-1052 -187 c0 -8 -57 -28 -81 -28 -17 0 -26 20 -15 31 7 7 96 5 96 -3z
m1800 -532 c5 -14 19 -26 32 -28 13 -2 28 -15 36 -30 8 -17 21 -28 33 -28 10
0 19 -4 19 -10 0 -5 -11 -10 -24 -10 -32 0 -59 -51 -50 -95 7 -37 -19 -72 -78
-108 -20 -12 -75 -50 -123 -85 -52 -38 -91 -60 -96 -55 -5 5 -14 37 -20 71
l-9 62 44 78 c52 90 108 147 152 155 29 5 31 3 40 -31 8 -32 13 -37 39 -37 24
0 31 5 38 32 14 48 3 66 -33 58 -23 -5 -30 -3 -30 8 0 8 -3 29 -6 46 -8 39 21
45 36 7z m-423 -222 c29 -31 53 -63 53 -72 0 -8 6 -23 14 -31 7 -9 21 -38 31
-64 l18 -48 -26 -25 c-14 -13 -31 -24 -37 -24 -13 0 -13 27 0 35 6 3 10 17 10
31 0 13 -4 24 -10 24 -5 0 -10 -7 -10 -16 0 -9 -9 -18 -20 -21 -11 -3 -20 -12
-20 -20 0 -30 -126 30 -187 90 -54 52 -54 71 -3 97 28 14 40 27 40 42 0 32 29
58 64 58 24 0 41 -12 83 -56z m913 -194 c0 -5 -7 -10 -15 -10 -8 0 -15 5 -15
10 0 6 7 10 15 10 8 0 15 -4 15 -10z m-320 -10 c0 -5 -9 -10 -20 -10 -11 0
-20 5 -20 10 0 6 9 10 20 10 11 0 20 -4 20 -10z m-2002 -32 c-6 -17 -36 -34
-45 -24 -4 4 1 14 11 22 24 17 39 18 34 2z m1702 -72 c98 -49 132 -81 128
-121 -2 -24 -8 -31 -30 -33 -20 -2 -32 -13 -44 -38 -18 -39 -45 -44 -94 -19
-29 15 -40 35 -20 35 5 0 7 7 4 15 -4 10 -13 13 -25 10 -12 -4 -19 -1 -19 7 0
7 -14 33 -30 57 -28 42 -41 107 -24 124 15 15 84 -2 154 -37z m-1770 24 c0 -5
-7 -10 -15 -10 -8 0 -15 5 -15 10 0 6 7 10 15 10 8 0 15 -4 15 -10z m850 0 c0
-5 -9 -10 -20 -10 -11 0 -20 5 -20 10 0 6 9 10 20 10 11 0 20 -4 20 -10z m593
-84 c20 0 37 -2 37 -4 0 -12 -32 -61 -43 -65 -17 -6 -60 -77 -48 -77 10 0 71
72 110 128 12 17 31 32 42 32 28 0 23 -14 -16 -44 -23 -18 -38 -40 -45 -67
-13 -49 -80 -119 -113 -119 -26 0 -47 34 -47 75 0 21 -5 25 -28 25 -60 0 -71
57 -19 102 29 26 36 28 82 21 28 -4 67 -7 88 -7z m557 -111 c0 -8 -18 -24 -39
-35 -22 -10 -41 -25 -44 -32 -8 -24 -18 -1 -11 26 4 19 11 25 23 21 10 -3 25
3 36 15 21 24 35 26 35 5z m-120 -95 c0 -5 -9 -10 -20 -10 -11 0 -20 5 -20 10
0 6 9 10 20 10 11 0 20 -4 20 -10z m-670 -15 c0 -8 -4 -15 -10 -15 -5 0 -10 7
-10 15 0 8 5 15 10 15 6 0 10 -7 10 -15z m1467 -121 c2 -5 -10 -25 -26 -44
-25 -31 -30 -33 -45 -20 -15 12 -19 12 -26 0 -5 -8 -12 -11 -15 -8 -9 8 25 45
62 69 29 18 45 19 50 3z m-457 -29 c0 -8 -4 -15 -10 -15 -5 0 -10 7 -10 15 0
8 5 15 10 15 6 0 10 -7 10 -15z m-600 -70 c0 -8 -4 -15 -10 -15 -5 0 -10 7
-10 15 0 8 5 15 10 15 6 0 10 -7 10 -15z"/>
<path d="M2935 3174 c-19 -24 -26 -26 -164 -32 l-144 -7 2 -164 2 -164 -200
-201 c-111 -111 -201 -208 -201 -215 0 -7 91 -102 202 -211 l203 -198 0 -158
0 -159 171 4 170 3 112 -107 112 -107 0 160 0 160 -34 6 c-94 18 -268 137
-333 228 -155 217 -175 476 -53 718 68 135 227 273 368 317 l52 17 0 68 0 68
-122 -1 c-119 0 -124 -1 -143 -25z"/>
<path d="M3105 2995 c-27 -14 -63 -35 -78 -48 l-28 -22 20 -48 c24 -55 24 -57
13 -57 -5 0 -19 18 -31 41 -15 26 -27 37 -33 31 -8 -8 66 -132 79 -132 3 0 24
15 46 33 23 17 55 37 71 42 l31 10 0 85 c0 100 -7 105 -90 65z"/>
<path d="M2892 2837 c-12 -13 -22 -27 -22 -31 0 -5 -11 -21 -25 -38 -14 -16
-25 -35 -25 -42 0 -13 58 -56 93 -69 14 -5 25 -37 12 -37 -2 0 -30 15 -62 34
-57 34 -73 36 -73 12 0 -13 101 -66 128 -66 18 0 107 121 101 137 -13 30 -84
123 -94 123 -6 0 -21 -10 -33 -23z"/>
<path d="M3132 2773 c-103 -69 -172 -178 -191 -301 -26 -166 87 -376 232 -431
l27 -11 0 390 c0 215 -3 390 -7 390 -5 -1 -32 -17 -61 -37z"/>
<path d="M2760 2596 c-5 -13 -12 -52 -16 -85 -6 -58 -6 -61 15 -61 36 0 111
-22 111 -32 0 -5 -28 -6 -71 -2 -66 6 -71 5 -67 -12 3 -17 13 -19 82 -19 l78
0 4 50 c2 28 9 59 15 71 22 43 8 65 -60 90 -78 30 -79 30 -91 0z"/>
<path d="M2743 2344 c-3 -9 2 -50 12 -90 21 -84 22 -84 103 -54 62 24 72 25
72 7 0 -8 -25 -22 -56 -33 -65 -22 -82 -37 -64 -59 10 -12 21 -10 81 20 38 20
69 39 69 43 0 4 -14 45 -30 92 l-29 85 -76 3 c-63 2 -76 0 -82 -14z"/>
<path d="M2910 2117 c-69 -41 -73 -60 -22 -118 l39 -44 28 33 c29 34 63 57 72
48 3 -3 -11 -25 -31 -49 -62 -76 -36 -80 42 -7 55 53 63 69 35 77 -10 2 -33
24 -51 49 -39 53 -43 53 -112 11z"/>
<path d="M3061 1966 c-30 -30 -50 -59 -47 -65 10 -15 81 -51 101 -51 9 0 27
-7 40 -16 37 -24 45 -10 45 76 0 78 -1 80 -30 95 -43 22 -51 20 -109 -39z"/>
<path d="M17 136 c-13 -10 -17 -28 -17 -75 l0 -61 97 0 96 0 -19 23 c-44 53
-119 127 -129 127 -5 0 -18 -7 -28 -14z"/>
</g>
</svg>

<path d="M0 3151 l0 -48 83 -6 c529 -41 874 -520 734 -1017 -80 -282 -372
-525 -652 -541 -59 -4 -60 -4 -63 24 -3 25 -1 27 37 27 202 0 459 161 575 359
84 145 116 375 73 531 -87 318 -367 551 -684 567 l-103 6 0 -37 c0 -20 5 -36
10 -36 6 0 10 -7 10 -15 0 -8 -4 -15 -10 -15 -6 0 -10 -33 -10 -79 0 -70 2
-79 20 -84 26 -7 26 -37 0 -37 -20 0 -20 -7 -20 -280 0 -242 2 -280 15 -280
19 0 19 -24 0 -44 -19 -18 -21 -112 -2 -120 9 -5 9 -7 -1 -12 -19 -9 -17 -184
3 -184 20 0 20 -49 0 -56 -12 -5 -15 -25 -15 -95 0 -82 2 -89 20 -89 21 0 45
-34 35 -50 -3 -6 -17 -10 -31 -10 l-24 0 0 -445 0 -445 25 0 c14 0 25 -4 25
-10 0 -5 -11 -10 -25 -10 l-25 0 0 -310 0 -310 338 1 c278 0 340 3 356 15 25
18 36 18 36 -1 0 -13 47 -15 360 -15 233 0 360 4 360 10 0 6 7 10 15 10 8 0
15 -4 15 -10 0 -6 51 -9 130 -9 l130 1 0 34 c0 19 4 34 9 34 27 0 41 -15 41
-41 l0 -29 624 0 c548 0 625 2 636 15 7 9 18 14 24 12 6 -2 17 9 23 25 10 24
17 28 35 22 34 -10 34 -12 3 -44 l-29 -30 47 0 47 0 0 63 c0 35 -5 68 -12 75
-8 8 -8 15 1 25 8 10 11 74 9 222 l-3 208 -130 -139 c-71 -77 -152 -164 -178
-192 -46 -50 -50 -52 -63 -35 -20 26 -21 24 66 115 44 45 80 85 80 88 0 5 52
62 161 177 58 61 69 78 69 107 l0 34 -46 -1 c-30 -1 -48 3 -51 11 -3 8 10 12
46 12 l51 0 0 1215 0 1215 -615 0 c-403 0 -615 -3 -615 -10 0 -5 -20 -10 -45
-10 -25 0 -45 5 -45 10 0 15 -147 13 -154 -2 -5 -10 -7 -10 -12 0 -7 15 -154
17 -154 2 0 -5 -7 -10 -15 -10 -8 0 -15 5 -15 10 0 16 -47 12 -54 -5 -3 -9
-18 -15 -36 -15 -18 0 -33 6 -36 15 -8 20 -34 19 -50 -2 -13 -17 -15 -17 -28
0 -12 15 -33 17 -190 17 l-176 0 6 -25 c4 -15 2 -25 -5 -25 -6 0 -13 11 -17
25 l-6 25 -469 0 -469 0 0 -49z m2470 4 c0 -8 -4 -15 -10 -15 -5 0 -10 7 -10
15 0 8 5 15 10 15 6 0 10 -7 10 -15z m-746 -42 c11 -70 5 -123 -15 -133 -26
-14 -28 -13 -40 17 -8 21 -6 30 11 48 22 24 27 61 8 68 -10 3 -10 7 1 20 20
26 29 21 35 -20z m-1044 18 c0 -5 10 -11 22 -13 33 -5 35 -28 1 -28 -37 0 -57
14 -50 34 7 17 27 22 27 7z m290 -26 c0 -14 -4 -25 -10 -25 -5 0 -10 11 -10
25 0 14 5 25 10 25 6 0 10 -11 10 -25z m-160 -5 c0 -5 -9 -10 -20 -10 -11 0
-20 5 -20 10 0 6 9 10 20 10 11 0 20 -4 20 -10z m-190 -10 c0 -5 -11 -10 -25
-10 -14 0 -25 5 -25 10 0 6 11 10 25 10 14 0 25 -4 25 -10z m1860 -35 c0 -14
-4 -25 -10 -25 -5 0 -10 11 -10 25 0 14 5 25 10 25 6 0 10 -11 10 -25z m-1510
-20 c0 -8 -4 -15 -10 -15 -5 0 -10 7 -10 15 0 8 5 15 10 15 6 0 10 -7 10 -15z
m-824 -66 c10 -17 -12 -32 -35 -24 -29 9 -27 35 3 35 14 0 28 -5 32 -11z m158
-38 c39 -15 72 -33 73 -38 5 -13 -51 -25 -55 -12 -5 13 -57 39 -79 39 -18 1
-63 32 -63 45 0 10 44 -2 124 -34z m2006 9 c0 -5 -7 -10 -15 -10 -8 0 -15 5
-15 10 0 6 7 10 15 10 8 0 15 -4 15 -10z m-2270 -40 c0 -20 5 -30 15 -30 8 0
15 -7 15 -15 0 -9 -9 -15 -25 -15 -23 0 -25 4 -25 45 0 25 5 45 10 45 6 0 10
-13 10 -30z m40 10 c0 -11 -4 -20 -10 -20 -5 0 -10 9 -10 20 0 11 5 20 10 20
6 0 10 -9 10 -20z m150 -40 c0 -24 -21 -70 -32 -70 -11 0 -10 5 4 51 12 41 28
52 28 19z m211 -12 c35 -28 52 -59 32 -58 -20 1 -55 29 -68 54 -25 47 -19 48
36 4z m-313 -6 c2 -7 -3 -12 -12 -12 -9 0 -16 7 -16 16 0 17 22 14 28 -4z
m1602 -2 c0 -11 -4 -20 -10 -20 -5 0 -10 9 -10 20 0 11 5 20 10 20 6 0 10 -9
10 -20z m-1450 -39 c0 -12 -20 -25 -27 -18 -7 7 6 27 18 27 5 0 9 -4 9 -9z
m-126 -30 c3 -4 23 -11 44 -15 22 -3 45 -13 52 -21 7 -8 21 -15 32 -15 31 0
58 -19 58 -40 0 -28 -20 -25 -66 8 -34 25 -108 45 -203 55 -30 4 -22 26 11 30
60 7 67 7 72 -2z m1566 -1 c0 -9 -31 -30 -44 -30 -3 0 -6 9 -6 20 0 15 7 20
25 20 14 0 25 -4 25 -10z m-1280 -17 c0 -5 -14 -21 -30 -37 -23 -23 -33 -27
-42 -18 -9 9 -6 18 12 37 22 23 60 35 60 18z m112 -10 c10 -9 18 -20 18 -25 0
-14 -22 -9 -36 10 -25 33 -13 44 18 15z m1178 -22 c0 -5 -16 -22 -36 -38 -41
-33 -39 -65 4 -61 20 2 27 -3 32 -22 10 -37 0 -90 -16 -90 -8 0 -14 -4 -14
-10 0 -5 9 -10 20 -10 11 0 20 -7 20 -16 0 -11 -8 -14 -27 -12 -23 2 -29 9
-36 43 -4 22 -15 65 -24 97 -20 73 -13 105 30 117 43 12 47 13 47 2z m-1093
-96 c9 -19 13 -38 8 -42 -4 -5 -10 -2 -12 5 -3 7 -11 19 -19 26 -16 17 -19 46
-4 46 6 0 18 -16 27 -35z m-223 -7 c34 -33 86 -125 86 -151 0 -8 7 -20 15 -27
20 -16 21 -100 1 -100 -8 0 -16 17 -20 48 -8 61 -50 143 -103 203 -24 26 -43
50 -43 53 0 16 34 2 64 -26z m676 -48 c0 -21 -15 -27 -25 -10 -7 12 2 30 16
30 5 0 9 -9 9 -20z m-412 -22 c14 -19 25 -58 15 -58 -8 0 -43 52 -43 64 0 11
17 6 28 -6z m-608 -98 c0 -5 -7 -10 -15 -10 -8 0 -15 5 -15 10 0 6 7 10 15 10
8 0 15 -4 15 -10z m654 -51 c3 -17 6 -54 6 -81 0 -66 -24 -61 -27 6 -1 27 -8
55 -14 62 -9 11 -8 18 1 29 19 22 27 18 34 -16z m-440 -5 c3 -9 6 -20 6 -25 0
-12 -57 -12 -65 1 -3 6 -15 10 -26 10 -35 0 -20 19 19 23 20 2 42 4 48 5 7 1
15 -5 18 -14z m1421 -26 c-9 -30 -9 -40 -1 -59 4 -10 1 -23 -8 -32 -27 -27
-16 -133 15 -142 23 -8 25 -38 3 -56 -21 -17 -42 9 -50 63 -12 75 -23 75 -93
8 -35 -33 -69 -60 -76 -60 -7 0 -20 -11 -29 -25 -16 -24 -46 -35 -46 -16 0 11
63 69 158 145 58 47 72 64 72 86 0 27 21 88 36 103 15 15 26 6 19 -15z m-1035
-38 c0 -6 -27 -10 -60 -10 -33 0 -60 4 -60 10 0 6 27 10 60 10 33 0 60 -4 60
-10z m-132 -55 c11 -43 10 -50 -18 -111 -18 -37 -28 -73 -25 -84 5 -17 -47
-70 -68 -70 -11 0 -8 38 3 45 21 13 61 120 72 191 6 41 14 74 18 74 3 0 11
-20 18 -45z m907 20 c0 -10 -6 -20 -12 -22 -8 -3 -13 5 -13 22 0 17 5 25 13
23 6 -3 12 -13 12 -23z m-1157 -45 c20 0 22 -4 16 -22 -9 -31 -6 -30 -47 -13
-41 17 -53 52 -14 41 12 -3 32 -6 45 -6z m-104 -106 c8 -22 8 -24 -8 -24 -8 0
-16 -6 -19 -12 -2 -8 -8 -9 -13 -4 -5 5 -4 11 4 13 6 3 12 13 12 24 0 23 15
25 24 3z m406 -9 c0 -8 -9 -15 -20 -15 -22 0 -27 15 -7 23 21 9 27 7 27 -8z
m-30 -40 c7 -9 10 -18 7 -21 -7 -8 -47 14 -47 26 0 15 26 12 40 -5z m-410 -55
c0 -11 -4 -20 -10 -20 -5 0 -10 9 -10 20 0 11 5 20 10 20 6 0 10 -9 10 -20z
m190 10 c0 -5 -9 -10 -20 -10 -11 0 -20 5 -20 10 0 6 9 10 20 10 11 0 20 -4
20 -10z m70 -70 c0 -20 -5 -30 -15 -30 -9 0 -18 -6 -21 -14 -3 -8 -34 -28 -70
-46 -71 -35 -70 -32 -49 -90 19 -55 19 -90 0 -90 -15 0 -20 17 -16 54 1 11 -4
34 -10 53 -12 38 1 56 106 142 71 59 75 60 75 21z m1317 12 c36 -23 34 -132
-3 -132 -19 0 -18 25 2 44 14 15 14 16 -4 16 -14 0 -21 9 -26 31 -8 43 3 59
31 41z m-319 -14 c-6 -18 -28 -21 -28 -4 0 9 7 16 16 16 9 0 14 -5 12 -12z
m-883 -28 c10 -11 26 -20 37 -20 10 0 18 -4 18 -10 0 -17 -53 -11 -79 9 -13
10 -21 23 -17 30 10 16 20 14 41 -9z m805 -50 c0 -11 -7 -20 -15 -20 -15 0
-21 21 -8 33 12 13 23 7 23 -13z m-70 -25 c0 -8 -7 -15 -15 -15 -16 0 -20 12
-8 23 11 12 23 8 23 -8z m-1110 -45 c0 -5 -7 -10 -15 -10 -8 0 -15 5 -15 10 0
6 7 10 15 10 8 0 15 -4 15 -10z m1060 2 c0 -5 -11 -19 -25 -32 -15 -14 -25
-35 -25 -52 0 -15 -4 -28 -10 -28 -5 0 -10 -7 -10 -15 0 -8 5 -15 10 -15 6 0
10 -7 10 -15 0 -8 -4 -15 -10 -15 -6 0 -10 -43 -10 -110 0 -71 -4 -110 -11
-110 -7 0 -9 53 -7 164 l3 165 34 35 c34 35 51 44 51 28z m-1120 -52 c0 -27
-4 -50 -10 -50 -5 0 -10 23 -10 50 0 28 5 50 10 50 6 0 10 -22 10 -50z m1218
-13 c3 -14 -4 -17 -32 -17 -39 0 -47 13 -18 29 24 15 46 9 50 -12z m332 -62
c0 -28 -24 -34 -34 -9 -8 20 1 34 20 34 8 0 14 -10 14 -25z m110 6 c0 -12 -20
-25 -27 -18 -7 7 6 27 18 27 5 0 9 -4 9 -9z m30 -12 c0 -6 -5 -19 -11 -31 -14
-26 -19 -126 -6 -131 13 -4 -5 -59 -20 -64 -15 -5 -28 38 -14 46 8 5 7 22 -3
61 -12 47 -12 57 1 77 8 13 19 23 24 23 5 0 9 7 9 15 0 8 5 15 10 15 6 0 10
-5 10 -11z m-800 -19 c0 -11 -4 -20 -10 -20 -5 0 -10 9 -10 20 0 11 5 20 10
20 6 0 10 -9 10 -20z m1050 -109 c0 -13 -29 -35 -37 -28 -7 8 15 37 28 37 5 0
9 -4 9 -9z m-659 -11 c5 0 9 -7 9 -15 0 -18 -9 -19 -32 -1 -22 16 -23 30 -2
22 9 -3 20 -6 25 -6z m-381 -40 c0 -16 -4 -30 -10 -30 -5 0 -10 14 -10 30 0
17 5 30 10 30 6 0 10 -13 10 -30z m518 -29 c24 -5 55 -18 70 -30 33 -26 121
-71 142 -71 8 0 26 -9 40 -20 l25 -19 -22 -23 c-15 -16 -20 -31 -16 -46 3 -13
1 -22 -6 -22 -6 0 -11 6 -11 14 0 7 -7 19 -15 26 -11 9 -14 22 -10 42 4 17 2
28 -4 28 -6 0 -11 -7 -11 -15 0 -23 -18 -18 -64 20 -50 40 -178 97 -200 89
-17 -7 -20 4 -10 31 5 12 13 15 28 10 11 -4 40 -10 64 -14z m-128 -21 c0 -5
-7 -10 -15 -10 -8 0 -15 5 -15 10 0 6 7 10 15 10 8 0 15 -4 15 -10z m-390 -20
c0 -20 -25 -38 -36 -27 -7 6 18 47 28 47 5 0 8 -9 8 -20z m170 -75 c0 -8 -7
-15 -15 -15 -8 0 -15 7 -15 15 0 8 7 15 15 15 8 0 15 -7 15 -15z m90 -10 c0
-16 -6 -25 -15 -25 -15 0 -21 31 -8 43 13 14 23 6 23 -18z m-90 -50 c0 -8 -4
-15 -10 -15 -5 0 -10 7 -10 15 0 8 5 15 10 15 6 0 10 -7 10 -15z m431 -35 c38
-23 76 -52 85 -66 23 -34 53 -32 61 6 9 49 33 37 35 -17 4 -114 -6 -129 -56
-85 -19 17 -58 41 -86 54 -56 26 -66 43 -19 33 28 -6 30 -5 21 12 -6 10 -31
29 -56 41 -25 13 -48 27 -51 31 -6 10 -52 4 -82 -11 -34 -17 -40 -2 -12 28 32
34 69 28 160 -26z m619 -10 c0 -12 -28 -25 -36 -17 -9 9 6 27 22 27 8 0 14 -5
14 -10z m-1103 -12 c-3 -10 -57 -13 -218 -15 -118 -1 -229 -4 -247 -7 -23 -3
-32 -1 -29 7 5 17 89 23 310 25 147 2 188 -1 184 -10z m279 3 c5 -6 31 -11 58
-13 28 -2 51 -8 54 -15 7 -23 -140 -17 -166 6 -12 10 -22 21 -22 25 0 10 65 7
76 -3z m-846 -97 c0 -3 -7 -12 -15 -21 -20 -19 -32 -10 -14 11 14 15 29 21 29
10z m850 -44 c0 -5 -7 -10 -15 -10 -8 0 -15 5 -15 10 0 6 7 10 15 10 8 0 15
-4 15 -10z m1260 -5 c0 -8 -4 -15 -10 -15 -5 0 -10 7 -10 15 0 8 5 15 10 15 6
0 10 -7 10 -15z m-1190 -25 c0 -5 -7 -10 -15 -10 -8 0 -15 5 -15 10 0 6 7 10
15 10 8 0 15 -4 15 -10z m105 -2 c14 -6 25 -15 25 -20 0 -11 -28 -10 -35 2 -3
6 -15 10 -26 10 -10 0 -19 5 -19 10 0 13 23 13 55 -2z m-605 -23 c0 -8 -4 -15
-10 -15 -5 0 -10 7 -10 15 0 8 5 15 10 15 6 0 10 -7 10 -15z m223 -79 c-6 -83
9 -163 40 -215 19 -31 19 -34 3 -43 -11 -6 -15 -16 -11 -28 3 -10 1 -21 -5
-25 -6 -3 -8 -10 -5 -15 6 -10 66 6 75 20 4 7 19 5 43 -5 46 -19 49 -39 5 -32
-18 3 -52 0 -76 -6 -32 -9 -50 -8 -74 1 -36 13 -66 -1 -38 -18 8 -5 11 -12 8
-16 -11 -10 -38 22 -38 45 0 30 -36 22 -78 -16 -16 -15 -32 -17 -32 -4 0 5 9
13 21 16 24 8 20 31 -5 27 -17 -3 -20 2 -30 49 -3 15 -22 46 -41 69 -28 33
-35 51 -35 84 0 23 -5 47 -12 54 -8 8 -8 15 2 27 20 24 25 19 39 -36 9 -34 31
-72 67 -117 41 -51 52 -73 49 -92 -3 -14 -2 -19 1 -12 8 17 21 15 53 -9 39
-29 72 -22 83 16 7 27 4 33 -34 67 -24 20 -40 40 -36 44 4 4 14 1 23 -6 23
-19 27 -8 19 49 -7 56 -18 62 -68 36 -48 -25 -63 -11 -31 31 12 15 16 16 24 5
6 -10 10 -10 16 -1 4 6 18 16 32 21 26 10 29 44 8 92 -6 14 -2 17 18 17 25 0
25 0 20 -74z m267 55 c0 -5 9 -13 20 -16 24 -7 27 -25 5 -25 -9 0 -18 7 -21
15 -4 8 -12 15 -20 15 -8 0 -14 5 -14 10 0 6 7 10 15 10 8 0 15 -4 15 -9z
m-180 -31 c0 -16 -4 -30 -10 -30 -5 0 -10 14 -10 30 0 17 5 30 10 30 6 0 10
-13 10 -30z m498 -22 c-4 -64 -17 -67 -52 -15 -32 47 -32 51 -1 43 18 -5 25
-2 25 9 0 8 7 15 16 15 12 0 14 -10 12 -52z m402 7 c0 -16 -6 -25 -15 -25 -15
0 -21 31 -8 43 13 14 23 6 23 -18z m-1302 -34 c3 -8 -1 -12 -9 -9 -7 2 -15 10
-17 17 -3 8 1 12 9 9 7 -2 15 -10 17 -17z m-758 -10 c0 -9 -24 -21 -41 -21
-16 0 -10 18 9 23 28 8 32 7 32 -2z m1230 -31 c0 -5 -7 -10 -15 -10 -8 0 -15
5 -15 10 0 6 7 10 15 10 8 0 15 -4 15 -10z m430 -20 c0 -11 -7 -20 -15 -20 -8
0 -15 -7 -15 -15 0 -8 -4 -15 -10 -15 -15 0 -12 57 3 63 25 11 37 6 37 -13z
m-1470 1 c0 -12 -20 -25 -27 -18 -7 7 6 27 18 27 5 0 9 -4 9 -9z m818 -41 c-1
-16 -5 -30 -10 -30 -12 0 -21 27 -14 45 10 26 25 16 24 -15z m-858 -9 c0 -12
-20 -25 -27 -18 -7 7 6 27 18 27 5 0 9 -4 9 -9z m1500 -33 c0 -7 -5 -20 -10
-28 -12 -20 -33 0 -24 23 7 20 34 23 34 5z m1008 -30 c3 -13 -3 -18 -22 -18
-27 0 -41 14 -31 31 10 16 49 6 53 -13z m-512 -13 c9 -22 -13 -43 -48 -47 -61
-6 -39 -23 30 -23 54 -1 70 3 83 18 13 17 18 18 37 6 28 -18 28 -30 0 -49 -40
-26 -67 -29 -106 -12 -27 11 -59 15 -117 12 -194 -9 -239 -6 -243 14 -4 17 2
18 77 14 57 -3 87 -1 99 8 11 8 31 11 55 7 30 -4 37 -2 37 11 0 9 -4 16 -10
16 -5 0 -10 7 -10 15 0 18 9 19 45 5 20 -8 27 -7 31 5 8 19 33 19 40 0z m304
-25 c0 -5 -7 -10 -15 -10 -8 0 -15 5 -15 10 0 6 7 10 15 10 8 0 15 -4 15 -10z
m430 -5 c0 -14 -69 -40 -79 -28 -3 3 -1 8 5 10 6 2 20 10 30 18 25 19 44 19
44 0z m88 3 c-7 -20 -68 -23 -68 -4 0 12 10 16 36 16 24 0 34 -4 32 -12z
m-2818 -5 c0 -15 -34 -43 -52 -43 -28 0 -19 33 12 41 35 10 40 10 40 2z m1430
-13 c0 -11 -6 -29 -12 -40 -10 -16 -10 -22 -1 -28 20 -12 28 -62 10 -62 -8 0
-23 -3 -33 -7 -14 -5 -16 -3 -11 11 5 13 1 19 -13 23 -21 6 -27 28 -10 38 6 3
10 14 10 24 0 10 9 21 20 24 11 3 20 12 20 21 0 9 5 16 10 16 6 0 10 -9 10
-20z m1153 10 c33 0 47 -4 47 -14 0 -11 -14 -13 -65 -8 l-66 5 -12 -32 c-14
-37 -27 -40 -27 -6 0 20 -6 27 -30 32 -16 3 -30 9 -30 14 0 9 83 18 115 13 11
-2 41 -4 68 -4z m-403 -25 c0 -16 -27 -32 -37 -22 -3 4 -3 13 0 22 8 20 37 20
37 0z m210 5 c0 -5 -7 -10 -15 -10 -8 0 -15 5 -15 10 0 6 7 10 15 10 8 0 15
-4 15 -10z m-110 -15 c0 -8 -9 -15 -20 -15 -11 0 -20 7 -20 15 0 8 9 15 20 15
11 0 20 -7 20 -15z m-750 -6 c0 -18 -20 -49 -31 -49 -6 0 -9 7 -5 15 3 9 0 15
-9 15 -16 0 -20 12 -8 23 10 11 53 8 53 -4z m-1620 -23 c0 -16 -18 -31 -27
-22 -8 8 5 36 17 36 5 0 10 -6 10 -14z m740 -1 c6 -8 9 -19 5 -25 -4 -6 4 -10
19 -10 32 0 34 -12 4 -25 -13 -6 -27 -24 -32 -42 -5 -18 -12 -33 -16 -33 -13
0 -22 52 -11 63 17 17 13 29 -9 22 -33 -10 -100 13 -100 35 0 21 15 27 25 10
10 -16 72 -12 79 5 7 19 20 19 36 0z m920 5 c0 -5 -7 -10 -15 -10 -8 0 -15 5
-15 10 0 6 7 10 15 10 8 0 15 -4 15 -10z m-1300 -25 c0 -8 -7 -15 -15 -15 -8
0 -15 7 -15 15 0 8 7 15 15 15 8 0 15 -7 15 -15z m1716 -9 c22 -17 11 -35 -13
-20 -19 12 -29 34 -16 34 5 0 18 -6 29 -14z m-1978 -10 c22 -14 14 -39 -10
-31 -41 12 -93 11 -103 -1 -14 -18 -65 -29 -65 -15 0 6 7 11 15 11 8 0 15 4
15 10 0 29 111 49 148 26z m1312 0 c0 -14 -29 -31 -38 -22 -2 3 -2 12 1 21 8
19 37 20 37 1z m-1070 -6 c13 -8 13 -11 0 -23 -24 -23 -150 -11 -150 14 0 17
8 19 68 19 37 0 74 -5 82 -10z m48 -31 c1 -38 -22 -34 -26 4 -2 18 1 27 11 27
9 0 14 -11 15 -31z m116 25 c9 -3 16 -12 16 -20 0 -16 -26 -19 -35 -4 -3 6
-19 10 -36 10 -16 0 -29 5 -29 10 0 11 59 14 84 4z m-354 -14 c0 -5 -7 -10
-15 -10 -8 0 -15 5 -15 10 0 6 7 10 15 10 8 0 15 -4 15 -10z m1433 -22 c4 -12
4 -24 1 -27 -6 -7 -24 20 -24 37 0 21 17 13 23 -10z m-185 -15 c2 -8 -5 -13
-17 -13 -12 0 -21 6 -21 16 0 18 31 15 38 -3z m82 -32 c0 -12 -20 -25 -27 -18
-7 7 6 27 18 27 5 0 9 -4 9 -9z m28 -28 c-24 -49 -32 -63 -40 -63 -13 0 -9 24
8 48 14 20 41 32 32 15z m876 -13 c7 0 17 -14 22 -32 6 -19 21 -38 38 -48 33
-17 54 -45 43 -56 -3 -4 -15 4 -25 16 -24 29 -52 21 -52 -15 0 -38 -17 -30
-25 12 -4 20 -15 54 -26 75 -23 45 -24 62 -3 54 9 -3 21 -6 28 -6z m-814 -35
c0 -14 -4 -25 -10 -25 -5 0 -17 -16 -26 -35 -23 -48 -37 -45 -29 8 11 66 65
110 65 52z m675 -16 c4 -11 4 -23 0 -27 -7 -7 -25 17 -25 36 0 20 18 14 25 -9z
m465 -8 c0 -24 -18 -37 -31 -24 -13 13 -1 43 17 43 8 0 14 -9 14 -19z m-1970
-28 c0 -14 -19 -38 -25 -32 -8 8 5 39 16 39 5 0 9 -3 9 -7z m1410 -28 c0 -14
-4 -25 -10 -25 -5 0 -10 11 -10 25 0 14 5 25 10 25 6 0 10 -11 10 -25z m-570
-26 c0 -23 -4 -30 -16 -27 -27 5 -42 37 -24 48 27 18 40 11 40 -21z m-1300 12
c0 -12 -20 -25 -27 -18 -7 7 6 27 18 27 5 0 9 -4 9 -9z m1904 -28 c-9 -35 -8
-35 -28 -27 -21 8 -20 23 2 40 26 20 33 17 26 -13z m-1634 2 c0 -8 -4 -15 -10
-15 -5 0 -10 7 -10 15 0 8 5 15 10 15 6 0 10 -7 10 -15z m-662 -22 c2 -8 -5
-13 -17 -13 -12 0 -21 6 -21 16 0 18 31 15 38 -3z m822 -18 c0 -8 -4 -15 -10
-15 -5 0 -10 7 -10 15 0 8 5 15 10 15 6 0 10 -7 10 -15z m894 -48 c0 -9 -1
-33 -2 -52 -2 -38 -11 -44 -28 -17 -17 26 -6 94 15 90 9 -2 16 -11 15 -21z
m963 -57 c2 -8 -6 -26 -17 -39 -17 -19 -23 -21 -35 -11 -12 10 -15 10 -15 0 0
-9 -12 -11 -42 -6 -24 4 -88 8 -143 9 l-100 2 -3 27 -3 26 83 -5 c46 -3 89
-10 96 -16 8 -6 12 -6 12 2 0 7 22 11 59 11 33 0 63 5 66 11 10 14 39 7 42
-11z m-1329 -2 c-3 -7 -11 -13 -18 -13 -7 0 -15 6 -17 13 -3 7 4 12 17 12 13
0 20 -5 18 -12z m708 -54 c-3 -9 -6 -20 -6 -25 0 -16 -67 -10 -74 6 -3 8 -12
15 -21 15 -8 0 -15 5 -15 10 0 6 27 10 61 10 52 0 60 -2 55 -16z m984 -4 c0
-13 -7 -20 -20 -20 -23 0 -26 10 -8 28 18 18 28 15 28 -8z m-1350 -25 c0 -8
-4 -15 -10 -15 -5 0 -10 7 -10 15 0 8 5 15 10 15 6 0 10 -7 10 -15z m-342 -3
c6 -2 12 -10 12 -17 0 -8 -15 -11 -52 -8 -73 6 -98 12 -98 24 0 10 108 11 138
1z m1382 -32 c0 -5 -11 -10 -25 -10 -14 0 -25 5 -25 10 0 6 11 10 25 10 14 0
25 -4 25 -10z m-590 -60 c0 -11 -4 -20 -10 -20 -5 0 -10 9 -10 20 0 11 5 20
10 20 6 0 10 -9 10 -20z"/>
</g>
</svg>

</svg>