<svg xmlns="http://www.w3.org/2000/svg" viewBox="0 0 320 320">
<rect width="100%" height="100%" fill="#d6b99e"/>
<path d="M0 2942 c0 -246 1 -258 20 -270 11 -7 20 -18 20 -26 0 -7 6 -19 14
-25 7 -6 21 -33 30 -59 10 -26 21 -54 25 -62 27 -52 84 -298 95 -410 2 -19 17
-58 35 -86 17 -28 31 -57 31 -63 0 -7 27 -38 61 -71 33 -33 58 -64 54 -70 -9
-15 -24 -12 -52 10 -14 11 -40 20 -57 20 -41 0 -76 10 -76 22 0 5 15 6 34 3
45 -9 50 3 21 58 -14 25 -25 51 -25 57 0 7 -8 24 -18 38 -21 31 -47 126 -62
227 -15 105 -29 162 -58 240 -26 72 -68 145 -83 145 -5 0 -9 -179 -9 -397 l0
-398 26 -12 c14 -6 32 -9 40 -6 9 3 14 -2 14 -15 0 -11 3 -27 6 -36 9 -23 -23
-32 -45 -12 -37 34 -41 22 -41 -135 l0 -151 26 6 c19 5 25 3 22 -6 -3 -7 -14
-14 -26 -16 -22 -3 -22 -6 -22 -184 0 -108 4 -178 9 -176 6 2 20 19 33 38 29
43 58 52 58 17 0 -14 -6 -30 -14 -36 -8 -6 -24 -34 -35 -62 -12 -27 -29 -53
-36 -56 -20 -7 -21 -83 -1 -83 35 0 163 34 179 48 9 8 17 23 17 34 0 10 7 18
15 18 26 0 153 130 210 216 62 93 77 131 68 175 -7 37 17 48 53 24 23 -15 26
-22 22 -59 -3 -23 -12 -57 -21 -76 -22 -50 -30 -80 -20 -80 15 0 73 59 73 74
0 8 6 19 13 23 21 14 47 94 62 196 4 25 11 37 22 37 10 0 14 -6 10 -19 -2 -10
-1 -25 4 -34 13 -22 -31 -155 -63 -191 -9 -11 -42 -61 -64 -98 -6 -10 -19 -27
-29 -38 -29 -32 4 -24 52 13 197 152 252 204 234 216 -22 14 -5 41 24 39 22
-2 42 15 113 91 48 52 126 135 173 185 189 199 236 270 205 305 -19 21 -11 54
21 97 17 23 22 39 17 61 -4 18 -1 33 5 37 6 4 11 20 11 36 0 16 5 32 10 35 7
4 6 13 -1 27 -6 11 -9 34 -6 52 2 17 0 44 -4 60 -6 21 -5 32 4 38 8 5 9 8 0 8
-17 0 -27 58 -13 75 9 10 7 16 -6 23 -13 7 -18 23 -18 61 -1 31 -5 51 -12 51
-10 0 -24 42 -29 85 -1 6 -9 28 -19 50 -9 22 -20 54 -23 70 -7 35 -84 185
-119 232 -13 17 -24 35 -24 40 0 4 -12 20 -25 36 -24 27 -25 27 -150 27 -134
0 -140 -3 -105 -47 24 -31 26 -65 4 -98 -18 -27 -40 -34 -31 -10 9 22 -14 30
-29 10 -11 -15 -16 -16 -30 -5 -19 17 -12 67 12 85 15 10 15 13 0 27 -9 9 -16
21 -16 27 0 8 -121 11 -395 11 l-395 0 0 -258z m1000 -64 c38 -62 22 -124 -36
-142 -32 -10 -75 42 -81 98 -7 58 7 76 58 76 34 0 42 -5 59 -32z m99 -284 c22
-28 27 -54 11 -54 -5 0 -10 -4 -10 -10 0 -5 7 -7 15 -4 8 4 15 2 15 -4 0 -14
-24 -22 -49 -15 -14 3 -20 12 -18 27 1 15 -3 20 -16 18 -29 -5 -33 28 -6 49
31 24 34 24 58 -7z m50 -307 c36 -18 76 -90 49 -86 -7 1 -26 -3 -42 -10 -16
-6 -36 -9 -44 -6 -21 8 -8 30 17 29 22 -1 30 25 9 27 -7 1 -18 2 -24 3 -17 2
-46 35 -39 46 8 14 45 12 74 -3z m-231 -320 c2 -10 -4 -20 -13 -23 -21 -8 -25
-3 -18 24 6 25 26 24 31 -1z m132 2 c15 -28 4 -38 -15 -13 -17 22 -19 34 -5
34 5 0 14 -9 20 -21z m-350 -389 c0 -11 -4 -20 -9 -20 -14 0 -23 18 -16 30 10
17 25 11 25 -10z m-50 -2 c0 -14 -147 -55 -157 -44 -10 9 -3 12 72 34 86 25
85 25 85 10z m-170 -48 c0 -5 -9 -10 -20 -10 -11 0 -20 5 -20 10 0 6 9 10 20
10 11 0 20 -4 20 -10z m-50 -20 c0 -9 -26 -15 -107 -24 -47 -5 -59 10 -15 20
15 3 32 7 37 9 23 8 85 4 85 -5z m-200 -30 c0 -5 -12 -10 -27 -10 -16 0 -52
-3 -80 -6 -35 -5 -53 -3 -53 4 0 6 17 13 38 15 76 8 122 7 122 -3z"/>
<path d="M1195 3181 c3 -11 27 -50 52 -88 118 -176 217 -514 212 -727 -1 -45
1 -87 4 -93 4 -6 2 -47 -5 -92 -14 -103 -4 -120 42 -67 41 46 77 96 89 121 5
11 18 29 30 39 11 11 21 24 21 29 0 6 8 20 19 31 10 12 33 48 51 81 38 68 48
82 114 156 37 41 49 50 56 39 5 -8 12 -11 17 -7 4 5 1 12 -6 17 -11 6 -8 16
15 47 16 21 40 58 54 83 18 35 100 150 126 179 2 2 12 -7 23 -20 l20 -24 22
21 c27 28 16 48 -22 40 -16 -3 -29 -3 -29 0 0 17 112 116 125 110 8 -3 15 -1
15 3 0 5 -6 11 -12 14 -8 3 5 23 35 54 26 27 47 54 47 61 0 18 -406 17 -414 0
-5 -10 -7 -10 -12 0 -3 7 -24 12 -49 12 -37 0 -44 -3 -54 -28 -7 -17 -25 -33
-44 -40 -18 -6 -45 -23 -62 -38 -27 -23 -30 -30 -27 -78 3 -41 0 -55 -16 -70
-23 -20 -57 -18 -58 4 0 8 -3 24 -6 35 -4 11 -4 38 0 60 7 37 10 40 51 47 52
9 58 13 42 32 -17 20 -4 38 20 31 25 -8 24 6 -1 28 -18 15 -47 17 -256 17
-228 0 -235 -1 -229 -19z m575 -156 c0 -8 -4 -15 -10 -15 -5 0 -10 7 -10 15 0
8 5 15 10 15 6 0 10 -7 10 -15z m-242 -39 c3 -20 0 -27 -10 -24 -7 3 -14 17
-16 32 -3 20 0 27 10 24 7 -3 14 -17 16 -32z m222 5 c0 -13 -29 -35 -37 -28
-7 8 15 37 28 37 5 0 9 -4 9 -9z m-169 -96 c11 -24 23 -46 28 -49 9 -6 45 31
54 57 7 20 27 23 27 4 0 -7 -12 -29 -26 -50 -14 -21 -31 -55 -38 -75 -15 -42
-56 -60 -56 -24 0 11 6 22 14 25 16 6 11 41 -8 67 -34 46 -47 90 -25 90 5 0
19 -20 30 -45z"/>
<path d="M2340 3192 c0 -4 5 -13 11 -19 16 -16 1 -35 -22 -28 -15 5 -19 2 -17
-17 3 -18 -1 -23 -19 -21 -16 2 -21 -2 -17 -12 3 -8 -8 -32 -25 -54 -17 -21
-34 -54 -37 -73 -4 -18 -16 -44 -28 -58 -12 -14 -28 -38 -34 -53 -10 -22 -17
-27 -33 -22 -14 5 -28 0 -42 -13 -12 -11 -31 -22 -42 -24 -15 -3 -19 -10 -17
-30 2 -18 -4 -30 -17 -37 -12 -7 -17 -18 -14 -29 3 -12 -7 -30 -26 -50 -20
-19 -31 -41 -31 -59 0 -21 -9 -34 -38 -53 -49 -33 -72 -54 -86 -79 -6 -11 -30
-48 -53 -81 l-43 -60 83 5 c45 4 102 10 127 15 25 4 77 13 115 19 119 17 267
42 323 53 38 8 56 8 63 1 17 -17 2 -32 -39 -38 -20 -3 -44 -10 -52 -14 -24
-13 -159 -34 -175 -27 -8 3 -17 1 -20 -4 -4 -6 -24 -10 -45 -10 -22 0 -49 -4
-62 -9 -13 -5 -66 -16 -118 -26 -106 -19 -147 -31 -172 -53 -15 -13 -20 -13
-42 2 -32 21 -46 20 -46 -2 0 -9 -20 -42 -45 -72 l-45 -55 28 -6 c30 -6 159 5
232 20 25 5 87 12 137 15 92 6 93 5 110 -20 16 -25 16 -27 0 -39 -20 -14 -116
-30 -272 -46 -60 -5 -135 -13 -166 -16 -35 -3 -64 -1 -78 7 -21 10 -27 8 -57
-21 -18 -17 -38 -45 -43 -61 l-10 -29 97 6 c53 3 118 11 144 16 33 8 52 7 68
-1 31 -17 21 -43 -20 -52 -19 -4 -91 -22 -158 -39 -123 -32 -124 -32 -158 -14
l-35 18 -34 -33 c-19 -19 -35 -42 -35 -52 0 -20 -11 -23 -27 -7 -14 14 -33 3
-33 -19 0 -9 -38 -58 -84 -108 -64 -68 -84 -96 -80 -111 6 -22 -36 -63 -64
-63 -15 0 -152 -135 -152 -150 0 -6 23 -10 50 -10 28 0 50 -4 50 -10 0 -6 -26
-10 -59 -10 -79 0 -94 -7 -176 -82 -38 -36 -99 -81 -135 -101 -98 -55 -98 -55
-80 -67 8 -5 33 -10 54 -10 22 0 47 -6 55 -13 28 -24 233 -64 298 -58 17 1 45
-4 61 -13 22 -12 32 -12 41 -3 10 9 14 8 22 -6 6 -9 19 -17 29 -17 23 0 26
-10 8 -28 -14 -14 -194 -17 -202 -3 -3 5 -20 11 -38 14 -18 3 -64 13 -103 22
-94 21 -182 36 -228 38 -28 2 -43 9 -57 27 -15 20 -21 23 -31 13 -7 -7 -21
-13 -30 -13 -9 0 -22 -6 -29 -14 -6 -8 -23 -16 -37 -18 -37 -4 -40 -25 -4 -33
17 -3 41 -15 54 -25 13 -10 42 -26 65 -35 23 -10 42 -22 42 -27 0 -6 -8 -7
-17 -3 -10 4 -49 18 -86 31 -38 14 -79 32 -92 40 -35 23 -81 15 -77 -12 4 -28
-10 -32 -123 -40 l-95 -7 0 -106 c0 -97 2 -107 21 -119 17 -11 23 -11 36 0 11
9 55 13 142 14 129 1 169 10 200 48 13 15 41 22 41 11 0 -3 -12 -17 -27 -31
-27 -23 -28 -24 -9 -39 41 -31 103 -8 89 33 -5 13 19 17 31 5 13 -13 101 -32
124 -26 12 3 28 1 35 -4 15 -11 123 -10 160 1 22 7 27 5 27 -8 0 -9 5 -16 10
-16 6 0 10 6 10 14 0 17 58 13 97 -6 17 -8 26 -8 38 2 18 15 109 7 132 -12 13
-10 18 -8 33 10 22 26 50 28 96 6 33 -16 36 -16 48 2 12 16 19 16 52 7 22 -6
59 -10 83 -8 23 2 54 -1 68 -8 18 -8 29 -8 44 1 11 7 25 9 31 6 14 -9 459 -7
538 1 48 6 60 3 92 -18 26 -18 39 -22 47 -14 7 7 16 6 29 -6 22 -20 52 -22 52
-4 0 9 18 13 63 13 34 1 105 4 157 7 180 13 225 13 239 3 9 -7 16 -6 25 5 8
11 27 16 66 16 30 0 89 1 130 3 41 2 92 0 113 -5 l37 -7 0 186 c0 110 -4 185
-9 182 -28 -18 -54 45 -28 70 4 4 7 15 7 25 0 9 7 19 15 23 13 5 15 47 15 297
0 292 0 292 -20 274 -31 -28 -37 -8 -7 23 l27 28 0 381 c0 210 -3 384 -7 386
-5 3 -62 12 -128 22 -126 18 -158 32 -135 59 17 22 49 20 85 -4 17 -11 46 -20
65 -20 40 0 30 17 -14 22 -35 4 -48 28 -16 28 12 0 33 9 47 20 22 17 23 21 9
26 -9 4 -25 -1 -35 -10 -10 -9 -23 -16 -29 -16 -7 0 -21 -6 -32 -12 -16 -10
-23 -10 -36 4 -24 24 -12 43 37 57 24 6 60 18 79 26 19 7 52 16 73 20 l37 6 0
232 c-1 177 -4 236 -14 250 -12 16 -44 17 -404 17 -302 0 -392 -3 -396 -12 -5
-10 -7 -10 -12 0 -6 13 -34 17 -34 4z m398 -554 c-2 -18 -11 -24 -38 -26 -19
-2 -41 -8 -47 -14 -9 -7 -17 -7 -27 1 -7 6 -22 10 -32 10 -38 -4 -74 1 -74 10
0 5 12 11 28 14 15 4 45 10 67 15 22 6 59 10 83 11 40 1 43 -1 40 -21z m-328
-28 c0 -5 -7 -10 -15 -10 -8 0 -15 5 -15 10 0 6 7 10 15 10 8 0 15 -4 15 -10z
m-400 -40 c0 -5 -7 -10 -15 -10 -8 0 -15 5 -15 10 0 6 7 10 15 10 8 0 15 -4
15 -10z m750 -69 c0 -13 -29 -35 -37 -28 -7 8 15 37 28 37 5 0 9 -4 9 -9z
m-230 -280 c0 -13 -29 -35 -37 -28 -7 8 15 37 28 37 5 0 9 -4 9 -9z m-90 -61
c0 -5 -9 -14 -20 -20 -11 -6 -20 -17 -20 -25 0 -8 -7 -15 -15 -15 -19 0 -19 4
0 40 15 28 55 43 55 20z m-90 -99 c0 -13 -60 -55 -67 -47 -9 8 37 56 54 56 7
0 13 -4 13 -9z m-130 -90 c0 -5 -20 -18 -45 -30 -24 -11 -52 -33 -62 -48 -10
-16 -25 -35 -33 -43 -9 -8 -19 -23 -23 -32 -7 -19 -37 -25 -37 -9 0 6 8 16 18
23 10 7 22 29 26 48 9 48 42 80 82 80 18 0 36 5 39 10 8 12 35 13 35 1z m490
-242 c0 -8 13 -9 39 -5 25 4 42 2 47 -5 9 -14 -16 -30 -37 -23 -9 2 -24 -2
-32 -11 -19 -19 -27 -19 -27 -1 0 8 -5 16 -12 18 -6 2 -9 12 -5 21 7 19 27 23
27 6z m-1317 -5 c15 -3 27 -9 27 -14 0 -11 -124 -19 -128 -8 -2 4 -10 8 -18 8
-8 0 -14 4 -14 9 0 10 90 14 133 5z m67 -13 c0 -12 -20 -25 -27 -18 -7 7 6 27
18 27 5 0 9 -4 9 -9z m1190 -9 c0 -21 -18 -42 -37 -42 -16 0 -17 32 -1 48 18
18 38 15 38 -6z m-980 -2 c0 -5 -7 -10 -15 -10 -8 0 -15 5 -15 10 0 6 7 10 15
10 8 0 15 -4 15 -10z m1394 -137 c-13 -52 -32 -71 -80 -77 -24 -3 -64 -9 -89
-12 -64 -9 -56 10 11 24 42 8 67 21 100 52 52 47 67 51 58 13z m-864 8 c0 -5
-24 -11 -52 -14 -29 -3 -63 -8 -75 -12 -17 -6 -23 -3 -23 8 0 9 8 18 18 20 32
9 132 7 132 -2z m62 -38 c19 -17 24 -43 9 -43 -8 0 -41 43 -41 55 0 10 13 5
32 -12z m445 -15 c50 -28 48 -27 36 -39 -7 -7 -23 -2 -51 18 -65 44 -53 60 15
21z m-1447 2 c0 -5 -9 -10 -20 -10 -11 0 -20 5 -20 10 0 6 9 10 20 10 11 0 20
-4 20 -10z m755 -46 c0 -46 2 -49 28 -52 33 -4 35 -17 5 -25 -36 -10 -68 28
-68 78 0 23 3 45 7 49 16 16 28 -4 28 -50z m-855 36 c0 -5 -7 -10 -15 -10 -8
0 -15 5 -15 10 0 6 7 10 15 10 8 0 15 -4 15 -10z m1648 -38 c2 -7 -3 -12 -12
-12 -9 0 -16 7 -16 16 0 17 22 14 28 -4z m-700 -39 c-5 -25 -28 -28 -28 -4 0
12 6 21 16 21 9 0 14 -7 12 -17z m-488 -13 c0 -5 -7 -10 -15 -10 -8 0 -15 5
-15 10 0 6 7 10 15 10 8 0 15 -4 15 -10z m730 -39 c0 -57 -26 -92 -93 -121
-50 -22 -167 -38 -167 -22 0 5 26 13 58 17 112 13 182 67 182 139 0 20 5 36
10 36 6 0 10 -22 10 -49z m-640 9 c8 -5 12 -12 9 -15 -8 -8 -39 5 -39 16 0 11
11 11 30 -1z m130 -60 c0 -5 -7 -10 -15 -10 -8 0 -15 5 -15 10 0 6 7 10 15 10
8 0 15 -4 15 -10z m80 -30 c8 -5 12 -12 9 -15 -8 -8 -39 5 -39 16 0 11 11 11
30 -1z m-860 -30 c8 -5 12 -11 10 -13 -9 -7 -90 5 -90 14 0 12 61 11 80 -1z
m969 -6 c2 -2 2 -7 -2 -10 -9 -9 -57 5 -57 16 0 9 47 4 59 -6z m-1159 -129
c179 -32 195 -35 270 -50 228 -46 246 -53 218 -81 -14 -14 -18 -14 -46 0 -17
9 -61 21 -99 26 -37 6 -98 16 -134 23 -37 8 -94 12 -127 10 -34 -2 -63 1 -67
7 -3 5 -16 10 -27 10 -12 0 -30 7 -40 16 -14 14 -20 14 -33 4 -18 -15 -64 -5
-72 15 -8 22 17 47 41 42 12 -3 64 -13 116 -22z m1058 -55 c39 -11 81 -20 92
-20 21 0 27 -14 10 -25 -5 -3 -31 1 -57 9 -26 8 -69 20 -95 27 -27 8 -48 17
-48 21 0 12 19 10 98 -12z m136 -76 c4 -9 4 -19 2 -21 -8 -8 -26 8 -26 23 0
19 16 18 24 -2z m-34 -62 c0 -10 -73 -52 -89 -52 -19 0 -12 30 7 30 9 1 28 7
42 15 29 16 40 18 40 7z m-994 -113 c10 -17 -13 -36 -27 -22 -12 12 -4 33 11
33 5 0 12 -5 16 -11z m384 -14 c0 -12 -13 -14 -66 -12 -58 2 -68 -1 -84 -20
-23 -29 -26 -29 -34 4 -10 36 5 43 102 43 66 0 82 -3 82 -15z m250 5 c0 -5 -7
-10 -15 -10 -8 0 -15 5 -15 10 0 6 7 10 15 10 8 0 15 -4 15 -10z m-1140 -10
c8 -5 12 -12 9 -15 -8 -8 -39 5 -39 16 0 11 11 11 30 -1z m1090 0 c0 -5 -7
-10 -15 -10 -8 0 -15 5 -15 10 0 6 7 10 15 10 8 0 15 -4 15 -10z m-100 -10 c0
-5 -13 -10 -30 -10 -16 0 -30 5 -30 10 0 6 14 10 30 10 17 0 30 -4 30 -10z
m-841 -36 c2 -2 2 -7 -2 -10 -9 -9 -67 6 -67 18 0 9 58 2 69 -8z m551 -2 c0
-8 -122 -32 -129 -26 -8 7 8 16 41 24 45 11 88 12 88 2z m-382 -25 c18 -14 15
-30 -5 -22 -10 4 -48 11 -85 17 -38 6 -68 15 -68 20 0 12 140 -1 158 -15z"/>
<path d="M3173 2658 c-36 -38 -28 -63 11 -35 11 8 16 22 14 36 l-3 23 -22 -24z"/>
<path d="M1862 2581 c4 -13 18 -16 19 -4 0 4 -5 9 -11 12 -7 2 -11 -2 -8 -8z"/>
<path d="M3130 2530 c0 -5 11 -10 25 -10 14 0 25 5 25 10 0 6 -11 10 -25 10
-14 0 -25 -4 -25 -10z"/>
<path d="M429 1084 c-18 -20 -45 -41 -59 -46 -14 -6 -20 -12 -14 -14 13 -6
154 63 154 75 0 8 -23 21 -39 21 -4 0 -23 -16 -42 -36z"/>
<path d="M3120 575 c7 -8 16 -12 21 -9 13 8 1 24 -18 24 -13 0 -13 -3 -3 -15z"/>
<path d="M776 541 c-4 -5 -2 -12 3 -15 5 -4 12 -2 15 3 4 5 2 12 -3 15 -5 4
-12 2 -15 -3z"/>
<path d="M2440 539 c-14 -6 -116 -13 -227 -16 -112 -3 -203 -10 -203 -14 0 -5
18 -9 40 -9 23 0 40 -5 40 -11 0 -7 7 -17 17 -24 23 -17 10 -49 -18 -42 -12 3
-46 2 -77 -3 -41 -7 -60 -6 -71 3 -9 7 -29 11 -46 10 -16 -2 -64 -6 -105 -9
-41 -3 -79 -10 -84 -15 -14 -13 -50 -11 -63 2 -16 16 -74 15 -276 -5 l-178
-18 -45 44 c-49 48 -53 58 -24 58 13 0 22 -9 26 -25 7 -28 19 -32 28 -9 15 38
8 45 -41 42 -41 -3 -48 -6 -51 -25 -2 -13 1 -23 7 -23 6 0 11 -7 11 -15 0 -8
-5 -15 -11 -15 -7 0 -17 -6 -23 -14 -6 -8 -35 -17 -64 -21 -48 -6 -53 -5 -50
11 2 11 -4 20 -14 22 -11 2 -18 -3 -18 -12 0 -20 -18 -30 -33 -17 -7 5 -23 8
-35 4 -24 -6 -44 23 -24 36 16 9 25 58 13 65 -6 4 -24 -7 -41 -24 -30 -31 -70
-40 -70 -16 0 7 10 17 23 20 19 6 20 7 5 16 -23 14 -48 2 -48 -24 0 -29 -36
-62 -82 -74 -31 -9 -50 -6 -117 18 -45 15 -81 24 -81 19 0 -5 -7 -9 -15 -9
-20 0 -19 17 1 28 13 7 13 10 1 21 -18 14 -32 -1 -32 -34 0 -15 -6 -19 -24
-17 -33 3 -37 9 -24 31 6 9 9 29 6 44 -6 28 -17 35 -28 17 -4 -6 -16 -8 -28
-4 -20 6 -20 5 -8 -10 8 -9 11 -20 7 -24 -4 -4 -16 3 -26 15 -10 13 -21 23
-25 23 -15 0 -35 -30 -35 -53 0 -14 -7 -28 -16 -31 -22 -9 -24 -8 -24 9 0 8 4
15 9 15 5 0 7 8 4 19 -3 10 0 22 5 25 12 7 4 46 -9 46 -5 0 -9 -11 -9 -25 0
-14 -4 -25 -9 -25 -5 0 -13 -9 -16 -20 -3 -11 -13 -20 -21 -20 -10 0 -13 6
-10 18 5 15 -2 17 -49 18 -55 1 -55 1 -55 -29 0 -17 8 -36 17 -43 17 -13 17
-15 1 -28 -16 -12 -18 -34 -18 -200 l0 -186 303 1 c166 1 294 3 285 6 -30 8
-21 48 17 82 41 36 74 40 82 11 3 -11 9 -20 14 -20 14 0 11 -28 -3 -34 -10 -5
-10 -7 0 -12 6 -3 12 -12 12 -20 0 -12 122 -14 839 -14 462 0 846 3 855 6 9 3
16 13 16 20 0 8 7 17 15 20 8 3 17 21 21 40 5 28 11 34 31 34 21 0 23 -3 17
-22 -4 -13 -10 -25 -14 -28 -4 -3 -10 -15 -14 -27 -4 -13 -12 -23 -17 -23 -5
0 -9 -4 -9 -10 0 -6 125 -10 355 -10 291 0 355 2 355 13 0 8 9 22 20 32 19 17
20 29 18 174 l-3 156 -84 -4 c-66 -2 -82 0 -79 10 3 8 20 18 40 24 19 5 42 16
51 23 9 8 21 11 26 8 20 -13 51 18 51 50 l0 31 -70 -1 c-50 0 -70 -4 -70 -13
0 -19 -9 -16 -31 10 -11 14 -18 17 -19 8 0 -9 -8 -12 -25 -9 -14 3 -28 1 -31
-3 -8 -14 -27 -11 -21 4 3 9 -22 12 -111 11 -114 -2 -118 -3 -137 -39 -3 -6
-7 -5 -11 3 -3 6 -13 12 -21 12 -9 0 -22 8 -29 18 -12 16 -14 16 -29 -5 -18
-26 -40 -31 -31 -8 4 10 -1 15 -15 15 -16 0 -20 -5 -17 -27 3 -25 7 -28 36
-27 42 2 43 -21 1 -30 -53 -10 -59 -8 -59 24 0 18 -5 30 -13 30 -9 0 -12 -9
-9 -29 4 -28 3 -28 -37 -27 -35 1 -40 3 -35 19 4 13 0 20 -15 24 -34 9 -24 20
22 26 58 8 100 25 92 37 -8 13 -42 12 -75 -1z m-74 -50 c3 -6 0 -15 -7 -20
-10 -6 -6 -9 14 -9 30 0 35 -11 12 -30 -10 -8 -31 -11 -60 -7 -25 4 -47 2 -50
-3 -11 -17 -25 -11 -25 11 0 15 4 19 16 15 10 -4 14 -1 11 6 -2 7 -21 13 -43
14 -57 1 -64 3 -64 15 0 8 24 10 75 7 41 -2 75 0 75 4 0 12 38 9 46 -3z m361
-24 c-1 -43 -27 -49 -27 -7 0 16 3 32 7 35 14 15 21 5 20 -28z m138 15 c13
-14 21 -17 26 -9 11 18 29 1 29 -28 0 -19 -4 -24 -16 -19 -9 3 -27 6 -40 6
-15 0 -24 6 -24 15 0 13 -7 15 -35 9 -38 -7 -41 -4 -23 26 17 26 60 26 83 0z
m235 -6 c0 -9 -5 -14 -12 -12 -18 6 -21 28 -4 28 9 0 16 -7 16 -16z m-2860
-10 c0 -11 6 -13 19 -9 23 7 39 -14 20 -26 -34 -21 -75 -2 -64 30 7 24 25 28
25 5z m2768 4 c-5 -15 -48 -24 -48 -10 0 14 12 22 33 22 10 0 17 -5 15 -12z
m-2950 -17 c3 -8 -1 -12 -9 -9 -7 2 -15 10 -17 17 -3 8 1 12 9 9 7 -2 15 -10
17 -17z m667 -151 c29 -31 27 -54 -3 -32 -9 7 -29 18 -44 25 -16 6 -28 17 -28
24 0 24 46 13 75 -17z m1880 -100 c-6 -17 -2 -20 29 -20 36 0 44 -11 28 -38
-5 -7 -15 -10 -23 -7 -9 3 -36 -10 -62 -31 -54 -42 -74 -38 -32 6 26 28 29 58
3 32 -7 -7 -16 -12 -20 -12 -17 0 -7 23 25 55 37 39 62 46 52 15z"/>
<path d="M1830 505 c0 -18 -36 -20 -44 -2 -3 9 -9 7 -19 -6 -13 -16 -20 -16
-63 -6 -87 21 -143 20 -155 -2 -10 -20 -5 -39 12 -39 5 0 9 7 9 15 0 9 9 14
23 14 12 -1 30 2 40 6 11 4 17 3 17 -5 0 -8 8 -10 24 -6 12 3 26 2 30 -2 4 -4
38 -7 75 -8 38 -1 74 -4 80 -8 14 -9 14 4 -1 37 -14 29 -28 36 -28 12z"/>
<path d="M1880 510 c0 -5 5 -10 10 -10 6 0 10 -6 10 -14 0 -8 7 -17 16 -20 26
-10 144 -7 144 4 0 6 -27 10 -60 10 -49 0 -61 3 -70 20 -11 20 -50 28 -50 10z"/>
<path d="M410 503 c8 -3 21 -10 28 -16 8 -7 12 -5 12 7 0 11 -8 16 -27 15 -16
0 -22 -3 -13 -6z"/>
<path d="M518 502 c-26 -3 -41 -22 -18 -22 6 0 10 -4 10 -10 0 -5 -12 -10 -26
-10 -15 0 -23 -4 -19 -11 4 -6 21 -9 39 -8 51 3 66 0 66 -15 0 -12 6 -12 33
-4 77 26 101 48 52 48 -16 0 -25 6 -25 15 0 8 -5 15 -11 15 -6 0 -8 -8 -4 -19
4 -14 -1 -20 -22 -24 -25 -5 -42 5 -43 25 0 4 10 8 23 10 21 3 21 4 -3 8 -14
3 -37 4 -52 2z"/>
<path d="M1256 501 c-4 -6 -16 -11 -27 -11 -16 0 -18 -5 -13 -25 5 -21 3 -25
-15 -25 -12 0 -21 -4 -21 -10 0 -19 81 -11 112 11 25 18 32 19 39 8 6 -10 9
-8 9 10 0 21 3 23 30 18 27 -6 41 5 22 17 -19 12 -130 18 -136 7z m52 -28 c2
-9 -7 -13 -27 -13 -31 0 -42 14 -18 23 19 8 40 3 45 -10z"/>
<path d="M1468 496 c-23 -17 -23 -22 2 -29 11 -3 20 -1 20 3 0 5 9 12 20 15
11 3 20 11 20 16 0 13 -42 10 -62 -5z"/>
<path d="M942 479 c7 -13 14 -26 15 -28 2 -2 9 2 17 8 8 7 20 10 26 6 5 -3 10
1 10 9 0 9 -8 16 -17 16 -10 0 -29 3 -41 7 -23 6 -23 5 -10 -18z"/>
<path d="M1035 490 c-3 -5 1 -10 9 -10 9 0 16 5 16 10 0 6 -4 10 -9 10 -6 0
-13 -4 -16 -10z"/>
<path d="M883 475 c-8 -22 6 -33 17 -15 13 20 12 30 0 30 -6 0 -13 -7 -17 -15z"/>
<path d="M637 56 c-4 -15 -6 -31 -2 -34 10 -10 16 6 13 35 l-3 28 -8 -29z"/>
</g>
</svg>

<path d="M0 2905 c0 -168 4 -295 9 -295 11 0 40 -49 70 -120 29 -66 35 -91 61
-235 27 -145 50 -236 67 -256 7 -8 13 -21 13 -29 0 -7 10 -28 21 -47 29 -47
16 -58 -51 -44 -57 12 -78 7 -59 -15 10 -12 8 -18 -7 -29 -22 -16 -90 -20 -99
-5 -3 6 -10 10 -16 10 -14 0 -11 -77 4 -84 10 -5 10 -7 0 -12 -19 -8 -19 -418
-1 -411 8 2 12 17 10 36 -3 36 4 38 34 10 12 -11 36 -21 53 -21 23 -1 31 -6
31 -20 0 -10 5 -18 10 -18 20 0 9 -29 -12 -33 -14 -3 -8 -5 15 -6 50 -1 45
-22 -8 -36 -26 -6 -44 -19 -54 -37 -18 -32 -46 -39 -36 -9 4 14 -1 20 -22 24
-33 6 -43 0 -23 -14 11 -8 12 -12 3 -16 -21 -8 -15 -33 7 -33 26 0 26 -20 0
-27 -19 -5 -20 -14 -20 -248 0 -185 3 -245 13 -249 9 -5 9 -7 0 -12 -10 -4
-13 -77 -13 -315 l0 -309 184 0 c138 0 186 3 190 13 5 9 7 9 12 0 9 -21 595
-18 588 2 -4 10 0 15 15 15 12 0 21 -6 21 -15 0 -13 128 -15 1095 -15 l1095 0
0 169 c0 129 -3 169 -12 168 -35 -1 -58 4 -58 13 0 6 16 10 35 10 l35 0 0
1044 c0 821 -3 1045 -13 1049 -9 4 -9 7 0 14 20 14 17 733 -3 733 -17 0 -18
-12 -2 -28 6 -6 8 -15 4 -19 -4 -5 -18 4 -31 20 l-24 27 -589 0 c-515 0 -591
-2 -596 -15 -3 -8 -10 -15 -16 -15 -5 0 -10 7 -10 15 0 20 -535 23 -544 3 -5
-10 -7 -10 -12 0 -4 9 -40 12 -129 12 -89 0 -125 -3 -129 -12 -5 -10 -7 -10
-12 0 -4 8 -36 12 -109 12 -73 0 -105 -4 -109 -12 -5 -10 -7 -10 -12 0 -4 9
-101 12 -435 12 l-429 0 0 -295z m1400 250 c0 -8 -4 -15 -10 -15 -5 0 -10 7
-10 15 0 8 5 15 10 15 6 0 10 -7 10 -15z m1400 -35 c0 -5 -11 -10 -25 -10 -14
0 -25 5 -25 10 0 6 11 10 25 10 14 0 25 -4 25 -10z m-1363 -15 c8 -22 -6 -33
-17 -15 -13 20 -12 30 0 30 6 0 13 -7 17 -15z m1293 5 c0 -5 -10 -10 -22 -10
-13 0 -41 -7 -63 -15 -46 -16 -65 -18 -65 -7 0 11 87 40 123 41 15 1 27 -3 27
-9z m-160 -40 c0 -5 -3 -10 -7 -10 -5 0 -18 -3 -30 -6 -13 -4 -23 -2 -23 4 0
10 19 18 48 21 6 0 12 -3 12 -9z m370 -5 c0 -8 -4 -15 -10 -15 -5 0 -10 7 -10
15 0 8 5 15 10 15 6 0 10 -7 10 -15z m-644 -7 c-3 -7 -9 -21 -12 -30 -4 -10
-15 -18 -25 -18 -25 0 -24 8 3 37 23 25 43 31 34 11z m-1076 -29 c15 -28 4
-38 -15 -13 -17 22 -19 34 -5 34 5 0 14 -9 20 -21z m610 12 c0 -13 -29 -35
-37 -28 -7 8 15 37 28 37 5 0 9 -4 9 -9z m650 0 c0 -10 -42 -23 -49 -15 -7 6
20 24 37 24 6 0 12 -4 12 -9z m-996 -27 c9 -22 -3 -32 -14 -14 -12 19 -12 30
-1 30 5 0 12 -7 15 -16z m936 7 c0 -12 -39 -25 -48 -16 -7 7 17 25 36 25 6 0
12 -4 12 -9z m-1560 -21 c0 -5 -7 -10 -15 -10 -8 0 -15 5 -15 10 0 6 7 10 15
10 8 0 15 -4 15 -10z m930 -9 c0 -13 -29 -35 -37 -28 -7 8 15 37 28 37 5 0 9
-4 9 -9z m550 -1 c0 -12 -50 -33 -58 -25 -7 7 29 34 46 35 6 0 12 -5 12 -10z
m-110 -69 c0 -13 -29 -35 -37 -28 -7 8 15 37 28 37 5 0 9 -4 9 -9z m-940 -46
c0 -8 -4 -15 -10 -15 -5 0 -10 7 -10 15 0 8 5 15 10 15 6 0 10 -7 10 -15z
m-246 -31 c9 -22 8 -24 -9 -24 -8 0 -15 9 -15 20 0 24 15 27 24 4z m636 -11
c-1 -14 -30 -47 -36 -41 -8 8 14 48 26 48 6 0 10 -3 10 -7z m370 -102 c0 -17
-27 -37 -37 -27 -7 7 17 46 27 46 6 0 10 -9 10 -19z m630 -41 c0 -5 -7 -10
-15 -10 -8 0 -15 5 -15 10 0 6 7 10 15 10 8 0 15 -4 15 -10z m-90 -19 c0 -19
-32 -34 -78 -36 -26 -1 -57 -5 -70 -9 -13 -4 -22 -3 -22 3 0 5 24 16 53 24 97
28 117 31 117 18z m-605 -28 c-4 -10 -10 -28 -12 -40 -3 -13 -12 -23 -19 -23
-18 0 -18 5 2 46 16 34 43 49 29 17z m945 -62 c0 -12 -20 -25 -27 -18 -7 7 6
27 18 27 5 0 9 -4 9 -9z m-2800 -56 c0 -8 -4 -15 -10 -15 -5 0 -10 7 -10 15 0
8 5 15 10 15 6 0 10 -7 10 -15z m2790 0 c0 -8 -4 -15 -10 -15 -5 0 -10 7 -10
15 0 8 5 15 10 15 6 0 10 -7 10 -15z m150 -45 c0 -5 -16 -10 -35 -10 -19 0
-35 5 -35 10 0 6 16 10 35 10 19 0 35 -4 35 -10z m-903 -15 c37 -18 47 -39 33
-66 -13 -23 -62 -26 -83 -5 -12 12 -27 13 -78 6 -88 -13 -111 -12 -107 2 6 17
58 29 141 35 61 4 67 7 62 24 -8 23 -6 23 32 4z m963 5 c0 -5 -7 -10 -15 -10
-8 0 -15 5 -15 10 0 6 7 10 15 10 8 0 15 -4 15 -10z m-1650 -15 c0 -8 -4 -15
-10 -15 -5 0 -10 7 -10 15 0 8 5 15 10 15 6 0 10 -7 10 -15z m1050 -6 c0 -14
-44 -39 -67 -39 -28 0 -28 4 -5 29 17 18 72 26 72 10z m-2366 -15 c9 -22 -3
-32 -14 -14 -12 19 -12 30 -1 30 5 0 12 -7 15 -16z m2482 2 c17 -17 11 -37
-17 -54 -24 -15 -39 -8 -21 10 7 7 12 22 12 35 0 27 6 29 26 9z m-318 -14 c2
-7 -7 -12 -22 -12 -27 0 -35 15 -13 23 17 7 30 3 35 -11z m-2148 -47 c0 -8 -4
-15 -10 -15 -5 0 -10 7 -10 15 0 8 5 15 10 15 6 0 10 -7 10 -15z m2300 6 c0
-8 -137 -61 -159 -61 -20 0 -11 18 12 23 12 3 45 14 72 25 56 23 75 26 75 13z
m-2290 -56 c0 -8 -4 -15 -10 -15 -5 0 -10 7 -10 15 0 8 5 15 10 15 6 0 10 -7
10 -15z m2090 -13 c0 -12 -39 -30 -80 -37 -19 -4 -72 -15 -117 -26 -46 -11
-87 -17 -93 -14 -21 13 -9 25 25 25 33 0 73 15 86 33 3 4 36 10 74 12 37 3 70
7 73 10 8 8 32 6 32 -3z m280 -20 c0 -4 -5 -13 -12 -20 -7 -7 -16 -12 -20 -12
-13 0 -9 28 5 33 19 8 27 8 27 -1z m-90 -82 c0 -5 -7 -10 -15 -10 -8 0 -15 5
-15 10 0 6 7 10 15 10 8 0 15 -4 15 -10z m-2260 -15 c0 -8 -4 -15 -10 -15 -5
0 -10 7 -10 15 0 8 5 15 10 15 6 0 10 -7 10 -15z m1270 -30 c0 -8 -4 -15 -10
-15 -5 0 -10 7 -10 15 0 8 5 15 10 15 6 0 10 -7 10 -15z m-1260 -20 c0 -8 -4
-15 -10 -15 -5 0 -10 7 -10 15 0 8 5 15 10 15 6 0 10 -7 10 -15z m1270 -31 c0
-9 -7 -14 -17 -12 -25 5 -28 28 -4 28 12 0 21 -6 21 -16z m-1222 -113 c3 -8
-1 -12 -9 -9 -7 2 -15 10 -17 17 -3 8 1 12 9 9 7 -2 15 -10 17 -17z m60 -90
c3 -8 -1 -12 -9 -9 -7 2 -15 10 -17 17 -3 8 1 12 9 9 7 -2 15 -10 17 -17z
m1542 0 c0 -16 -12 -41 -20 -41 -4 0 -7 11 -7 25 0 15 5 25 13 25 8 0 14 -4
14 -9z m310 0 c0 -10 -30 -24 -37 -17 -3 3 -2 9 2 15 8 13 35 15 35 2z m-270
-16 c0 -8 7 -15 15 -15 10 0 15 -10 15 -34 0 -30 -4 -35 -30 -41 -25 -5 -30
-11 -25 -26 5 -14 1 -19 -14 -19 -15 0 -21 6 -21 22 0 20 -1 21 -20 3 -23 -20
-39 -13 -21 9 9 11 9 15 0 18 -20 7 0 28 27 28 15 0 24 -6 24 -15 0 -17 16
-20 25 -5 3 6 1 10 -4 10 -16 0 -13 27 3 33 9 4 12 14 9 26 -3 12 -1 21 6 21
6 0 11 -7 11 -15z m100 6 c0 -10 -24 -21 -46 -21 -8 0 -14 4 -14 9 0 8 10 12
53 20 4 0 7 -3 7 -8z m-1110 -36 c0 -14 -4 -25 -10 -25 -5 0 -10 11 -10 25 0
14 5 25 10 25 6 0 10 -11 10 -25z m900 5 c0 -12 -28 -25 -36 -17 -9 9 6 27 22
27 8 0 14 -5 14 -10z m238 -22 c-6 -18 -28 -21 -28 -4 0 9 7 16 16 16 9 0 14
-5 12 -12z m-1128 -33 c0 -8 -4 -15 -10 -15 -5 0 -10 7 -10 15 0 8 5 15 10 15
6 0 10 -7 10 -15z m760 -71 c0 -9 -5 -14 -12 -12 -18 6 -21 28 -4 28 9 0 16
-7 16 -16z m-725 -15 c6 -19 0 -38 -9 -28 -10 12 -16 49 -7 49 5 0 13 -9 16
-21z m835 -49 c0 -5 -9 -10 -20 -10 -11 0 -20 5 -20 10 0 6 9 10 20 10 11 0
20 -4 20 -10z m-540 -8 c0 -11 -51 -55 -57 -49 -2 3 6 17 18 31 23 26 39 33
39 18z m160 -2 c0 -5 -7 -10 -15 -10 -8 0 -15 5 -15 10 0 6 7 10 15 10 8 0 15
-4 15 -10z m81 -16 c12 -32 14 -30 -38 -37 -44 -5 -53 2 -29 23 8 6 12 18 9
26 -4 10 2 14 21 14 19 0 29 -7 37 -26z m1279 16 c0 -5 -7 -10 -15 -10 -8 0
-15 5 -15 10 0 6 7 10 15 10 8 0 15 -4 15 -10z m-1188 -12 c0 -7 2 -17 2 -23
1 -5 5 -16 10 -23 12 -19 -2 -28 -22 -15 -9 6 -16 20 -15 32 2 16 -3 21 -22
21 -14 0 -25 5 -25 10 0 15 70 12 72 -2z m68 -28 c0 -5 -9 -10 -20 -10 -11 0
-20 5 -20 10 0 6 9 10 20 10 11 0 20 -4 20 -10z m-110 -10 c0 -5 -7 -10 -15
-10 -8 0 -15 5 -15 10 0 6 7 10 15 10 8 0 15 -4 15 -10z m360 -10 c0 -5 -9
-10 -20 -10 -11 0 -20 5 -20 10 0 6 9 10 20 10 11 0 20 -4 20 -10z m1240 -18
c0 -14 -49 -56 -57 -49 -3 4 4 18 17 32 24 25 40 32 40 17z m-260 -32 c0 -5
-7 -10 -15 -10 -8 0 -15 5 -15 10 0 6 7 10 15 10 8 0 15 -4 15 -10z m-1740 -7
c0 -5 -4 -15 -10 -23 -11 -18 -25 -7 -17 15 6 15 27 21 27 8z m1000 -13 c0 -5
-9 -10 -20 -10 -11 0 -20 5 -20 10 0 6 9 10 20 10 11 0 20 -4 20 -10z m-1150
-27 c0 -10 -32 -43 -42 -43 -4 0 -8 11 -8 25 0 20 5 25 25 25 14 0 25 -3 25
-7z m230 -23 c0 -5 -9 -10 -20 -10 -11 0 -20 5 -20 10 0 6 9 10 20 10 11 0 20
-4 20 -10z m120 0 c0 -5 -9 -10 -20 -10 -11 0 -20 5 -20 10 0 6 9 10 20 10 11
0 20 -4 20 -10z m-756 -16 c4 -9 5 -18 3 -20 -5 -6 -57 20 -57 29 0 14 48 7
54 -9z m846 -4 c0 -5 -7 -10 -15 -10 -8 0 -15 5 -15 10 0 6 7 10 15 10 8 0 15
-4 15 -10z m-381 -27 c0 -13 -59 -56 -66 -49 -9 8 37 56 54 56 7 0 13 -3 12
-7z m1811 -3 c0 -5 -9 -10 -20 -10 -11 0 -20 5 -20 10 0 6 9 10 20 10 11 0 20
-4 20 -10z m-790 -60 c0 -5 -7 -10 -15 -10 -8 0 -15 5 -15 10 0 6 7 10 15 10
8 0 15 -4 15 -10z m-1790 -40 c0 -5 -7 -10 -15 -10 -8 0 -15 5 -15 10 0 6 7
10 15 10 8 0 15 -4 15 -10z m450 4 c0 -3 -7 -22 -17 -41 -14 -30 -14 -36 -2
-44 11 -8 6 -17 -26 -44 -58 -51 -75 -41 -35 20 11 17 30 49 41 73 18 36 39
56 39 36z m224 -10 c8 -22 9 -21 -20 -28 -35 -9 -41 -1 -19 24 22 24 31 25 39
4z m76 -34 c0 -5 -7 -10 -15 -10 -8 0 -15 5 -15 10 0 6 7 10 15 10 8 0 15 -4
15 -10z m-790 -9 c0 -12 -20 -25 -27 -18 -7 7 6 27 18 27 5 0 9 -4 9 -9z m160
-1 c0 -5 -9 -10 -20 -10 -11 0 -20 5 -20 10 0 6 9 10 20 10 11 0 20 -4 20 -10z
m770 -10 c0 -5 -7 -10 -15 -10 -8 0 -15 5 -15 10 0 6 7 10 15 10 8 0 15 -4 15
-10z m-840 -10 c0 -5 -9 -10 -20 -10 -11 0 -20 5 -20 10 0 6 9 10 20 10 11 0
20 -4 20 -10z m-100 -50 c13 -25 5 -40 -20 -40 -24 0 -33 15 -25 40 8 26 31
26 45 0z m88 8 c-6 -18 -28 -21 -28 -4 0 9 7 16 16 16 9 0 14 -5 12 -12z
m1742 2 c0 -5 -7 -10 -15 -10 -8 0 -15 5 -15 10 0 6 7 10 15 10 8 0 15 -4 15
-10z m-816 -15 c2 -6 29 -12 60 -13 31 -1 65 -6 75 -12 11 -5 35 -10 54 -10
20 0 37 -6 40 -13 3 -9 16 -12 36 -9 34 5 91 -14 91 -31 0 -6 -27 -8 -77 -4
-93 8 -183 27 -183 39 0 4 -18 8 -40 8 -31 0 -38 -3 -34 -15 7 -18 -12 -20
-20 -2 -5 10 -7 10 -12 0 -9 -19 -31 -15 -37 6 -3 14 -17 21 -51 26 -55 9 -76
-4 -76 -46 0 -33 -5 -35 -48 -13 -34 16 -42 34 -17 34 8 0 18 12 21 28 4 15 9
30 11 34 7 13 202 6 207 -7z m-1074 -25 c0 -21 -15 -27 -25 -10 -7 12 2 30 16
30 5 0 9 -9 9 -20z m2990 -35 c0 -3 -9 -15 -20 -27 -11 -12 -20 -34 -20 -49 0
-15 -3 -34 -6 -43 -12 -31 -24 -16 -24 29 0 35 6 52 25 70 22 23 45 33 45 20z
m-1872 -68 c3 -15 -1 -17 -25 -11 -35 8 -37 10 -28 24 10 17 49 8 53 -13z
m-548 -37 c0 -11 5 -29 12 -40 14 -22 8 -33 -16 -24 -18 7 -24 84 -6 84 6 0
10 -9 10 -20z m200 -10 c0 -5 -11 -10 -25 -10 -14 0 -25 5 -25 10 0 6 11 10
25 10 14 0 25 -4 25 -10z m-140 -50 c0 -11 -4 -20 -10 -20 -5 0 -10 9 -10 20
0 11 5 20 10 20 6 0 10 -9 10 -20z m2320 5 c0 -8 -4 -15 -10 -15 -5 0 -10 7
-10 15 0 8 5 15 10 15 6 0 10 -7 10 -15z m-2800 -125 c19 -10 54 -23 78 -29
54 -15 54 -31 -1 -31 -30 0 -48 6 -60 20 -9 11 -29 20 -45 20 -30 0 -52 16
-52 38 0 15 24 10 80 -18z m-100 -59 c0 -21 -6 -30 -21 -34 -42 -11 -68 15
-26 28 13 4 17 8 10 12 -22 8 -14 23 12 23 21 0 25 -5 25 -29z m1328 17 c-5
-16 -48 -24 -48 -9 0 8 17 16 43 20 5 0 7 -5 5 -11z m72 2 c0 -5 -11 -10 -25
-10 -14 0 -25 5 -25 10 0 6 11 10 25 10 14 0 25 -4 25 -10z m-1312 -18 c2 -7
-3 -12 -12 -12 -9 0 -16 7 -16 16 0 17 22 14 28 -4z m1062 -22 c20 -12 13 -16
-42 -23 -51 -7 -66 7 -25 23 29 12 49 12 67 0z m290 0 c0 -5 -9 -10 -20 -10
-11 0 -20 5 -20 10 0 6 9 10 20 10 11 0 20 -4 20 -10z m-130 -10 c0 -5 -11
-10 -25 -10 -14 0 -25 5 -25 10 0 6 11 10 25 10 14 0 25 -4 25 -10z m-904 -24
c27 -8 75 -20 107 -26 31 -6 57 -16 57 -22 0 -15 -152 1 -171 19 -15 13 -19
12 -33 -9 -9 -12 -16 -28 -16 -35 0 -21 -38 -25 -67 -7 -15 10 -29 18 -30 18
-1 1 -5 14 -9 30 -5 22 -4 28 7 24 8 -3 28 1 44 8 39 17 51 17 111 0z m394
-16 c0 -5 -16 -10 -35 -10 -19 0 -35 5 -35 10 0 6 16 10 35 10 19 0 35 -4 35
-10z m150 -18 c0 -4 -5 -13 -12 -20 -9 -9 -8 -18 2 -37 20 -37 -2 -57 -50 -47
-19 5 -100 7 -180 5 -246 -6 -272 -4 -237 21 9 7 17 20 17 28 0 18 85 13 109
-6 12 -9 13 -7 8 14 l-6 25 155 1 c105 0 158 4 166 12 14 14 28 16 28 4z
m-726 -8 c26 -10 19 -22 -20 -34 -30 -10 -39 -10 -52 4 -21 20 -10 31 17 16
17 -9 22 -8 27 5 7 17 7 17 28 9z m-124 -23 c0 -12 -20 -25 -27 -18 -7 7 6 27
18 27 5 0 9 -4 9 -9z m-64 -33 c29 -28 30 -38 5 -38 -11 0 -23 9 -26 20 -3 11
-11 20 -16 20 -5 0 -9 5 -9 10 0 17 21 11 46 -12z m345 -8 c5 0 9 -4 9 -10 0
-5 -11 -10 -25 -10 -16 0 -25 6 -25 16 0 11 5 14 16 10 9 -3 20 -6 25 -6z m67
-8 c2 -7 -6 -12 -17 -12 -21 0 -27 11 -14 24 9 9 26 2 31 -12z m-558 -12 c0
-5 -7 -10 -15 -10 -8 0 -15 5 -15 10 0 6 7 10 15 10 8 0 15 -4 15 -10z m60 0
c0 -5 -9 -10 -20 -10 -11 0 -20 5 -20 10 0 6 9 10 20 10 11 0 20 -4 20 -10z
m170 0 c0 -5 -9 -10 -20 -10 -11 0 -20 5 -20 10 0 6 9 10 20 10 11 0 20 -4 20
-10z m1070 0 c0 -5 -11 -10 -25 -10 -14 0 -25 5 -25 10 0 6 11 10 25 10 14 0
25 -4 25 -10z m1150 -10 c0 -5 -7 -10 -15 -10 -8 0 -15 5 -15 10 0 6 7 10 15
10 8 0 15 -4 15 -10z m110 -5 c0 -16 -9 -19 -34 -9 -25 9 -19 24 9 24 16 0 25
-6 25 -15z m120 5 c0 -5 -7 -10 -15 -10 -8 0 -15 5 -15 10 0 6 7 10 15 10 8 0
15 -4 15 -10z m410 0 c0 -5 -13 -10 -30 -10 -16 0 -30 5 -30 10 0 6 14 10 30
10 17 0 30 -4 30 -10z m-1130 -10 c0 -6 -38 -10 -95 -10 -57 0 -95 4 -95 10 0
6 38 10 95 10 57 0 95 -4 95 -10z m-1732 -197 c2 -8 -6 -13 -22 -13 -25 0 -33
10 -19 24 10 10 36 3 41 -11z m2360 -12 c3 -19 0 -22 -25 -19 -32 3 -44 34
-16 41 28 7 38 2 41 -22z m-901 7 c41 -15 45 -40 5 -32 -18 4 -34 1 -43 -9
-15 -14 -109 -30 -109 -18 0 17 27 31 58 31 25 0 35 5 39 20 6 23 7 24 50 8z
m448 2 c3 -5 19 -10 34 -10 23 0 30 -5 34 -27 7 -35 -1 -43 -17 -21 -18 24
-61 39 -74 26 -12 -12 -42 -4 -42 12 0 5 7 10 15 10 8 0 15 5 15 10 0 6 6 10
14 10 8 0 18 -4 21 -10z m365 1 c0 -12 -20 -25 -27 -18 -7 7 6 27 18 27 5 0 9
-4 9 -9z m250 -1 c0 -5 -7 -10 -15 -10 -9 0 -20 -12 -25 -26 -12 -30 -36 -27
-33 5 2 16 -3 21 -22 21 -14 0 -25 5 -25 10 0 6 27 10 60 10 33 0 60 -4 60
-10z m-2460 -10 c0 -5 -11 -10 -25 -10 -14 0 -25 5 -25 10 0 6 11 10 25 10 14
0 25 -4 25 -10z m1740 1 c0 -9 -121 -22 -130 -14 -2 2 2 8 10 13 19 12 120 13
120 1z m-534 -16 c-3 -9 0 -15 9 -15 8 0 15 -7 15 -15 0 -15 -40 -22 -40 -7 0
4 -3 17 -6 30 -5 16 -2 22 11 22 11 0 15 -5 11 -15z m364 0 c0 -9 -10 -15 -22
-16 -13 -1 -38 -2 -55 -4 -24 -2 -33 2 -33 12 0 11 7 14 24 11 14 -3 31 -1 38
3 21 14 48 10 48 -6z m-1154 -7 c4 -6 0 -16 -9 -23 -21 -15 -22 -25 -2 -25 8
0 15 -4 15 -10 0 -16 -32 -11 -46 8 -12 15 -15 15 -24 2 -8 -12 -13 -13 -27
-2 -10 7 -26 15 -35 18 -28 10 -21 26 10 23 15 -1 34 1 42 4 53 20 67 21 76 5z
m357 6 c22 -4 37 -12 37 -20 0 -17 -9 -17 -60 -2 -66 21 -52 34 23 22z m132
-6 c33 -15 34 -42 1 -34 -14 3 -28 2 -31 -4 -10 -16 -42 -12 -49 6 -4 9 -5 17
-4 18 2 1 12 6 23 13 26 15 29 15 60 1z m-255 -8 c0 -5 -5 -10 -11 -10 -6 0
-8 -9 -4 -20 5 -14 2 -20 -9 -20 -9 0 -16 4 -16 9 0 5 -9 13 -20 16 -30 10
-24 23 13 28 17 2 35 5 40 5 4 1 7 -2 7 -8z m-450 -10 c0 -13 -34 -30 -59 -30
-32 0 -25 18 12 29 43 12 47 13 47 1z m1190 -10 c0 -5 -7 -10 -15 -10 -8 0
-15 5 -15 10 0 6 7 10 15 10 8 0 15 -4 15 -10z m628 -2 c-5 -15 -58 -24 -58
-9 0 9 20 17 48 20 8 0 12 -5 10 -11z m242 -11 c0 -14 -40 -37 -65 -37 -8 0
-15 -4 -15 -9 0 -10 -68 -36 -75 -29 -12 12 9 48 25 43 10 -3 25 1 33 10 9 8
25 15 36 15 12 0 21 5 21 10 0 6 9 10 20 10 11 0 20 -6 20 -13z m-1210 -7 c12
-7 12 -12 3 -21 -9 -9 -16 -9 -28 1 -29 24 -9 42 25 20z m-560 -10 c0 -5 -7
-10 -15 -10 -8 0 -15 5 -15 10 0 6 7 10 15 10 8 0 15 -4 15 -10z m2070 -15 c0
-8 -7 -15 -15 -15 -8 0 -15 7 -15 15 0 8 7 15 15 15 8 0 15 -7 15 -15z m150 0
c7 -9 10 -18 7 -22 -8 -7 -37 15 -37 28 0 14 16 11 30 -6z m-640 -15 c0 -5
-14 -10 -31 -10 -27 0 -30 -2 -19 -15 7 -9 10 -19 6 -23 -10 -9 -582 -9 -592
1 -17 17 16 19 235 21 174 1 232 4 236 14 6 17 25 15 25 -4 0 -19 40 -9 53 12
9 16 87 19 87 4z m440 -25 c0 -9 -9 -15 -25 -15 -29 0 -34 16 -7 23 30 8 32 7
32 -8z m-1120 -5 c0 -5 -7 -10 -15 -10 -8 0 -15 5 -15 10 0 6 7 10 15 10 8 0
15 -4 15 -10z m-1013 -35 c8 -9 13 -18 11 -21 -9 -9 -38 8 -38 22 0 18 8 18
27 -1z m-217 -10 c0 -8 -4 -15 -10 -15 -5 0 -10 7 -10 15 0 8 5 15 10 15 6 0
10 -7 10 -15z m2280 -5 c0 -5 -7 -10 -15 -10 -8 0 -15 5 -15 10 0 6 7 10 15
10 8 0 15 -4 15 -10z m-2350 -90 c0 -11 -4 -20 -10 -20 -5 0 -10 2 -10 4 0 2
-3 11 -6 20 -4 11 -1 16 10 16 9 0 16 -8 16 -20z m-40 -59 c0 -12 -20 -25 -27
-18 -7 7 6 27 18 27 5 0 9 -4 9 -9z"/>
<path d="M2144 2415 c-18 -15 -18 -15 5 -13 14 2 26 9 29 16 5 17 -10 15 -34
-3z"/>
<path d="M0 2476 c0 -32 36 -45 59 -21 15 15 15 17 -3 31 -31 22 -56 18 -56
-10z"/>
<path d="M40 2401 c0 -6 5 -13 10 -16 6 -3 10 -15 10 -26 0 -10 7 -19 15 -19
19 0 19 15 -1 45 -16 25 -34 33 -34 16z"/>
<path d="M80 2301 c0 -25 13 -43 21 -29 13 20 11 38 -6 38 -8 0 -15 -4 -15 -9z"/>
<path d="M17 1300 c-26 -31 -21 -40 21 -40 38 0 72 23 72 48 0 17 -20 15 -26
-3 -4 -8 -12 -15 -20 -15 -8 0 -14 7 -14 15 0 21 -12 19 -33 -5z"/>
</g>
</svg>

<path d="M0 2521 c0 -534 3 -681 13 -685 10 -5 10 -7 0 -12 -10 -4 -13 -53
-13 -195 0 -175 1 -189 18 -189 10 0 22 4 28 10 5 5 46 11 91 14 46 3 87 7 92
11 6 3 25 5 43 5 50 -1 149 17 161 29 20 20 55 13 60 -11 4 -22 5 -22 11 -3 8
23 91 65 129 65 24 0 41 -23 36 -46 -1 -5 2 -18 6 -28 14 -32 -25 -172 -52
-189 -7 -4 -13 -15 -13 -23 0 -15 -58 -74 -73 -74 -10 0 -2 30 20 80 9 19 18
53 21 76 4 37 1 44 -22 59 -36 24 -60 13 -53 -24 4 -16 2 -43 -2 -59 -24 -82
-197 -296 -262 -322 -17 -8 -29 -20 -29 -31 0 -28 -37 -47 -128 -66 l-82 -17
0 -203 c0 -129 4 -203 10 -203 6 0 10 -9 10 -19 0 -10 7 -22 16 -25 22 -8 31
1 16 16 -30 30 -2 38 29 9 17 -16 19 -23 10 -40 -11 -19 -9 -21 14 -21 18 0
25 5 25 20 0 26 20 26 27 0 3 -11 20 -25 39 -32 57 -20 39 -26 -71 -25 -95 2
-126 8 -93 19 15 5 1 28 -18 28 -12 0 -14 -34 -14 -210 l0 -210 159 0 c150 0
160 1 166 20 3 11 17 28 31 39 13 10 24 24 24 31 0 7 8 9 19 5 15 -4 18 -1 14
19 -6 31 16 45 34 21 18 -26 18 -26 -32 -76 -24 -24 -45 -47 -45 -51 0 -5 38
-8 84 -8 65 0 85 3 90 15 7 18 26 20 26 2 0 -18 130 -23 141 -6 6 10 13 10 33
1 14 -6 26 -7 26 -2 0 14 -20 23 -51 22 -32 -1 -39 12 -11 23 16 6 16 7 -2 21
-25 18 -12 32 14 16 11 -7 25 -12 31 -12 6 0 36 -18 66 -40 52 -37 61 -40 124
-40 50 0 68 4 73 15 3 8 1 15 -4 15 -6 0 -10 5 -10 10 0 19 30 10 46 -15 l16
-25 602 0 601 0 45 58 c31 39 61 65 97 82 29 14 52 30 53 36 0 17 119 122 145
128 13 3 31 14 41 24 15 15 41 17 198 19 192 2 216 -1 216 -21 0 -17 38 -51
47 -42 4 3 1 12 -5 18 -28 28 -14 40 41 36 l52 -3 1 78 c1 71 -8 92 -18 42 -3
-15 -10 -19 -30 -17 -16 1 -28 -3 -32 -13 -9 -23 -63 -20 -71 5 -8 24 -25 27
-25 4 0 -18 -23 -44 -39 -44 -6 0 -11 -4 -11 -10 0 -5 -7 -10 -15 -10 -8 0
-15 5 -15 10 0 6 7 10 15 10 8 0 15 5 15 10 0 12 -83 1 -88 -12 -7 -16 -22 -8
-22 12 0 15 7 20 29 20 25 0 32 6 42 35 14 39 29 46 29 15 0 -16 7 -20 30 -20
17 0 30 5 30 11 0 8 14 10 40 6 37 -5 40 -3 40 18 0 20 6 24 50 30 l50 7 0
208 0 209 -32 3 c-84 8 -85 173 -2 213 l34 16 0 730 c0 718 0 730 -19 719 -40
-21 -44 5 -6 40 l25 23 0 259 0 258 -415 0 c-270 0 -415 -3 -415 -10 0 -5 -7
-10 -15 -10 -8 0 -15 5 -15 10 0 16 -417 13 -424 -2 -5 -10 -7 -10 -12 0 -8
17 -34 15 -34 -3 0 -8 5 -15 10 -15 16 0 11 -26 -11 -54 -16 -20 -26 -25 -45
-20 -14 4 -24 2 -24 -5 0 -6 5 -11 10 -11 17 0 11 -26 -11 -46 -16 -14 -23
-15 -26 -6 -6 15 -23 16 -23 1 0 -6 -12 -25 -26 -43 -23 -26 -24 -32 -10 -34
20 -4 20 -13 1 -38 -12 -15 -16 -16 -24 -5 -10 15 -31 7 -31 -13 0 -16 -32
-46 -48 -46 -7 0 -19 16 -27 36 -19 46 -19 47 4 41 36 -9 63 34 59 91 -3 48
-1 52 36 81 22 17 49 34 61 37 18 5 45 40 45 59 0 3 -27 5 -60 5 -57 0 -78
-11 -45 -24 22 -8 18 -28 -4 -21 -24 7 -37 -11 -20 -31 16 -19 10 -23 -42 -32
-42 -7 -44 -10 -50 -47 -4 -22 -4 -55 -2 -72 4 -26 2 -33 -11 -33 -9 0 -16 -4
-16 -10 0 -5 -4 -10 -10 -10 -5 0 -9 21 -7 48 2 42 0 47 -20 50 -25 4 -63 46
-63 70 0 9 -10 27 -22 40 -16 17 -19 26 -10 29 19 7 14 23 -8 23 -11 0 -20 5
-20 10 0 7 -237 10 -690 10 l-690 0 0 -679z m810 629 c0 -11 -4 -20 -10 -20
-5 0 -10 -7 -10 -15 0 -24 -20 -17 -30 11 -13 32 -6 44 26 44 17 0 24 -5 24
-20z m2050 -10 c0 -5 -17 -10 -37 -10 -21 0 -62 -3 -90 -6 -35 -5 -53 -3 -53
4 0 12 36 18 123 20 32 1 57 -2 57 -8z m-220 -25 c0 -8 -7 -15 -15 -15 -16 0
-20 12 -8 23 11 12 23 8 23 -8z m-1790 -60 c0 -8 -7 -15 -15 -15 -16 0 -20 12
-8 23 11 12 23 8 23 -8z m60 8 c-1 -14 -30 -47 -36 -41 -8 8 14 48 26 48 6 0
10 -3 10 -7z m1470 -33 c0 -5 -9 -14 -20 -20 -21 -11 -40 -6 -40 10 0 7 10 11
53 19 4 0 7 -3 7 -9z m-90 -40 c0 -5 -9 -10 -20 -10 -11 0 -20 5 -20 10 0 6 9
10 20 10 11 0 20 -4 20 -10z m718 -37 c-2 -31 -7 -39 -26 -41 -22 -3 -23 -1
-17 30 9 42 13 48 31 48 11 0 14 -9 12 -37z m-769 18 c12 -8 12 -12 2 -25 -19
-23 -31 -20 -31 9 0 27 6 30 29 16z m-79 -40 c0 -31 -28 -48 -47 -28 -13 13
-14 19 -3 31 18 22 50 20 50 -3z m-110 -151 c0 -21 -24 -28 -35 -10 -8 14 3
30 21 30 8 0 14 -9 14 -20z m680 -109 c0 -10 -130 -25 -138 -16 -4 3 0 10 8
15 19 12 130 13 130 1z m-1340 -20 c0 -12 -20 -25 -27 -18 -7 7 6 27 18 27 5
0 9 -4 9 -9z m1403 -26 c19 -26 14 -50 -8 -41 -14 5 -25 -14 -25 -41 0 -8 -11
-29 -25 -45 -14 -16 -22 -34 -19 -39 9 -15 -16 -69 -32 -69 -15 0 -18 12 -7
23 9 10 10 57 1 57 -4 0 -10 -5 -13 -10 -4 -6 -14 -9 -23 -8 -10 2 -18 -5 -20
-17 -6 -40 -56 -127 -77 -137 -12 -5 -28 -25 -35 -44 -11 -27 -19 -34 -42 -34
-15 0 -28 -4 -28 -10 0 -5 6 -10 14 -10 7 0 19 -7 26 -15 10 -11 5 -20 -26
-47 -21 -18 -50 -46 -65 -62 l-28 -30 -20 25 c-15 18 -20 20 -21 8 0 -9 -9
-24 -20 -34 -11 -10 -20 -22 -20 -27 0 -5 9 -6 20 -3 28 9 25 -2 -9 -36 -35
-34 -52 -36 -69 -9 -12 19 -14 19 -42 5 -16 -8 -37 -15 -48 -15 -21 0 -53 -33
-70 -72 -7 -17 -19 -28 -31 -28 -11 0 -23 -9 -26 -21 -11 -32 -59 -22 -63 14
-2 16 -9 27 -18 27 -22 0 -12 23 14 35 22 10 38 35 23 35 -5 0 -15 -7 -22 -16
-23 -28 -58 -36 -77 -17 -16 16 -17 15 -20 -10 -2 -15 -8 -27 -13 -27 -5 0 -9
-9 -9 -19 0 -11 -5 -23 -10 -26 -6 -4 -8 -16 -4 -27 5 -17 3 -20 -10 -15 -10
4 -16 1 -16 -8 0 -8 7 -15 15 -15 20 0 19 -10 -2 -25 -15 -11 -15 -13 5 -19
12 -4 22 -14 22 -23 0 -10 -6 -13 -16 -9 -9 3 -22 6 -30 6 -8 0 -14 10 -14 25
0 14 -4 25 -10 25 -5 0 -10 -7 -10 -15 0 -23 -47 -19 -60 5 -12 23 -45 28 -37
5 7 -16 -15 -64 -35 -76 -7 -5 -22 -6 -33 -3 -11 2 -40 6 -64 7 -43 3 -73 27
-33 27 11 0 23 7 26 16 5 13 -3 15 -52 13 -116 -6 -139 -2 -139 25 0 15 13 38
33 57 l33 32 34 -17 c32 -18 36 -18 149 8 64 14 128 30 143 36 37 14 55 12 55
-6 0 -9 7 -14 17 -12 22 4 29 28 9 28 -9 0 -16 8 -16 20 0 32 -36 44 -94 32
-28 -6 -90 -14 -138 -17 -86 -6 -88 -5 -88 16 0 12 15 35 35 53 32 29 40 31
112 32 149 1 440 38 470 59 16 12 16 14 0 39 -17 26 -19 26 -100 21 -45 -3
-111 -10 -147 -15 -195 -28 -250 -30 -250 -10 0 4 18 30 40 56 22 27 40 57 40
66 0 22 13 23 46 2 22 -15 26 -15 42 -1 16 14 43 22 207 58 28 6 67 15 87 21
40 12 68 6 68 -14 0 -19 -56 -41 -91 -36 -34 5 -45 -4 -24 -22 11 -9 32 -7 97
9 46 11 101 23 124 27 38 6 104 43 77 44 -23 0 -14 30 8 30 15 0 19 -5 15 -15
-8 -22 15 -19 100 11 69 25 95 44 59 44 -8 0 -15 5 -15 10 0 6 9 10 19 10 11
0 33 11 48 25 l28 24 -37 1 c-21 0 -38 -4 -38 -10 0 -20 -40 -31 -78 -21 -24
7 -38 7 -40 1 -6 -18 -22 -10 -32 16 -6 14 -15 22 -20 19 -6 -4 -8 -11 -5 -16
4 -5 -6 -20 -22 -34 -33 -29 -73 -34 -71 -7 4 48 -2 63 -21 57 -11 -3 -22 -1
-26 5 -11 17 -27 11 -20 -9 5 -16 -1 -19 -52 -20 -31 0 -73 -6 -92 -12 -20 -7
-42 -13 -48 -15 -22 -6 -14 -24 10 -24 12 0 51 5 87 10 48 7 66 6 72 -3 15
-23 8 -27 -42 -23 -27 2 -50 0 -50 -4 0 -4 -17 -11 -37 -14 -45 -7 -63 -11
-83 -19 -22 -8 -180 -17 -180 -11 0 6 13 26 82 126 53 76 144 137 176 117 14
-9 25 -7 55 10 44 25 57 26 57 7 0 -8 -10 -17 -22 -19 -20 -4 -19 -4 5 -6 18
-1 27 -6 27 -18 0 -25 18 -3 22 27 3 23 7 25 66 28 46 2 62 0 62 -10 0 -11 2
-11 9 0 10 16 111 25 111 10 0 -6 10 -8 22 -5 14 4 26 0 34 -11 13 -16 13 -16
14 1 0 9 -4 17 -10 17 -23 0 -7 16 27 27 39 12 53 10 53 -10 0 -8 18 -12 52
-11 29 1 59 -3 66 -9 9 -7 16 -7 24 1 7 7 27 12 46 12 25 0 35 5 39 20 7 27
34 25 56 -5z m317 -2 c0 -12 -33 -43 -47 -43 -17 0 -17 10 4 32 16 18 43 25
43 11z m-132 -40 c2 -8 -6 -13 -22 -13 -25 0 -33 10 -19 24 10 10 36 3 41 -11z
m59 -5 c-2 -19 4 -24 31 -26 39 -4 43 -22 4 -22 -23 0 -52 13 -81 37 -5 4 31
32 41 33 4 0 7 -10 5 -22z m-2017 -8 c6 -11 20 -20 31 -20 16 0 19 -4 14 -20
-7 -21 4 -25 59 -21 26 2 28 0 23 -21 -4 -13 -7 -26 -7 -30 0 -24 -88 -46
-125 -32 -16 6 -65 103 -65 128 0 36 53 48 70 16z m390 -35 c0 -8 -4 -15 -10
-15 -5 0 -10 7 -10 15 0 8 5 15 10 15 6 0 10 -7 10 -15z m1770 -5 c0 -5 -11
-10 -25 -10 -14 0 -25 5 -25 10 0 6 11 10 25 10 14 0 25 -4 25 -10z m-1000
-110 c0 -13 -28 -25 -38 -16 -3 4 0 11 8 16 20 13 30 12 30 0z m480 -55 c0
-18 -5 -25 -19 -25 -26 0 -36 17 -21 35 19 23 40 18 40 -10z m-300 -5 c0 -12
-28 -25 -36 -17 -9 9 6 27 22 27 8 0 14 -5 14 -10z m-113 -36 c4 -13 -60 -26
-83 -17 -24 9 -16 22 19 26 45 6 60 4 64 -9z m-823 -20 c8 -29 3 -39 -13 -29
-13 8 -15 55 -2 55 5 0 12 -12 15 -26z m1204 4 c-6 -16 -36 -34 -44 -25 -9 9
15 37 33 37 8 0 13 -5 11 -12z m-1544 -43 c11 -14 29 -25 42 -25 13 0 24 -4
24 -10 0 -5 -9 -10 -19 -10 -24 0 -33 -13 -25 -33 5 -13 10 -14 39 -1 58 24
75 19 75 -20 0 -19 -7 -42 -15 -50 -19 -18 -101 -56 -123 -56 -19 0 -52 29
-52 45 0 7 -7 27 -16 45 -18 36 -9 85 24 123 20 22 24 22 46 -8z m1496 -14 c0
-13 -29 -35 -37 -28 -7 8 15 37 28 37 5 0 9 -4 9 -9z m-2354 -176 c6 -24 0
-44 -10 -34 -11 11 -17 59 -7 59 6 0 13 -11 17 -25z m814 -60 c15 -19 11 -24
-21 -27 -18 -2 -25 2 -27 20 -4 26 28 31 48 7z m40 -71 c0 -13 -21 -44 -30
-44 -14 0 -12 24 2 38 13 13 28 16 28 6z m1060 -41 c-1 -14 -30 -47 -36 -41
-8 8 14 48 26 48 6 0 10 -3 10 -7z m-1260 -33 c0 -16 -4 -30 -10 -30 -5 0 -10
14 -10 30 0 17 5 30 10 30 6 0 10 -13 10 -30z m1010 7 c0 -15 -47 -44 -56 -35
-8 8 28 46 44 47 6 1 12 -5 12 -12z m-1680 -6 c0 -11 -31 -24 -39 -16 -3 3 1
10 9 15 19 12 30 12 30 1z m60 -6 c0 -8 -9 -15 -20 -15 -22 0 -27 15 -7 23 21
9 27 7 27 -8z m1670 -64 c0 -6 -5 -13 -11 -17 -8 -5 -6 -10 5 -16 19 -11 36
-3 36 18 0 18 14 18 30 -1 17 -21 7 -31 -47 -45 -27 -7 -52 -17 -57 -21 -15
-13 -46 -11 -46 4 0 20 17 40 28 33 6 -3 13 -2 16 3 4 5 2 12 -4 16 -15 10
-12 23 8 28 30 8 42 7 42 -2z m-1026 -27 c9 -22 8 -24 -9 -24 -8 0 -15 9 -15
20 0 24 15 27 24 4z m374 -32 c2 -7 -6 -12 -17 -12 -21 0 -27 11 -14 24 9 9
26 2 31 -12z m1470 -9 c2 -8 -6 -13 -22 -13 -17 0 -26 5 -26 16 0 19 41 16 48
-3z m-1817 -47 c12 -26 5 -76 -11 -76 -6 0 -10 12 -10 28 0 15 -3 37 -6 50 -9
30 13 29 27 -2z m349 8 c0 -11 -5 -14 -16 -10 -9 3 -20 6 -25 6 -5 0 -9 5 -9
10 0 6 11 10 25 10 16 0 25 -6 25 -16z m460 6 c0 -10 -41 -30 -61 -30 -19 0
-8 29 14 33 40 8 47 7 47 -3z m-400 -10 c0 -5 -7 -10 -15 -10 -8 0 -15 5 -15
10 0 6 7 10 15 10 8 0 15 -4 15 -10z m80 0 c0 -5 -7 -10 -15 -10 -8 0 -15 5
-15 10 0 6 7 10 15 10 8 0 15 -4 15 -10z m1380 1 c0 -10 -30 -24 -37 -17 -3 3
-2 9 2 15 8 13 35 15 35 2z m-168 -58 c3 -16 9 -36 13 -45 13 -33 -24 -20 -45
15 -27 44 -26 47 21 56 4 0 9 -11 11 -26z m508 -8 c0 -8 -7 -15 -15 -15 -16 0
-20 12 -8 23 11 12 23 8 23 -8z m-2200 -59 c0 -19 -5 -38 -11 -41 -15 -10 -17
-4 -11 38 5 47 22 49 22 3z m1100 -16 c0 -24 -27 -37 -43 -21 -8 8 -6 15 9 26
26 20 34 19 34 -5z m630 0 c0 -5 -7 -10 -15 -10 -8 0 -15 5 -15 10 0 6 7 10
15 10 8 0 15 -4 15 -10z m4 -45 c11 -8 17 -17 14 -21 -8 -8 -48 14 -48 26 0
14 12 12 34 -5z m-1564 -4 c0 -12 -20 -25 -27 -18 -7 7 6 27 18 27 5 0 9 -4 9
-9z m1650 -26 c0 -8 -7 -15 -15 -15 -16 0 -20 12 -8 23 11 12 23 8 23 -8z m75
5 c3 -5 19 -10 36 -10 16 0 29 -4 29 -10 0 -5 -20 -10 -44 -10 -25 0 -48 5
-51 10 -7 12 2 30 15 30 5 0 12 -4 15 -10z m-1257 -52 c-6 -18 -28 -21 -28 -4
0 9 7 16 16 16 9 0 14 -5 12 -12z m-618 -128 c0 -5 -11 -10 -25 -10 -14 0 -25
5 -25 10 0 6 11 10 25 10 14 0 25 -4 25 -10z m40 -40 c41 -8 56 -7 62 2 6 10
10 10 17 -1 8 -12 14 -13 37 -2 29 13 48 4 39 -20 -4 -10 -24 -14 -72 -14
l-67 0 -8 -32 c-6 -25 -14 -33 -30 -33 -17 0 -19 -3 -10 -12 7 -7 12 -16 12
-20 0 -14 -38 -9 -54 7 -11 12 -21 13 -41 5 -19 -7 -34 -6 -55 5 -17 9 -40 13
-52 10 -13 -3 -32 2 -42 10 -19 14 -18 16 24 52 24 21 50 41 59 45 24 10 122
9 181 -2z m198 -18 c2 -7 -3 -12 -12 -12 -9 0 -16 7 -16 16 0 17 22 14 28 -4z
m52 -2 c0 -6 14 -9 32 -8 23 2 33 -2 36 -14 3 -13 -5 -16 -43 -16 -49 1 -59 7
-49 32 7 18 24 22 24 6z m134 -26 c18 -7 22 -34 5 -34 -17 0 -49 20 -49 30 0
11 21 13 44 4z m-774 -13 c0 -12 -20 -25 -27 -18 -7 7 6 27 18 27 5 0 9 -4 9
-9z m880 -21 c0 -13 -7 -20 -20 -20 -13 0 -20 7 -20 20 0 13 7 20 20 20 13 0
20 -7 20 -20z m-350 3 c20 -3 35 -13 37 -25 6 -21 28 -24 37 -5 5 10 7 10 12
0 8 -18 24 -16 24 2 0 10 11 15 35 15 19 0 35 -4 35 -9 0 -10 91 -29 193 -39
81 -9 92 -4 55 21 -13 8 -20 18 -16 22 8 8 118 -24 118 -35 0 -8 119 -36 138
-32 6 2 12 -1 12 -5 0 -5 21 -15 48 -22 141 -39 162 -46 162 -56 0 -24 -52
-85 -78 -91 -15 -4 -32 -11 -38 -16 -6 -4 -19 -6 -28 -2 -9 3 -16 1 -16 -4 0
-6 -25 -16 -56 -23 -31 -7 -63 -19 -70 -27 -11 -11 -18 -11 -28 -2 -11 9 -16
7 -21 -9 -8 -25 -21 -27 -42 -6 -9 9 -20 12 -27 7 -6 -4 -33 -7 -61 -6 -27 1
-66 -5 -85 -13 -23 -9 -36 -10 -38 -3 -4 12 -191 14 -211 1 -8 -5 -11 -16 -6
-30 6 -19 4 -21 -19 -16 -14 3 -37 7 -51 10 -14 3 -25 1 -25 -5 0 -6 -11 -16
-25 -22 -14 -6 -25 -19 -25 -30 0 -29 -17 -21 -23 12 -4 20 -11 28 -20 24 -19
-7 -30 25 -16 43 9 10 9 17 1 25 -15 15 -34 -1 -27 -23 8 -24 -27 -59 -59 -59
-15 0 -17 -3 -8 -12 18 -18 15 -28 -8 -28 -11 0 -20 7 -20 15 0 18 -12 19 -28
3 -9 -9 -16 -8 -29 4 -11 10 -48 18 -94 23 -42 3 -89 13 -104 21 -15 8 -36 12
-47 9 -10 -4 -30 2 -47 14 -16 12 -36 21 -45 21 -8 0 -31 9 -51 20 -20 11 -42
20 -49 20 -7 0 -19 7 -26 15 -7 8 -30 20 -51 27 -42 12 -47 31 -11 36 12 2 43
15 69 28 l47 25 17 -23 c13 -16 29 -23 56 -25 46 -2 134 -17 228 -38 39 -9 84
-19 100 -22 17 -3 35 -10 42 -15 18 -14 181 -12 198 2 21 17 19 41 -1 33 -10
-3 -22 0 -28 8 -11 14 -17 15 -139 23 -75 5 -127 33 -127 67 0 12 -4 17 -11
13 -6 -4 -9 -19 -5 -36 4 -21 2 -28 -7 -26 -6 3 -14 15 -15 29 -2 13 -8 28
-13 33 -5 6 -9 20 -9 33 0 13 -4 23 -10 23 -5 0 -10 -20 -10 -45 0 -44 0 -45
-34 -45 -18 0 -39 7 -46 15 -7 9 -29 15 -54 15 -93 0 -84 22 34 81 36 18 73
42 82 53 9 11 20 18 24 14 4 -4 2 -14 -5 -21 -17 -21 13 -42 63 -44 75 -3 111
-17 109 -41 -2 -17 2 -22 22 -22 15 0 25 6 25 14 0 27 59 28 190 3 41 -9 95
-18 119 -21 24 -4 57 -14 73 -22 28 -14 32 -14 46 0 22 21 6 36 -47 43 -35 5
-41 9 -35 25 9 29 -13 50 -38 37 -16 -8 -23 -8 -29 2 -8 11 -12 11 -23 -4 -11
-14 -22 -16 -67 -10 -50 8 -54 11 -57 36 -6 50 19 64 88 50z m-656 -69 c27
-10 18 -23 -35 -50 -63 -31 -73 -24 -29 21 36 37 39 39 64 29z m1556 -159 c0
-8 -4 -15 -10 -15 -5 0 -10 7 -10 15 0 8 5 15 10 15 6 0 10 -7 10 -15z m-152
-87 c-6 -16 -36 -34 -44 -26 -8 9 17 37 34 38 8 0 12 -5 10 -12z m-1088 -148
c0 -5 -7 -10 -15 -10 -8 0 -15 5 -15 10 0 6 7 10 15 10 8 0 15 -4 15 -10z
m-339 -59 c31 -28 22 -65 -16 -69 -16 -2 -39 4 -50 12 -20 15 -20 16 10 45 36
36 31 35 56 12z m859 -51 c0 -11 -6 -20 -14 -20 -21 0 -31 21 -15 31 22 14 29
11 29 -11z m-142 -2 c-6 -18 -28 -21 -28 -4 0 9 7 16 16 16 9 0 14 -5 12 -12z
m252 2 c0 -5 -7 -10 -15 -10 -8 0 -15 5 -15 10 0 6 7 10 15 10 8 0 15 -4 15
-10z m140 -5 c0 -8 -9 -15 -20 -15 -22 0 -27 15 -7 23 21 9 27 7 27 -8z m118
3 c-3 -7 -10 -13 -16 -12 -7 1 -23 2 -37 3 -42 2 -28 21 16 21 28 0 39 -4 37
-12z m923 2 c34 -19 20 -30 -36 -30 -63 0 -81 26 -22 33 17 2 33 5 35 5 2 1
12 -3 23 -8z m129 -6 c0 -9 -5 -14 -12 -12 -18 6 -21 28 -4 28 9 0 16 -7 16
-16z m100 2 c0 -9 -13 -13 -40 -13 -38 0 -48 6 -33 20 13 13 73 7 73 -7z
m-520 -11 c0 -12 -59 -30 -68 -21 -2 3 -2 11 1 19 6 17 67 18 67 2z m48 3 c-6
-18 -28 -21 -28 -4 0 9 7 16 16 16 9 0 14 -5 12 -12z m132 -2 c0 -19 -97 -33
-113 -17 -18 18 10 31 66 31 34 0 47 -4 47 -14z m0 -56 c0 -14 -37 -31 -54
-24 -25 9 -19 22 12 27 15 2 30 5 35 6 4 0 7 -3 7 -9z m-150 -26 c0 -10 -6
-14 -15 -10 -8 3 -18 -1 -22 -8 -5 -8 -21 -11 -45 -8 -53 6 -50 30 5 35 23 2
50 4 60 5 10 1 17 -5 17 -14z m40 1 c0 -8 -4 -15 -10 -15 -5 0 -10 7 -10 15 0
8 5 15 10 15 6 0 10 -7 10 -15z m391 5 c29 0 23 -17 -11 -32 -48 -21 -39 -42
15 -35 35 5 45 3 45 -7 0 -9 -15 -15 -42 -18 -51 -6 -80 16 -71 53 10 46 13
51 29 45 9 -3 24 -6 35 -6z m-863 -27 c2 -16 -2 -23 -13 -23 -11 0 -15 5 -11
15 3 9 0 15 -9 15 -8 0 -15 5 -15 11 0 21 45 4 48 -18z m132 17 c0 -5 -11 -10
-25 -10 -14 0 -25 5 -25 10 0 6 11 10 25 10 14 0 25 -4 25 -10z m97 -12 c-2
-13 -8 -31 -12 -42 -7 -16 -6 -17 13 -7 25 13 32 14 32 2 0 -18 -32 -41 -56
-41 -21 0 -23 4 -19 23 4 15 1 28 -9 36 -31 26 -17 49 33 50 19 1 22 -3 18
-21z m43 12 c0 -5 -7 -10 -15 -10 -8 0 -15 5 -15 10 0 6 7 10 15 10 8 0 15 -4
15 -10z m426 -5 c4 -10 13 -13 27 -9 15 5 19 3 14 -10 -3 -8 -2 -18 3 -21 4
-3 10 1 13 7 7 22 19 1 12 -21 -7 -23 -50 -29 -58 -8 -3 6 -6 2 -6 -10 -1 -32
-31 -30 -31 1 0 14 5 28 10 31 6 4 8 11 5 16 -3 5 -17 2 -31 -7 -36 -24 -41
-9 -8 20 34 30 43 31 50 11z m268 9 c20 -8 21 -30 1 -38 -15 -5 -55 21 -55 36
0 9 32 10 54 2z m136 -14 c0 -11 -4 -20 -9 -20 -14 0 -23 18 -16 30 10 17 25
11 25 -10z m-2856 -17 c-8 -33 -12 -39 -20 -30 -9 9 5 57 16 57 6 0 8 -11 4
-27z m84 7 c13 -21 9 -40 -9 -40 -5 0 -9 9 -9 20 0 22 -16 27 -23 8 -2 -7 -8
-10 -12 -6 -8 8 15 37 30 38 6 0 16 -9 23 -20z m1135 3 c18 -11 4 -22 -23 -16
-19 3 -30 1 -30 -6 0 -16 -27 -13 -34 4 -3 8 -12 15 -21 15 -8 0 -15 5 -15 11
0 11 103 4 123 -8z m137 9 c0 -11 -51 -35 -58 -28 -2 3 -2 12 1 21 7 15 57 22
57 7z m64 2 c23 -9 20 -24 -4 -24 -11 0 -20 -7 -20 -15 0 -17 -16 -20 -25 -5
-6 10 15 50 27 50 3 0 13 -3 22 -6z m196 -5 c0 -7 11 -9 27 -6 22 4 53 -10 53
-25 0 -2 -27 -4 -60 -5 -65 -2 -65 -1 -50 28 12 21 30 26 30 8z m-1244 -14
c-3 -8 -1 -15 4 -15 6 0 10 -6 10 -13 0 -8 -16 -13 -45 -15 -25 -1 -45 3 -45
8 0 6 9 10 20 10 11 0 25 9 32 20 15 23 33 27 24 5z m212 -3 c2 -7 -3 -12 -12
-12 -17 0 -20 -9 -10 -35 6 -13 9 -14 16 -3 7 10 10 9 19 -5 6 -9 15 -15 20
-11 6 4 6 11 -2 20 -14 17 -3 32 12 17 6 -6 18 -9 25 -6 8 3 14 1 14 -5 0 -5
-8 -13 -17 -17 -16 -6 -16 -8 6 -26 28 -23 23 -33 -11 -20 -13 5 -45 7 -71 4
l-46 -6 6 54 c6 52 17 72 37 66 6 -2 12 -9 14 -15z m416 -9 c-11 -46 -18 -46
-29 0 -6 23 -4 27 14 27 18 0 20 -4 15 -27z m506 12 c0 -8 -7 -15 -15 -15 -8
0 -15 7 -15 15 0 8 7 15 15 15 8 0 15 -7 15 -15z m-830 -10 c0 -8 -4 -15 -10
-15 -5 0 -10 7 -10 15 0 8 5 15 10 15 6 0 10 -7 10 -15z m60 8 c0 -5 -4 -15
-10 -23 -11 -18 -25 -7 -17 15 6 15 27 21 27 8z m100 -3 c0 -5 -7 -10 -15 -10
-8 0 -15 5 -15 10 0 6 7 10 15 10 8 0 15 -4 15 -10z m90 -1 c0 -6 11 -20 25
-31 14 -11 25 -26 25 -34 0 -8 7 -14 15 -14 8 0 15 -5 15 -10 0 -9 -61 -6 -97
6 -18 5 -16 24 1 24 23 0 28 17 11 33 -17 18 -20 37 -5 37 6 0 10 -5 10 -11z
m150 1 c0 -5 -7 -10 -15 -10 -8 0 -15 5 -15 10 0 6 7 10 15 10 8 0 15 -4 15
-10z m480 0 c0 -5 -7 -10 -15 -10 -8 0 -15 5 -15 10 0 6 7 10 15 10 8 0 15 -4
15 -10z m320 -10 c0 -5 -16 -10 -35 -10 -19 0 -35 5 -35 10 0 6 16 10 35 10
19 0 35 -4 35 -10z m350 0 c0 -5 -7 -10 -15 -10 -8 0 -15 5 -15 10 0 6 7 10
15 10 8 0 15 -4 15 -10z m-2063 -14 c-5 -15 -49 -14 -54 1 -3 7 7 11 27 11 17
-1 29 -6 27 -12z m83 4 c0 -12 -28 -25 -36 -17 -9 9 6 27 22 27 8 0 14 -5 14
-10z m240 -10 c0 -10 -79 -34 -87 -26 -3 3 -3 12 0 21 7 17 87 22 87 5z m640
2 c0 -3 -8 -11 -17 -18 -21 -16 -103 -19 -103 -4 0 6 9 10 19 10 11 0 22 4 25
9 6 9 76 11 76 3z m940 -7 c0 -8 -9 -15 -20 -15 -20 0 -26 11 -13 23 12 13 33
7 33 -8z m220 -15 c0 -5 -7 -10 -15 -10 -8 0 -15 5 -15 10 0 6 7 10 15 10 8 0
15 -4 15 -10z m-851 -6 c17 -4 31 -10 31 -13 0 -11 -151 -28 -207 -23 -71 5
-67 22 5 24 87 2 112 4 119 12 8 8 13 8 52 0z m-1094 -16 c17 -8 25 -18 23
-32 -3 -23 -28 -35 -28 -13 0 8 -7 20 -15 27 -10 9 -15 9 -15 1 0 -15 -37 -14
-43 2 -4 7 -6 6 -6 -4 -2 -30 -81 -43 -81 -14 0 8 9 15 20 15 11 0 20 4 20 9
0 20 88 26 125 9z m433 -5 c-5 -25 -28 -28 -28 -4 0 12 6 21 16 21 9 0 14 -7
12 -17z m1072 7 c0 -5 -7 -10 -15 -10 -8 0 -15 5 -15 10 0 6 7 10 15 10 8 0
15 -4 15 -10z m710 -5 c0 -8 -7 -15 -15 -15 -8 0 -15 7 -15 15 0 8 7 15 15 15
8 0 15 -7 15 -15z m-1000 -5 c0 -5 -7 -10 -15 -10 -8 0 -15 5 -15 10 0 6 7 10
15 10 8 0 15 -4 15 -10z m-1050 -9 c0 -11 -25 -21 -51 -21 -24 0 -25 17 -1 23
30 8 52 7 52 -2z m650 -1 c0 -5 -7 -10 -15 -10 -8 0 -15 5 -15 10 0 6 7 10 15
10 8 0 15 -4 15 -10z m1450 0 c0 -5 -9 -10 -20 -10 -11 0 -20 5 -20 10 0 6 9
10 20 10 11 0 20 -4 20 -10z m-1540 -10 c0 -5 -7 -10 -15 -10 -8 0 -15 5 -15
10 0 6 7 10 15 10 8 0 15 -4 15 -10z m585 -46 c195 -8 191 -9 240 5 59 16 186
13 209 -4 10 -8 24 -11 30 -7 6 4 31 8 56 10 25 1 89 5 143 8 66 4 97 2 97 -5
0 -6 -6 -11 -12 -11 -31 0 -88 -22 -88 -34 0 -15 -42 -36 -70 -36 -30 0 -24
18 8 22 15 2 26 7 24 13 -4 14 -75 6 -87 -9 -6 -7 -21 -17 -34 -21 -20 -6 -23
-4 -18 9 4 10 1 16 -9 16 -8 0 -17 -6 -19 -12 -9 -24 -468 -21 -598 3 -108 20
-157 35 -157 50 0 8 71 17 105 12 11 -1 92 -5 180 -9z m-1225 -34 c0 -6 -16
-26 -35 -46 -19 -19 -35 -40 -35 -47 -1 -21 -50 -69 -65 -63 -17 6 -21 36 -5
36 6 0 10 7 10 15 0 8 4 15 8 15 5 0 31 22 58 50 49 50 64 59 64 40z m235 -89
c3 -11 12 -22 20 -25 8 -3 15 -12 15 -20 0 -8 10 -16 22 -18 27 -4 34 -23 11
-32 -11 -4 -22 -1 -29 8 -6 9 -15 16 -20 16 -13 0 -74 57 -74 69 0 10 16 19
37 20 6 1 14 -8 18 -18z m143 -123 c12 -12 17 -58 7 -58 -10 0 -65 44 -65 51
0 6 13 12 41 18 3 0 10 -4 17 -11z m-328 -53 c0 -8 -4 -15 -10 -15 -5 0 -10 7
-10 15 0 8 5 15 10 15 6 0 10 -7 10 -15z"/>
<path d="M2171 2546 c-8 -10 -9 -16 -1 -21 5 -3 13 1 16 10 9 22 -1 29 -15 11z"/>
<path d="M2385 2140 c-18 -35 -19 -40 -2 -39 6 0 25 16 40 35 l29 34 -26 0
c-18 0 -30 -8 -41 -30z"/>
<path d="M1973 1903 c-25 -5 -32 -23 -9 -23 22 0 46 11 46 21 0 5 -3 8 -7 8
-5 -1 -18 -4 -30 -6z"/>
<path d="M1578 1726 c-23 -17 -23 -26 2 -26 11 0 20 6 20 14 0 8 6 17 13 19 8
4 7 6 -3 6 -8 0 -23 -6 -32 -13z"/>
<path d="M1806 3171 c-4 -7 -5 -15 -2 -18 9 -9 19 4 14 18 -4 11 -6 11 -12 0z"/>
<path d="M533 1493 c-7 -3 -13 -11 -13 -19 0 -9 5 -12 10 -9 6 4 18 1 26 -6
17 -14 27 -8 18 14 -6 18 -24 26 -41 20z"/>
<path d="M450 1475 c7 -9 15 -13 17 -11 7 7 -7 26 -19 26 -6 0 -6 -6 2 -15z"/>
<path d="M25 1370 c5 -22 3 -32 -9 -36 -9 -3 -16 -15 -16 -25 0 -24 74 -28 84
-4 7 19 26 20 26 2 0 -24 -36 -47 -73 -47 -47 0 -52 -28 -7 -36 17 -4 30 -8
30 -10 0 -22 -23 -54 -40 -54 -11 0 -20 -7 -20 -15 0 -8 9 -15 20 -15 11 0 20
-4 20 -10 0 -5 -9 -19 -20 -30 -14 -14 -20 -33 -20 -66 0 -59 17 -55 48 12 13
27 30 56 37 64 23 26 30 70 11 70 -9 0 -16 6 -16 13 0 21 30 57 48 57 9 0 39
11 67 25 27 14 55 23 61 21 7 -3 15 2 18 10 4 9 -1 14 -14 14 -29 0 -24 17 7
25 34 8 13 24 -23 17 -20 -4 -24 -9 -20 -25 6 -23 -18 -46 -46 -47 -11 0 -18
7 -18 20 0 11 -4 20 -10 20 -20 0 -9 29 13 33 12 2 -3 5 -34 6 -42 1 -60 6
-74 21 -26 29 -38 25 -30 -10z"/>
<path d="M315 1319 c-11 -17 1 -21 15 -4 8 9 8 15 2 15 -6 0 -14 -5 -17 -11z"/>
<path d="M350 1286 c0 -9 7 -12 20 -9 11 3 20 9 20 14 0 5 -9 9 -20 9 -11 0
-20 -6 -20 -14z"/>
<path d="M280 1270 c0 -5 9 -10 20 -10 11 0 20 5 20 10 0 6 -9 10 -20 10 -11
0 -20 -4 -20 -10z"/>
<path d="M176 1225 c-3 -8 -12 -15 -19 -15 -25 0 -40 -27 -20 -34 10 -4 19 -2
21 3 2 6 14 8 27 5 16 -4 34 1 53 14 15 11 36 20 46 19 11 -1 21 3 23 10 3 8
-8 11 -31 10 -21 -1 -36 -7 -36 -14 0 -18 -17 -16 -24 2 -3 8 -12 15 -20 15
-7 0 -16 -7 -20 -15z"/>
<path d="M0 1200 c0 -5 7 -10 16 -10 8 0 12 5 9 10 -3 6 -10 10 -16 10 -5 0
-9 -4 -9 -10z"/>
<path d="M3183 1083 c-7 -3 -13 -13 -13 -22 0 -10 -3 -21 -7 -25 -15 -14 -11
-65 5 -71 25 -9 33 9 30 67 -2 38 -7 54 -15 51z"/>
<path d="M2924 317 c-8 -22 -1 -30 21 -25 14 3 14 5 1 23 -14 19 -15 19 -22 2z"/>
<path d="M3108 226 c-77 -58 -218 -199 -218 -218 0 -4 70 -8 155 -8 l155 0 0
145 c0 80 -2 145 -3 145 -2 0 -42 -29 -89 -64z"/>
<path d="M2868 273 c-22 -5 -23 -19 -3 -27 12 -4 45 17 45 30 0 5 -18 4 -42
-3z"/>
<path d="M2758 184 c-75 -49 -88 -53 -88 -24 0 15 -7 20 -26 20 -17 0 -28 6
-31 20 -8 29 -19 25 -64 -19 -25 -24 -36 -42 -29 -46 6 -4 18 -1 26 6 28 23
27 -1 -1 -31 -38 -39 -25 -50 20 -16 19 15 40 24 45 21 6 -3 10 1 10 9 0 18 8
20 29 7 12 -8 10 -15 -10 -43 -14 -18 -33 -45 -42 -60 l-17 -28 85 0 c52 0 84
4 80 10 -11 17 6 62 22 56 10 -4 13 -1 8 13 -3 11 -1 22 5 26 5 3 10 15 10 25
0 10 6 23 13 27 19 13 39 55 30 64 -4 4 -38 -12 -75 -37z"/>
<path d="M2520 205 c-7 -9 -11 -18 -8 -20 3 -3 11 1 18 10 7 9 11 18 8 20 -3
3 -11 -1 -18 -10z"/>
<path d="M2473 125 c-6 -6 -14 -26 -17 -43 -4 -16 -14 -33 -22 -36 -8 -3 -14
-12 -14 -20 0 -8 -6 -17 -12 -19 -7 -3 -1 -6 15 -6 15 -1 27 4 27 9 0 14 28
12 32 -2 3 -7 7 -6 11 5 3 9 2 17 -3 17 -6 0 -10 9 -10 20 0 11 4 20 9 20 15
0 21 42 8 55 -10 9 -15 9 -24 0z"/>
</g>
</svg>

</svg>