<svg xmlns="http://www.w3.org/2000/svg" viewBox="0 0 320 320">
<rect width="100%" height="100%" fill="#dac5a4"/>
<path d="M0 2820 c0 -247 4 -380 10 -380 6 0 10 -7 10 -15 0 -8 -4 -15 -10
-15 -7 0 -10 -263 -10 -769 l0 -769 44 0 c59 1 134 -21 141 -41 6 -21 45 -45
55 -34 31 34 8 118 -39 143 -12 6 -30 32 -42 57 -39 87 6 126 82 73 16 -12 31
-21 33 -19 1 2 10 35 20 74 21 91 52 126 92 104 38 -20 64 -83 57 -135 -7 -51
3 -58 55 -37 77 30 99 -35 40 -110 -46 -58 -58 -84 -58 -128 0 -42 18 -52 42
-24 50 60 88 80 104 54 3 -6 17 -8 30 -5 21 6 24 3 24 -19 0 -14 -11 -36 -23
-48 -29 -27 -43 -95 -21 -104 20 -7 18 -32 -4 -40 -29 -11 -136 -76 -145 -87
-5 -7 -14 -2 -25 14 -9 14 -32 42 -50 62 -21 23 -35 51 -37 70 -4 43 -22 88
-35 88 -5 0 -10 -8 -10 -18 0 -23 -56 -180 -71 -198 -16 -20 -39 -17 -65 7
-12 11 -40 23 -62 26 -23 3 -53 17 -73 34 l-33 28 29 31 c16 16 35 30 42 30
34 0 -10 34 -89 68 -5 2 -8 -98 -8 -222 0 -144 4 -226 10 -226 6 0 10 -7 10
-15 0 -8 -4 -15 -10 -15 -6 0 -10 -40 -10 -101 0 -85 3 -104 18 -115 16 -13
16 -15 -1 -28 -9 -7 -17 -25 -17 -40 l0 -26 379 0 380 0 3 52 c3 49 5 52 36
60 17 5 32 15 32 22 0 19 49 15 79 -6 21 -15 23 -22 17 -57 -9 -57 14 -71 121
-71 84 0 106 12 58 30 -14 5 -29 20 -34 33 -13 32 -31 44 -69 44 -41 0 -94 45
-74 65 9 9 17 9 38 -1 30 -13 57 0 48 24 -4 8 3 15 18 17 31 4 30 33 -1 33
-57 0 -19 49 47 61 22 4 36 14 42 29 5 13 17 28 26 33 19 11 93 4 110 -10 20
-15 24 -62 6 -81 -14 -16 -14 -19 2 -35 14 -14 18 -15 26 -3 7 13 15 13 52 2
75 -23 88 -30 88 -50 0 -29 -100 -76 -142 -67 -54 11 -67 -15 -47 -86 l10 -38
685 0 686 0 41 45 c24 25 48 45 54 45 18 0 26 19 13 35 -20 24 -119 8 -155
-26 -17 -16 -37 -29 -43 -29 -7 0 -23 -6 -35 -14 -23 -15 -114 -19 -123 -5 -3
5 2 19 10 31 8 13 16 36 18 53 3 28 0 30 -42 38 -24 5 -54 15 -65 23 -10 8
-27 14 -36 14 -15 0 -29 19 -29 40 0 4 14 13 30 20 17 7 34 19 38 27 5 8 34
17 73 21 55 6 64 10 67 28 2 11 -4 27 -13 34 -23 19 -21 104 3 97 77 -24 131
-52 157 -82 59 -68 144 -75 160 -14 6 23 1 30 -43 58 -52 33 -72 64 -72 110 0
61 77 68 119 11 24 -33 42 -38 61 -15 18 21 34 19 69 -11 18 -15 33 -39 37
-60 3 -19 10 -37 15 -40 13 -8 11 -54 -2 -54 -7 0 -8 -11 -4 -29 6 -28 4 -29
-35 -36 -24 -4 -44 -14 -50 -26 -12 -22 -85 -27 -93 -6 -3 8 -11 4 -22 -11 -9
-13 -29 -28 -44 -33 l-26 -11 22 -18 c15 -12 39 -18 71 -18 58 0 80 -10 134
-62 34 -33 40 -46 41 -85 l2 -45 138 0 137 0 0 95 c0 76 -3 97 -15 101 -19 8
-19 48 0 64 13 11 15 40 13 179 l-3 166 -54 10 c-46 9 -56 15 -72 45 -20 39
-24 70 -9 70 6 0 10 17 10 38 0 44 14 62 47 62 16 0 27 -8 33 -25 21 -56 50
-14 50 73 0 85 -9 122 -30 122 -19 0 -35 33 -46 93 -6 38 -6 39 22 35 26 -3
30 -8 35 -45 15 -116 19 -7 19 541 l0 597 -22 -8 c-26 -9 -116 -9 -124 0 -10
10 14 67 43 103 16 19 40 49 55 67 15 18 30 46 33 63 4 16 9 36 11 45 8 28
-33 29 -71 3 -20 -13 -44 -24 -53 -24 -20 0 -82 -36 -99 -57 -7 -9 -19 -13
-29 -9 -37 14 5 128 53 147 18 7 23 14 18 28 -3 12 0 21 10 25 23 8 7 28 -16
21 -30 -10 -24 30 9 54 15 12 32 25 38 29 14 12 80 34 96 31 49 -6 48 -9 48
160 l0 159 -42 35 -42 35 32 27 c18 15 32 31 32 36 0 5 -80 9 -185 9 -102 0
-185 -3 -185 -8 0 -14 -62 -34 -91 -28 -16 3 -29 1 -29 -4 0 -6 -6 -10 -14
-10 -8 0 -16 -6 -19 -14 -7 -18 22 -27 88 -30 28 -1 68 -10 90 -20 49 -22 75
-33 98 -40 27 -9 32 -35 10 -64 -11 -15 -23 -44 -27 -64 -4 -24 -14 -39 -26
-43 -11 -3 -28 -16 -37 -29 -24 -30 -58 -47 -78 -40 -9 4 -44 -7 -80 -25 -79
-40 -111 -39 -109 4 3 53 22 107 43 122 12 8 21 25 21 38 0 13 5 27 10 30 16
10 12 23 -14 40 -32 21 -63 8 -134 -55 -47 -42 -63 -50 -92 -49 -19 1 -43 -2
-52 -6 -30 -12 -35 25 -7 49 15 13 24 33 25 52 1 30 -1 32 -50 42 -69 14 -141
54 -141 77 0 22 104 55 173 55 23 0 42 5 42 10 0 7 -197 10 -571 10 l-570 0 3
-27 c3 -27 6 -28 58 -29 51 0 123 -24 136 -45 10 -17 -7 -48 -29 -55 -12 -3
-30 -13 -39 -21 -14 -12 -26 -13 -69 -4 -36 8 -56 8 -63 1 -18 -18 -38 -12
-31 10 5 14 2 20 -9 20 -19 0 -22 -44 -5 -86 11 -31 6 -59 -15 -88 -14 -18
-16 -17 -48 5 -18 13 -39 23 -45 21 -7 -2 -13 6 -13 17 0 13 -15 28 -42 43
-55 30 -75 68 -57 109 9 24 9 35 -1 54 -7 13 -10 35 -6 49 6 23 3 26 -20 26
-23 0 -25 -3 -20 -24 8 -33 -8 -41 -46 -22 -17 9 -42 16 -55 16 -13 0 -26 7
-29 15 -5 13 -39 15 -220 15 -228 0 -231 -1 -199 -48 14 -20 14 -26 0 -67 -8
-25 -15 -55 -15 -65 0 -11 -15 -37 -33 -57 -40 -42 -64 -40 -74 8 -3 17 -13
34 -22 37 -20 8 -91 85 -91 98 0 5 15 17 33 27 22 12 32 25 33 42 l2 25 -119
0 -119 0 0 -380z m474 304 c23 -9 20 -44 -3 -44 -10 0 -22 7 -25 16 -13 33 -5
41 28 28z m476 -109 c0 -14 -4 -25 -10 -25 -5 0 -10 11 -10 25 0 14 5 25 10
25 6 0 10 -11 10 -25z m-100 -5 c6 -12 19 -19 33 -17 20 2 22 -2 19 -36 -3
-42 10 -64 45 -78 15 -5 26 -20 29 -39 4 -20 13 -30 24 -30 27 0 41 -24 34
-59 -5 -23 -11 -30 -21 -27 -8 4 -26 9 -39 12 -27 7 -54 50 -54 87 0 13 -3 26
-6 30 -12 12 -53 -16 -59 -40 -8 -34 -50 -29 -50 6 0 13 -6 26 -14 29 -9 3
-11 -1 -7 -16 9 -27 -13 -40 -28 -16 -34 58 -38 159 -5 159 10 0 15 -15 17
-52 5 -91 30 -63 34 37 1 30 3 58 5 63 8 14 32 7 43 -13z m-612 -330 c2 -19 8
-38 14 -41 12 -8 58 -118 58 -140 0 -20 36 -67 44 -58 3 3 11 32 17 65 6 32
13 66 17 74 3 8 7 24 8 35 10 77 18 90 60 93 35 3 44 -1 58 -22 18 -29 36 -34
36 -11 0 8 5 15 10 15 6 0 10 -4 10 -10 0 -5 11 -10 25 -10 40 0 61 -64 30
-90 -21 -17 -20 -21 21 -74 38 -50 43 -90 12 -110 -13 -8 -22 -5 -41 12 -13
12 -28 22 -34 22 -6 0 -13 6 -16 13 -3 7 -24 26 -47 42 -41 28 -43 29 -56 10
-26 -35 -5 -155 27 -155 5 0 9 -8 9 -18 0 -10 14 -31 30 -45 25 -23 30 -35 30
-71 0 -54 -9 -61 -47 -39 -35 20 -83 11 -83 -15 0 -13 -49 -83 -86 -121 -10
-10 -49 39 -71 89 -14 30 -33 60 -44 68 -10 7 -19 20 -19 28 0 8 -7 14 -15 14
-18 0 -20 -17 -3 -22 18 -6 1 -38 -21 -38 -43 0 -33 95 13 131 14 11 26 26 26
32 0 7 6 23 13 37 18 34 10 98 -13 105 -18 6 -70 -12 -81 -29 -8 -11 -47 -2
-73 17 -21 16 -14 57 10 57 18 0 19 48 0 69 -29 33 -9 67 49 86 30 9 59 23 66
31 22 27 54 13 57 -26z m2538 -102 c4 -6 0 -16 -9 -23 -10 -7 -17 -19 -17 -27
0 -22 -30 -79 -45 -84 -7 -3 -18 -25 -25 -49 -25 -88 -122 -131 -174 -76 -31
32 -32 41 -7 90 19 36 36 47 180 115 13 6 26 17 29 26 13 38 52 54 68 28z
m-620 -63 c9 -30 8 -42 -8 -74 -12 -25 -17 -48 -12 -65 7 -31 61 -79 80 -72
20 8 44 -4 44 -20 0 -18 -82 -8 -131 17 -82 41 -133 133 -97 176 7 9 12 24 10
35 -4 21 26 36 73 37 26 1 32 -4 41 -34z m-1160 -60 c15 -14 35 -25 46 -25 31
0 73 -27 103 -65 26 -35 27 -40 16 -77 -18 -59 -37 -60 -88 -2 -23 27 -43 59
-43 72 0 12 -6 22 -14 22 -7 0 -25 17 -40 38 -42 62 -31 84 20 37z m643 -39
c42 -22 59 -87 31 -125 -11 -16 -20 -33 -20 -39 0 -11 -56 -55 -85 -66 -11 -5
-39 -9 -62 -11 -55 -4 -57 16 -4 37 41 16 46 28 58 130 3 26 13 55 24 67 23
25 23 25 58 7z m825 -350 c-13 -88 27 -136 113 -136 95 0 98 -83 3 -110 -24
-7 -36 -6 -47 5 -8 8 -23 15 -34 15 -24 0 -70 50 -64 69 3 7 0 20 -7 29 -15
17 -12 126 3 155 20 36 39 20 33 -27z m-189 -3 c-3 -38 -28 -123 -46 -155 -5
-10 -9 -24 -9 -32 0 -26 -74 -65 -123 -66 -16 0 -55 -18 -67 -30 -14 -16 -105
-70 -117 -70 -20 0 -15 28 7 40 11 6 20 17 20 24 0 7 7 28 16 45 9 18 17 45
19 59 1 15 5 34 8 42 4 8 6 22 5 30 -6 69 -1 75 65 89 65 13 108 25 167 46 55
20 59 19 55 -22z m-1062 -51 c5 -26 1 -89 -8 -138 -3 -12 -20 -39 -39 -60 -30
-34 -39 -38 -87 -40 -68 -2 -101 17 -97 54 5 41 54 65 109 53 52 -12 79 5 79
50 0 15 5 31 10 34 6 3 10 22 10 41 0 41 15 45 23 6z m320 -29 c29 -16 46 -19
122 -25 26 -2 44 -26 45 -60 0 -15 5 -30 11 -34 6 -3 8 -15 6 -26 -3 -11 4
-38 15 -59 11 -22 18 -42 16 -44 -14 -15 -165 -2 -182 15 -5 5 -18 10 -27 10
-20 0 -63 55 -55 69 3 4 -3 39 -14 77 -25 93 -7 115 63 77z m487 -485 c15 -38
30 -152 22 -160 -21 -21 -43 5 -41 47 2 24 -2 49 -8 57 -12 15 -5 78 8 78 5 0
14 -10 19 -22z m79 -1 c14 -18 34 -158 23 -169 -16 -16 -65 10 -57 30 16 38
17 53 4 68 -10 13 -10 17 0 24 9 5 11 17 7 34 -7 28 5 34 23 13z m549 1 c26
-26 14 -49 -24 -46 -20 2 -39 -2 -41 -7 -2 -7 12 -9 37 -7 30 3 41 0 46 -13
11 -27 -8 -35 -53 -22 -39 10 -44 9 -68 -13 -22 -21 -28 -22 -35 -10 -17 27
-12 60 10 60 10 0 24 9 30 20 6 11 19 20 29 20 10 0 24 7 31 15 15 18 22 19
38 3z m70 -37 c3 -8 -1 -12 -9 -9 -7 2 -15 10 -17 17 -3 8 1 12 9 9 7 -2 15
-10 17 -17z m-1122 -26 c27 -8 56 -12 66 -9 24 7 31 -12 13 -39 -8 -13 -12
-27 -8 -30 3 -4 -2 -16 -12 -27 -10 -11 -13 -20 -7 -20 7 0 12 -9 12 -19 0
-22 -40 -39 -105 -44 -22 -2 -49 -8 -60 -12 -11 -4 -35 -14 -54 -21 -44 -18
-51 -18 -51 6 0 23 46 126 60 135 6 3 10 20 10 36 0 24 6 33 33 44 41 18 44
18 103 0z m614 -70 c15 -62 13 -69 -23 -60 -19 5 -24 12 -23 35 1 16 5 32 9
36 4 4 7 16 7 26 0 37 17 16 30 -37z m-1144 30 c10 -8 34 -15 52 -15 17 0 32
-4 32 -9 0 -5 14 -23 31 -40 21 -21 33 -45 36 -72 6 -38 5 -41 -18 -37 -16 2
-24 10 -25 23 -2 37 -4 40 -39 64 -19 13 -57 26 -87 30 -40 4 -54 10 -56 24
-8 40 37 60 74 32z m1104 -313 c0 -23 -19 -42 -42 -42 -20 0 -23 12 -8 41 14
24 50 25 50 1z m-66 -53 c3 -17 6 -55 6 -84 0 -61 -16 -83 -49 -65 -46 24 -53
81 -19 141 27 48 53 51 62 8z m519 -10 c20 -17 37 -36 37 -43 0 -7 9 -21 20
-31 11 -10 20 -28 20 -39 0 -12 9 -32 20 -46 22 -28 25 -40 9 -40 -12 0 -75
26 -99 41 -8 5 -27 14 -42 20 -14 6 -32 24 -38 40 -7 16 -22 36 -32 44 -20 13
-20 14 6 42 14 15 26 31 26 35 0 18 38 6 73 -23z m-1491 -71 c9 -7 18 -25 22
-40 7 -32 -47 -84 -129 -123 -94 -44 -121 -41 -74 8 11 12 30 40 41 62 22 44
84 104 109 105 8 0 22 -6 31 -12z m452 -38 c56 -50 51 -150 -8 -150 -41 0 -64
58 -34 88 9 9 9 18 0 37 -27 60 -10 70 42 25z m1480 -32 c28 -39 16 -68 -28
-68 -14 0 -40 66 -31 80 11 17 43 11 59 -12z m-2014 -383 c0 -49 -37 -103 -88
-127 -28 -14 -48 -66 -32 -82 31 -31 -5 -34 -80 -5 -30 11 -67 25 -82 31 -28
10 -38 41 -18 53 5 3 7 18 4 34 -7 35 20 91 44 91 9 0 28 -16 41 -36 l25 -36
19 26 c10 14 25 26 32 26 8 0 21 10 29 21 18 26 54 47 84 48 20 1 22 -4 22
-44z m-672 -150 c11 -14 27 -25 36 -25 9 0 22 -11 28 -25 7 -16 19 -25 35 -25
14 0 26 -7 29 -17 3 -10 10 -26 15 -36 7 -14 1 -25 -28 -56 -21 -21 -51 -56
-68 -79 -16 -23 -38 -44 -48 -47 -19 -7 -47 10 -47 28 0 12 -82 92 -101 99
-16 6 3 44 57 115 17 22 34 53 38 67 8 33 29 33 54 1z"/>
<path d="M445 2601 c-6 -11 9 -23 19 -14 9 9 7 23 -3 23 -6 0 -12 -4 -16 -9z"/>
<path d="M1214 3169 c3 -17 6 -37 7 -43 1 -19 18 27 18 52 1 14 -5 22 -15 22
-13 0 -15 -7 -10 -31z"/>
<path d="M2590 3191 c0 -5 7 -11 15 -15 9 -3 15 0 15 9 0 8 -7 15 -15 15 -8 0
-15 -4 -15 -9z"/>
<path d="M1213 343 c-16 -6 -5 -33 13 -33 8 0 14 6 14 14 0 18 -11 25 -27 19z"/>
<path d="M1210 214 c-8 -19 -8 -30 0 -38 13 -13 30 8 30 36 0 29 -20 30 -30 2z"/>
</g>
</svg>

<path d="M0 2430 l0 -769 68 -3 c61 -3 67 -5 70 -26 3 -22 2 -22 -67 -16 l-71
7 0 -466 c0 -362 3 -467 13 -471 10 -5 10 -7 0 -12 -10 -4 -13 -82 -13 -340
l0 -334 1600 0 1600 0 0 809 0 809 -177 -4 c-330 -7 -303 -9 -303 16 0 21 1
22 240 18 l240 -3 0 778 0 777 -469 0 c-366 0 -471 -3 -475 -12 -5 -10 -7 -10
-12 0 -4 9 -45 12 -153 12 l-148 0 -2 -42 c-2 -58 -2 -134 1 -188 3 -38 0 -45
-14 -44 -22 2 -23 -12 -3 -32 16 -17 21 -64 6 -64 -5 0 -12 10 -14 23 l-4 22
-2 -23 c-1 -17 -6 -22 -18 -20 -16 3 -18 19 -17 163 0 88 4 170 8 183 l8 22
-946 0 -946 0 0 -770z m540 645 c0 -16 -6 -25 -16 -25 -11 0 -14 5 -10 16 3 9
6 20 6 25 0 5 5 9 10 9 6 0 10 -11 10 -25z m1350 -264 c0 -4 11 -6 24 -4 30 6
41 -29 20 -62 -8 -12 -12 -30 -8 -39 4 -12 0 -16 -15 -16 -17 0 -21 -6 -21
-35 0 -25 4 -35 16 -35 12 0 14 -6 8 -32 -4 -18 -8 -164 -8 -324 -1 -231 -4
-294 -15 -307 -25 -31 -33 -19 -27 41 4 31 7 183 9 337 1 232 -1 284 -13 304
-12 18 -12 25 -2 28 8 3 12 29 12 79 0 43 4 74 10 74 6 0 10 -4 10 -9z m0
-963 c-1 -93 3 -126 19 -156 12 -22 60 -37 90 -27 11 3 22 2 25 -4 3 -5 24 -7
46 -4 33 5 40 3 40 -11 0 -14 -12 -16 -92 -13 -51 2 -100 7 -108 11 -10 4 -19
-3 -29 -24 -16 -37 -29 -35 -56 8 -22 34 -35 41 -35 17 0 -17 -65 -22 -75 -5
-3 6 -15 10 -26 10 -32 0 -33 27 -2 54 35 31 82 34 106 6 21 -25 36 -26 43 -2
3 9 10 25 15 34 5 10 9 32 9 50 0 60 13 138 22 138 5 0 9 -37 8 -82z m868 -56
c3 -9 -3 -13 -19 -10 -12 1 -24 9 -27 16 -3 9 3 13 19 10 12 -1 24 -9 27 -16z
m-108 -42 c0 -5 -7 -10 -15 -10 -8 0 -15 5 -15 10 0 6 7 10 15 10 8 0 15 -4
15 -10z m-1507 -101 c237 0 293 -6 235 -25 -13 -4 -270 -6 -571 -6 -342 1
-566 -2 -594 -8 -52 -12 -48 -13 -56 20 l-6 26 367 -4 c202 -2 483 -3 625 -3z
m1047 -3 c0 -16 -34 -31 -50 -21 -22 14 -10 35 20 35 19 0 30 -5 30 -14z m120
4 c22 -13 4 -25 -40 -25 -42 0 -56 8 -45 24 8 13 65 14 85 1z m108 -8 c2 -7
-3 -12 -12 -12 -9 0 -16 7 -16 16 0 17 22 14 28 -4z m270 -9 c3 -21 2 -21 -78
-23 -21 -1 -79 2 -152 9 -10 0 -18 8 -18 16 0 15 57 21 185 20 53 -1 60 -3 63
-22z m-1106 6 c19 -12 8 -17 -47 -19 -56 -3 -115 8 -115 21 0 11 144 9 162 -2z
m428 -49 c0 -5 -9 -10 -20 -10 -11 0 -20 5 -20 10 0 6 9 10 20 10 11 0 20 -4
20 -10z m-92 -42 c-6 -16 -36 -34 -44 -26 -3 4 -4 14 -1 23 7 17 51 21 45 3z
m-24 -165 c8 -80 8 -66 3 -291 -5 -196 -11 -233 -36 -218 -17 11 2 566 20 566
4 0 10 -26 13 -57z m-1606 -55 c-5 -32 -28 -35 -28 -4 0 17 5 26 16 26 10 0
14 -7 12 -22z m2052 -133 c10 -12 10 -19 1 -28 -9 -9 -14 -9 -21 3 -22 34 -4
54 20 25z m50 -65 c0 -5 -7 -10 -15 -10 -8 0 -15 5 -15 10 0 6 7 10 15 10 8 0
15 -4 15 -10z m-509 -303 c4 -14 3 -43 -1 -62 -5 -20 -7 -161 -6 -313 2 -296
1 -312 -20 -312 -11 0 -13 33 -10 185 2 102 0 188 -5 191 -13 8 -11 57 6 169
8 55 12 117 8 138 -7 46 16 50 28 4z m949 -617 c0 -5 -7 -10 -15 -10 -8 0 -15
5 -15 10 0 6 7 10 15 10 8 0 15 -4 15 -10z m-960 -121 c15 -26 9 -64 -9 -64
-10 0 -15 13 -17 43 -2 45 9 54 26 21z"/>
</g>
</svg>

<path d="M0 2900 c0 -297 3 -326 32 -280 16 25 31 26 23 1 -3 -10 1 -24 10
-31 18 -15 20 -70 2 -70 -20 0 -39 -36 -24 -47 47 -35 66 -42 79 -30 19 19 78
41 86 32 4 -4 -15 -27 -41 -51 -38 -34 -61 -46 -108 -56 l-59 -12 0 -728 0
-728 47 0 c47 0 123 -26 123 -43 0 -5 -8 -6 -18 -2 -33 13 -102 22 -127 17
l-25 -4 0 -253 c0 -193 3 -255 13 -259 9 -5 9 -7 -1 -12 -8 -4 -12 -36 -12
-109 0 -94 2 -103 20 -108 26 -7 26 -27 0 -27 -17 0 -20 -7 -20 -50 l0 -50
482 0 c440 0 480 1 460 16 -24 17 -30 44 -9 44 8 0 33 -14 56 -30 41 -30 43
-30 156 -29 84 1 113 5 106 13 -19 23 -24 85 -8 101 18 17 37 20 37 5 0 -5 -7
-10 -15 -10 -19 0 -19 -9 0 -34 8 -11 15 -33 15 -48 l0 -28 960 0 960 0 0 290
0 290 -39 6 c-21 3 -44 10 -52 15 -25 15 1 22 46 12 l45 -10 0 164 0 164 -34
29 c-19 17 -41 45 -50 64 -18 38 -22 96 -6 96 6 0 10 -9 10 -20 0 -38 31 -100
50 -100 11 0 20 -9 23 -22 2 -13 5 -5 6 17 0 23 -3 45 -8 50 -16 18 -21 95 -5
95 12 0 14 120 14 800 l0 800 -31 0 c-38 0 -35 24 4 28 l27 3 0 123 0 122 -43
42 c-23 23 -48 42 -55 42 -7 0 -12 9 -12 20 0 11 6 20 14 20 8 0 16 6 19 13 2
7 8 8 13 3 5 -5 4 -11 -3 -13 -15 -5 -18 -33 -4 -33 5 0 23 -12 40 -26 l31
-26 0 71 c0 65 -10 89 -24 59 -5 -10 -7 -10 -12 0 -7 15 -274 18 -274 2 0 -5
-16 -12 -35 -16 -19 -3 -35 -10 -35 -14 0 -5 -10 -10 -22 -12 -42 -6 -27 -24
32 -37 58 -13 100 -34 90 -45 -3 -2 -32 4 -65 16 -33 11 -82 21 -110 23 -27 1
-58 5 -67 10 -22 9 -24 35 -3 35 8 0 15 4 15 10 0 5 13 7 29 4 29 -6 91 14 91
28 0 5 -90 8 -200 8 -127 0 -200 -4 -200 -10 0 -5 -20 -10 -43 -10 -24 0 -66
-7 -93 -15 -59 -18 -54 -17 -54 -5 0 5 11 12 25 16 77 19 -20 24 -490 24
l-515 0 0 -26 c0 -31 -23 -28 -28 4 -3 21 -8 22 -108 22 -103 0 -104 0 -110
-26 -4 -14 -1 -36 6 -49 10 -19 10 -30 1 -54 -18 -41 2 -79 57 -109 23 -13 42
-30 42 -38 0 -21 -20 -17 -47 8 -17 16 -36 22 -64 22 -69 -2 -70 -18 -1 -80
34 -30 62 -62 62 -70 0 -16 -16 -19 -25 -4 -3 6 -14 10 -24 10 -13 0 -20 10
-25 30 -3 17 -14 33 -23 37 -45 16 -71 71 -43 88 16 10 -10 37 -29 30 -9 -4
-22 3 -32 16 -27 36 -45 19 -47 -46 -3 -102 -29 -135 -34 -42 -3 46 -5 52 -25
50 -21 -2 -38 21 -27 38 8 13 32 11 37 -3 3 -7 6 -3 6 10 1 26 29 39 94 46
107 11 112 33 13 58 -68 16 -156 56 -156 70 0 5 -67 8 -150 8 -82 0 -150 -3
-150 -7 0 -4 10 -17 22 -30 12 -13 19 -26 15 -29 -12 -13 -39 7 -50 36 -11 29
-13 30 -83 30 -71 0 -72 0 -82 -30 -6 -16 -22 -35 -36 -42 -15 -6 -26 -16 -26
-21 0 -14 71 -91 91 -99 9 -3 19 -20 22 -37 10 -47 34 -50 72 -10 21 23 34 50
39 78 11 73 37 104 51 61 8 -24 45 -27 45 -4 0 20 24 13 28 -9 2 -10 -3 -17
-12 -17 -9 0 -16 -7 -16 -16 0 -28 -141 -194 -165 -194 -6 0 -25 23 -43 50
-18 28 -62 73 -98 101 -37 29 -64 59 -64 69 0 10 19 33 43 51 82 65 79 69 -53
69 l-110 0 0 -300z m1340 260 c0 -5 -9 -11 -20 -11 -11 -1 -25 -2 -32 -3 -6
-1 -13 5 -15 12 -3 8 7 12 31 12 20 0 36 -4 36 -10z m853 -39 c5 -22 95 -66
155 -76 23 -4 42 -11 42 -16 0 -16 -84 -9 -125 10 -55 26 -110 75 -101 89 11
18 23 15 29 -7z m-693 -35 c0 -16 -14 -36 -26 -36 -16 0 -16 2 -8 24 5 14 34
24 34 12z m-265 -56 c-7 -22 13 -28 32 -9 7 7 19 8 30 4 10 -5 25 -7 33 -7 19
2 47 -15 38 -23 -3 -4 -26 -9 -50 -12 -69 -8 -72 -10 -56 -36 19 -29 22 -126
5 -133 -17 -6 -126 32 -149 53 -40 36 -5 46 44 12 28 -21 30 -21 44 -3 21 29
26 57 15 88 -17 42 -14 86 5 86 11 0 14 -6 9 -20z m1413 -16 c34 -23 27 -32
-27 -31 -46 1 -53 -3 -106 -51 -88 -80 -185 -95 -193 -29 -3 28 12 37 21 14 3
-9 20 -13 48 -11 24 2 49 3 55 3 5 1 35 23 66 51 48 42 85 67 108 69 3 1 16
-6 28 -15z m-268 -23 c0 -16 -38 -56 -46 -48 -10 10 16 57 33 57 7 0 13 -4 13
-9z m270 -59 c0 -5 -11 -18 -25 -30 -14 -12 -25 -31 -25 -41 0 -27 -21 -71
-33 -71 -17 0 3 83 29 117 23 30 54 44 54 25z m250 -70 c0 -21 -89 -82 -120
-82 -21 0 -9 18 15 24 14 4 37 20 52 36 25 28 53 40 53 22z m-2092 -31 c3 -8
-1 -12 -9 -9 -7 2 -15 10 -17 17 -3 8 1 12 9 9 7 -2 15 -10 17 -17z m112 -6
c0 -44 27 -83 62 -91 46 -12 53 -11 54 6 2 34 4 40 15 40 6 0 9 -17 7 -42 -3
-39 -6 -43 -32 -46 -46 -6 -78 7 -113 44 l-32 35 -17 -26 c-22 -34 -42 -32
-86 10 -36 32 -50 65 -28 65 6 0 10 -5 10 -11 0 -6 8 -8 19 -4 11 3 22 1 26
-5 11 -18 43 -11 51 13 14 44 64 53 64 12z m1000 -5 c0 -5 -7 -10 -15 -10 -8
0 -15 5 -15 10 0 6 7 10 15 10 8 0 15 -4 15 -10z m790 -50 c0 -5 -18 -21 -39
-36 -50 -33 -104 -31 -109 4 -3 21 -1 22 36 16 29 -5 47 -2 63 10 26 18 49 21
49 6z m-2249 -40 c5 0 9 -4 9 -10 0 -5 -13 -10 -30 -10 -29 0 -38 9 -23 24 4
3 13 4 21 1 7 -3 18 -5 23 -5z m-281 -20 c0 -10 -32 -30 -49 -30 -19 0 -12 15
12 26 29 15 37 16 37 4z m352 -7 c19 -17 24 -43 9 -43 -6 0 -17 10 -25 22 -27
38 -17 51 16 21z m-249 -71 c30 -75 31 -82 17 -82 -5 0 -15 18 -21 41 -7 23
-19 43 -26 46 -14 6 -18 63 -5 63 5 0 21 -30 35 -68z m315 50 c2 -7 -3 -12
-12 -12 -9 0 -16 7 -16 16 0 17 22 14 28 -4z m-488 -1 c0 -11 -31 -24 -39 -16
-3 3 1 10 9 15 19 12 30 12 30 1z m300 -8 c0 -14 -19 -38 -25 -32 -8 8 5 39
16 39 5 0 9 -3 9 -7z m2580 -48 c0 -8 -4 -15 -10 -15 -5 0 -10 7 -10 15 0 8 5
15 10 15 6 0 10 -7 10 -15z m40 -10 c0 -8 -7 -15 -15 -15 -16 0 -20 12 -8 23
11 12 23 8 23 -8z m-2640 -20 c0 -8 -4 -15 -10 -15 -5 0 -10 7 -10 15 0 8 5
15 10 15 6 0 10 -7 10 -15z m270 1 c0 -15 -18 -31 -26 -23 -7 7 7 37 17 37 5
0 9 -6 9 -14z m-280 -41 c0 -31 -22 -115 -30 -115 -9 0 -30 32 -30 44 0 3 6 6
14 6 9 0 17 15 21 40 6 38 25 57 25 25z m2330 -4 c0 -12 -20 -25 -27 -18 -7 7
6 27 18 27 5 0 9 -4 9 -9z m-2182 -72 c23 -17 42 -35 42 -40 0 -5 6 -9 13 -9
8 0 22 -9 32 -20 10 -11 24 -20 31 -20 8 0 19 9 26 20 18 28 30 25 26 -7 -2
-24 -8 -29 -36 -31 -38 -4 -109 33 -140 73 -30 37 -42 31 -42 -21 0 -32 -4
-44 -12 -42 -27 9 -17 128 10 128 5 0 27 -14 50 -31z m2622 14 c0 -5 -15 -20
-34 -35 -55 -44 -146 -74 -146 -48 0 13 83 60 107 60 11 0 26 7 33 15 13 16
40 21 40 8z m-2200 -24 c0 -24 -23 -21 -28 4 -2 10 3 17 12 17 10 0 16 -9 16
-21z m90 -19 c8 -5 11 -12 8 -16 -10 -9 -38 3 -38 16 0 12 10 13 30 0z m1680
-15 c0 -12 -24 -55 -32 -55 -9 0 -10 7 -2 38 5 18 34 33 34 17z m-1734 -30 c9
-14 23 -25 30 -25 8 0 14 -10 14 -21 0 -25 76 -119 96 -119 8 0 14 -4 14 -10
0 -15 -37 -12 -69 5 -28 14 -76 86 -87 131 -3 13 -12 28 -20 35 -8 6 -14 15
-14 20 0 18 20 9 36 -16z m-776 -69 c0 -8 -12 -24 -26 -35 -28 -22 -49 -81
-39 -111 8 -24 41 -26 53 -4 11 21 32 10 32 -16 0 -26 -72 -49 -94 -30 -24 19
-31 78 -14 114 31 64 88 117 88 82z m2910 5 c0 -13 -29 -35 -37 -28 -7 8 15
37 28 37 5 0 9 -4 9 -9z m-1035 -11 c19 -31 175 -75 175 -50 0 13 32 25 88 35
35 6 42 4 42 -9 0 -9 -6 -18 -12 -20 -7 -2 -39 -12 -72 -21 -83 -25 -154 -16
-206 25 -38 30 -50 50 -31 50 6 0 13 -5 16 -10z m575 -9 c0 -12 -20 -25 -27
-18 -7 7 6 27 18 27 5 0 9 -4 9 -9z m-1470 -30 c0 -27 -24 -60 -36 -48 -8 8
16 77 27 77 5 0 9 -13 9 -29z m1329 15 c8 -9 25 -12 58 -8 36 4 45 2 41 -9
-11 -33 -128 -13 -128 21 0 14 16 12 29 -4z m-1981 -15 c3 -8 -1 -12 -9 -9 -7
2 -15 10 -17 17 -3 8 1 12 9 9 7 -2 15 -10 17 -17z m829 -61 c21 -11 50 -20
65 -20 23 0 28 -4 28 -26 0 -22 -3 -24 -22 -18 -71 21 -128 55 -128 76 0 13
17 10 57 -12z m-783 -17 c3 -16 2 -41 -2 -58 -8 -26 -13 -30 -44 -29 -34 1
-87 30 -88 47 0 10 60 -2 77 -15 20 -16 33 1 33 43 0 45 16 52 24 12z m1076
17 c0 -5 -17 -21 -37 -34 -43 -28 -93 -43 -93 -28 0 5 12 13 27 17 14 3 40 17
57 31 33 26 46 30 46 14z m1510 -33 c0 -10 -46 -27 -75 -27 -24 0 -40 14 -32
28 7 9 107 9 107 -1z m-670 -25 c0 -19 -26 -62 -37 -62 -17 0 -16 16 3 45 16
24 34 33 34 17z m-172 -44 c18 -18 15 -28 -8 -28 -13 0 -20 -7 -20 -20 0 -11
-4 -20 -10 -20 -13 0 -13 36 0 61 12 22 21 24 38 7z m-1904 -30 c-11 -36 -43
-76 -65 -83 -35 -11 -32 1 10 46 23 24 41 47 41 52 0 4 5 7 11 7 6 0 8 -9 3
-22z m771 -19 c4 -11 4 -23 0 -27 -7 -7 -25 17 -25 36 0 20 18 14 25 -9z m845
-39 c0 -5 -11 -10 -25 -10 -21 0 -25 -5 -25 -30 0 -16 -4 -30 -10 -30 -11 0
-13 39 -4 64 7 18 64 23 64 6z m-575 -30 c4 -6 2 -16 -3 -23 -7 -9 -5 -34 8
-81 11 -38 17 -73 14 -77 -12 -20 -22 -6 -28 43 -4 28 -16 69 -27 92 -15 31
-16 42 -7 48 18 11 36 10 43 -2z m1033 -39 c3 -8 -1 -12 -9 -9 -7 2 -15 10
-17 17 -3 8 1 12 9 9 7 -2 15 -10 17 -17z m-908 -1 c0 -5 -7 -10 -15 -10 -8 0
-15 5 -15 10 0 6 7 10 15 10 8 0 15 -4 15 -10z m120 -29 c13 -25 13 -71 0 -71
-5 0 -10 13 -10 29 0 17 -4 33 -10 36 -5 3 -10 10 -10 16 0 16 19 10 30 -10z
m280 -6 c0 -8 -4 -15 -10 -15 -5 0 -10 7 -10 15 0 8 5 15 10 15 6 0 10 -7 10
-15z m675 -21 c29 -45 -7 -114 -60 -114 -33 0 -31 11 8 35 33 21 40 48 22 88
-11 27 11 20 30 -9z m-425 -89 l0 -45 -57 6 c-52 5 -64 2 -118 -26 -33 -18
-77 -45 -97 -61 -42 -33 -48 -35 -48 -15 0 22 147 126 178 126 28 0 92 26 110
43 26 26 32 21 32 -28z m290 5 c8 -5 11 -12 8 -16 -10 -9 -38 3 -38 16 0 12
10 13 30 0z m-796 -16 c9 -22 -3 -32 -14 -14 -12 19 -12 30 -1 30 5 0 12 -7
15 -16z m-230 -29 c9 -14 24 -25 34 -25 10 0 23 -5 28 -10 6 -6 32 -13 58 -15
51 -5 66 -11 66 -25 0 -6 -45 -8 -107 -6 l-108 3 -3 52 c-3 56 7 64 32 26z
m-426 -9 c64 0 77 -8 43 -26 -42 -22 -128 -4 -139 29 -4 11 0 12 14 6 11 -5
47 -8 82 -9z m618 -126 c8 0 14 -4 14 -10 0 -5 -13 -10 -30 -10 -21 0 -30 5
-30 16 0 11 5 14 16 10 9 -3 22 -6 30 -6z m214 -19 c0 -10 6 -24 13 -30 23
-18 135 -50 203 -57 73 -8 79 -12 88 -74 4 -24 23 -84 43 -133 19 -48 33 -90
30 -93 -3 -3 -32 4 -64 15 -32 12 -98 27 -148 34 l-90 12 -7 70 c-4 38 -5 71
-3 73 13 13 25 -16 25 -59 0 -27 3 -49 8 -50 4 -1 23 -3 42 -5 19 -1 44 -4 55
-6 19 -3 20 2 17 67 -4 67 -21 115 -42 115 -6 0 -8 -11 -4 -26 4 -17 2 -29 -7
-34 -10 -7 -10 -11 0 -24 16 -19 6 -69 -12 -63 -6 2 -17 33 -22 68 -6 35 -14
70 -19 77 -12 20 -26 14 -26 -13 0 -16 -6 -25 -15 -25 -9 0 -15 6 -14 13 3 25
-1 37 -14 37 -8 0 -19 12 -25 26 -9 19 -17 24 -32 19 -24 -8 -27 16 -7 58 14
31 27 35 27 8z m-60 -37 c0 -13 -66 -84 -80 -84 -8 0 -24 -7 -34 -15 -17 -13
-18 -15 -3 -15 9 0 17 -3 17 -6 0 -19 -77 -163 -87 -164 -15 0 -17 16 -3 25 6
3 10 17 10 29 0 13 7 29 16 37 14 11 14 13 0 21 -9 5 -21 6 -26 3 -5 -3 -33 1
-61 9 -32 10 -67 13 -91 9 -36 -5 -40 -4 -36 13 2 14 12 19 39 20 62 2 172 36
224 69 83 53 115 67 115 49z m824 -79 c36 -15 46 -30 25 -37 -5 -2 -7 -11 -4
-20 4 -9 13 -14 21 -11 24 9 15 -17 -16 -48 -28 -29 -33 -30 -83 -24 -46 6
-55 4 -72 -15 -26 -29 -42 -80 -34 -110 22 -79 -7 -113 -32 -37 -22 65 -14
197 11 197 6 0 10 -14 10 -31 l0 -30 33 30 c34 33 51 37 93 21 31 -12 63 5 44
24 -5 5 -10 22 -10 37 0 38 -25 57 -48 35 -10 -9 -26 -16 -34 -16 -9 0 -22
-10 -30 -22 -14 -20 -38 -19 -38 3 0 13 90 69 111 69 9 0 33 -7 53 -15z m-54
-65 c0 -5 -7 -10 -15 -10 -8 0 -15 5 -15 10 0 6 7 10 15 10 8 0 15 -4 15 -10z
m-1463 -32 c32 -34 54 -88 35 -88 -13 0 -42 28 -42 41 0 5 -15 9 -32 9 -18 0
-42 7 -52 15 -28 21 -52 19 -70 -7 -22 -31 -31 -16 -12 20 17 34 30 39 97 41
39 1 50 -4 76 -31z m303 -37 c0 -19 -17 -38 -25 -29 -7 7 7 48 16 48 5 0 9 -9
9 -19z m-1054 -123 c25 -29 47 -79 38 -87 -4 -3 -9 0 -12 8 -8 25 -64 70 -78
64 -17 -6 -18 9 -2 25 18 18 32 15 54 -10z m1264 -2 c0 -24 -23 -33 -72 -28
-63 5 -61 16 5 29 28 5 55 11 60 11 4 1 7 -4 7 -12z m-450 -52 c0 -35 -23
-104 -41 -120 -28 -25 -34 -10 -15 31 10 20 20 52 23 71 6 34 33 49 33 18z
m1928 -62 c2 -7 -6 -12 -17 -12 -21 0 -27 11 -14 24 9 9 26 2 31 -12z m-2910
-42 c17 -11 32 -24 32 -30 0 -14 -4 -13 -49 11 -24 12 -48 18 -61 14 -19 -6
-27 4 -13 18 13 13 58 7 91 -13z m1990 -6 c7 -13 13 -14 31 -5 18 10 30 8 67
-11 73 -36 74 -62 1 -34 -115 43 -187 5 -187 -100 0 -85 -54 -122 -107 -72
-24 22 -31 48 -13 48 6 0 10 -4 10 -10 0 -5 11 -17 25 -26 43 -28 58 -5 53 83
-3 70 -2 73 19 73 14 0 29 11 40 28 29 45 46 52 61 26z m-110 -11 c-2 -10 -13
-19 -26 -21 -24 -4 -29 7 -10 26 18 18 40 15 36 -5z m-1540 -5 c13 -13 17 -58
4 -58 -4 0 -12 10 -17 23 -8 17 -17 21 -43 19 -34 -2 -45 13 -14 21 33 9 58 7
70 -5z m1962 -45 c-1 -14 -30 -47 -36 -41 -8 8 14 48 26 48 6 0 10 -3 10 -7z
m-1012 -34 c17 -6 42 -26 56 -44 38 -49 34 -74 -6 -38 -10 9 -33 18 -51 19
-17 1 -54 8 -82 15 -27 8 -83 12 -123 11 -89 -3 -97 18 -12 31 30 4 56 10 59
12 9 9 128 5 159 -6z m-408 -29 c0 -5 -8 -10 -18 -10 -11 0 -27 -9 -37 -20
-10 -11 -22 -20 -27 -20 -16 0 -7 29 14 44 25 18 68 21 68 6z m1420 -31 c7
-11 9 -23 6 -26 -8 -9 -36 17 -36 33 0 21 18 17 30 -7z m-1365 -19 c0 -7 -6
-15 -12 -17 -8 -3 -13 4 -13 17 0 13 5 20 13 18 6 -3 12 -11 12 -18z m1865
-10 c0 -5 -6 -10 -14 -10 -24 0 -28 -18 -15 -55 10 -26 19 -35 36 -35 18 0 23
-6 23 -25 0 -38 -26 -31 -60 17 -28 39 -40 95 -23 111 10 11 53 8 53 -3z m94
-47 c53 -46 65 -72 39 -80 -7 -3 -17 7 -23 21 -7 19 -17 26 -38 26 -22 0 -31
7 -42 33 -7 17 -15 35 -18 40 -13 24 36 0 82 -40z m-2426 4 c5 -26 -6 -67 -18
-67 -6 0 -10 12 -10 26 0 21 -4 24 -19 19 -11 -3 -30 0 -43 7 -13 7 -25 14
-27 15 -1 1 0 7 4 13 12 19 109 8 113 -13z m292 4 c0 -11 -50 -85 -61 -89 -20
-8 -9 -33 11 -27 41 13 18 -15 -37 -44 -77 -42 -90 -27 -31 37 25 27 57 67 72
90 24 39 46 54 46 33z m550 -5 c0 -8 -4 -18 -10 -21 -5 -3 -10 -19 -10 -36 0
-16 -4 -29 -10 -29 -11 0 -13 24 -4 69 6 31 34 44 34 17z m1068 -5 c3 -8 -1
-12 -9 -9 -7 2 -15 10 -17 17 -3 8 1 12 9 9 7 -2 15 -10 17 -17z m-978 -16 c0
-14 -4 -25 -10 -25 -5 0 -10 11 -10 25 0 14 5 25 10 25 6 0 10 -11 10 -25z
m-1430 -20 c0 -8 -4 -15 -10 -15 -5 0 -10 7 -10 15 0 8 5 15 10 15 6 0 10 -7
10 -15z m2560 -20 c7 -9 10 -18 6 -22 -7 -8 -56 17 -56 29 0 14 37 9 50 -7z
m-2416 -51 c-4 -48 -81 -225 -102 -232 -17 -5 -15 18 3 38 18 20 75 175 75
203 0 11 5 17 13 14 6 -2 11 -13 11 -23z m-284 -43 c0 -13 -29 -35 -37 -28 -7
8 15 37 28 37 5 0 9 -4 9 -9z m614 -10 c9 -13 -4 -41 -18 -41 -21 0 -49 26
-42 38 9 14 52 16 60 3z m2381 -34 c11 -20 16 -39 11 -44 -10 -10 -56 46 -56
70 0 28 23 15 45 -26z m-2640 -66 c3 -11 12 -22 20 -25 20 -7 19 -26 0 -26 -8
0 -15 5 -15 11 0 6 -7 17 -15 25 -17 17 -20 34 -6 34 5 0 12 -9 16 -19z m646
-38 c12 -31 3 -113 -12 -113 -5 0 -9 20 -9 45 0 37 -3 45 -19 45 -27 0 -70
-24 -87 -49 -9 -12 -22 -21 -29 -21 -8 0 -20 -9 -27 -20 -17 -27 -30 -25 -53
10 -28 42 -43 44 -63 10 -9 -16 -20 -30 -24 -30 -26 0 17 80 57 106 30 20 50
8 60 -37 4 -16 8 -29 9 -29 1 0 23 19 47 43 40 38 88 63 127 66 7 1 17 -11 23
-26z m1829 -18 c7 -9 10 -18 7 -22 -8 -7 -37 15 -37 28 0 14 16 11 30 -6z m35
-66 c6 -27 1 -49 -9 -38 -10 11 -17 69 -8 69 6 0 13 -14 17 -31z m-435 -9 c8
-5 12 -12 8 -15 -9 -9 -48 4 -48 16 0 12 21 11 40 -1z m-1192 -58 c27 -17 27
-19 2 -59 -23 -39 -32 -41 -45 -10 -8 16 -21 24 -55 28 -52 7 -77 -3 -90 -35
-6 -16 -20 -26 -42 -30 -66 -12 -104 -61 -47 -61 15 0 24 -6 24 -15 0 -8 -9
-15 -20 -15 -12 0 -21 -8 -23 -20 -6 -31 -17 -37 -46 -24 -41 19 -57 -3 -26
-36 13 -14 29 -25 37 -25 7 0 13 -4 13 -10 0 -5 -6 -10 -14 -10 -8 0 -21 -3
-30 -6 -11 -4 -16 0 -16 13 0 10 -10 25 -22 33 -31 19 -78 22 -78 4 0 -7 -12
-17 -27 -20 -16 -4 -34 -11 -41 -17 -15 -12 -17 -10 -26 20 -6 17 -1 25 21 37
36 18 142 46 177 46 49 0 26 17 -61 48 -108 38 -163 61 -163 67 0 17 31 75 39
75 14 0 14 -17 1 -25 -20 -12 -10 -43 18 -53 15 -6 52 -20 82 -31 30 -12 63
-21 72 -21 20 0 24 15 8 25 -11 7 -3 53 13 73 15 19 29 14 22 -8 -6 -18 -2
-20 35 -20 33 0 54 9 104 45 35 24 74 49 87 54 29 12 86 4 117 -17z m1422 8
c14 -10 22 -22 18 -26 -9 -8 -58 22 -58 36 0 15 12 12 40 -10z m-2342 -43 c23
-23 42 -46 42 -50 0 -17 -34 -5 -52 18 -25 32 -46 32 -54 -1 -4 -14 -21 -45
-38 -67 -18 -23 -41 -57 -51 -74 -21 -35 -34 -40 -53 -21 -14 14 -16 48 -3 48
19 0 110 102 130 145 12 25 25 45 29 45 4 0 27 -19 50 -43z m852 -52 c0 -8 -7
-15 -15 -15 -8 0 -15 7 -15 15 0 8 7 15 15 15 8 0 15 -7 15 -15z m1715 4 c13
-20 -26 -46 -105 -70 -79 -23 -94 -34 -65 -45 8 -4 15 -10 15 -14 0 -11 -91
-10 -112 2 -21 10 -24 38 -4 38 7 0 19 7 26 15 8 10 31 15 66 15 42 0 55 4 64
19 6 12 26 22 50 26 22 4 40 11 40 16 0 12 17 11 25 -2z m-1560 -64 c86 -41
104 -64 66 -85 -27 -14 -34 -13 -27 5 6 17 -29 45 -57 45 -10 0 -31 7 -47 15
-26 14 -30 13 -39 -3 -9 -16 -11 -16 -27 0 -14 14 -15 20 -4 32 19 23 78 19
135 -9z m835 -25 c0 -11 -7 -20 -15 -20 -15 0 -21 21 -8 33 12 13 23 7 23 -13z
m940 5 c0 -8 -4 -15 -10 -15 -5 0 -10 7 -10 15 0 8 5 15 10 15 6 0 10 -7 10
-15z m-2622 -19 c3 -13 -1 -17 -14 -14 -11 2 -20 11 -22 22 -3 13 1 17 14 14
11 -2 20 -11 22 -22z m692 -13 c0 -10 -5 -25 -10 -33 -13 -21 -31 0 -24 28 7
26 34 30 34 5z m1056 -17 c10 -8 16 -18 11 -22 -8 -8 -57 15 -57 28 0 13 24 9
46 -6z m629 -30 c42 -23 43 -26 29 -94 -7 -36 -29 -39 -29 -4 0 11 -4 24 -8
28 -4 4 -7 15 -7 25 0 12 -5 16 -15 13 -8 -3 -26 6 -40 20 -14 14 -30 26 -35
26 -6 0 -10 5 -10 11 0 16 67 2 115 -25z m-526 -2 c2 -2 2 -7 -2 -10 -9 -10
-77 5 -77 17 0 9 68 3 79 -7z m326 -35 c4 -6 5 -12 2 -15 -7 -7 -37 7 -37 17
0 13 27 11 35 -2z m-85 -8 c0 -5 -15 -18 -32 -29 -18 -11 -53 -35 -78 -52 -39
-28 -51 -31 -93 -27 -76 7 -80 33 -4 30 23 -1 52 4 64 12 12 8 28 15 36 15 7
0 26 14 42 30 27 28 65 41 65 21z m-1600 -21 c0 -5 -7 -10 -15 -10 -8 0 -15 5
-15 10 0 6 7 10 15 10 8 0 15 -4 15 -10z m1350 -9 c0 -12 -20 -25 -27 -18 -7
7 6 27 18 27 5 0 9 -4 9 -9z"/>
<path d="M2180 1403 c0 -9 -7 -25 -17 -35 -10 -12 -12 -18 -4 -18 8 0 10 -7 6
-19 -5 -15 0 -21 25 -26 42 -9 43 -6 23 59 -18 54 -33 73 -33 39z"/>
<path d="M822 3188 c3 -7 15 -14 29 -16 13 -2 39 -10 58 -19 37 -17 53 -8 45
25 -6 20 -12 22 -71 22 -47 0 -64 -3 -61 -12z"/>
<path d="M934 3039 c-6 -8 -8 -25 -4 -39 6 -21 8 -22 14 -8 4 9 6 27 4 39 -2
18 -5 20 -14 8z"/>
<path d="M0 2545 c0 -40 2 -41 35 -19 31 21 31 28 0 42 -35 16 -35 16 -35 -23z"/>
<path d="M0 2425 c0 -8 5 -15 10 -15 6 0 10 7 10 15 0 8 -4 15 -10 15 -5 0
-10 -7 -10 -15z"/>
</g>
</svg>

</svg>