<svg xmlns="http://www.w3.org/2000/svg" viewBox="0 0 320 320">
<rect width="100%" height="100%" fill="#dac3a2"/>
<path d="M0 3180 c0 -11 7 -20 15 -20 8 0 15 -9 15 -20 0 -11 -7 -20 -15 -20
-12 0 -15 -20 -15 -120 0 -76 4 -120 10 -120 6 0 13 7 16 15 4 9 19 14 42 13
47 -1 74 -30 97 -105 10 -32 24 -65 31 -74 21 -24 17 -39 -10 -39 -13 0 -60
-17 -105 -37 -76 -36 -81 -40 -81 -70 0 -25 5 -33 29 -41 16 -6 38 -8 49 -6
10 3 24 -2 31 -10 8 -9 22 -16 32 -16 10 0 30 -11 45 -24 l28 -23 -24 -73
c-21 -62 -31 -77 -70 -105 -25 -18 -62 -36 -83 -40 l-37 -7 0 -107 c0 -95 2
-108 20 -121 26 -18 26 -30 0 -30 -20 0 -20 -7 -20 -844 0 -835 0 -844 20
-849 26 -7 26 -37 0 -37 -19 0 -20 -7 -20 -119 0 -101 2 -120 17 -125 9 -4
285 -6 614 -6 558 1 598 2 604 19 4 14 55 41 79 41 4 0 12 -14 18 -30 l10 -30
929 0 929 1 0 152 c0 96 -4 157 -11 164 -8 8 -8 22 0 49 7 27 11 340 11 981 0
923 0 941 -19 936 -14 -4 -20 1 -23 18 -5 36 -23 33 -71 -14 -54 -54 -109 -69
-139 -39 -18 17 -18 21 -4 63 9 24 16 49 16 56 0 7 23 33 50 59 28 26 50 52
50 59 0 16 -51 26 -67 13 -7 -5 -17 -7 -23 -3 -6 3 -29 -7 -52 -24 -23 -17
-47 -31 -53 -31 -5 0 -27 -9 -47 -20 -40 -21 -109 -23 -129 -3 -9 9 -6 20 10
47 26 42 21 75 -12 77 -44 2 -53 5 -86 24 -81 48 -90 74 -34 96 15 6 36 17 45
26 9 8 44 17 78 20 58 6 83 18 63 32 -5 3 -15 26 -21 50 -12 49 -2 91 23 91
30 0 120 -48 149 -79 17 -17 35 -31 40 -31 6 0 22 -9 36 -20 30 -23 83 -26
100 -5 17 20 4 66 -21 72 -11 3 -26 18 -34 33 -11 20 -20 27 -34 23 -37 -9
-41 137 -5 151 27 11 68 -6 100 -40 37 -40 84 -47 84 -14 0 11 7 20 15 20 12
0 15 18 15 105 l0 105 -1009 0 c-1000 0 -1009 0 -1014 -20 -3 -11 -10 -20 -17
-20 -7 0 -14 9 -17 20 -5 19 -14 20 -155 20 -126 0 -149 -2 -145 -14 3 -8 1
-28 -6 -45 -9 -25 -8 -33 7 -50 26 -29 14 -48 -52 -79 -32 -15 -72 -38 -89
-50 -36 -26 -53 -28 -53 -7 0 9 -7 18 -15 21 -8 4 -15 12 -15 20 0 8 -13 32
-29 54 -19 27 -31 58 -36 95 -9 79 -27 69 -55 -32 -22 -83 -54 -153 -68 -153
-4 0 -34 11 -67 25 -33 13 -70 25 -81 25 -26 0 -74 46 -74 71 0 9 16 31 35 46
l35 29 -25 22 c-23 20 -36 22 -140 22 -108 0 -115 -1 -115 -20z m1288 -270 c6
-50 -52 -141 -101 -159 -32 -12 -43 -69 -19 -89 15 -11 15 -14 2 -22 -21 -13
-37 -12 -68 4 -15 8 -45 18 -67 22 -61 11 -79 34 -81 105 -1 43 3 62 12 66 8
3 14 11 14 18 0 6 9 20 20 30 20 18 21 17 55 -21 30 -34 36 -37 45 -22 6 9 24
19 41 23 19 4 34 16 39 30 19 51 102 62 108 15z m236 -161 c5 -4 5 -16 1 -26
-10 -23 -16 -103 -9 -115 3 -5 11 -4 19 2 28 23 165 -13 165 -44 0 -24 -130
-90 -159 -81 -11 3 -22 1 -26 -5 -3 -5 -15 -10 -26 -10 -27 0 -25 -49 3 -85
24 -31 14 -62 -18 -57 -11 2 -32 6 -49 9 -16 3 -34 11 -40 17 -5 7 -22 21 -37
30 -16 10 -28 22 -28 28 0 27 -54 54 -108 54 l-56 -1 -1 -37 c-2 -32 3 -41 32
-60 18 -13 33 -25 33 -28 0 -3 11 -18 25 -34 14 -16 25 -36 25 -45 0 -9 3 -26
6 -38 6 -21 3 -23 -34 -23 -46 0 -102 28 -102 51 0 28 -12 29 -36 4 -30 -33
-54 -32 -88 4 -39 41 -62 170 -37 209 11 17 109 43 138 36 18 -5 23 -2 23 14
0 24 41 37 70 22 17 -9 22 -7 29 13 5 12 16 29 25 36 18 15 22 36 5 26 -14
-10 -59 3 -59 17 0 17 33 37 62 38 20 0 41 14 75 50 l46 49 61 -6 c34 -3 65
-9 70 -14z m-956 -14 c11 -14 29 -25 40 -25 11 0 27 -11 35 -23 9 -13 30 -30
47 -37 23 -10 30 -18 27 -32 -3 -10 -1 -21 4 -24 20 -12 7 -40 -32 -69 -22
-16 -42 -39 -45 -52 -3 -12 -15 -25 -25 -28 -11 -4 -26 -20 -34 -36 -9 -16
-19 -29 -24 -29 -11 0 -33 28 -51 63 -8 16 -28 38 -45 50 -59 42 -91 87 -62
87 19 0 84 86 103 136 19 50 34 55 62 19z m-93 -590 c14 -31 25 -64 25 -73 0
-10 4 -22 9 -27 21 -22 52 -89 47 -101 -3 -8 1 -14 8 -14 8 0 25 36 41 88 37
114 66 182 76 182 5 0 9 -5 9 -10 0 -6 15 -8 39 -4 30 5 39 3 44 -11 4 -10 14
-14 24 -11 10 3 26 -1 36 -9 22 -16 35 -89 18 -99 -24 -16 -11 -59 30 -97 29
-27 40 -44 37 -61 -3 -21 -7 -23 -56 -20 -46 2 -58 7 -80 33 -61 73 -68 75
-78 14 -8 -58 0 -99 28 -136 13 -16 32 -42 44 -57 40 -51 38 -122 -2 -122 -17
0 -77 31 -82 42 -8 18 -32 -8 -44 -49 -16 -57 -66 -100 -96 -84 -29 15 -60 70
-68 120 -4 23 -10 38 -13 33 -3 -6 -19 -14 -34 -17 -15 -4 -30 -11 -33 -16 -9
-15 -51 -10 -58 7 -9 23 -7 74 2 74 5 0 15 11 22 25 7 14 19 25 25 25 11 0 27
25 39 63 3 9 12 17 21 17 13 0 15 9 9 53 -4 28 -8 54 -10 56 -6 7 -58 -22 -79
-45 -29 -31 -79 -54 -123 -57 -34 -2 -37 0 -40 27 -4 30 15 86 29 86 4 0 18
14 30 31 l22 31 -22 29 -21 29 37 34 c25 23 48 36 66 36 16 0 40 9 54 20 36
28 39 27 68 -35z m2665 -74 c0 -7 -19 -30 -75 -92 -8 -9 -15 -19 -15 -23 0
-34 -127 -156 -163 -156 -18 0 -57 51 -57 75 0 19 67 85 86 85 7 0 29 14 47
30 19 17 40 30 47 30 7 0 27 11 44 23 44 34 86 48 86 28z m-717 -63 c31 -15
34 -41 15 -113 -11 -42 -10 -46 12 -70 13 -14 29 -25 37 -25 16 0 17 -16 2
-25 -13 -8 -76 33 -123 80 -30 30 -36 43 -36 78 0 74 34 102 93 75z m-1156
-108 c24 -16 50 -30 58 -30 24 0 73 -50 80 -82 10 -43 -33 -85 -67 -67 -29 14
-78 60 -78 72 0 4 -7 15 -15 23 -8 9 -15 24 -15 33 0 10 -7 24 -15 31 -17 14
-20 50 -4 50 6 0 31 -13 56 -30z m645 -65 c18 -64 -33 -146 -99 -160 -38 -8
-44 6 -14 32 16 13 18 25 14 69 -6 51 -5 53 28 73 43 27 60 23 71 -14z m878
-245 c0 -11 -4 -20 -10 -20 -5 0 -10 9 -10 20 0 11 5 20 10 20 6 0 10 -9 10
-20z m0 -60 c0 -12 9 -38 19 -59 22 -42 76 -66 127 -55 41 8 79 -32 65 -69
-14 -36 -25 -40 -92 -32 -67 8 -95 29 -130 99 -24 49 -26 136 -4 136 8 0 15
-9 15 -20z m-223 -32 c-11 -46 -60 -173 -69 -179 -5 -3 -6 -12 -3 -21 5 -12
-10 -15 -96 -16 -90 -2 -105 -5 -126 -24 -13 -12 -26 -19 -29 -16 -7 7 17 91
28 99 4 3 11 33 14 67 5 41 11 62 20 62 7 0 19 7 27 15 11 11 22 12 51 4 20
-6 42 -6 49 -2 11 7 95 29 126 32 9 1 12 -6 8 -21z m-839 -57 c9 -5 25 -12 34
-15 13 -4 16 -13 11 -40 -3 -22 -2 -36 5 -36 5 0 13 20 16 45 7 43 15 53 30
38 4 -4 13 -8 19 -9 29 -2 77 -17 77 -24 0 -4 3 -22 6 -39 6 -27 4 -31 -15
-31 -18 0 -20 4 -15 25 7 30 -12 34 -21 5 -3 -11 -12 -20 -19 -20 -7 0 -23
-20 -36 -45 -13 -25 -28 -45 -33 -45 -15 0 -36 32 -37 55 0 11 -6 29 -14 40
-7 11 -16 32 -19 47 -4 14 -10 33 -13 42 -7 18 -1 20 24 7z m-404 -176 c21
-33 21 -35 -13 -35 -37 0 -58 23 -39 44 19 22 33 19 52 -9z m576 4 c0 -5 -4
-9 -10 -9 -5 0 -10 -4 -10 -10 0 -5 9 -10 20 -10 23 0 27 -15 5 -24 -24 -9
-75 5 -75 20 0 8 5 14 10 14 6 0 10 6 10 14 0 8 10 14 25 14 14 0 25 -4 25 -9z
m470 -289 c0 -5 -7 -10 -15 -10 -8 0 -15 5 -15 10 0 6 7 10 15 10 8 0 15 -4
15 -10z m-474 -35 c4 -10 13 -13 24 -10 11 3 20 0 24 -10 3 -8 10 -15 15 -15
6 0 8 6 5 14 -3 7 3 16 13 20 10 3 24 9 31 12 19 9 14 -21 -7 -40 -14 -12 -20
-37 -25 -96 -7 -79 -24 -106 -50 -80 -5 5 -18 10 -28 10 -10 0 -18 7 -18 15 0
8 -9 15 -20 15 -11 0 -20 5 -20 10 0 6 -11 10 -25 10 -16 0 -25 -6 -25 -15 0
-10 10 -15 30 -15 20 0 30 -5 30 -15 0 -10 -10 -15 -29 -15 -17 0 -33 -4 -36
-10 -8 -14 -25 -13 -25 2 0 6 -7 19 -15 28 -13 14 -12 22 1 65 8 28 13 66 12
85 l-3 35 60 6 c33 3 64 6 68 7 4 1 10 -5 13 -13z m533 -11 c2 -10 8 -22 14
-26 7 -4 7 -11 -3 -22 -11 -14 -10 -19 4 -34 9 -10 16 -35 16 -55 0 -20 5 -37
10 -37 6 0 10 7 10 15 0 37 29 11 46 -40 19 -63 15 -75 -20 -51 -14 9 -32 16
-40 16 -8 0 -19 6 -23 14 -4 7 -17 13 -28 13 -83 -2 -89 6 -87 122 2 84 3 87
31 71 18 -9 23 -7 33 15 13 29 31 28 37 -1z m-141 -93 c3 -16 -1 -22 -10 -19
-7 3 -15 15 -16 27 -3 16 1 22 10 19 7 -3 15 -15 16 -27z m-1695 -166 c-4 -36
-2 -46 11 -51 20 -8 21 -38 0 -55 -14 -11 -14 -13 1 -22 14 -7 15 -19 10 -75
-4 -37 -11 -71 -15 -75 -4 -5 -5 -26 -3 -48 3 -21 1 -44 -4 -51 -6 -7 -9 -29
-8 -48 1 -19 -2 -42 -6 -50 -4 -8 -11 -32 -14 -53 -12 -72 -78 -105 -113 -56
-7 11 -24 19 -38 19 -30 0 -104 57 -104 80 0 9 5 21 12 28 6 6 13 35 15 64 6
108 9 116 42 98 12 -6 21 -20 21 -32 0 -44 47 -72 75 -44 17 17 28 123 13 132
-6 4 -8 25 -4 57 9 64 23 90 43 82 9 -3 20 0 25 7 13 21 9 48 -7 48 -8 0 -15
5 -15 10 0 6 6 10 14 10 16 0 29 27 20 41 -7 13 4 29 21 29 11 0 13 -10 8 -45z
m2157 5 c0 -11 -4 -20 -10 -20 -5 0 -10 9 -10 20 0 11 5 20 10 20 6 0 10 -9
10 -20z m-2318 -80 c14 -32 28 -40 28 -15 0 8 7 15 16 15 10 0 14 -6 11 -14
-3 -8 -9 -31 -13 -50 -7 -42 -6 -42 -47 -13 -42 29 -47 37 -40 67 12 50 25 53
45 10z m2013 -105 c0 -11 -11 -25 -26 -32 -14 -7 -31 -24 -39 -38 -20 -37 -30
-31 -30 19 0 39 4 47 28 60 37 20 67 16 67 -9z m-696 1 c7 -8 22 -17 35 -20
13 -3 36 -24 51 -46 26 -38 27 -42 15 -87 -13 -54 -26 -73 -47 -73 -10 0 -14
7 -10 20 3 11 1 23 -4 26 -5 3 -9 -4 -9 -15 0 -12 -7 -21 -15 -21 -17 0 -21
50 -6 66 13 13 1 94 -14 94 -6 0 -20 9 -30 20 -10 11 -26 20 -37 20 -10 0 -18
7 -18 15 0 20 73 21 89 1z m-385 -36 c29 -11 36 -44 9 -38 -20 4 -58 -37 -48
-52 3 -5 15 -10 26 -10 22 0 27 -38 7 -58 -17 -17 -53 -15 -68 3 -9 11 -16 13
-24 5 -14 -14 -46 -13 -46 1 0 22 98 155 117 159 1 0 13 -4 27 -10z m1520 -26
c20 -20 36 -42 36 -49 0 -8 16 -34 35 -59 42 -55 47 -92 13 -82 -13 4 -36 9
-53 12 -54 10 -90 32 -133 79 -47 51 -53 70 -21 60 19 -6 21 -4 15 18 -5 20
-1 29 16 41 34 24 52 20 92 -20z m-1954 6 c20 0 22 -42 2 -56 -13 -9 -22 -29
-25 -56 -2 -24 -8 -53 -12 -64 -5 -16 -1 -27 15 -42 40 -37 3 -122 -53 -122
-15 0 -18 5 -13 23 4 12 10 54 13 92 3 39 10 75 15 82 5 7 4 29 -3 57 -9 39
-9 48 5 61 9 9 16 21 16 27 0 5 7 7 16 4 9 -3 19 -6 24 -6z m1394 -6 c15 -38
-3 -114 -26 -114 -10 0 -18 80 -12 105 7 28 29 33 38 9z m-2046 -77 c2 -19 -1
-27 -12 -27 -17 0 -31 34 -21 50 11 18 30 5 33 -23z m2106 17 c9 -23 8 -24
-19 -24 -28 0 -30 5 -12 25 16 19 24 18 31 -1z m-1134 -101 c-1 -14 -27 -43
-39 -43 -15 0 -14 23 1 38 13 13 38 16 38 5z m1785 -44 c4 -6 5 -12 2 -15 -7
-7 -37 7 -37 17 0 13 27 11 35 -2z"/>
<path d="M1450 2586 c0 -17 5 -26 16 -26 10 0 14 7 12 22 -5 32 -28 35 -28 4z"/>
<path d="M2355 880 c-7 -12 2 -30 16 -30 12 0 12 27 0 35 -5 3 -12 1 -16 -5z"/>
<path d="M3140 2655 c-19 -7 -46 -14 -61 -14 -31 -1 -79 -23 -79 -36 0 -15 37
-35 54 -29 8 3 42 -2 76 -10 34 -9 64 -16 66 -16 2 0 4 27 4 60 0 66 -2 67
-60 45z"/>
</g>
</svg>

<path d="M0 2149 l0 -1051 23 6 c13 3 77 8 143 11 65 4 125 8 132 11 22 7 62
-7 62 -22 0 -8 -10 -15 -22 -16 -59 -4 -82 -5 -205 -6 l-133 -2 0 -540 0 -540
1028 0 1028 0 2 43 c5 122 11 147 33 147 7 0 9 -35 7 -95 l-4 -95 553 0 553 0
0 546 0 546 -145 -4 c-80 -3 -145 -3 -145 -2 0 23 23 55 36 50 8 -3 69 -8 135
-11 l119 -6 0 1041 0 1040 -515 0 c-451 0 -515 -2 -515 -15 0 -8 -5 -15 -10
-15 -6 0 -13 7 -16 15 -5 13 -134 15 -1075 15 l-1069 0 0 -1051z m2158 989
c-6 -18 -28 -21 -28 -4 0 9 7 16 16 16 9 0 14 -5 12 -12z m-7 -45 c1 -5 2
-128 3 -276 1 -233 -1 -267 -14 -265 -14 3 -16 14 -21 123 -1 11 2 70 6 131 6
80 5 113 -4 118 -15 9 -14 86 1 136 12 36 26 52 29 33z m-1 -573 c0 -5 -7 -10
-15 -10 -8 0 -15 5 -15 10 0 6 7 10 15 10 8 0 15 -4 15 -10z m-2 -58 c2 -7 -3
-12 -12 -12 -9 0 -16 7 -16 16 0 17 22 14 28 -4z m5 -79 c-7 -56 -11 -63 -24
-43 -8 13 -4 63 8 83 13 22 22 1 16 -40z m-8 -114 c0 -7 -8 -15 -17 -17 -18
-3 -25 18 -11 32 10 10 28 1 28 -15z m-5 -159 c0 -11 -7 -20 -15 -20 -8 0 -15
9 -15 20 0 11 7 20 15 20 8 0 15 -9 15 -20z m-6 -55 c9 -24 -5 -105 -18 -105
-7 0 -12 16 -13 36 -1 20 -7 40 -14 44 -17 11 -3 40 20 40 10 0 21 -7 25 -15z
m6 -134 c0 -12 -20 -25 -27 -18 -7 7 6 27 18 27 5 0 9 -4 9 -9z m-5 -50 c-6
-18 -7 -91 -3 -141 1 -14 7 -28 12 -32 7 -5 5 -13 -6 -25 -25 -24 -31 -13 -34
69 -4 75 10 148 27 148 6 0 8 -9 4 -19z m643 -193 c-6 -16 -36 -34 -44 -26 -3
4 -4 14 -1 23 7 17 51 21 45 3z m-1241 -50 c25 -24 30 -38 11 -38 -16 0 -48
31 -48 47 0 19 10 16 37 -9z m1183 16 c0 -16 -75 -64 -100 -64 -22 0 -8 20 25
36 20 9 38 20 41 25 6 10 34 12 34 3z m-577 -111 c11 -168 7 -246 -14 -266
-24 -23 -24 -34 2 -47 15 -9 19 -18 15 -34 -9 -38 28 -69 72 -61 81 15 214 15
243 -1 27 -13 30 -13 36 2 5 13 15 15 62 8 31 -4 67 -8 81 -9 14 -1 27 -3 30
-5 3 -1 54 -1 113 -1 85 1 108 -1 105 -11 -4 -10 -76 -13 -339 -13 -184 0
-340 -4 -346 -8 -32 -20 9 -53 105 -82 12 -3 22 -11 22 -17 0 -19 -84 3 -129
33 -50 35 -77 35 -74 -1 1 -14 -5 -42 -13 -63 -8 -20 -14 -55 -14 -77 0 -42
-19 -57 -22 -17 0 12 -1 29 -2 37 -1 8 -9 16 -19 18 -9 2 -17 10 -17 18 0 11
6 13 20 9 25 -8 28 20 3 34 -9 5 -18 20 -19 33 -4 54 -19 78 -39 60 -6 -5 -89
-4 -185 2 -236 15 -768 15 -778 0 -4 -6 -25 -11 -46 -12 -22 -1 -42 -6 -45
-11 -3 -5 -28 -12 -54 -16 -44 -7 -51 -5 -77 20 -20 19 -34 25 -48 21 -11 -4
-23 -2 -27 4 -5 7 -20 9 -40 6 -36 -7 -49 3 -39 29 6 14 16 16 68 10 33 -4 63
-12 65 -17 1 -5 12 -1 22 8 15 13 24 15 42 7 12 -5 63 -9 112 -8 181 4 284 4
460 -1 396 -13 475 -10 482 16 6 23 35 26 53 5 7 -8 27 -17 46 -21 19 -3 37
-10 40 -15 3 -5 17 -9 32 -9 15 0 34 -4 42 -10 21 -13 44 8 29 26 -8 10 -16
11 -31 3 -11 -6 -23 -8 -26 -4 -11 11 -8 185 3 193 12 8 15 82 3 82 -4 0 -8 9
-8 20 0 11 4 20 8 20 5 0 7 45 6 100 -3 78 -1 100 10 100 9 0 15 -24 19 -87z
m-517 13 c10 -8 16 -17 12 -21 -8 -8 -48 13 -48 25 0 14 13 12 36 -4z m574
-381 c0 -8 -4 -15 -10 -15 -5 0 -10 7 -10 15 0 8 5 15 10 15 6 0 10 -7 10 -15z
m-1740 -35 c0 -5 -4 -10 -10 -10 -5 0 -10 -7 -10 -16 0 -9 -5 -14 -12 -12 -18
6 -21 28 -4 28 9 0 16 5 16 10 0 6 5 10 10 10 6 0 10 -4 10 -10z m95 -20 c0
-10 -12 -16 -32 -18 -36 -4 -44 11 -15 27 23 14 47 9 47 -9z m65 11 c0 -5 3
-16 6 -25 5 -12 0 -16 -20 -16 -28 0 -33 13 -13 35 14 16 27 19 27 6z m1484
-372 c-3 -176 -4 -189 -18 -189 -11 0 -13 23 -11 118 4 152 3 144 18 139 8 -2
12 -25 11 -68z m517 -111 c23 -28 24 -38 4 -38 -13 0 -35 36 -35 56 0 10 13 2
31 -18z m47 -67 c3 -8 -1 -12 -9 -9 -7 2 -15 10 -17 17 -3 8 1 12 9 9 7 -2 15
-10 17 -17z m-568 -236 c0 -58 -4 -105 -8 -105 -10 0 -25 188 -16 201 17 27
24 -2 24 -96z"/>
</g>
</svg>

<path d="M20 3180 c0 -11 -4 -20 -10 -20 -6 0 -10 -47 -10 -120 0 -118 5 -135
30 -105 15 18 42 19 58 3 19 -19 14 -31 -13 -26 -17 4 -33 -2 -50 -18 -24 -22
-25 -27 -25 -162 l0 -138 58 -18 c59 -19 152 -71 152 -87 0 -13 -12 -11 -34 6
-11 8 -27 15 -37 15 -9 0 -22 7 -29 15 -6 8 -24 13 -38 12 -15 0 -37 2 -50 7
l-22 7 0 -251 c0 -236 1 -252 18 -245 48 20 64 2 32 -36 -15 -16 -23 -20 -26
-11 -9 19 -24 14 -24 -8 0 -11 5 -20 10 -20 6 0 10 -7 10 -15 0 -8 -4 -15 -10
-15 -7 0 -10 -178 -10 -513 l0 -512 22 -10 c35 -15 37 -76 4 -103 l-26 -20 0
-216 c0 -131 4 -222 10 -229 37 -45 110 -143 110 -149 0 -14 -30 -8 -70 12
-22 11 -42 20 -45 20 -3 0 -5 -52 -5 -115 0 -70 4 -115 10 -115 6 0 10 7 10
15 0 19 14 19 29 1 10 -12 90 -15 507 -16 488 -1 496 0 525 20 30 22 60 24 66
3 2 -6 -8 -13 -24 -16 -16 -2 -6 -5 24 -6 43 -1 54 3 63 19 14 26 33 26 25 0
-6 -20 -2 -20 805 -20 718 0 813 2 835 16 24 16 89 11 101 -7 3 -5 54 -9 115
-9 l109 0 0 1121 c0 1057 -1 1123 -17 1135 -17 13 -17 15 0 25 24 14 26 269 2
269 -8 0 -15 5 -15 10 0 6 7 10 15 10 11 0 15 11 15 36 0 38 0 38 -67 13 -26
-10 -31 -29 -8 -29 8 0 15 -5 15 -11 0 -10 -76 -6 -122 7 -40 12 5 54 56 54
10 0 43 8 73 17 l53 17 0 263 0 263 -661 0 c-574 0 -662 -2 -675 -15 -9 -8
-22 -15 -30 -15 -8 0 -17 7 -20 15 -9 23 -599 23 -608 0 -3 -8 -10 -15 -16
-15 -5 0 -10 7 -10 15 0 8 -9 15 -20 15 -21 0 -28 -24 -10 -35 17 -10 11 -19
-25 -42 -64 -42 -90 -20 -35 29 50 44 41 48 -95 48 -77 0 -125 -4 -125 -10 0
-5 -7 -10 -15 -10 -8 0 -15 5 -15 10 0 6 -55 10 -145 10 -133 0 -145 -1 -145
-18 0 -10 -4 -22 -9 -27 -4 -6 -14 -31 -21 -58 -12 -44 -25 -65 -35 -55 -3 2
4 33 15 69 11 35 20 70 20 77 0 9 -57 12 -250 12 -243 0 -250 -1 -250 -20z
m220 -48 c0 -14 -39 -46 -47 -39 -3 4 2 16 12 27 19 21 35 26 35 12z m650 -18
c11 -12 10 -18 -3 -32 -16 -15 -18 -15 -38 5 -12 11 -18 26 -15 32 10 16 41
13 56 -5z m-272 -103 c3 -8 -1 -12 -9 -9 -7 2 -15 10 -17 17 -3 8 1 12 9 9 7
-2 15 -10 17 -17z m-138 -6 c0 -22 -32 -75 -45 -75 -18 0 -18 1 10 47 18 29
35 43 35 28z m824 -37 c9 -35 7 -88 -3 -88 -5 0 -11 12 -13 28 -5 49 -88 39
-108 -13 -5 -14 -20 -26 -39 -30 -17 -4 -35 -14 -41 -23 -9 -15 -15 -12 -45
22 -34 38 -35 39 -55 21 -11 -10 -20 -24 -20 -32 0 -7 -4 -13 -10 -13 -32 0
10 86 53 109 32 17 53 4 62 -40 9 -38 12 -37 69 21 48 48 64 56 117 59 20 1
28 -5 33 -21z m-4 -117 c0 -12 -20 -25 -27 -18 -7 7 6 27 18 27 5 0 9 -4 9 -9z
m248 -43 c25 -13 28 -36 8 -64 -14 -17 -16 -18 -28 -3 -8 11 -35 19 -74 22
l-61 6 -46 -49 c-32 -34 -54 -49 -70 -48 -12 1 -35 -7 -51 -17 -26 -18 -27
-20 -10 -32 10 -7 26 -13 36 -13 22 0 23 -13 3 -30 -8 -7 -15 -19 -15 -27 0
-12 -7 -14 -29 -10 -41 9 -71 -2 -71 -25 0 -16 -5 -19 -23 -14 -29 7 -128 -19
-138 -36 -11 -18 -32 4 -27 28 3 19 110 58 191 69 26 3 47 9 47 13 0 4 -38 20
-85 36 -47 16 -88 33 -91 38 -12 19 7 20 53 4 69 -25 86 -28 103 -17 13 9 13
12 -2 23 -13 10 -15 21 -10 47 8 36 36 59 30 25 -2 -16 4 -20 39 -22 36 -3 50
3 96 38 104 78 156 91 225 58z m-968 -40 c22 -24 40 -46 40 -50 0 -18 -34 -6
-52 17 -27 34 -44 31 -58 -10 -6 -19 -16 -35 -21 -35 -5 0 -9 -7 -9 -16 0 -35
-98 -123 -121 -108 -13 7 -11 34 2 34 20 0 109 104 134 158 14 28 30 52 36 52
5 0 28 -19 49 -42z m680 23 c0 -12 -20 -25 -27 -18 -7 7 6 27 18 27 5 0 9 -4
9 -9z m-306 -55 c-4 -18 0 -28 15 -38 26 -16 27 -28 3 -28 -38 0 -54 22 -41
58 13 37 32 44 23 8z m586 -25 c0 -12 -20 -25 -27 -18 -7 7 6 27 18 27 5 0 9
-4 9 -9z m-1340 -29 c0 -11 -86 -52 -110 -52 -10 0 -22 -4 -25 -10 -9 -14 -38
-13 -33 2 2 6 29 21 60 32 31 12 60 25 64 29 10 10 44 9 44 -1z m1457 -41 c63
-33 90 -58 77 -71 -8 -8 -25 -3 -62 20 -29 17 -56 29 -61 26 -5 -4 -21 -2 -35
4 -16 6 -27 6 -31 0 -4 -6 -13 -10 -21 -10 -15 0 -20 41 -6 54 12 13 98 -1
139 -23z m876 -20 c2 -11 23 -29 46 -40 44 -23 57 -47 19 -35 -26 8 -98 62
-98 73 0 25 26 26 33 2z m-1785 -20 c3 -16 -1 -22 -10 -19 -7 3 -15 15 -16 27
-3 16 1 22 10 19 7 -3 15 -15 16 -27z m730 -19 c2 -15 -2 -22 -12 -22 -11 0
-16 9 -16 26 0 31 23 28 28 -4z m1232 -52 c0 -5 -7 -10 -15 -10 -8 0 -15 5
-15 10 0 6 7 10 15 10 8 0 15 -4 15 -10z m260 -39 c0 -12 -20 -25 -27 -18 -7
7 6 27 18 27 5 0 9 -4 9 -9z m-1730 -30 c0 -8 -81 -23 -88 -16 -2 2 -1 8 3 14
7 13 85 15 85 2z m270 -31 c24 -47 26 -93 5 -110 -21 -17 -29 -6 -14 18 10 16
9 24 -9 47 -22 28 -30 85 -12 85 5 0 19 -18 30 -40z m1390 14 c0 -9 -41 -42
-74 -60 -29 -16 -108 -15 -124 0 -11 12 21 25 48 19 15 -3 42 3 66 15 58 29
84 37 84 26z m-1680 -65 c51 -41 80 -97 80 -154 l0 -45 -45 0 c-25 0 -45 5
-45 10 0 6 16 10 36 10 33 0 36 2 30 23 -3 12 -6 29 -6 38 0 9 -11 29 -25 45
-14 16 -25 31 -25 34 0 3 -16 16 -35 29 -19 13 -35 27 -35 32 0 18 33 8 70
-22z m-240 -49 c0 -11 -4 -20 -10 -20 -5 0 -10 9 -10 20 0 11 5 20 10 20 6 0
10 -9 10 -20z m470 0 c0 -5 -7 -10 -15 -10 -8 0 -15 5 -15 10 0 6 7 10 15 10
8 0 15 -4 15 -10z m-963 -161 c18 -35 42 -90 54 -122 26 -68 28 -66 64 49 27
83 48 124 60 112 4 -3 -9 -48 -28 -100 -19 -51 -41 -112 -48 -135 -12 -44 -29
-58 -29 -25 0 10 -13 39 -30 65 -16 26 -30 54 -30 62 0 21 -49 125 -59 125 -5
0 -20 -9 -34 -20 -26 -21 -67 -27 -67 -10 0 5 15 16 33 23 17 8 38 21 46 31
21 25 33 16 68 -55z m2481 65 c12 -4 22 -11 22 -16 0 -14 -53 -5 -58 10 -4 13
2 15 36 6z m-2264 -20 c20 -8 21 -34 1 -34 -8 0 -15 2 -15 4 0 2 -3 11 -6 20
-7 18 -4 19 20 10z m104 -36 c-6 -18 -28 -21 -28 -4 0 9 7 16 16 16 9 0 14 -5
12 -12z m-498 -26 c0 -14 -39 -46 -47 -39 -3 4 2 16 12 27 19 21 35 26 35 12z
m570 -43 c10 -22 10 -33 2 -41 -15 -15 -18 -11 -25 35 -7 45 6 49 23 6z m2240
-88 c0 -12 -20 -25 -27 -18 -7 7 6 27 18 27 5 0 9 -4 9 -9z m-2225 -26 c30
-29 32 -45 6 -45 -19 0 -61 43 -61 61 0 17 31 8 55 -16z m-625 6 c0 -13 -29
-35 -37 -28 -7 8 15 37 28 37 5 0 9 -4 9 -9z m888 -4 c6 -7 46 -28 89 -47 116
-50 183 -113 183 -171 0 -40 -16 -36 -24 5 -7 35 -55 86 -81 86 -7 0 -37 16
-66 35 -39 26 -55 31 -61 22 -10 -14 -68 44 -68 68 0 18 14 19 28 2z m1312
-32 c0 -8 -4 -15 -10 -15 -5 0 -10 7 -10 15 0 8 5 15 10 15 6 0 10 -7 10 -15z
m-562 -63 c6 -9 12 -22 12 -29 0 -15 -16 -17 -25 -3 -3 6 -22 -1 -45 -15 -49
-31 -50 -31 -50 0 0 60 73 91 108 47z m-1438 -32 c0 -11 -4 -20 -10 -20 -5 0
-10 9 -10 20 0 11 5 20 10 20 6 0 10 -9 10 -20z m1998 -22 c12 -23 20 -44 17
-46 -10 -11 -55 42 -55 65 0 34 12 28 38 -19z m-106 12 c7 -12 37 -37 66 -58
50 -34 55 -35 67 -19 15 21 23 21 64 1 21 -10 36 -13 44 -6 7 5 24 12 39 16
14 3 33 9 42 12 10 4 16 1 16 -9 0 -18 -15 -24 -101 -42 -70 -15 -126 -11
-171 11 -25 13 -98 93 -98 108 0 14 21 5 32 -14z m-1452 0 c0 -5 -7 -10 -15
-10 -8 0 -15 5 -15 10 0 6 7 10 15 10 8 0 15 -4 15 -10z m1940 -30 c26 -37 43
-38 87 -4 19 14 37 23 41 19 11 -11 -60 -65 -84 -65 -26 0 -84 45 -84 66 0 23
17 16 40 -16z m-912 -11 c4 -31 -14 -79 -29 -79 -7 0 -8 6 -3 18 4 9 8 34 7
55 -1 43 20 47 25 6z m-1508 -1 c-1 -16 -24 -48 -35 -48 -4 0 -14 -8 -21 -17
-7 -10 -16 -14 -21 -10 -4 5 0 14 10 21 9 7 17 17 17 21 0 11 31 45 42 45 4 0
8 -6 8 -12z m354 -64 c4 -9 4 -19 2 -21 -8 -8 -26 8 -26 23 0 19 16 18 24 -2z
m1032 -9 c4 -9 -4 -26 -20 -41 -14 -15 -24 -30 -21 -34 7 -12 72 14 100 40 14
13 28 20 32 16 13 -13 -54 -64 -99 -77 -24 -6 -63 -9 -88 -6 -51 5 -159 53
-167 74 -9 23 3 25 38 5 19 -10 46 -22 61 -25 34 -9 108 16 128 42 18 24 29
26 36 6z m1004 -74 c0 -20 -20 -61 -30 -61 -14 0 -13 26 2 50 13 21 28 27 28
11z m-2380 -31 c0 -12 -28 -25 -36 -17 -9 9 6 27 22 27 8 0 14 -5 14 -10z
m1006 -85 c33 -96 1 -275 -54 -300 -12 -5 -22 -13 -22 -17 0 -19 -27 -5 -43
22 -19 31 -28 34 -62 21 -18 -7 -18 -9 9 -35 15 -16 25 -30 23 -33 -12 -11
-69 31 -84 61 -15 32 -15 36 6 64 26 37 49 46 85 32 37 -14 47 -13 74 8 32 25
44 84 31 149 -16 82 11 102 37 28z m1174 18 c-1 -17 -50 -41 -126 -61 -98 -27
-134 -28 -134 -6 0 10 5 14 15 10 9 -3 23 -2 33 3 15 9 187 59 205 60 4 1 7
-2 7 -6z m-500 -48 c0 -8 -4 -15 -10 -15 -5 0 -10 7 -10 15 0 8 5 15 10 15 6
0 10 -7 10 -15z m-1510 -4 c0 -12 -20 -25 -27 -18 -7 7 6 27 18 27 5 0 9 -4 9
-9z m1155 -35 c33 -8 89 -17 125 -18 72 -3 76 -8 79 -103 1 -22 8 -53 16 -69
8 -15 15 -34 15 -41 0 -7 7 -26 15 -41 8 -16 15 -37 15 -46 0 -11 8 -18 20
-18 13 0 20 -7 20 -20 0 -24 -41 -28 -60 -5 -7 8 -21 15 -31 15 -24 0 -28 9
-31 64 -3 41 -6 46 -27 46 -16 0 -21 4 -17 15 4 11 -1 15 -19 15 -34 0 -40 -3
-37 -17 3 -12 -36 -29 -45 -19 -10 9 39 96 53 96 7 0 16 9 19 20 9 29 28 25
21 -5 -5 -21 -3 -25 15 -25 19 0 21 4 15 31 -3 17 -6 38 -6 46 0 8 -4 11 -10
8 -5 -3 -30 1 -55 10 -25 8 -48 15 -50 15 -2 0 -7 -20 -11 -45 -3 -25 -11 -45
-16 -45 -7 0 -8 14 -5 36 5 27 2 36 -11 40 -9 3 -25 10 -34 15 -10 5 -24 6
-32 3 -16 -6 -36 23 -36 52 0 18 2 18 105 -10z m525 -35 c0 -52 -10 -101 -21
-101 -5 0 -8 31 -7 70 2 48 7 70 16 70 7 0 12 -14 12 -39z m-576 -47 c6 -24 2
-43 -8 -33 -11 10 -17 59 -8 59 5 0 13 -12 16 -26z m1066 11 c0 -8 -4 -15 -10
-15 -5 0 -10 7 -10 15 0 8 5 15 10 15 6 0 10 -7 10 -15z m48 -74 c3 -8 -1 -12
-9 -9 -7 2 -15 10 -17 17 -3 8 1 12 9 9 7 -2 15 -10 17 -17z m-1084 -8 c2 -10
7 -33 11 -50 4 -18 11 -33 16 -33 5 0 9 -7 9 -15 0 -20 -13 -19 -38 3 -25 22
-39 112 -17 112 7 0 16 -8 19 -17z m1174 -30 c2 -9 -7 -13 -27 -13 -21 0 -31
5 -31 16 0 19 51 16 58 -3z m-683 -44 c-8 -34 0 -34 40 2 18 16 109 26 193 20
41 -2 23 -21 -21 -21 -60 0 -184 -36 -240 -71 -80 -49 -85 -38 -21 49 45 59
59 65 49 21z m-415 -39 c11 -7 12 -12 3 -21 -13 -13 -33 -4 -33 17 0 16 9 18
30 4z m100 -13 c0 -13 -28 -20 -55 -13 -39 10 -29 24 15 22 22 0 40 -4 40 -9z
m240 -112 c0 -8 -9 -15 -20 -15 -11 0 -20 7 -20 15 0 8 9 15 20 15 11 0 20 -7
20 -15z m-119 -71 c-2 -10 -3 -34 -3 -51 1 -32 -12 -45 -21 -20 -3 9 -7 9 -20
-2 -13 -10 -21 -11 -30 -3 -10 9 -19 7 -36 -5 -21 -14 -24 -14 -32 -1 -7 12
-20 14 -54 10 -66 -7 -55 10 19 32 35 10 86 28 112 41 55 26 71 26 65 -1z
m155 -3 c38 -28 117 -51 174 -51 30 0 37 -13 21 -39 -6 -9 -18 -11 -35 -7 -25
6 -26 5 -28 -41 -4 -117 8 -165 41 -156 10 3 22 0 26 -7 5 -8 11 -8 22 2 12
10 17 9 24 -5 6 -9 17 -17 25 -17 8 0 32 -11 54 -25 22 -14 46 -25 55 -25 8 0
15 -9 15 -20 0 -22 -15 -27 -26 -9 -16 27 -139 71 -212 76 -84 7 -78 0 -123
143 -14 45 -39 94 -61 124 -37 48 -45 66 -31 79 10 11 17 9 59 -22z m-119 -56
c8 -22 -6 -33 -17 -15 -13 20 -12 30 0 30 6 0 13 -7 17 -15z m401 3 c7 -7 12
-27 12 -45 0 -18 9 -57 21 -88 23 -63 19 -80 -11 -45 l-20 23 0 -26 c0 -15 -4
-27 -10 -27 -5 0 -10 17 -10 37 0 20 -7 44 -15 53 -14 15 -14 20 0 46 11 22
12 30 2 33 -13 4 -27 21 -27 33 0 5 13 11 41 17 3 0 10 -4 17 -11z m-708 -7
c0 -6 -4 -12 -9 -16 -5 -3 -7 -20 -5 -38 3 -17 -2 -54 -10 -82 -13 -43 -14
-51 -1 -65 8 -9 15 -22 15 -28 0 -15 17 -16 25 -2 3 6 19 10 36 10 22 0 29 5
29 20 0 11 7 20 15 20 8 0 15 -7 15 -15 0 -8 9 -15 19 -15 11 0 23 -5 26 -10
4 -6 15 -8 26 -5 13 4 19 2 19 -9 0 -12 -11 -16 -48 -16 -27 0 -84 -9 -128
-21 -43 -12 -90 -24 -103 -26 -13 -3 -36 -20 -52 -37 -35 -39 -50 -27 -16 13
48 58 89 160 94 236 4 47 10 74 21 83 19 14 32 16 32 3z m1211 -54 c38 -26 49
-79 22 -109 -20 -22 -74 -23 -114 -2 -43 22 -70 14 -97 -26 -22 -31 -23 -43
-20 -117 5 -93 -10 -111 -37 -47 -19 46 -19 54 0 54 8 0 15 9 15 20 0 11 -4
20 -10 20 -5 0 -10 -7 -10 -15 0 -8 -5 -15 -11 -15 -21 0 -6 132 19 167 61 85
172 118 243 70z m-1554 -24 c42 -31 55 -55 69 -128 10 -52 9 -65 -6 -100 -9
-22 -20 -48 -23 -58 -6 -17 -34 -34 -42 -25 -2 2 3 27 12 55 19 60 12 95 -26
134 -24 23 -34 27 -63 23 -41 -7 -83 24 -93 68 -6 23 -2 28 27 41 67 31 93 29
145 -10z m583 20 c0 -5 -4 -15 -10 -23 -11 -18 -25 -7 -17 15 6 15 27 21 27 8z
m370 -39 c0 -9 -5 -14 -12 -12 -18 6 -21 28 -4 28 9 0 16 -7 16 -16z m-1747
-62 c22 -25 46 -95 51 -151 5 -58 4 -55 19 -43 21 17 72 23 100 13 23 -9 27
-16 27 -49 0 -40 -11 -58 -69 -121 -30 -32 -39 -69 -25 -105 10 -27 29 -18 48
24 15 35 75 90 98 90 14 0 9 -28 -8 -45 -14 -13 -14 -22 -5 -61 8 -29 8 -50 2
-57 -5 -7 -12 -43 -15 -82 -3 -38 -8 -80 -12 -92 -5 -18 -2 -23 13 -23 52 0
96 89 57 117 -10 7 -15 16 -11 19 10 11 57 -25 70 -53 11 -24 8 -29 -30 -63
-23 -20 -59 -42 -81 -48 -21 -7 -56 -23 -76 -37 -45 -31 -52 -31 -68 -2 -23
41 -78 170 -78 184 0 36 -21 5 -44 -65 -14 -42 -37 -90 -50 -107 l-25 -30 -33
19 c-18 11 -55 27 -83 36 -75 25 -153 132 -107 148 7 2 13 -2 11 -9 -3 -28 2
-36 43 -69 24 -20 52 -33 64 -32 13 1 29 -7 36 -17 35 -49 101 -16 113 56 3
21 10 45 14 53 4 8 7 31 6 50 -1 19 2 41 8 48 5 7 7 30 4 52 -3 22 -2 42 3 45
13 8 22 136 10 151 -9 10 -8 19 4 36 22 31 20 48 -5 48 -20 0 -21 4 -15 46 5
40 4 45 -12 42 -9 -2 -17 -12 -18 -23 -2 -40 -4 -45 -19 -45 -37 0 -21 69 31
137 29 38 35 40 57 15z m1207 -17 c0 -9 -9 -15 -25 -15 -16 0 -25 6 -25 15 0
9 9 15 25 15 16 0 25 -6 25 -15z m715 -61 c19 -45 19 -54 1 -54 -7 0 -16 10
-19 23 -3 12 -9 32 -12 45 -12 37 13 26 30 -14z m-2076 -92 c15 -9 35 -19 46
-22 11 -3 21 -14 23 -24 3 -14 -1 -17 -17 -11 -14 4 -23 1 -27 -9 -10 -26 -27
-18 -20 9 5 18 2 25 -9 25 -8 0 -15 -7 -15 -15 0 -18 -20 -20 -20 -2 -1 25
-29 52 -42 39 -16 -16 -28 -15 -28 1 0 40 57 45 109 9z m-46 -112 c14 -11 28
-20 31 -20 3 0 6 9 6 20 0 11 5 20 11 20 7 0 8 -14 4 -41 -5 -27 -3 -50 6 -65
7 -13 9 -27 4 -31 -4 -5 -10 -1 -13 7 -3 8 -25 35 -49 61 -58 62 -58 95 0 49z
m2097 -4 c72 -18 110 -36 110 -53 0 -7 -3 -13 -7 -13 -11 0 -76 22 -96 32 -13
7 -29 4 -54 -7 -37 -18 -50 -15 -37 7 5 7 7 21 6 31 -4 20 5 21 78 3z m-870
-16 c0 -13 7 -20 19 -20 19 0 38 -17 29 -25 -2 -2 -26 2 -53 10 -31 10 -51 12
-55 5 -3 -5 -20 -13 -38 -16 -55 -11 -40 21 21 45 66 25 77 26 77 1z m695 -60
c0 -50 -4 -70 -12 -70 -7 0 -13 10 -13 22 0 12 -6 37 -12 56 -11 30 -11 35 7
48 29 21 30 19 30 -56z m-965 30 c0 -5 5 -10 12 -10 25 0 48 -34 48 -71 0 -44
-31 -86 -82 -110 -18 -9 -81 -40 -140 -70 -102 -51 -136 -58 -110 -21 7 9 29
43 50 75 20 31 40 57 44 57 12 0 10 -48 -2 -55 -14 -9 -12 -35 3 -35 17 0 43
43 28 48 -19 6 -12 20 15 26 15 4 32 2 37 -3 15 -15 50 -14 65 1 20 20 15 58
-7 58 -11 0 -23 5 -26 11 -9 14 24 49 47 49 11 0 18 7 18 20 0 13 -7 20 -20
20 -11 0 -20 5 -20 10 0 6 9 10 20 10 11 0 20 -4 20 -10z m-391 -25 c18 -18
-10 -103 -49 -145 -31 -33 -57 -41 -45 -12 4 9 7 31 6 48 -1 21 6 37 24 52 33
28 33 52 0 52 -16 0 -25 6 -25 16 0 20 66 11 89 -11z m1421 6 c0 -15 -38 -56
-45 -49 -8 8 23 58 36 58 5 0 9 -4 9 -9z m357 -26 c1 -19 0 -35 -2 -35 -32 0
-46 35 -23 58 19 19 24 14 25 -23z m-1017 -1 c0 -17 -22 -14 -28 4 -2 7 3 12
12 12 9 0 16 -7 16 -16z m525 -6 c-10 -40 8 -100 33 -109 13 -5 22 -4 22 1 0
6 -7 10 -16 10 -9 0 -14 6 -12 13 6 17 39 21 49 5 6 -10 9 -10 9 0 0 6 7 12
15 12 8 0 15 -4 15 -10 0 -5 -4 -10 -10 -10 -5 0 -10 -8 -10 -18 0 -27 -20
-42 -56 -42 -58 0 -91 75 -64 144 12 32 33 35 25 4z m-1950 0 c26 -12 30 -19
18 -32 -9 -9 -14 -44 -15 -98 0 -48 -23 -50 -73 -7 -54 48 -73 149 -26 136 10
-2 25 -1 32 4 19 12 33 11 64 -3z m2617 -47 c27 -49 31 -78 8 -55 -10 10 -60
102 -60 110 0 19 28 -11 52 -55z m-1672 40 c0 -12 -20 -25 -27 -18 -7 7 6 27
18 27 5 0 9 -4 9 -9z m-855 -41 c16 -16 37 -30 47 -30 10 0 18 -5 18 -11 0
-15 -26 -39 -43 -39 -19 0 -51 36 -43 49 4 6 -2 19 -14 31 -23 23 -25 30 -7
30 7 0 26 -13 42 -30z m1345 -5 c0 -8 -4 -15 -10 -15 -5 0 -10 7 -10 15 0 8 5
15 10 15 6 0 10 -7 10 -15z m1019 -37 c42 -44 49 -58 30 -58 -15 0 -89 74 -89
89 0 21 17 11 59 -31z m-1039 -3 c0 -8 -4 -15 -10 -15 -5 0 -10 7 -10 15 0 8
5 15 10 15 6 0 10 -7 10 -15z m120 -18 c0 -17 -48 -63 -57 -54 -3 4 1 15 10
25 10 10 17 24 17 30 0 7 7 12 15 12 8 0 15 -6 15 -13z m-86 -33 c19 -7 21
-34 3 -34 -14 0 -37 20 -37 32 0 10 13 10 34 2z m1084 -13 c3 -8 -1 -12 -9 -9
-7 2 -15 10 -17 17 -3 8 1 12 9 9 7 -2 15 -10 17 -17z m149 3 c3 -9 0 -20 -8
-25 -17 -11 4 -29 33 -29 17 0 35 -36 24 -47 -3 -4 -14 1 -24 10 -10 10 -24
17 -30 17 -21 0 -132 53 -132 63 0 9 39 5 88 -9 18 -5 22 -2 22 15 0 25 18 28
27 5z m-1727 -203 c0 -11 -31 -24 -39 -16 -3 3 1 10 9 15 19 12 30 12 30 1z"/>
<path d="M2262 849 c1 -12 9 -24 16 -27 9 -3 13 3 10 19 -1 12 -9 24 -16 27
-9 3 -13 -3 -10 -19z"/>
<path d="M245 380 c-10 -16 4 -50 21 -50 11 0 14 8 12 27 -3 28 -22 41 -33 23z"/>
<path d="M0 271 c0 -15 6 -21 21 -21 14 0 19 5 17 17 -5 26 -38 29 -38 4z"/>
</g>
</svg>

</svg>