<svg xmlns="http://www.w3.org/2000/svg" viewBox="0 0 320 320">
<rect width="100%" height="100%" fill="#c9b79e"/>
<path d="M0 3124 l0 -76 28 7 c15 3 39 18 53 32 22 20 31 23 47 14 55 -30 23
-77 -73 -107 -54 -17 -55 -18 -55 -57 0 -39 0 -39 32 -33 24 5 46 -1 86 -20
73 -36 82 -59 51 -125 -28 -62 -48 -76 -116 -85 l-53 -7 0 -42 c0 -40 2 -44
29 -50 20 -4 46 1 80 16 41 17 54 19 66 9 42 -35 -6 -75 -122 -101 l-53 -12 0
-259 c0 -199 3 -258 12 -258 7 0 96 83 197 185 l184 185 -7 157 c-4 87 -12
183 -17 213 -20 116 -22 195 -7 208 15 12 213 4 436 -18 52 -5 103 -5 115 0
21 8 287 281 287 294 0 3 -103 6 -229 6 l-229 0 -6 -36 c-12 -60 -66 -54 -66
7 l0 29 -68 0 c-66 0 -67 -1 -81 -31 -15 -35 -71 -64 -106 -55 -34 9 -75 45
-75 67 0 16 -7 19 -50 19 -50 0 -50 0 -50 -33 0 -41 -20 -70 -46 -65 -16 3
-19 12 -17 51 l1 47 -89 0 -89 0 0 -76z"/>
<path d="M1390 3191 c0 -5 -72 -87 -161 -182 -88 -95 -172 -190 -185 -211 -14
-22 -31 -42 -40 -45 -8 -3 -96 2 -197 12 -100 9 -211 15 -247 13 l-65 -3 0
-65 c0 -36 -4 -75 -8 -88 -6 -15 -4 -28 3 -37 6 -8 16 -65 22 -127 5 -62 14
-117 19 -122 5 -6 9 -22 9 -37 0 -22 -19 -44 -97 -112 -110 -95 -443 -431
-442 -444 1 -12 417 -385 520 -466 l33 -26 -3 -234 c-1 -129 1 -237 6 -239 8
-5 172 3 355 17 l96 8 247 -239 c136 -132 253 -240 260 -242 14 -3 132 105
386 356 l136 134 94 -12 c52 -6 157 -10 234 -8 l140 3 1 225 c1 203 3 225 19
235 83 49 545 478 545 506 0 9 -127 141 -281 292 -267 260 -281 276 -275 303
26 109 35 421 12 430 -13 5 -307 -10 -431 -22 l-50 -4 -205 219 -205 219 -122
1 c-68 1 -123 -3 -123 -8z m272 -616 c273 -54 506 -230 616 -465 69 -150 85
-215 85 -345 -1 -225 -71 -399 -222 -558 -278 -290 -702 -352 -1046 -153 -105
61 -259 219 -312 321 -108 207 -129 431 -58 640 131 390 545 638 937 560z"/>
<path d="M1407 2540 c-496 -84 -801 -573 -639 -1028 161 -450 663 -659 1100
-457 497 230 607 889 213 1275 -169 165 -439 249 -674 210z m166 -117 c10 -6
-3 -115 -16 -131 -6 -7 -20 -12 -31 -10 -17 2 -23 14 -33 68 -13 78 -5 94 41
84 17 -3 34 -8 39 -11z m257 -53 c24 -24 24 -55 1 -95 -18 -31 -64 -60 -80
-50 -11 6 -3 74 11 92 5 7 7 21 3 32 -4 13 0 23 12 30 25 15 30 14 53 -9z
m-569 -48 c4 -19 12 -39 18 -45 16 -16 14 -52 -4 -67 -12 -10 -20 -7 -45 18
-16 17 -30 37 -30 46 0 8 -4 18 -10 21 -14 9 -13 38 2 53 25 25 62 10 69 -26z
m-206 -172 c35 -36 37 -42 27 -65 -13 -29 -24 -31 -42 -10 -7 8 -17 15 -23 15
-18 0 -57 42 -57 61 0 18 24 38 45 39 6 0 28 -18 50 -40z m1015 20 c28 -28 25
-44 -14 -74 -40 -30 -53 -32 -84 -10 -24 17 -30 44 -9 44 7 0 26 14 42 30 34
35 39 36 65 10z m-486 -61 c31 -25 34 -65 7 -124 -43 -95 -80 -88 -99 18 -13
70 -12 80 2 102 20 31 54 32 90 4z m-221 -86 c24 -28 70 -141 63 -158 -7 -20
-50 -19 -67 1 -7 9 -32 29 -56 45 -48 33 -56 66 -27 107 19 27 64 29 87 5z
m446 -7 c7 -8 11 -34 9 -58 -3 -40 -6 -45 -53 -70 -122 -67 -150 -11 -53 106
32 39 75 49 97 22z m373 -83 c21 -19 23 -44 6 -61 -21 -21 -122 -15 -143 8
-10 11 -16 21 -14 23 37 27 63 36 83 31 13 -3 27 -1 30 5 10 15 16 14 38 -6z
m-1266 -38 c10 -8 28 -15 40 -15 26 0 44 -19 44 -46 0 -22 -3 -23 -66 -19 -87
5 -110 26 -84 76 13 23 39 25 66 4z m979 -80 c31 -30 31 -52 3 -82 -24 -26
-45 -28 -106 -10 -93 28 -93 65 0 95 80 26 75 26 103 -3z m-600 -13 c41 -15
50 -22 50 -42 0 -31 -36 -49 -109 -57 -48 -5 -55 -3 -70 18 -21 30 -20 62 2
81 35 31 42 31 127 0z m855 -124 c64 -14 78 -30 56 -62 -21 -33 -50 -33 -101
2 -48 33 -65 90 -23 78 13 -4 43 -12 68 -18z m-389 -51 c19 -13 42 -26 52 -30
12 -4 17 -17 17 -41 0 -29 -5 -37 -32 -50 -53 -27 -107 -10 -108 33 0 9 -7 25
-15 35 -8 11 -15 32 -15 48 0 25 3 28 34 28 18 0 48 -10 67 -23z m-769 -4 c32
-29 23 -50 -24 -57 -24 -3 -53 -9 -65 -12 -30 -8 -51 32 -34 65 15 27 94 30
123 4z m446 -14 c2 -20 -9 -39 -45 -77 -61 -65 -93 -74 -128 -37 -48 53 -23
106 60 129 76 21 109 17 113 -15z m141 -23 c6 -7 14 -48 17 -90 9 -95 -7 -122
-66 -111 -46 9 -58 20 -66 60 -9 51 48 155 86 155 10 0 23 -6 29 -14z m475
-140 c46 -43 47 -45 34 -73 -17 -36 -57 -39 -74 -5 -6 13 -17 29 -23 35 -12
12 -15 70 -4 80 11 12 17 8 67 -37z m-917 -51 c4 -14 -81 -105 -98 -105 -19 0
-39 20 -39 39 0 8 15 30 32 48 27 28 39 33 67 31 19 -2 36 -8 38 -13z m673
-129 c5 -13 13 -25 19 -27 19 -7 18 -90 -1 -103 -27 -17 -48 2 -66 57 -12 37
-13 53 -4 72 15 32 40 32 52 1z m-474 -9 c2 -7 -8 -38 -24 -68 -32 -59 -58
-72 -85 -41 -17 18 -16 21 7 63 14 24 33 47 43 51 29 11 53 9 59 -5z m234 -39
c0 -6 7 -19 16 -29 10 -11 13 -23 8 -31 -5 -7 -9 -26 -9 -43 0 -26 -4 -30 -29
-33 -16 -2 -33 1 -38 6 -18 18 -19 94 -3 119 16 24 55 32 55 11z"/>
<path d="M1852 3190 c2 -5 58 -65 126 -133 l122 -124 193 -5 c143 -4 212 -2
269 9 50 9 88 11 110 5 33 -8 33 -9 33 -68 -1 -32 -6 -111 -13 -174 -6 -63
-12 -164 -12 -224 l0 -109 221 -218 c122 -121 239 -233 260 -250 l39 -31 0
325 0 325 -60 -25 c-75 -30 -225 -31 -244 -1 -17 28 13 49 86 58 72 9 117 28
145 63 10 13 30 31 46 41 21 14 27 26 27 52 0 34 -8 42 -26 24 -5 -5 -41 -25
-81 -44 -92 -45 -129 -39 -174 32 -45 71 -35 123 31 157 44 23 73 18 105 -15
35 -37 40 -37 99 -4 l46 26 0 58 0 58 -59 -19 c-70 -21 -192 -16 -213 9 -22
26 30 60 92 60 45 0 56 4 88 34 21 19 49 40 65 46 21 9 27 18 27 42 l0 30
-140 0 -140 0 0 -29 c0 -63 -74 -64 -86 -1 -6 28 -10 30 -50 30 -34 0 -44 -4
-49 -21 -10 -32 -65 -89 -86 -89 -36 0 -87 33 -110 71 -21 33 -29 38 -61 39
-37 0 -38 -1 -38 -35 0 -62 -50 -60 -80 3 l-15 32 -248 0 c-157 0 -247 -4
-245 -10z"/>
<path d="M3187 1642 c-5 -7 -27 -26 -48 -42 -58 -42 -468 -419 -480 -442 -12
-22 -14 -198 -4 -367 7 -108 6 -117 -12 -134 -16 -14 -26 -15 -46 -8 -32 12
-453 26 -498 16 -36 -8 -234 -189 -458 -417 -69 -71 -132 -128 -140 -128 -9 1
-52 41 -96 91 -87 98 -381 381 -432 417 -37 26 -142 29 -375 12 -98 -8 -144
-8 -158 0 -19 10 -20 20 -20 283 l0 272 -147 143 c-134 129 -252 232 -267 232
-3 0 -6 -124 -6 -276 l0 -275 23 7 c33 12 161 8 186 -5 44 -24 21 -40 -82 -59
-46 -9 -64 -18 -92 -48 -52 -55 -47 -78 11 -50 57 28 96 29 134 4 79 -53 76
-136 -6 -184 -47 -28 -81 -24 -125 13 -36 30 -49 17 -49 -52 l0 -65 43 5 c23
3 54 8 70 10 35 6 77 -10 77 -29 0 -22 -40 -46 -75 -46 -21 0 -42 -12 -72 -41
l-43 -40 0 -219 c0 -210 1 -220 19 -220 45 0 145 160 159 255 5 35 13 49 32
58 30 15 37 55 19 110 -12 36 -11 41 6 53 44 32 73 -2 82 -98 10 -109 -34
-215 -130 -316 l-61 -63 83 3 83 3 23 40 c12 22 45 73 74 114 58 85 61 101 26
143 -37 44 -35 109 4 149 35 34 42 35 101 6 52 -26 70 -55 70 -117 0 -64 -25
-111 -124 -233 l-87 -107 65 0 65 0 41 56 c48 63 79 129 80 162 0 32 16 60 57
104 l35 36 -22 45 c-27 55 -22 77 20 77 46 0 70 -46 70 -136 0 -63 -5 -81 -39
-150 -22 -44 -63 -105 -91 -137 l-52 -57 121 0 121 0 0 30 c0 91 198 88 208
-3 l3 -27 480 0 c463 0 479 1 479 19 0 57 98 94 170 64 41 -16 80 -51 80 -70
0 -10 26 -13 118 -12 113 0 116 1 92 17 -67 45 -132 119 -167 189 -34 68 -36
77 -30 139 7 69 34 143 53 144 24 0 34 -26 24 -61 -17 -59 -13 -86 20 -109 19
-13 32 -33 36 -56 15 -80 133 -234 179 -234 9 0 18 -7 21 -15 5 -11 21 -15 58
-15 l51 1 -82 77 c-181 171 -228 373 -95 413 66 19 116 -17 129 -94 5 -33 2
-37 -36 -61 -46 -29 -50 -47 -21 -91 11 -16 20 -38 20 -49 0 -10 10 -29 23
-41 12 -12 47 -52 77 -88 l55 -66 90 0 90 0 -48 41 c-53 45 -136 162 -166 232
-27 62 -7 236 28 236 23 0 40 -37 34 -74 -5 -35 -3 -41 36 -77 37 -33 42 -42
36 -68 -10 -47 36 -125 127 -213 78 -76 81 -78 129 -78 l49 0 0 230 0 229 -37
10 c-21 6 -53 11 -70 11 -26 0 -33 4 -33 19 0 33 -49 64 -90 56 -76 -13 -95
-11 -95 10 0 30 59 55 128 55 49 0 103 -14 180 -45 15 -6 17 -1 17 38 0 50
-11 62 -97 106 -54 27 -74 27 -103 -3 -36 -39 -74 -43 -121 -12 -69 46 -74 96
-14 142 70 53 157 40 271 -41 l64 -46 0 64 c0 71 -6 77 -89 91 -20 4 -52 23
-79 47 l-44 42 -63 -7 c-108 -11 -119 46 -14 72 64 16 157 5 234 -28 26 -11
50 -19 52 -17 2 2 2 145 1 318 -2 177 -7 308 -11 301z"/>
</g>
</svg>

<path d="M0 2695 c0 -278 3 -505 8 -505 11 0 73 64 156 160 l73 85 -10 252
c-6 139 -9 254 -6 256 2 2 18 7 35 10 l31 6 6 -132 c4 -73 9 -202 13 -287 l6
-155 -156 -160 -156 -160 0 -317 c0 -248 3 -318 13 -318 6 0 82 -69 168 -153
l157 -152 2 -195 c1 -107 5 -230 9 -273 l6 -78 261 -2 260 -2 40 -26 c21 -15
107 -91 189 -169 83 -78 207 -194 277 -257 l128 -115 30 31 c17 16 92 85 168
153 75 67 187 168 247 223 61 55 133 119 162 143 l52 43 275 -6 c191 -4 277
-2 281 5 4 6 7 132 6 279 l-1 268 111 102 c60 56 166 149 235 208 l124 106 0
197 0 197 -42 49 c-23 27 -110 121 -193 209 -82 87 -159 169 -170 182 -19 21
-20 36 -20 315 l0 293 -260 -3 c-144 -1 -274 -7 -292 -13 -43 -14 -50 -9 -167
110 l-99 101 -447 0 -447 0 -98 -100 -99 -100 -294 0 c-300 0 -332 4 -332 39
0 25 105 33 387 30 l214 -2 60 59 c32 32 59 62 59 66 0 4 -216 8 -480 8 l-480
0 0 -505z m1603 387 c45 -44 150 -147 233 -230 l152 -152 98 6 c55 2 147 10
206 16 122 12 154 8 161 -24 3 -13 7 -115 8 -228 l2 -205 243 -242 c134 -132
244 -247 244 -253 0 -15 -162 -169 -234 -223 -27 -20 -52 -41 -55 -46 -4 -4
-40 -37 -82 -72 -42 -36 -91 -82 -110 -103 l-33 -38 -3 -132 c-1 -72 -5 -163
-9 -202 l-5 -71 -209 -5 -209 -5 -40 -30 c-23 -17 -122 -106 -222 -199 -99
-93 -189 -173 -199 -178 -16 -7 -38 9 -127 92 -59 55 -130 124 -158 152 -27
28 -85 81 -128 117 l-78 66 -203 -7 c-221 -7 -241 -3 -217 43 7 12 11 84 10
187 l-1 167 -107 107 c-58 58 -166 161 -238 229 -73 67 -133 130 -133 139 0
20 74 98 186 197 136 121 241 224 269 265 l28 40 -12 181 c-7 100 -9 184 -6
187 4 4 37 7 73 7 37 0 119 1 182 3 l115 3 130 127 c193 190 350 355 358 375
12 31 37 18 120 -61z"/>
<path d="M1277 2820 c-162 -157 -255 -240 -270 -241 -12 -1 -87 -4 -167 -8
l-145 -6 2 -25 c1 -14 2 -93 4 -177 2 -181 31 -134 -249 -403 -111 -107 -202
-199 -202 -205 0 -14 87 -103 299 -309 l163 -159 -3 -166 -4 -166 185 -3 184
-2 51 -42 c27 -24 106 -97 175 -164 69 -66 146 -140 172 -163 57 -51 36 -61
230 115 78 71 171 154 208 184 l66 56 184 3 c102 1 187 4 191 6 3 2 9 86 12
187 l7 182 68 66 c37 36 121 112 187 170 135 117 235 211 235 221 0 13 -166
188 -260 273 -53 47 -120 114 -150 148 l-55 62 0 192 c0 106 -3 196 -7 200 -5
4 -99 3 -210 -3 -112 -5 -210 -6 -219 -2 -9 4 -65 61 -124 126 -106 115 -290
293 -303 293 -4 -1 -118 -109 -255 -240z m437 -365 c112 -33 174 -64 251 -126
106 -84 161 -149 209 -244 70 -140 81 -188 80 -345 0 -127 -2 -140 -32 -219
-59 -156 -157 -277 -300 -372 -101 -66 -247 -118 -292 -104 -10 3 -21 1 -25
-5 -18 -30 -255 -1 -370 46 -144 59 -293 196 -367 339 -113 220 -116 429 -9
650 55 114 92 160 194 244 193 157 424 205 661 136z"/>
<path d="M1465 2440 c-4 -6 -5 -46 -4 -88 3 -63 1 -77 -12 -80 -13 -2 -17 13
-25 80 -5 49 -13 81 -19 78 -10 -5 -9 -81 4 -140 l7 -35 94 0 c105 0 120 5
120 44 0 14 7 50 14 79 13 49 13 53 -4 62 -25 13 -167 13 -175 0z"/>
<path d="M1697 2423 c-6 -11 -34 -103 -41 -135 -4 -16 -2 -28 4 -28 5 0 10 5
10 11 0 5 14 39 31 74 28 59 31 85 9 85 -5 0 -11 -3 -13 -7z"/>
<path d="M1215 2379 c-102 -52 -102 -52 -82 -94 20 -43 21 -45 4 -45 -8 0 -19
11 -25 25 -6 14 -15 25 -20 25 -19 0 -20 -14 -3 -39 10 -14 30 -45 46 -68 33
-50 48 -53 95 -15 19 15 53 34 75 41 65 22 67 26 59 105 -12 123 -25 129 -149
65z m-27 -197 c2 -7 -3 -12 -12 -12 -9 0 -16 7 -16 16 0 17 22 14 28 -4z"/>
<path d="M1726 2334 c-20 -42 -36 -82 -36 -90 0 -14 108 -74 132 -74 7 0 34
33 60 73 l48 72 -32 28 c-18 15 -39 27 -48 27 -8 0 -28 9 -45 20 -16 11 -33
20 -36 20 -4 0 -23 -34 -43 -76z"/>
<path d="M1929 2258 c-12 -24 -32 -58 -46 -76 -24 -32 -26 -51 -4 -38 20 13
102 137 96 146 -12 19 -25 10 -46 -32z"/>
<path d="M1005 2230 c-10 -11 -23 -29 -29 -39 -6 -10 -24 -36 -41 -56 -34 -43
-37 -37 58 -95 45 -28 61 -50 35 -50 -6 0 -19 6 -27 14 -38 32 -101 60 -112
49 -17 -17 -4 -30 65 -63 89 -42 94 -41 149 47 48 75 48 76 29 97 -10 11 -33
42 -51 69 -35 52 -49 57 -76 27z"/>
<path d="M1990 2214 c-13 -21 -39 -56 -58 -76 l-35 -37 27 -41 c31 -47 30 -47
93 -16 26 14 61 28 76 32 53 13 47 33 -45 138 l-34 39 -24 -39z"/>
<path d="M1385 2196 c-180 -58 -292 -183 -330 -367 -42 -204 88 -429 295 -508
76 -30 90 -32 192 -30 101 2 116 5 162 30 59 33 66 34 66 14 0 -44 -174 -94
-284 -81 -64 7 -64 7 -96 -96 -12 -40 -16 -66 -10 -72 14 -14 25 1 40 57 17
64 31 59 28 -10 l-3 -58 83 -5 c92 -6 102 -1 102 47 0 18 5 33 10 33 6 0 10
-14 10 -31 0 -24 4 -30 18 -27 14 3 18 16 20 71 4 84 18 86 29 5 8 -59 10 -63
33 -60 49 5 210 94 210 116 0 6 -26 38 -58 69 -51 50 -62 57 -85 52 -41 -11
-33 11 22 61 104 93 159 216 160 354 2 312 -311 535 -614 436z m194 -392 c61
-51 23 -144 -53 -128 -73 15 -99 83 -50 129 34 32 65 32 103 -1z"/>
<path d="M2055 2035 c-43 -18 -81 -37 -83 -43 -7 -21 21 -23 66 -4 26 11 64
23 85 27 31 6 38 11 35 28 -4 30 -14 29 -103 -8z"/>
<path d="M2088 1977 c-88 -29 -90 -32 -74 -92 l12 -50 89 -3 c48 -2 92 1 97 6
8 8 -13 130 -27 151 -9 15 -20 14 -97 -12z"/>
<path d="M850 1965 c-13 -33 -31 -146 -25 -155 3 -4 19 -10 37 -13 18 -3 53
-10 77 -17 24 -6 50 -9 56 -6 13 5 42 143 32 153 -9 8 -145 63 -158 63 -5 0
-14 -11 -19 -25z"/>
<path d="M2040 1775 c0 -10 11 -15 35 -15 19 0 35 -4 35 -10 0 -5 -15 -10 -34
-10 -43 0 -46 -6 -50 -78 -2 -34 -10 -70 -21 -87 -59 -97 -106 -165 -115 -165
-5 0 -14 -10 -21 -21 -10 -19 -5 -28 47 -80 32 -33 64 -59 72 -59 19 0 26 28
12 45 -18 22 -6 29 20 13 19 -12 24 -10 46 17 13 17 33 41 44 54 31 37 25 54
-35 102 -85 67 -71 83 21 24 30 -20 59 -33 65 -30 18 12 8 33 -28 61 -21 15
-40 29 -42 31 -2 2 -2 6 1 9 3 3 24 -4 46 -15 31 -16 42 -18 50 -8 16 19 28
78 28 127 -1 45 -1 45 -38 48 -21 2 -38 7 -38 12 0 5 17 10 38 12 24 2 37 8
37 18 0 11 -19 15 -87 17 -72 2 -88 0 -88 -12z"/>
<path d="M824 1765 c-10 -26 5 -33 81 -40 97 -9 96 -23 -2 -27 l-78 -3 2 -33
c0 -18 9 -62 19 -98 19 -73 20 -73 108 -44 68 23 89 25 84 8 -2 -6 -33 -22
-69 -35 -79 -30 -88 -38 -67 -60 16 -15 21 -15 82 11 95 41 103 48 85 77 -9
13 -23 53 -33 89 -9 36 -20 72 -23 80 -4 8 -7 24 -7 35 -1 16 -12 22 -61 32
-33 6 -73 14 -88 17 -19 4 -30 1 -33 -9z"/>
<path d="M1010 1432 c-82 -48 -84 -62 -22 -131 l49 -53 38 46 c37 45 65 59 65
32 0 -7 -18 -30 -40 -50 -22 -20 -40 -40 -40 -46 0 -21 34 -8 75 28 23 20 51
45 63 54 27 22 28 38 2 45 -11 3 -20 10 -20 17 -1 17 -76 96 -91 95 -8 0 -43
-17 -79 -37z"/>
<path d="M1184 1269 c-33 -33 -59 -65 -59 -72 0 -18 177 -102 199 -94 7 3 27
39 44 81 l31 76 -74 35 c-40 19 -75 35 -78 35 -3 0 -31 -27 -63 -61z"/>
<path d="M2060 3190 c0 -5 30 -38 67 -74 l66 -65 106 4 c58 3 187 7 286 11 99
4 195 7 214 8 49 2 51 -14 46 -351 l-5 -292 47 -53 c26 -29 107 -112 180 -185
l133 -131 0 569 c0 499 -2 569 -15 569 -9 0 -15 -9 -15 -25 0 -15 -6 -25 -15
-25 -8 0 -17 11 -21 25 l-6 25 -534 0 c-337 0 -534 -4 -534 -10z"/>
<path d="M3100 1394 c-52 -46 -124 -108 -160 -138 -36 -29 -84 -74 -108 -99
l-42 -47 5 -279 c5 -266 4 -281 -13 -290 -11 -6 -140 -11 -313 -12 l-294 -1
-40 -31 c-22 -17 -103 -90 -180 -161 -77 -71 -160 -149 -185 -172 -25 -23 -74
-69 -110 -102 l-65 -62 803 0 c757 0 802 1 802 18 0 9 -25 34 -57 57 -31 22
-81 62 -111 90 -50 46 -53 52 -47 84 8 40 -4 51 -52 51 -45 0 -45 28 -1 32 27
2 34 8 38 32 5 28 16 39 53 50 10 3 17 15 17 31 0 14 5 25 10 25 6 0 10 -13
10 -30 0 -19 7 -33 20 -40 33 -18 23 -28 -22 -23 -48 7 -68 -11 -68 -60 0 -28
1 -29 38 -22 20 4 37 8 38 8 15 48 75 78 113 57 l21 -11 0 566 c0 311 -1 565
-2 564 -2 0 -46 -38 -98 -85z"/>
<path d="M0 905 c0 -404 2 -455 16 -455 8 0 21 -15 29 -34 11 -26 22 -35 42
-38 20 -2 29 -9 31 -26 3 -16 10 -22 28 -22 30 0 31 -12 2 -25 -33 -15 -56
-64 -50 -108 5 -43 -18 -76 -69 -97 -26 -11 -29 -17 -29 -56 l0 -44 718 0 717
0 -60 58 c-347 330 -540 494 -559 474 -4 -3 -78 -7 -164 -8 -86 -1 -196 -5
-244 -9 -120 -10 -113 -27 -132 325 l-16 285 -120 118 c-67 64 -125 117 -130
117 -6 0 -10 -169 -10 -455z"/>
<path d="M0 320 l0 -70 34 0 c41 0 58 19 60 68 1 37 1 37 -36 36 -31 -1 -38 2
-38 17 0 11 -4 19 -10 19 -6 0 -10 -30 -10 -70z"/>
</g>
</svg>

<path d="M0 3135 c0 -51 3 -65 15 -65 8 0 15 -4 15 -10 0 -5 -7 -10 -15 -10
-20 0 -23 -445 -3 -454 10 -5 10 -7 1 -12 -21 -9 -18 -820 2 -828 19 -7 19
-26 0 -26 -20 0 -22 -155 -2 -164 9 -5 9 -7 -1 -12 -9 -4 -12 -170 -12 -780
l0 -774 74 0 c65 0 74 2 79 20 5 20 27 28 27 10 0 -18 40 -32 56 -19 11 9 18
9 26 1 9 -9 88 -12 269 -12 238 0 257 1 255 18 -1 12 8 18 32 20 27 3 32 0 32
-17 l0 -21 809 0 c638 0 811 3 815 13 5 9 7 9 12 0 9 -21 163 -17 186 4 17 15
19 15 36 0 15 -14 50 -16 255 -16 l237 0 0 1599 0 1600 -340 0 c-187 0 -340
-4 -340 -9 0 -4 10 -20 21 -35 35 -45 11 -43 -30 3 -30 33 -40 39 -44 27 -8
-20 -27 -21 -27 -1 0 20 -565 23 -574 3 -5 -10 -7 -10 -12 0 -4 8 -36 12 -109
12 -73 0 -105 -4 -109 -12 -5 -10 -7 -10 -12 0 -4 8 -36 12 -109 12 -73 0
-105 -4 -109 -12 -5 -10 -7 -10 -12 0 -4 9 -154 12 -700 12 l-694 0 0 -65z
m2488 -7 c2 -11 -3 -18 -12 -18 -10 0 -15 -8 -13 -22 3 -32 -32 -36 -54 -7
-24 31 -24 39 1 39 11 0 23 7 27 16 7 20 47 14 51 -8z m702 13 c0 -12 -39 -25
-48 -16 -7 7 17 25 36 25 6 0 12 -4 12 -9z m-520 -61 c0 -5 -13 -10 -30 -10
-16 0 -30 5 -30 10 0 6 14 10 30 10 17 0 30 -4 30 -10z m-2409 -69 c27 -25 30
-32 19 -45 -29 -36 -61 -13 -65 47 -3 35 6 34 46 -2z m1557 -10 c3 -8 -1 -12
-9 -9 -7 2 -15 10 -17 17 -3 8 1 12 9 9 7 -2 15 -10 17 -17z m622 -1 c0 -5 -7
-10 -15 -10 -8 0 -15 5 -15 10 0 6 7 10 15 10 8 0 15 -4 15 -10z m-1790 -20
c0 -11 -7 -20 -15 -20 -8 0 -15 9 -15 20 0 11 7 20 15 20 8 0 15 -9 15 -20z
m1894 -6 c10 -27 7 -44 -9 -44 -8 0 -15 3 -15 8 0 4 -3 17 -6 30 -7 26 20 32
30 6z m124 -10 c38 -11 24 -20 -28 -20 -33 1 -50 5 -50 14 0 13 39 16 78 6z
m-168 -34 c0 -5 -22 -10 -50 -10 -27 0 -50 5 -50 10 0 6 23 10 50 10 28 0 50
-4 50 -10z m-1610 -30 c0 -5 -7 -10 -15 -10 -8 0 -15 5 -15 10 0 6 7 10 15 10
8 0 15 -4 15 -10z m1835 -142 c-4 -84 -8 -166 -9 -183 -3 -44 -17 -85 -29 -85
-11 0 -4 152 15 318 19 156 32 126 23 -50z m-187 15 c2 -9 -9 -13 -40 -13 -52
0 -88 9 -88 22 0 14 123 5 128 -9z m-238 -3 c0 -5 -11 -10 -25 -10 -14 0 -25
5 -25 10 0 6 11 10 25 10 14 0 25 -4 25 -10z m-1790 -40 c0 -22 -4 -40 -10
-40 -5 0 -10 18 -10 40 0 22 5 40 10 40 6 0 10 -18 10 -40z m0 -109 c0 -10 3
-33 6 -50 4 -20 3 -31 -5 -31 -6 0 -11 8 -11 18 0 10 -5 23 -11 29 -12 12 -3
53 12 53 5 0 9 -8 9 -19z m2030 -56 c0 -19 -4 -35 -10 -35 -5 0 -10 16 -10 35
0 19 5 35 10 35 6 0 10 -16 10 -35z m-2150 -30 c0 -8 -4 -15 -10 -15 -5 0 -10
7 -10 15 0 8 5 15 10 15 6 0 10 -7 10 -15z m1210 5 c0 -6 -32 -10 -75 -10 -43
0 -75 4 -75 10 0 6 32 10 75 10 43 0 75 -4 75 -10z m-190 -10 c0 -5 -7 -10
-15 -10 -8 0 -15 5 -15 10 0 6 7 10 15 10 8 0 15 -4 15 -10z m475 -12 c38 -18
59 -38 40 -38 -13 0 -95 45 -95 52 0 12 5 10 55 -14z m-96 -9 c17 -6 31 -15
31 -21 0 -6 -7 -7 -16 -4 -9 3 -27 9 -40 12 -13 3 -24 10 -24 15 0 12 10 11
49 -2z m76 -31 c21 -9 35 -28 20 -28 -12 0 -55 24 -55 32 0 11 4 10 35 -4z
m-1335 -28 c0 -16 -4 -30 -10 -30 -5 0 -10 14 -10 30 0 17 5 30 10 30 6 0 10
-13 10 -30z m1040 -10 c0 -5 -9 -10 -20 -10 -11 0 -20 5 -20 10 0 6 9 10 20
10 11 0 20 -4 20 -10z m-85 -41 c8 -23 1 -34 -14 -24 -13 8 -15 45 -2 45 5 0
13 -9 16 -21z m509 6 c11 -8 17 -17 14 -21 -8 -8 -48 14 -48 26 0 14 12 12 34
-5z m-1664 -24 c0 -20 -17 -37 -27 -28 -7 8 7 47 18 47 5 0 9 -9 9 -19z m1460
9 c0 -5 -7 -10 -15 -10 -8 0 -15 5 -15 10 0 6 7 10 15 10 8 0 15 -4 15 -10z
m-200 -40 c0 -16 -4 -30 -10 -30 -5 0 -10 14 -10 30 0 17 5 30 10 30 6 0 10
-13 10 -30z m-1050 5 c0 -8 -4 -15 -10 -15 -5 0 -10 7 -10 15 0 8 5 15 10 15
6 0 10 -7 10 -15z m1518 -4 c3 -8 -1 -12 -9 -9 -7 2 -15 10 -17 17 -3 8 1 12
9 9 7 -2 15 -10 17 -17z m-564 -33 c-9 -31 -12 -34 -25 -21 -15 15 -4 43 16
43 12 0 15 -6 9 -22z m634 -37 c3 -8 -1 -12 -9 -9 -7 2 -15 10 -17 17 -3 8 1
12 9 9 7 -2 15 -10 17 -17z m-658 -21 c0 -5 -7 -10 -15 -10 -8 0 -15 5 -15 10
0 6 7 10 15 10 8 0 15 -4 15 -10z m-310 -35 c0 -8 -7 -15 -15 -15 -16 0 -20
12 -8 23 11 12 23 8 23 -8z m598 -14 c3 -8 -1 -12 -9 -9 -7 2 -15 10 -17 17
-3 8 1 12 9 9 7 -2 15 -10 17 -17z m232 -62 c0 -6 -9 -13 -20 -16 -11 -3 -20
-9 -20 -14 0 -5 -7 -9 -16 -9 -22 0 -12 23 17 37 30 16 39 16 39 2z m70 -68
c0 -12 -20 -25 -27 -18 -7 7 6 27 18 27 5 0 9 -4 9 -9z m-570 -56 c0 -8 -4
-15 -10 -15 -5 0 -10 7 -10 15 0 8 5 15 10 15 6 0 10 -7 10 -15z m350 -50 c0
-14 -4 -25 -10 -25 -5 0 -10 11 -10 25 0 14 5 25 10 25 6 0 10 -11 10 -25z
m360 -20 c0 -8 -7 -15 -15 -15 -8 0 -15 7 -15 15 0 8 7 15 15 15 8 0 15 -7 15
-15z m-2000 -24 c0 -12 -29 -41 -41 -41 -14 0 -11 11 8 32 17 19 33 24 33 9z
m1834 -37 c4 -9 4 -19 2 -21 -8 -8 -26 8 -26 23 0 19 16 18 24 -2z m-1014 -39
c0 -8 -4 -15 -10 -15 -5 0 -10 7 -10 15 0 8 5 15 10 15 6 0 10 -7 10 -15z
m1300 0 c0 -8 -4 -15 -10 -15 -5 0 -10 7 -10 15 0 8 5 15 10 15 6 0 10 -7 10
-15z m-1430 -45 c0 -5 -9 -10 -20 -10 -11 0 -20 5 -20 10 0 6 9 10 20 10 11 0
20 -4 20 -10z m-150 -50 c0 -22 -4 -40 -10 -40 -5 0 -10 18 -10 40 0 22 5 40
10 40 6 0 10 -18 10 -40z m210 30 c0 -5 -7 -10 -15 -10 -8 0 -15 5 -15 10 0 6
7 10 15 10 8 0 15 -4 15 -10z m870 -79 c0 -6 -4 -12 -9 -15 -14 -9 -20 -60 -9
-74 15 -18 0 -29 -16 -11 -22 22 -10 109 15 109 11 0 19 -4 19 -9z m-102 -49
c2 -7 -6 -12 -17 -12 -21 0 -27 11 -14 24 9 9 26 2 31 -12z m-108 -21 c0 -31
-11 -51 -27 -51 -11 0 -14 6 -9 23 3 12 6 28 6 35 0 6 7 12 15 12 8 0 15 -9
15 -19z m508 -31 c26 -16 45 -50 28 -50 -16 0 -76 44 -76 56 0 19 9 18 48 -6z
m-1254 -26 c4 -9 4 -19 2 -21 -8 -8 -26 8 -26 23 0 19 16 18 24 -2z m815 -21
c8 -16 18 -36 23 -46 6 -12 5 -23 -3 -33 -19 -23 -27 -16 -31 29 -3 23 -8 50
-12 60 -13 29 10 19 23 -10z m-1414 -43 c10 -11 15 -23 12 -27 -8 -7 -47 25
-47 39 0 14 16 9 35 -12z m1545 -19 c0 -12 -20 -25 -27 -18 -7 7 6 27 18 27 5
0 9 -4 9 -9z m-190 -41 c0 -16 -4 -30 -10 -30 -5 0 -10 14 -10 30 0 17 5 30
10 30 6 0 10 -13 10 -30z m-1292 1 c3 -8 -1 -12 -9 -9 -7 2 -15 10 -17 17 -3
8 1 12 9 9 7 -2 15 -10 17 -17z m1352 -16 c0 -8 -4 -15 -10 -15 -5 0 -10 7
-10 15 0 8 5 15 10 15 6 0 10 -7 10 -15z m408 -14 c3 -8 -1 -12 -9 -9 -7 2
-15 10 -17 17 -3 8 1 12 9 9 7 -2 15 -10 17 -17z m-938 -16 c7 -9 10 -18 7
-22 -8 -7 -37 15 -37 28 0 14 16 11 30 -6z m518 -62 c-2 -34 -8 -58 -16 -61
-18 -6 -27 27 -14 49 7 10 12 30 12 44 0 14 5 25 10 25 6 0 9 -24 8 -57z m452
42 c0 -8 -4 -15 -10 -15 -5 0 -10 7 -10 15 0 8 5 15 10 15 6 0 10 -7 10 -15z
m-952 -47 c-3 -7 -11 -13 -18 -13 -7 0 -15 6 -17 13 -3 7 4 12 17 12 13 0 20
-5 18 -12z m-171 -23 c8 -22 -6 -33 -17 -15 -13 20 -12 30 0 30 6 0 13 -7 17
-15z m361 -53 c3 -9 -2 -13 -14 -10 -9 1 -19 9 -22 16 -3 9 2 13 14 10 9 -1
19 -9 22 -16z m299 -64 c-4 -28 -11 -54 -16 -57 -5 -4 -11 -22 -13 -40 -2 -19
-8 -36 -13 -38 -12 -4 -37 69 -27 77 15 11 32 51 32 73 0 27 7 37 28 37 12 0
14 -10 9 -52z m-1087 -38 c0 -11 -4 -20 -10 -20 -5 0 -10 9 -10 20 0 11 5 20
10 20 6 0 10 -9 10 -20z m1940 -25 c0 -25 -4 -45 -10 -45 -5 0 -10 20 -10 45
0 25 5 45 10 45 6 0 10 -20 10 -45z m-882 -112 c-1 -10 1 -24 6 -32 10 -15
-11 -33 -34 -28 -26 5 -6 77 22 77 5 0 8 -8 6 -17z m1032 -8 c0 -8 -4 -15 -10
-15 -5 0 -10 7 -10 15 0 8 5 15 10 15 6 0 10 -7 10 -15z m-1044 -97 c-4 -13
-9 -44 -13 -70 -9 -70 -25 -59 -22 15 3 72 5 77 26 77 11 0 14 -6 9 -22z
m-1576 -48 c0 -11 -4 -20 -10 -20 -5 0 -10 9 -10 20 0 11 5 20 10 20 6 0 10
-9 10 -20z m2630 -60 c0 -11 -4 -20 -10 -20 -5 0 -10 9 -10 20 0 11 5 20 10
20 6 0 10 -9 10 -20z m150 -21 c0 -24 -23 -21 -28 4 -2 10 3 17 12 17 10 0 16
-9 16 -21z m-2242 -18 c3 -8 -1 -12 -9 -9 -7 2 -15 10 -17 17 -3 8 1 12 9 9 7
-2 15 -10 17 -17z m1012 -31 c0 -22 -4 -40 -10 -40 -5 0 -10 18 -10 40 0 22 5
40 10 40 6 0 10 -18 10 -40z m1090 -60 c0 -11 -4 -20 -10 -20 -5 0 -10 9 -10
20 0 11 5 20 10 20 6 0 10 -9 10 -20z m-1100 -25 c0 -8 -4 -15 -10 -15 -5 0
-10 7 -10 15 0 8 5 15 10 15 6 0 10 -7 10 -15z m550 -5 c0 -5 -7 -10 -15 -10
-8 0 -15 5 -15 10 0 6 7 10 15 10 8 0 15 -4 15 -10z m-1320 -20 c0 -5 -7 -10
-15 -10 -8 0 -15 5 -15 10 0 6 7 10 15 10 8 0 15 -4 15 -10z m-580 -95 c0 -8
-7 -15 -15 -15 -8 0 -24 -5 -35 -12 -29 -18 -36 -1 -9 21 29 24 59 27 59 6z
m2570 -25 c0 -5 -7 -10 -15 -10 -8 0 -15 5 -15 10 0 6 7 10 15 10 8 0 15 -4
15 -10z m-1240 -95 c0 -19 -4 -35 -10 -35 -5 0 -10 16 -10 35 0 19 5 35 10 35
6 0 10 -16 10 -35z m18 -57 c-7 -19 -38 -22 -38 -4 0 10 9 16 21 16 12 0 19
-5 17 -12z m-48 -38 c0 -5 -7 -10 -15 -10 -8 0 -15 5 -15 10 0 6 7 10 15 10 8
0 15 -4 15 -10z m964 -46 c9 -22 -3 -32 -14 -14 -12 19 -12 30 -1 30 5 0 12
-7 15 -16z m-2314 -24 c0 -16 -5 -30 -10 -30 -14 0 -24 26 -16 45 10 26 26 16
26 -15z m2733 -2 c4 -12 4 -24 1 -27 -6 -7 -24 20 -24 37 0 21 17 13 23 -10z
m-375 -53 c24 -50 26 -55 14 -55 -7 0 -52 82 -52 95 0 19 20 -2 38 -40z m132
-26 c0 -24 -23 -21 -28 4 -2 10 3 17 12 17 10 0 16 -9 16 -21z m-1130 -58 c0
-12 -20 -25 -27 -18 -7 7 6 27 18 27 5 0 9 -4 9 -9z"/>
</g>
</svg>

</svg>