<svg xmlns="http://www.w3.org/2000/svg" viewBox="0 0 320 320">
<rect width="100%" height="100%" fill="#d6bfa1"/>
<path d="M0 2365 c0 -477 4 -835 9 -835 14 0 24 40 26 104 4 88 15 93 158 70
31 -5 42 -2 58 14 10 12 35 24 54 28 19 3 39 12 46 20 13 16 69 19 69 4 0 -19
-43 -140 -50 -140 -4 0 -7 -13 -7 -30 0 -32 -13 -53 -20 -32 -9 23 -23 12 -17
-13 4 -16 2 -25 -6 -25 -8 0 -10 -9 -6 -24 3 -14 1 -28 -4 -31 -6 -4 -8 -15
-5 -26 5 -14 0 -20 -22 -25 -15 -4 -30 -10 -33 -14 -3 -5 -29 -4 -59 1 -33 5
-59 5 -66 -1 -6 -5 -27 -5 -53 2 -36 9 -42 15 -48 44 -15 83 -24 18 -24 -181
0 -175 3 -215 14 -215 7 0 30 -11 50 -25 20 -14 46 -25 57 -25 11 0 30 -5 42
-11 12 -7 35 -13 52 -14 16 -1 40 -5 52 -9 14 -5 23 -3 23 3 0 6 5 11 10 11 6
0 10 -7 10 -15 0 -8 9 -15 19 -15 16 0 19 -8 19 -53 1 -28 3 -70 6 -92 3 -22
8 -63 12 -92 l7 -52 -39 6 c-22 3 -51 12 -66 19 -15 8 -40 14 -57 14 -16 0
-32 4 -35 9 -3 5 -33 9 -65 8 -63 0 -91 13 -89 41 2 33 -2 52 -12 52 -7 0 -10
-143 -10 -410 l0 -410 475 0 c418 0 474 2 469 15 -8 19 7 19 32 0 24 -18 380
-22 368 -4 -3 6 -17 8 -29 5 -36 -9 -95 51 -102 103 l-6 41 49 -5 c29 -2 53
-11 61 -21 8 -11 20 -14 40 -10 22 5 34 2 48 -14 10 -11 28 -20 41 -20 13 0
31 -12 42 -27 24 -33 39 -24 52 30 11 50 -17 126 -61 164 -44 39 -73 136 -51
169 10 16 130 -1 153 -22 27 -24 39 -9 32 41 -5 42 -4 46 37 85 47 45 54 47
70 23 8 -13 13 -14 16 -5 9 19 24 14 24 -8 0 -12 9 -22 23 -26 21 -5 24 -12
24 -52 1 -85 5 -94 46 -98 31 -2 37 0 37 16 0 26 14 32 55 24 36 -6 48 -30 20
-40 -10 -4 -15 -20 -15 -50 0 -35 -6 -49 -32 -76 -75 -77 -95 -139 -66 -203
13 -28 58 -36 58 -10 0 17 35 55 50 55 5 0 26 11 46 25 34 23 65 28 107 18 22
-6 16 -76 -9 -104 -17 -19 -12 -19 166 -19 175 0 183 1 201 22 11 11 19 27 19
34 0 8 11 21 25 30 14 9 25 22 25 28 0 7 14 25 30 41 26 25 32 27 40 15 17
-26 12 -61 -10 -67 -28 -7 -14 -23 21 -23 22 0 29 5 29 19 0 11 4 22 9 25 5 3
7 15 4 26 -4 15 0 20 15 20 11 0 25 7 32 15 28 33 62 -5 46 -52 -7 -20 -79
-73 -100 -73 -7 0 -22 -8 -34 -17 -11 -10 -29 -23 -39 -30 -14 -9 50 -12 300
-12 l317 -1 0 295 c0 196 -3 295 -10 295 -6 0 -27 -7 -47 -15 -19 -8 -37 -15
-39 -15 -15 0 3 50 44 121 l47 84 3 1113 2 1112 -37 -20 c-25 -13 -48 -18 -65
-15 -30 7 -68 -9 -68 -29 0 -7 9 -21 20 -31 11 -10 20 -25 20 -34 0 -9 7 -29
15 -45 14 -26 14 -31 0 -46 -26 -29 -165 -8 -165 25 0 8 5 15 10 15 6 0 10 4
10 10 0 5 -21 7 -50 3 -39 -4 -50 -3 -50 8 0 8 -21 36 -45 63 -37 41 -47 47
-60 36 -8 -7 -22 -9 -31 -6 -22 8 -44 -11 -44 -39 0 -12 18 -45 40 -73 22 -27
43 -65 47 -83 3 -19 14 -39 23 -46 21 -15 32 -61 19 -84 -9 -17 -82 -21 -107
-5 -7 4 -16 5 -21 2 -18 -11 -42 7 -61 45 -11 21 -24 40 -30 44 -16 10 -50 -5
-50 -20 0 -43 -106 -21 -116 24 -3 14 -9 34 -15 43 -5 10 -9 25 -9 33 0 8 -4
15 -8 15 -12 0 -42 73 -42 103 0 33 7 34 36 6 28 -26 48 -16 41 21 -7 32 8 50
41 50 13 0 37 8 52 17 23 13 34 14 53 6 21 -10 27 -8 50 18 14 16 34 29 46 29
30 0 33 15 8 36 -22 20 -66 37 -124 49 -18 3 -54 17 -80 29 -26 13 -60 26 -75
30 -16 3 -28 11 -28 16 0 6 -72 10 -190 10 -124 0 -190 -4 -190 -10 0 -22 34
-61 81 -95 54 -39 59 -50 28 -60 -12 -4 -46 -31 -76 -61 -31 -30 -58 -54 -61
-54 -9 0 -72 -74 -78 -92 -3 -10 -11 -18 -18 -18 -21 0 -96 70 -96 91 0 10
-13 25 -30 34 -16 9 -30 20 -30 26 0 13 -49 57 -72 64 -30 10 -21 35 12 35 23
0 30 4 30 20 0 11 6 20 14 20 8 0 21 8 28 19 7 10 22 20 33 22 13 3 21 14 23
32 l3 27 -271 0 c-232 0 -274 -2 -287 -16 -9 -8 -22 -13 -29 -10 -9 3 -14 -2
-14 -14 0 -16 -7 -20 -30 -20 -18 0 -37 -8 -47 -20 -18 -21 -63 -28 -63 -10 0
16 -47 12 -53 -4 -7 -17 9 -32 38 -38 12 -2 20 -11 20 -23 1 -11 4 -26 8 -33
11 -17 57 -16 57 2 0 12 20 26 36 26 3 0 9 -11 14 -25 7 -19 17 -25 39 -25 16
0 32 -4 35 -9 3 -5 15 -7 26 -4 11 3 31 -2 45 -11 13 -9 31 -16 39 -16 25 0
29 -47 6 -78 -20 -28 -50 -119 -50 -156 0 -11 -19 -37 -42 -58 -58 -53 -94
-51 -117 9 -9 23 -19 45 -23 49 -12 11 -45 -24 -53 -54 -10 -41 -80 -92 -126
-92 -21 0 -49 36 -49 62 0 10 -5 27 -12 37 -9 15 -8 27 4 58 9 21 19 51 23 66
3 15 13 31 23 34 9 3 34 23 55 44 l37 38 -22 15 c-35 22 -115 10 -135 -21 -35
-52 -70 -82 -109 -89 -21 -3 -44 -11 -50 -15 -17 -14 -114 10 -114 27 0 8 -5
14 -11 14 -18 0 -1 50 32 89 16 20 29 46 29 59 0 22 -3 23 -57 21 -76 -3 -124
18 -185 82 -55 57 -57 66 -23 79 60 23 21 30 -165 30 l-190 0 0 -835z m1110
734 c0 -12 -29 -38 -42 -39 -15 0 -8 23 10 36 21 17 32 17 32 3z m922 -522
c19 -13 46 -27 60 -30 14 -4 49 -23 78 -42 29 -19 57 -35 62 -35 6 0 7 -7 4
-16 -4 -10 1 -25 10 -36 17 -17 16 -21 -5 -58 -25 -45 -21 -80 10 -80 11 0 22
-8 25 -17 3 -10 10 -26 15 -35 5 -10 9 -26 9 -36 0 -10 4 -22 9 -28 15 -16 22
-62 10 -69 -5 -4 -18 0 -27 8 -13 12 -22 13 -35 6 -21 -12 -95 -2 -116 14 -7
6 -23 11 -35 12 -14 0 -27 12 -39 38 -10 20 -22 37 -26 37 -38 0 -64 -85 -35
-114 9 -10 18 -28 20 -42 2 -25 26 -54 44 -54 6 0 15 -10 20 -22 6 -13 19 -38
31 -57 13 -23 17 -37 10 -44 -5 -5 -7 -23 -4 -38 4 -22 1 -30 -13 -35 -11 -3
-27 -10 -37 -15 -24 -13 -62 11 -89 57 -23 39 -30 41 -58 17 -15 -13 -19 -25
-14 -49 11 -61 -12 -139 -54 -183 -21 -23 -44 -41 -50 -41 -18 0 -38 40 -52
103 -7 31 -17 57 -22 57 -10 0 -11 54 -1 63 13 14 12 58 -2 64 -8 2 -44 -5
-79 -16 -78 -25 -102 -26 -110 -5 -10 27 -7 49 14 93 23 47 44 60 71 43 25
-16 42 -15 36 2 -7 18 18 129 35 156 11 17 11 22 0 29 -8 5 -19 19 -26 32 -20
41 -41 35 -65 -21 -12 -27 -25 -50 -30 -50 -5 0 -14 -14 -21 -30 -7 -17 -27
-38 -44 -47 -42 -23 -120 -27 -136 -8 -7 8 -18 15 -25 15 -7 0 -16 16 -19 35
-7 37 7 75 27 75 7 0 20 12 29 28 9 15 32 44 52 65 l35 39 -30 31 c-37 39 -53
75 -40 91 5 6 13 27 18 46 7 25 16 36 31 38 12 2 27 12 33 23 8 15 17 19 37
14 17 -3 40 2 64 15 63 34 100 26 112 -25 4 -16 17 -50 28 -75 40 -86 68 -180
62 -204 -7 -27 8 -40 36 -31 14 4 21 19 25 53 12 87 41 171 86 254 5 10 9 27
9 38 0 28 38 26 82 -3z m-862 -141 c0 -8 -11 -23 -25 -34 -14 -11 -25 -23 -25
-26 0 -4 -15 -31 -34 -61 -19 -29 -32 -55 -29 -58 7 -8 -48 -100 -69 -115 -10
-7 -18 -21 -18 -32 0 -30 -89 -89 -125 -83 -63 10 -91 33 -104 85 -15 58 -1
100 46 134 40 29 164 86 191 88 12 0 25 8 27 17 3 9 24 22 48 30 23 7 54 26
69 41 28 31 48 36 48 14z m-851 -121 c33 -38 41 -82 16 -91 -10 -4 -15 -19
-15 -43 1 -90 69 -136 193 -127 60 4 77 2 77 -8 0 -54 -201 -99 -255 -57 -5 5
-21 11 -35 14 -32 8 -87 56 -107 94 -50 94 -43 171 20 225 43 37 69 35 106 -7z
m2282 4 c7 -15 17 -19 32 -15 14 3 33 -4 55 -21 19 -14 50 -27 69 -28 23 -1
45 -12 66 -33 18 -18 41 -32 50 -32 10 0 25 -15 34 -35 9 -19 20 -35 25 -35
21 0 6 -62 -23 -94 -40 -47 -89 -57 -129 -27 -16 11 -32 21 -36 21 -23 0 -104
108 -115 153 -8 34 -18 52 -34 59 -24 11 -35 35 -35 81 0 33 24 37 41 6z
m-1881 -484 c0 -8 -4 -15 -10 -15 -5 0 -10 7 -10 15 0 8 5 15 10 15 6 0 10 -7
10 -15z m2190 -30 c0 -24 -5 -35 -15 -35 -10 0 -15 11 -15 35 0 24 5 35 15 35
10 0 15 -11 15 -35z m-2192 -62 c-2 -37 2 -58 10 -61 7 -2 12 -15 12 -30 0
-14 7 -33 15 -42 12 -14 13 -21 2 -43 -6 -15 -16 -27 -20 -27 -17 0 -46 46
-52 83 -4 20 -10 37 -15 37 -25 0 -13 115 14 132 29 19 36 8 34 -49z m2216
-39 c11 -82 7 -120 -14 -144 -23 -27 -25 -26 -35 18 -6 31 7 46 19 20 3 -7 3
13 0 44 -10 98 17 153 30 62z m-2124 -184 c0 -13 -7 -20 -20 -20 -13 0 -20 7
-20 20 0 13 7 20 20 20 13 0 20 -7 20 -20z m1850 -25 c0 -8 -4 -15 -10 -15 -5
0 -10 7 -10 15 0 8 5 15 10 15 6 0 10 -7 10 -15z m118 -23 c2 -14 -2 -22 -12
-22 -19 0 -29 17 -22 36 8 22 30 12 34 -14z m-1849 -662 c26 -33 30 -43 21
-60 -23 -43 -72 -51 -106 -19 -31 29 -91 19 -129 -21 -26 -27 -29 -40 -38
-137 -6 -59 -11 -110 -13 -112 -8 -10 -34 23 -33 43 0 11 -7 47 -15 79 -12 41
-14 62 -6 76 5 11 7 27 4 35 -3 9 -1 16 4 16 6 0 14 10 17 23 11 33 56 77 80
77 11 0 30 7 42 15 15 11 34 14 61 9 25 -4 42 -2 46 5 13 20 32 11 65 -29z
m1842 -6 c13 -13 28 -24 36 -24 36 0 69 -116 52 -183 -6 -23 -13 -59 -16 -79
-10 -72 -28 -42 -28 45 -1 99 -15 139 -68 190 -45 43 -41 42 -77 21 -32 -20
-74 -13 -84 13 -11 28 19 41 94 41 59 -1 72 -4 91 -24z m-992 -133 c15 -12 22
-24 18 -34 -3 -9 -2 -19 3 -22 17 -10 12 -55 -6 -55 -11 0 -14 5 -10 17 9 22
-10 33 -56 33 -43 0 -42 -1 -25 31 30 57 37 60 76 30z m-1439 -310 c0 -5 -12
-12 -27 -16 -59 -13 -74 -34 -78 -115 -4 -69 -8 -77 -36 -103 -36 -33 -69 -31
-100 6 -22 25 -17 110 7 138 8 8 14 20 14 26 0 15 84 56 88 43 6 -18 29 -11
35 10 4 16 14 20 51 20 25 0 46 -4 46 -9z m459 -91 c28 -22 55 -40 61 -40 13
0 13 -17 0 -25 -13 -8 -13 -45 -1 -45 6 0 13 5 16 10 13 20 31 8 48 -33 10
-23 23 -50 28 -59 5 -10 9 -19 9 -21 0 -12 -120 -4 -131 9 -6 8 -24 14 -39 14
-18 0 -33 8 -44 24 -8 14 -28 32 -44 41 -39 24 -59 70 -38 90 8 9 23 29 33 45
23 40 41 38 102 -10z m1891 -49 c0 -12 -20 -25 -27 -18 -7 7 6 27 18 27 5 0 9
-4 9 -9z"/>
<path d="M1910 1955 c0 -14 5 -25 10 -25 6 0 10 11 10 25 0 14 -4 25 -10 25
-5 0 -10 -11 -10 -25z"/>
<path d="M1942 1919 c2 -6 8 -10 13 -10 5 0 11 4 13 10 2 6 -4 11 -13 11 -9 0
-15 -5 -13 -11z"/>
<path d="M765 799 c-11 -16 -2 -19 38 -12 20 3 34 9 31 14 -7 13 -62 11 -69
-2z"/>
<path d="M3050 3187 c0 -22 37 -50 56 -43 9 3 22 2 28 -2 6 -5 23 -12 39 -14
26 -5 27 -3 27 33 l0 39 -75 0 c-56 0 -75 -3 -75 -13z"/>
<path d="M2891 3132 c-5 -10 -6 -24 -1 -32 11 -18 40 4 40 31 0 24 -26 25 -39
1z"/>
<path d="M2950 3105 c0 -8 5 -15 10 -15 6 0 10 7 10 15 0 8 -4 15 -10 15 -5 0
-10 -7 -10 -15z"/>
<path d="M1974 38 c3 -13 6 -26 6 -30 0 -5 7 -8 15 -8 18 0 20 31 3 48 -19 19
-31 14 -24 -10z"/>
<path d="M1657 24 c-13 -13 -7 -24 14 -24 11 0 19 5 17 12 -5 14 -22 21 -31
12z"/>
</g>
</svg>

<path d="M0 2410 c0 -520 3 -790 10 -790 6 0 10 -7 10 -15 0 -8 -4 -15 -10
-15 -6 0 -10 -48 -10 -125 0 -124 4 -139 34 -110 17 17 56 20 56 5 0 -6 -7
-13 -15 -16 -8 -4 -15 -10 -15 -16 0 -5 6 -6 12 -1 15 9 119 13 132 5 5 -3 25
-6 45 -8 40 -4 91 -50 91 -84 0 -23 -19 -26 -39 -7 -11 10 -13 9 -7 -6 3 -10
6 -23 6 -28 0 -12 177 -11 201 1 12 7 25 7 37 1 12 -6 34 -6 61 0 31 7 47 6
57 -2 9 -7 72 -12 176 -13 106 -1 163 -5 165 -13 6 -17 -150 -26 -262 -14
-111 11 -290 6 -332 -10 -17 -6 -30 -6 -36 0 -5 5 -25 7 -43 4 -19 -3 -40 -1
-47 5 -7 6 -34 10 -60 9 -37 -2 -51 2 -58 16 -14 24 -28 21 -39 -8 -12 -31
-45 -35 -37 -5 6 24 -11 27 -20 4 -4 -12 -14 -14 -34 -10 l-29 6 0 -585 0
-585 1600 0 1600 0 0 548 0 549 -47 -8 c-58 -9 -183 0 -183 14 0 5 -15 7 -35
4 -19 -3 -35 -2 -35 4 0 11 -67 12 -74 1 -3 -5 -26 -9 -51 -10 -25 0 -52 -5
-59 -11 -9 -8 -28 -9 -57 -3 -24 5 -93 8 -154 6 -60 -1 -136 2 -169 7 -32 6
-113 10 -179 10 -121 0 -147 6 -147 36 0 12 13 14 58 13 31 -1 59 -1 62 0 18
7 100 7 105 0 5 -8 220 -5 343 5 59 5 63 4 58 -13 -5 -15 -1 -21 17 -24 19 -4
23 -1 20 12 -4 15 9 18 100 23 57 4 118 2 135 -3 40 -11 264 -16 280 -6 9 5
12 264 12 1027 l0 1019 -25 0 c-14 0 -25 -4 -25 -10 0 -5 -7 -10 -15 -10 -8 0
-15 5 -15 10 0 16 -1097 14 -1104 -2 -5 -10 -7 -10 -12 0 -4 9 -51 12 -184 12
-133 0 -180 -3 -184 -12 -5 -10 -7 -10 -12 0 -4 9 -141 12 -634 12 -493 0
-630 -3 -634 -12 -5 -10 -7 -10 -12 0 -4 9 -49 12 -175 12 l-169 0 0 -790z
m2140 675 c0 -8 -4 -15 -10 -15 -5 0 -10 7 -10 15 0 8 5 15 10 15 6 0 10 -7
10 -15z m410 -5 c0 -5 -7 -10 -15 -10 -8 0 -15 5 -15 10 0 6 7 10 15 10 8 0
15 -4 15 -10z m-1000 -16 c0 -9 -5 -14 -12 -12 -18 6 -21 28 -4 28 9 0 16 -7
16 -16z m1050 6 c0 -12 -28 -25 -36 -17 -9 9 6 27 22 27 8 0 14 -5 14 -10z
m-1347 -26 c26 -9 47 -20 47 -25 0 -11 4 -11 -49 5 -25 7 -47 18 -49 24 -5 15
-5 15 51 -4z m-183 -19 c0 -8 -7 -15 -15 -15 -8 0 -15 7 -15 15 0 8 7 15 15
15 8 0 15 -7 15 -15z m310 -50 c0 -8 -4 -15 -10 -15 -5 0 -10 7 -10 15 0 8 5
15 10 15 6 0 10 -7 10 -15z m626 -106 c10 -17 -13 -36 -27 -22 -12 12 -4 33
11 33 5 0 12 -5 16 -11z m-236 -334 c0 -8 -4 -15 -10 -15 -5 0 -10 7 -10 15 0
8 5 15 10 15 6 0 10 -7 10 -15z m36 -107 c4 -13 11 -26 17 -29 11 -8 2 -39
-11 -39 -8 0 -32 64 -32 84 0 16 19 4 26 -16z m-726 -18 c0 -5 -7 -10 -15 -10
-8 0 -15 5 -15 10 0 6 7 10 15 10 8 0 15 -4 15 -10z m1940 -479 c0 -18 45 -80
68 -92 25 -14 26 -18 12 -39 -8 -12 -15 -9 -45 20 -57 55 -84 120 -50 120 8 0
15 -4 15 -9z m-2420 -11 c0 -8 -158 -170 -167 -170 -19 0 10 42 73 104 72 72
94 88 94 66z m-350 -540 c0 -5 -16 -10 -35 -10 -19 0 -35 5 -35 10 0 6 16 10
35 10 19 0 35 -4 35 -10z m826 -191 c3 -6 27 -10 53 -8 106 5 171 0 171 -16 0
-13 -22 -15 -140 -15 -77 0 -140 2 -140 5 0 30 42 56 56 34z m618 -29 c25 -25
-12 -29 -159 -20 -83 6 -163 9 -180 8 -21 -2 -30 2 -33 15 -3 16 8 17 179 13
106 -3 187 -10 193 -16z m286 -5 c25 -30 1 -37 -111 -33 -116 4 -123 6 -113
32 9 22 205 24 224 1z m120 -325 c0 -5 -11 -10 -25 -10 -14 0 -25 5 -25 10 0
6 11 10 25 10 14 0 25 -4 25 -10z m618 -83 c3 -22 -1 -27 -17 -27 -15 0 -21 6
-21 23 0 46 33 49 38 4z m-688 -76 c0 -12 -20 -25 -27 -18 -7 7 6 27 18 27 5
0 9 -4 9 -9z m-1575 -73 c8 -35 51 -123 73 -146 14 -16 16 -42 2 -42 -5 0 -12
11 -16 24 -3 14 -12 27 -19 30 -17 6 -60 89 -70 134 -5 25 -3 32 8 32 9 0 18
-13 22 -32z m2595 -86 c0 -5 -12 -15 -27 -23 -16 -8 -46 -26 -67 -41 -45 -32
-59 -35 -54 -11 6 31 148 103 148 75z"/>
<path d="M140 1261 c-17 -33 -12 -46 10 -26 21 19 27 45 10 45 -5 0 -14 -9
-20 -19z"/>
</g>
</svg>

<path d="M0 2465 l0 -735 35 0 c19 0 35 -4 35 -9 0 -13 -30 -22 -51 -16 -17 6
-19 0 -19 -64 0 -41 4 -71 10 -71 6 0 10 -9 10 -20 0 -11 -4 -20 -10 -20 -5 0
-10 -13 -10 -30 0 -16 4 -30 10 -30 5 0 12 -11 16 -24 6 -26 79 -53 99 -36 12
10 95 1 95 -10 0 -10 -143 -32 -162 -25 -9 4 -18 0 -21 -9 -4 -9 -13 -16 -22
-16 -13 0 -15 -18 -15 -112 l0 -113 35 -22 c19 -13 39 -23 44 -23 4 0 28 -9
52 -19 57 -25 191 -44 200 -29 4 6 14 8 22 5 11 -4 16 -32 20 -119 4 -102 14
-150 38 -199 4 -9 11 -33 14 -53 7 -33 5 -36 -15 -36 -19 0 -21 4 -16 25 5 18
2 25 -8 25 -11 0 -16 18 -21 68 -3 37 -10 83 -16 102 -5 19 -8 53 -7 75 3 33
0 40 -14 37 -11 -2 -18 3 -18 13 0 16 -16 21 -22 6 -1 -5 -32 -2 -68 6 -36 8
-78 17 -95 20 -16 3 -47 19 -69 34 -21 16 -43 29 -48 29 -4 0 -8 -241 -8 -535
l0 -535 448 0 c395 1 445 2 428 15 -11 8 -23 15 -28 15 -4 0 -8 5 -8 10 0 6
22 10 49 10 44 0 50 -3 53 -22 2 -16 11 -24 28 -26 l25 -3 -24 19 c-13 11 -21
24 -17 30 4 6 2 19 -3 29 -5 10 -18 37 -28 60 -17 41 -35 53 -48 33 -3 -5 -10
-10 -16 -10 -12 0 -12 37 1 45 13 8 13 25 0 25 -6 0 -33 18 -61 40 -28 22 -57
40 -65 40 -19 0 -18 16 2 24 40 15 75 5 117 -33 43 -40 54 -59 127 -214 l41
-87 144 0 c106 0 145 3 148 13 3 9 9 9 26 -1 14 -8 67 -12 162 -12 123 0 144
2 155 18 13 16 15 16 28 0 11 -16 32 -18 155 -18 l143 0 -7 30 c-4 16 -3 30 2
30 15 0 33 -23 33 -41 0 -16 18 -17 205 -18 l204 -1 48 65 c158 218 219 252
294 167 26 -29 30 -41 25 -70 -7 -47 -96 -132 -96 -93 0 6 14 18 30 28 33 19
46 49 35 82 -7 25 -27 27 -45 6 -7 -8 -20 -15 -30 -15 -13 0 -19 -11 -24 -45
-7 -42 -9 -45 -37 -45 -31 0 -39 14 -14 24 17 6 20 43 5 66 -8 12 -14 10 -40
-15 -16 -16 -30 -34 -30 -42 0 -7 -9 -17 -21 -23 -11 -7 -25 -25 -31 -41 -5
-16 -14 -29 -19 -29 -5 0 -9 -4 -9 -10 0 -13 107 -13 123 0 48 41 62 50 74 50
25 0 13 -20 -24 -39 l-38 -20 303 -1 302 0 0 108 0 107 -32 15 c-33 14 -149
20 -218 10 -27 -4 -35 -1 -35 10 0 21 115 51 208 53 l77 2 0 127 c0 71 -3 128
-7 128 -13 0 -82 -26 -89 -33 -10 -10 -54 -9 -54 1 0 4 4 12 9 18 5 5 11 20
13 33 4 35 28 39 28 6 0 -17 4 -25 13 -21 6 2 29 10 50 17 l37 12 0 95 0 94
-37 -71 c-20 -39 -40 -71 -45 -71 -11 0 -11 0 22 82 16 41 32 94 36 119 4 24
11 49 15 55 5 6 8 164 7 350 l-3 339 -47 99 c-62 127 -62 151 0 108 53 -37 52
-38 52 38 l0 71 -47 20 c-74 30 -95 43 -107 61 -19 31 3 32 79 5 l75 -26 0
506 c0 452 -2 504 -15 493 -9 -7 -19 -10 -23 -6 -4 4 4 15 16 25 21 15 23 24
20 81 -3 61 -5 65 -28 68 -14 2 -30 8 -36 13 -6 5 -19 6 -28 3 -19 -7 -56 21
-56 43 0 11 -63 13 -350 13 -222 0 -350 -4 -350 -10 0 -5 12 -13 28 -16 15 -4
49 -18 77 -31 27 -13 66 -26 86 -29 40 -7 67 -20 58 -29 -9 -8 -109 15 -149
35 -19 9 -57 23 -84 30 -32 9 -50 20 -54 32 -4 16 -18 18 -163 18 -92 0 -159
-4 -159 -9 0 -12 54 -51 69 -51 6 0 11 -3 11 -8 0 -4 10 -12 23 -17 23 -10 37
-55 17 -55 -22 0 -118 80 -131 110 l-14 30 -102 0 -102 0 -3 -27 c-2 -19 -9
-28 -20 -28 -10 0 -25 -10 -33 -23 -9 -12 -23 -22 -31 -22 -8 0 -14 -9 -14
-20 0 -16 -7 -20 -30 -20 -16 0 -30 -5 -30 -11 0 -6 -10 -9 -22 -7 -33 4 -37
44 -6 51 32 8 118 76 118 93 0 22 -345 20 -354 -1 -3 -8 -14 -15 -24 -15 -10
0 -22 -4 -28 -10 -39 -39 -204 -71 -204 -39 0 12 46 23 60 14 7 -4 14 1 17 13
3 11 16 23 29 26 13 4 24 11 24 16 0 16 -827 13 -834 -2 -5 -10 -7 -10 -12 0
-4 9 -51 12 -185 12 l-179 0 0 -735z m2930 667 c0 -19 -18 -42 -32 -42 -10 0
-11 44 -1 53 13 14 33 7 33 -11z m-1895 -37 c28 -27 32 -45 10 -45 -8 0 -15 4
-15 9 0 5 -12 11 -27 13 -20 2 -29 9 -31 26 -5 31 31 30 63 -3z m1935 10 c0
-8 -4 -15 -10 -15 -5 0 -10 7 -10 15 0 8 5 15 10 15 6 0 10 -7 10 -15z m-318
-32 c24 -22 23 -43 -2 -43 -12 0 -32 -12 -45 -26 -20 -21 -30 -25 -54 -19 -21
4 -38 1 -53 -9 -12 -9 -34 -16 -48 -16 -35 0 -50 -17 -43 -50 7 -37 -13 -47
-41 -21 -29 27 -36 26 -36 -4 0 -32 -13 -32 -31 1 -13 24 -12 28 14 50 15 13
44 26 65 30 20 4 43 11 50 17 7 6 50 25 95 44 44 18 85 40 90 48 10 19 16 19
39 -2z m-1490 -24 c35 -12 68 -26 75 -31 6 -5 33 -10 60 -12 38 -2 50 -7 59
-24 6 -12 19 -31 29 -42 17 -19 18 -22 2 -37 -16 -16 -18 -16 -32 2 -8 11 -15
26 -15 33 0 6 -7 12 -15 12 -9 0 -26 6 -38 14 -12 8 -48 18 -80 21 -49 6 -60
11 -67 31 -7 17 -16 23 -32 21 -14 -1 -23 4 -26 16 -5 22 5 22 80 -4z m-542
-76 c-1 -15 -39 -58 -45 -51 -8 8 24 58 36 58 5 0 9 -3 9 -7z m2484 -19 c28
-11 17 -26 -14 -19 -36 8 -39 -7 -10 -45 20 -26 27 -80 10 -80 -5 0 -12 15
-16 34 -3 19 -15 42 -25 52 -40 36 1 79 55 58z m-336 -32 c2 -7 -6 -12 -17
-12 -21 0 -27 11 -14 24 9 9 26 2 31 -12z m-1418 -51 c0 -12 -20 -25 -27 -18
-7 7 6 27 18 27 5 0 9 -4 9 -9z m1348 -30 c3 -8 -1 -12 -9 -9 -7 2 -15 10 -17
17 -3 8 1 12 9 9 7 -2 15 -10 17 -17z m-808 4 c0 -4 -7 -20 -16 -36 -16 -31
-43 -36 -52 -10 -3 10 0 12 12 8 12 -5 20 1 28 18 10 22 28 35 28 20z m1050
-25 c0 -5 -4 -10 -10 -10 -5 0 -10 -7 -10 -15 0 -18 -21 -20 -38 -3 -18 18
-15 26 11 31 39 8 47 7 47 -3z m-202 -29 c3 -8 -1 -12 -9 -9 -7 2 -15 10 -17
17 -3 8 1 12 9 9 7 -2 15 -10 17 -17z m-358 -26 c0 -8 5 -24 12 -35 16 -26 0
-40 -18 -16 -16 23 -19 66 -4 66 6 0 10 -7 10 -15z m633 -5 c20 0 37 -4 37
-10 0 -11 -62 -13 -97 -4 -13 4 -23 11 -23 16 0 6 10 8 23 4 12 -3 39 -6 60
-6z m-243 -50 c0 -11 -4 -20 -10 -20 -5 0 -10 9 -10 20 0 11 5 20 10 20 6 0
10 -9 10 -20z m-182 -49 c3 -8 -1 -12 -9 -9 -7 2 -15 10 -17 17 -3 8 1 12 9 9
7 -2 15 -10 17 -17z m-883 -48 c28 -22 37 -39 46 -83 6 -30 17 -68 24 -85 18
-43 28 -105 16 -105 -5 0 -15 17 -22 38 -6 20 -22 60 -35 87 -12 28 -26 64
-30 80 -12 51 -48 59 -111 25 -21 -11 -43 -20 -50 -20 -23 0 -14 17 16 30 16
6 44 23 62 36 41 30 43 30 84 -3z m314 -4 c13 -11 22 -22 19 -24 -8 -9 -68 19
-68 32 0 19 21 15 49 -8z m-71 -19 c2 -13 -1 -32 -6 -44 -58 -120 -75 -170
-87 -258 -6 -47 -29 -69 -56 -53 -13 9 -2 57 16 67 7 5 11 17 8 29 -3 11 -1
30 5 42 19 42 42 113 42 133 0 11 7 29 15 40 8 10 15 26 15 35 1 40 43 48 48
9z m802 -10 c0 -5 -9 -10 -20 -10 -11 0 -20 5 -20 10 0 6 9 10 20 10 11 0 20
-4 20 -10z m-633 -21 c57 -21 113 -62 101 -74 -3 -4 -24 6 -47 20 -22 15 -57
33 -78 40 -20 7 -39 18 -41 24 -5 15 -2 14 65 -10z m-637 -28 c0 -5 -10 -11
-22 -13 -15 -2 -24 -13 -31 -38 -5 -19 -13 -40 -19 -47 -7 -8 -5 -22 6 -44 23
-45 10 -50 -26 -10 -38 43 -33 82 17 129 33 30 75 43 75 23z m784 -97 c4 -9 4
-19 1 -22 -6 -6 -35 18 -35 29 0 16 28 10 34 -7z m274 -46 c20 -13 54 -32 75
-42 40 -21 46 -33 21 -43 -11 -4 -23 2 -34 17 -21 28 -51 22 -43 -9 8 -30 -12
-26 -36 8 -21 29 -39 91 -27 91 3 0 23 -10 44 -22z m-258 -18 c0 -12 -28 -25
-36 -17 -9 9 6 27 22 27 8 0 14 -5 14 -10z m-1272 -11 c-3 -9 -90 -49 -105
-49 -29 0 67 56 100 59 5 1 7 -4 5 -10z m-118 -50 c0 -8 -58 -39 -75 -39 -16
0 -1 19 28 33 39 19 47 20 47 6z m590 7 c0 -2 -16 -21 -36 -42 -19 -22 -43
-51 -52 -66 -9 -16 -22 -28 -29 -28 -6 0 -16 -8 -22 -17 -16 -30 -23 -7 -7 25
22 43 66 92 101 113 29 18 45 23 45 15z m792 -21 c65 -44 111 -161 78 -200
-19 -23 -26 -18 -27 21 -1 20 -6 41 -12 47 -6 6 -11 21 -11 33 0 13 -4 26 -10
29 -5 3 -10 15 -10 25 0 12 -13 26 -30 35 -16 9 -30 20 -30 25 0 16 13 12 52
-15z m470 -6 c61 -23 148 -77 148 -90 0 -19 -36 -8 -65 21 -20 19 -47 33 -71
37 -38 6 -83 30 -84 46 0 11 15 8 72 -14z m-1942 -28 c0 -12 -20 -25 -27 -18
-7 7 6 27 18 27 5 0 9 -4 9 -9z m908 -98 c-5 -25 -28 -28 -28 -4 0 12 6 21 16
21 9 0 14 -7 12 -17z m1218 0 c15 -20 18 -43 6 -43 -8 0 -32 43 -32 55 0 11
14 4 26 -12z m-1591 -57 c5 -22 14 -36 26 -39 10 -3 19 -10 19 -17 0 -12 -36
-5 -57 12 -15 12 -18 78 -3 78 5 0 12 -15 15 -34z m875 -6 c8 -5 12 -12 9 -15
-8 -8 -39 5 -39 16 0 11 11 11 30 -1z m88 -12 c2 -12 -3 -18 -15 -18 -26 0
-47 16 -38 29 10 18 49 9 53 -11z m-624 -25 c-4 -15 -7 -40 -7 -55 0 -33 -13
-35 -47 -8 l-25 19 35 34 c43 43 52 44 44 10z m-1049 -13 c0 -8 -8 -16 -17
-18 -13 -2 -18 3 -18 18 0 15 5 20 18 18 9 -2 17 -10 17 -18z m1437 -17 c10
-9 18 -20 18 -25 0 -13 -20 -9 -36 6 -29 30 -13 48 18 19z m706 -32 c3 -8 -1
-12 -9 -9 -7 2 -15 10 -17 17 -3 8 1 12 9 9 7 -2 15 -10 17 -17z m-838 -46 c0
-14 -4 -25 -10 -25 -5 0 -10 11 -10 25 0 14 5 25 10 25 6 0 10 -11 10 -25z
m-1170 -39 c0 -16 -18 -31 -27 -22 -8 8 5 36 17 36 5 0 10 -6 10 -14z m1210 4
c0 -5 -7 -10 -15 -10 -8 0 -15 5 -15 10 0 6 7 10 15 10 8 0 15 -4 15 -10z
m-1230 -65 c0 -29 -6 -31 -26 -11 -20 20 -17 36 6 36 15 0 20 -7 20 -25z
m1007 10 c3 -12 -92 -45 -130 -45 -15 0 -27 5 -27 10 0 6 1 10 3 10 1 0 27 9
57 20 58 20 91 22 97 5z m233 -4 c16 -30 12 -43 -9 -36 -16 5 -20 0 -23 -26
-5 -49 -24 -46 -31 3 -8 62 38 105 63 59z m170 -11 c0 -16 -4 -30 -9 -30 -10
0 -22 40 -15 52 11 18 24 6 24 -22z m740 6 c0 -16 -18 -31 -27 -22 -8 8 5 36
17 36 5 0 10 -6 10 -14z m-2190 -41 c0 -8 -4 -15 -10 -15 -5 0 -10 7 -10 15 0
8 5 15 10 15 6 0 10 -7 10 -15z m2230 -14 c0 -11 3 -26 6 -35 4 -10 1 -16 -9
-16 -18 0 -27 -21 -27 -61 0 -16 -4 -29 -10 -29 -5 0 -10 23 -10 50 0 38 4 50
15 50 10 0 15 10 15 30 0 17 5 30 10 30 6 0 10 -9 10 -19z m-790 -1 c0 -12
-33 -30 -55 -30 -9 0 -15 6 -12 13 2 6 11 12 20 12 8 0 19 4 23 8 10 10 24 9
24 -3z m-1800 -39 c0 -5 -16 -12 -35 -15 -19 -4 -44 -16 -54 -27 -16 -17 -26
-20 -60 -14 -51 8 -57 35 -8 36 17 0 52 6 77 13 56 17 80 19 80 7z m1410 -26
c0 -8 -4 -15 -10 -15 -5 0 -10 7 -10 15 0 8 5 15 10 15 6 0 10 -7 10 -15z
m180 -10 c0 -14 -4 -25 -10 -25 -5 0 -10 11 -10 25 0 14 5 25 10 25 6 0 10
-11 10 -25z m-1195 -16 c6 -19 0 -38 -9 -28 -10 12 -16 49 -7 49 5 0 13 -9 16
-21z m2215 -4 c0 -8 -4 -15 -10 -15 -5 0 -10 7 -10 15 0 8 5 15 10 15 6 0 10
-7 10 -15z m-1180 -40 c0 -8 -4 -15 -10 -15 -5 0 -10 7 -10 15 0 8 5 15 10 15
6 0 10 -7 10 -15z m-1090 -20 c0 -8 -4 -15 -10 -15 -5 0 -10 7 -10 15 0 8 5
15 10 15 6 0 10 -7 10 -15z m97 -5 c18 -14 41 -20 75 -20 88 0 142 -51 119
-113 -18 -46 -106 -70 -174 -48 -49 17 -133 111 -98 111 5 0 15 -10 23 -22 15
-22 15 -22 31 12 15 30 15 35 2 50 -15 16 -21 50 -9 50 3 0 17 -9 31 -20z
m1123 15 c0 -18 -79 -97 -92 -93 -20 7 -21 28 -1 28 11 0 33 16 49 35 26 32
44 44 44 30z m1010 -29 c0 -7 -10 -16 -22 -19 -18 -5 -19 -8 -8 -22 7 -8 10
-18 7 -22 -4 -3 -2 -12 5 -20 8 -11 7 -17 -8 -28 -17 -13 -17 -14 -2 -15 11 0
20 11 24 27 7 27 26 53 38 53 12 0 5 -38 -9 -50 -8 -7 -15 -18 -15 -24 0 -7
-20 -33 -43 -58 -72 -75 -178 -98 -257 -57 -75 40 -94 108 -43 161 33 34 77
37 130 8 61 -33 143 -19 143 24 0 19 30 56 46 56 8 0 14 -6 14 -14z m50 -1 c0
-8 -4 -15 -10 -15 -5 0 -10 7 -10 15 0 8 5 15 10 15 6 0 10 -7 10 -15z m-2920
-30 c0 -14 -4 -25 -10 -25 -5 0 -10 11 -10 25 0 14 5 25 10 25 6 0 10 -11 10
-25z m650 10 c0 -8 -4 -15 -10 -15 -5 0 -10 7 -10 15 0 8 5 15 10 15 6 0 10
-7 10 -15z m-352 -87 c-6 -18 -28 -21 -28 -4 0 9 7 16 16 16 9 0 14 -5 12 -12z
m2 -52 c0 -8 -5 -18 -11 -22 -14 -8 -33 11 -25 25 10 16 36 13 36 -3z m-30
-51 c0 -8 -9 -15 -20 -15 -22 0 -27 15 -7 23 21 9 27 7 27 -8z m-140 -149 c0
-16 -28 -42 -36 -33 -8 7 14 47 26 47 6 0 10 -6 10 -14z m-14 -77 c10 -17 -13
-36 -27 -22 -12 12 -4 33 11 33 5 0 12 -5 16 -11z m2514 -49 c0 -5 -9 -10 -20
-10 -11 0 -20 5 -20 10 0 6 9 10 20 10 11 0 20 -4 20 -10z m230 -35 c0 -10
-11 -15 -35 -15 -24 0 -35 5 -35 15 0 10 11 15 35 15 24 0 35 -5 35 -15z m70
-5 c0 -5 -7 -10 -15 -10 -8 0 -15 5 -15 10 0 6 7 10 15 10 8 0 15 -4 15 -10z
m200 -20 c0 -5 -11 -10 -25 -10 -14 0 -25 5 -25 10 0 6 11 10 25 10 14 0 25
-4 25 -10z m-442 -186 c37 -15 92 -61 92 -76 0 -5 10 -22 22 -38 12 -16 18
-33 15 -37 -4 -4 -14 3 -23 15 -8 12 -21 22 -28 22 -7 0 -23 11 -35 24 -19 20
-32 24 -89 24 -94 0 -121 -17 -85 -53 11 -12 26 -15 50 -12 24 4 33 2 33 -9 0
-26 -87 -18 -115 11 -48 47 -19 130 48 138 64 8 78 7 115 -9z m-1813 -33 c46
-27 73 -82 55 -115 -14 -27 -36 -37 -26 -11 3 8 8 21 11 28 2 6 -11 30 -30 52
-31 37 -35 38 -58 26 -15 -8 -37 -10 -56 -6 -20 4 -37 2 -47 -6 -8 -6 -24 -13
-37 -14 -12 -2 -30 -6 -39 -10 -47 -19 -6 30 47 58 42 21 142 20 180 -2z
m-115 -61 c0 -12 -28 -25 -36 -17 -9 9 6 27 22 27 8 0 14 -5 14 -10z m-160
-52 c0 -17 -18 -44 -24 -37 -8 7 5 49 15 49 5 0 9 -6 9 -12z m205 -18 c23 -25
12 -39 -13 -17 -10 10 -26 17 -35 17 -9 0 -17 5 -17 10 0 18 46 11 65 -10z
m1916 10 c10 -6 26 -27 34 -47 16 -39 11 -61 -7 -28 -6 11 -22 30 -35 43 -35
35 -31 52 8 32z m-1991 -8 c0 -10 -41 -35 -47 -28 -9 8 17 36 33 36 8 0 14 -3
14 -8z m-600 -12 c0 -5 -11 -10 -25 -10 -14 0 -25 5 -25 10 0 6 11 10 25 10
14 0 25 -4 25 -10z m1590 -19 c0 -9 -41 -23 -48 -16 -2 2 -1 8 3 14 8 13 45
15 45 2z m1120 -26 c0 -8 -4 -15 -10 -15 -5 0 -10 7 -10 15 0 8 5 15 10 15 6
0 10 -7 10 -15z m-2501 -11 c2 -2 2 -6 -1 -9 -9 -9 -58 6 -58 17 0 9 49 3 59
-8z m1331 -6 c0 -6 -10 -22 -21 -34 l-22 -23 36 6 c53 8 90 -3 82 -26 -3 -12
0 -21 10 -25 10 -4 15 1 15 14 0 24 15 26 24 4 8 -20 -3 -84 -14 -84 -4 0 -10
7 -14 15 -3 8 -14 15 -25 15 -12 0 -21 8 -23 21 -5 36 -65 34 -97 -2 -32 -36
-66 -40 -56 -6 16 51 39 93 64 114 29 26 41 29 41 11z m1170 -58 c0 -11 -4
-20 -10 -20 -5 0 -10 9 -10 20 0 11 5 20 10 20 6 0 10 -9 10 -20z m-10 -42 c0
-19 -18 -43 -25 -36 -9 9 4 48 16 48 5 0 9 -6 9 -12z m-53 -48 c-4 -17 -2 -30
3 -30 20 0 9 -41 -19 -72 -39 -43 -61 -29 -38 23 9 19 21 51 28 72 15 44 34
50 26 7z m-1337 -21 c42 -10 90 -42 90 -61 0 -10 -111 2 -127 14 -18 15 -27
-48 -13 -98 13 -46 8 -66 -11 -47 -16 16 -23 142 -10 176 12 31 10 30 71 16z
m-790 -19 c0 -11 -4 -20 -10 -20 -5 0 -10 9 -10 20 0 11 5 20 10 20 6 0 10 -9
10 -20z m1130 -20 c0 -11 -4 -20 -10 -20 -5 0 -10 9 -10 20 0 11 5 20 10 20 6
0 10 -9 10 -20z m164 -20 c18 -6 26 -17 26 -33 0 -30 -39 -127 -51 -127 -16 0
-10 87 6 94 26 10 16 31 -20 42 -38 12 -68 -6 -58 -35 4 -10 -2 -12 -28 -6
-44 9 -46 12 -26 33 35 35 105 50 151 32z m-364 -14 c0 -21 -20 -30 -33 -17
-9 9 -8 14 3 21 21 14 30 12 30 -4z m-1195 -31 c17 -8 41 -17 55 -20 35 -10
50 -24 50 -46 0 -22 -8 -23 -33 -4 -11 7 -48 17 -83 20 -57 7 -69 5 -115 -19
-28 -15 -54 -24 -57 -21 -10 9 38 43 71 50 15 4 27 10 27 15 0 25 -91 15 -97
-11 -6 -20 -29 -26 -35 -8 -2 7 -15 4 -35 -7 -32 -19 -51 -15 -38 6 13 20 97
53 155 60 60 8 90 4 135 -15z m-305 -89 c0 -16 -28 -42 -36 -33 -7 6 18 47 28
47 5 0 8 -6 8 -14z m590 7 c-1 -15 -39 -58 -46 -51 -8 9 22 58 36 58 6 0 10
-3 10 -7z m774 -49 c15 -14 25 -28 22 -31 -8 -8 -58 28 -64 45 -6 19 11 13 42
-14z m-1394 -39 c0 -8 -4 -15 -10 -15 -5 0 -10 7 -10 15 0 8 5 15 10 15 6 0
10 -7 10 -15z m1285 -35 c22 -10 61 -37 87 -59 29 -26 52 -39 62 -35 20 8 21
-6 1 -32 -15 -19 -16 -18 -36 9 -12 15 -30 27 -43 27 -13 0 -31 9 -41 20 -14
16 -26 19 -52 14 -20 -4 -33 -2 -33 4 0 16 -58 42 -63 28 -3 -8 -8 -8 -17 1
-25 23 -38 5 -28 -39 9 -42 3 -63 -12 -38 -5 7 -11 29 -15 48 -8 44 9 63 67
72 49 8 66 5 123 -20z m769 -16 c19 -7 21 -47 5 -93 -15 -42 -29 -39 -22 5 10
59 -54 75 -121 29 -20 -13 -43 -22 -51 -19 -8 4 -15 1 -15 -6 0 -16 -52 -70
-67 -70 -21 0 -16 8 61 85 l75 75 59 0 c33 0 67 -3 76 -6z m-1319 -95 c4 -6 5
-12 2 -15 -7 -7 -37 7 -37 17 0 13 27 11 35 -2z m433 -28 c3 -8 -1 -12 -9 -9
-7 2 -15 10 -17 17 -3 8 1 12 9 9 7 -2 15 -10 17 -17z"/>
<path d="M783 1543 c-22 -8 -15 -43 7 -43 13 0 20 7 20 19 0 22 -9 30 -27 24z"/>
<path d="M2640 1495 c0 -9 5 -15 11 -13 6 2 11 8 11 13 0 5 -5 11 -11 13 -6 2
-11 -4 -11 -13z"/>
<path d="M2744 1486 c-7 -19 3 -36 22 -36 10 0 14 8 12 22 -4 26 -26 36 -34
14z"/>
<path d="M3100 3192 c0 -4 15 -12 33 -18 17 -6 40 -14 50 -19 14 -6 17 -2 17
19 0 25 -3 26 -50 26 -27 0 -50 -3 -50 -8z"/>
<path d="M2665 219 c-4 -6 -5 -13 -2 -16 7 -7 27 6 27 18 0 12 -17 12 -25 -2z"/>
</g>
</svg>

</svg>