<svg xmlns="http://www.w3.org/2000/svg" viewBox="0 0 320 320">
<rect width="100%" height="100%" fill="#e0d0ba"/>
<path d="M0 3051 c0 -123 3 -150 15 -155 8 -3 15 -13 15 -23 0 -10 10 -36 21
-58 27 -49 24 -182 -5 -213 -9 -11 -14 -26 -10 -36 4 -12 1 -16 -15 -16 -17 0
-21 -6 -21 -34 0 -33 1 -35 35 -33 35 2 44 10 25 22 -15 10 -12 35 5 35 9 0
15 9 15 22 0 26 21 88 30 88 4 0 16 -11 28 -25 23 -26 30 -65 12 -65 -5 0 -10
9 -10 20 0 23 -13 26 -27 8 -14 -17 -6 -136 13 -200 3 -10 -4 -25 -15 -35 -26
-22 -27 -33 -1 -33 34 0 22 -17 -17 -26 -43 -9 -51 -9 -75 1 -14 6 -18 2 -18
-15 0 -22 2 -23 80 -16 65 5 80 4 80 -8 0 -20 -22 -26 -96 -26 l-64 0 0 -30
c0 -16 5 -30 10 -30 6 0 10 7 10 15 0 8 5 15 10 15 6 0 10 -4 10 -10 0 -5 8
-10 18 -10 14 0 15 2 2 10 -24 15 -4 22 41 13 38 -7 44 -13 57 -49 13 -36 13
-44 -3 -77 -16 -35 -16 -37 4 -63 37 -48 21 -85 -21 -48 -16 15 -18 15 -24 1
-3 -9 1 -24 10 -32 51 -51 41 -161 -26 -285 -46 -83 -59 -100 -82 -100 -14 0
-16 -21 -16 -161 0 -150 1 -161 17 -153 36 15 100 16 137 0 21 -9 40 -16 42
-16 2 0 4 23 4 51 0 36 4 49 13 46 8 -2 12 -37 14 -120 1 -109 0 -117 -17
-117 -13 0 -22 -10 -28 -32 -15 -59 -107 -40 -100 20 3 23 8 27 38 27 31 1 35
4 38 30 7 58 -61 73 -121 28 -35 -27 -36 -31 -37 -90 0 -36 4 -63 10 -63 6 0
10 -7 10 -15 0 -8 -4 -15 -10 -15 -15 0 -12 -38 3 -42 17 -6 17 -210 0 -216
-9 -2 -13 -27 -13 -78 0 -72 1 -74 28 -80 15 -4 60 -22 99 -40 59 -28 73 -38
73 -57 0 -12 11 -31 25 -41 32 -24 31 -33 -2 -68 -33 -34 -39 -35 -47 -3 -13
52 -83 113 -148 129 l-28 6 0 -205 c0 -223 -2 -217 57 -194 58 22 110 92 127
172 4 15 13 27 21 27 9 0 15 10 15 25 0 15 6 25 14 25 11 0 15 -16 15 -70 0
-55 -3 -70 -14 -70 -8 0 -15 -7 -15 -15 0 -8 7 -15 15 -15 17 0 21 -45 5 -55
-8 -5 -7 -11 1 -21 7 -8 9 -29 6 -49 l-6 -35 596 2 595 3 29 54 c42 78 77 115
146 154 129 73 236 92 368 63 115 -24 161 -62 120 -96 -14 -12 -29 -11 -67 5
-13 5 -18 2 -18 -10 0 -24 -23 -13 -38 18 -11 23 -19 27 -55 27 -90 -1 -193
-21 -245 -47 -56 -28 -145 -116 -155 -152 l-5 -21 673 0 c529 0 675 3 679 13
5 9 7 9 12 0 7 -16 50 -17 60 -2 3 6 -3 20 -14 32 -21 20 -22 20 -42 2 -11
-10 -22 -16 -25 -13 -8 7 5 38 16 38 25 0 2 23 -64 67 -63 41 -187 158 -187
177 0 22 82 -18 210 -104 107 -72 165 -125 188 -170 l17 -35 82 -3 83 -3 0
1601 -1 1600 -149 0 -150 0 0 -31 c0 -39 48 -89 84 -89 33 0 144 58 157 82 12
22 38 24 46 2 18 -47 -81 -164 -139 -164 -13 0 -36 -7 -52 -15 -40 -21 -81
-19 -111 8 -31 26 -65 115 -65 169 l0 38 -185 0 -184 0 2 -37 2 -38 -50 2
c-103 4 -136 13 -154 44 l-16 29 -202 0 c-112 0 -203 -3 -203 -7 0 -3 27 -31
60 -60 121 -110 157 -221 132 -409 -14 -99 0 -170 46 -237 42 -61 76 -83 148
-98 80 -16 120 -7 177 42 43 37 47 45 47 84 0 64 -37 105 -94 105 -53 0 -74
-16 -78 -60 -6 -68 -92 -46 -92 23 0 68 81 122 171 115 146 -12 210 -158 137
-313 -18 -37 -23 -41 -74 -48 -30 -4 -69 -12 -86 -17 -22 -7 -54 -5 -117 8
-95 21 -151 60 -209 147 -15 22 -33 47 -39 56 -10 15 -20 13 -98 -20 l-86 -36
-195 0 c-227 0 -250 -7 -250 -71 0 -41 22 -54 49 -30 34 31 81 8 81 -39 0 -10
-82 -45 -105 -45 -43 0 -109 70 -108 113 1 46 29 93 71 119 39 24 157 51 190
43 38 -9 45 4 23 41 -45 76 -29 179 34 220 39 25 110 23 138 -5 20 -20 21 -23
7 -49 -17 -30 -53 -40 -76 -21 -24 19 -54 -16 -54 -63 0 -31 8 -47 39 -81 38
-40 42 -42 99 -42 54 0 66 4 118 40 85 59 118 117 123 218 2 43 -1 89 -7 101
-5 11 -18 41 -28 65 -31 75 -99 132 -190 161 -99 30 -209 33 -274 7 -43 -18
-45 -18 -58 0 -12 17 -14 17 -26 1 -17 -24 -86 -35 -86 -15 0 9 5 19 10 22 5
3 10 13 10 21 0 11 -14 14 -60 14 -53 0 -60 -2 -60 -20 0 -11 -4 -20 -10 -20
-5 0 -10 9 -10 20 0 19 -7 20 -233 20 l-234 0 -11 -25 c-11 -24 -81 -75 -104
-75 -7 0 -35 -21 -63 -46 -27 -25 -69 -61 -92 -81 -24 -19 -43 -40 -43 -45 0
-6 -10 -18 -23 -28 -31 -25 -46 -82 -42 -157 3 -56 7 -66 42 -102 21 -22 56
-46 77 -53 29 -10 42 -21 50 -44 29 -81 87 -124 169 -124 45 0 114 28 137 54
7 9 18 16 24 16 23 0 206 213 206 239 0 5 7 11 15 15 8 3 15 11 15 19 0 7 11
28 25 47 14 19 25 41 25 50 0 17 104 120 121 120 18 0 9 -22 -11 -27 -11 -3
-20 -10 -20 -15 0 -6 -13 -27 -29 -47 -23 -29 -27 -41 -19 -55 17 -31 0 -75
-59 -151 -88 -110 -133 -175 -133 -189 0 -7 -28 -35 -62 -61 -35 -27 -72 -59
-83 -72 -19 -22 -25 -23 -126 -20 -97 3 -109 5 -152 33 -26 16 -54 43 -62 61
-13 27 -21 32 -58 35 l-42 3 -5 50 c-5 46 -7 50 -32 53 -38 4 -65 42 -79 110
-12 59 -7 155 9 175 5 7 12 24 15 38 10 41 57 118 80 131 11 6 30 20 41 31 12
11 39 31 61 46 64 42 105 74 105 83 0 4 -94 8 -210 8 -133 0 -210 -4 -210 -10
0 -5 -7 -10 -15 -10 -8 0 -15 5 -15 10 0 6 -27 10 -60 10 l-60 0 0 -149z m144
43 c4 -9 4 -19 2 -21 -8 -8 -26 8 -26 23 0 19 16 18 24 -2z m656 -19 c30 -36
-28 -104 -68 -78 -28 17 -26 44 5 69 33 27 46 29 63 9z m333 -83 c-2 -55 -52
-84 -82 -48 -28 34 11 88 59 83 21 -2 25 -7 23 -35z m-469 -58 c23 -59 -46
-124 -84 -79 -10 12 -8 21 9 49 29 47 63 60 75 30z m334 -43 c35 -22 -33 -103
-74 -87 -23 9 -16 53 12 75 29 23 42 25 62 12z m-433 -112 c12 -18 -4 -58 -29
-75 -28 -18 -59 -7 -70 23 -14 36 79 85 99 52z m290 -19 c4 -14 -2 -30 -19
-51 -14 -17 -26 -35 -26 -40 0 -21 -45 -4 -48 18 -5 32 24 81 50 86 13 2 26 5
30 6 4 0 10 -8 13 -19z m-127 -157 c4 -28 -33 -83 -55 -83 -23 0 -53 29 -53
51 0 49 102 78 108 32z m-479 -257 c12 -18 21 -40 21 -49 0 -12 14 -15 66 -15
60 0 84 -6 73 -16 -2 -2 -48 -6 -102 -9 -88 -5 -98 -4 -96 11 2 9 0 34 -5 55
-12 64 10 77 43 23z m231 -46 c0 -5 -7 -10 -15 -10 -8 0 -15 5 -15 10 0 6 7
10 15 10 8 0 15 -4 15 -10z m2370 0 c0 -5 23 -10 50 -10 28 0 50 -4 50 -10 0
-5 -6 -11 -12 -11 -45 -4 -101 -6 -328 -8 -140 -2 -270 -5 -287 -8 -54 -9 -37
-24 20 -18 69 8 103 -14 141 -89 46 -93 21 -179 -69 -232 -82 -48 -191 -22
-215 51 -11 33 -10 39 11 61 12 13 27 24 32 24 18 0 47 -32 47 -51 0 -43 74
-47 125 -8 50 40 23 140 -46 172 -54 25 -79 25 -151 3 -65 -21 -100 -53 -155
-146 -28 -46 -50 -70 -77 -84 l-38 -18 -31 29 c-32 30 -85 58 -122 65 -24 4
-33 46 -12 54 8 3 56 -8 107 -25 91 -31 110 -32 110 -7 0 17 74 122 108 151
18 17 35 23 52 20 25 -5 81 27 69 40 -8 8 -69 9 -392 5 -243 -2 -290 0 -276
15 7 7 507 15 891 15 296 -1 348 1 360 14 15 17 38 21 38 6z m310 -10 c0 -5
-7 -10 -15 -10 -8 0 -15 5 -15 10 0 6 7 10 15 10 8 0 15 -4 15 -10z m-1912
-17 c100 -3 182 -8 182 -12 0 -4 -10 -13 -22 -18 -23 -11 -23 -11 6 -22 20 -8
32 -9 40 -1 26 26 54 -5 36 -41 -14 -25 -56 -25 -70 1 -15 28 -29 25 -41 -7
-9 -25 -7 -31 20 -55 35 -31 56 -34 226 -29 82 3 103 0 114 -12 26 -32 11 -52
-57 -78 -18 -6 -39 -24 -47 -40 -31 -59 -8 -141 30 -109 25 20 65 -3 65 -36 0
-91 -138 -80 -177 13 -14 36 -14 64 2 139 l7 30 -78 12 c-87 14 -153 45 -170
82 -26 57 -33 91 -22 121 6 17 8 32 5 35 -3 3 -113 5 -246 5 -140 0 -241 4
-241 10 0 5 45 9 99 9 61 0 102 4 107 11 4 6 15 8 28 3 11 -4 103 -9 204 -11z
m1852 7 c0 -5 -25 -10 -55 -10 -30 0 -55 5 -55 10 0 6 25 10 55 10 30 0 55 -4
55 -10z m-2470 -20 c0 -5 -7 -10 -15 -10 -8 0 -15 5 -15 10 0 6 7 10 15 10 8
0 15 -4 15 -10z m150 0 c0 -5 -7 -10 -15 -10 -8 0 -15 5 -15 10 0 6 7 10 15
10 8 0 15 -4 15 -10z m710 0 c0 -5 -7 -10 -15 -10 -8 0 -15 5 -15 10 0 6 7 10
15 10 8 0 15 -4 15 -10z m50 0 c0 -5 -7 -10 -15 -10 -8 0 -15 5 -15 10 0 6 7
10 15 10 8 0 15 -4 15 -10z m-722 -75 c38 -7 57 -21 147 -112 123 -123 267
-325 246 -346 -10 -9 -18 -6 -36 18 -82 101 -332 355 -350 355 -7 0 -26 7 -41
15 -67 35 -178 -10 -210 -84 -27 -62 -30 -66 -70 -72 -30 -5 -44 -2 -66 14
-30 23 -36 37 -14 37 7 0 19 14 26 30 7 17 26 38 41 46 16 8 29 21 29 29 0 8
5 15 12 15 7 0 29 12 50 27 58 39 123 47 236 28z m2172 -7 c-1 -19 -37 -64
-45 -56 -8 8 25 68 37 68 4 0 8 -6 8 -12z m-2500 -13 c0 -8 -4 -15 -10 -15 -5
0 -10 7 -10 15 0 8 5 15 10 15 6 0 10 -7 10 -15z m2550 -70 c0 -10 -10 -15
-30 -15 -29 0 -38 9 -23 23 13 13 53 7 53 -8z m-2298 -92 c10 -9 18 -25 18
-35 0 -29 -44 -20 -48 10 -2 12 -8 22 -13 22 -5 0 -9 5 -9 10 0 16 32 12 52
-7z m-312 -82 c0 -5 -7 -25 -15 -44 -18 -44 -19 -87 -3 -122 8 -18 14 -22 19
-13 6 9 13 8 28 -6 26 -24 27 -36 1 -36 -11 0 -20 -3 -20 -8 0 -11 152 -170
181 -190 124 -80 203 -172 150 -172 -33 0 -201 120 -293 208 -93 90 -171 219
-149 246 6 7 8 21 5 32 -10 39 10 98 36 105 36 10 60 10 60 0z m1611 -35 c5
-16 7 -70 6 -121 -3 -109 -32 -179 -106 -258 -104 -112 -225 -154 -414 -144
-118 6 -162 23 -162 63 0 27 97 41 128 19 15 -11 48 -15 118 -15 119 0 190 31
286 124 54 54 62 68 74 121 7 33 16 65 21 72 10 13 3 53 -20 107 -15 37 -15
39 3 53 30 21 58 12 66 -21z m-1167 -32 c9 -3 16 -13 16 -21 0 -20 -34 -12
-38 10 -4 19 -1 20 22 11z m-276 -29 c12 -15 20 -41 20 -65 1 -36 -2 -40 -23
-40 -29 0 -41 16 -25 35 14 17 0 27 -46 28 -26 1 -34 5 -34 20 0 13 5 17 19
12 13 -4 20 0 24 15 7 28 41 25 65 -5z m410 -4 c3 -8 -1 -12 -9 -9 -7 2 -15
10 -17 17 -3 8 1 12 9 9 7 -2 15 -10 17 -17z m12 -47 c0 -9 -5 -14 -12 -12
-18 6 -21 28 -4 28 9 0 16 -7 16 -16z m-49 -15 c5 -8 19 -14 31 -14 29 0 38
-43 14 -61 -15 -10 -14 -14 4 -37 26 -32 25 -49 -2 -66 -20 -12 -24 -10 -56
28 -34 41 -58 46 -47 10 8 -23 -17 -26 -35 -5 -6 8 -17 13 -24 10 -7 -3 -18 2
-25 10 -7 8 -18 13 -26 10 -21 -8 -75 25 -85 52 -13 34 -13 34 14 34 14 0 28
5 31 10 3 6 26 10 50 10 30 0 45 5 49 16 8 20 93 14 107 -7z m-751 -80 c0 -60
-3 -80 -12 -77 -14 5 -23 97 -13 135 12 49 25 20 25 -58z m473 17 c40 -44 47
-55 47 -76 0 -22 -6 -23 -62 -14 -32 6 -38 11 -38 30 0 13 4 24 10 24 5 0 7
13 4 30 -8 37 8 40 39 6z m-83 -36 c0 -5 -7 -10 -15 -10 -8 0 -15 5 -15 10 0
6 7 10 15 10 8 0 15 -4 15 -10z m549 -64 c13 -24 8 -46 -9 -46 -15 0 -43 48
-35 60 11 17 31 11 44 -14z m1873 -15 c65 -28 99 -70 105 -128 2 -26 9 -58 15
-70 14 -28 -2 -82 -52 -171 -38 -69 -134 -152 -177 -152 -29 0 -31 -30 -3 -55
42 -38 55 -115 52 -306 -3 -166 -2 -177 18 -202 24 -31 70 -36 90 -12 11 13 9
20 -9 38 -25 28 -27 54 -4 79 22 24 35 23 63 -7 l24 -25 -19 -38 c-11 -20 -18
-49 -17 -63 4 -35 -47 -79 -92 -79 -68 0 -113 62 -124 171 l-7 73 -83 0 -83 1
-40 42 c-47 51 -54 102 -17 127 49 35 103 3 77 -46 -15 -28 10 -48 59 -48 49
0 68 14 87 65 40 103 -34 244 -143 275 -84 23 -211 0 -267 -48 -41 -35 -110
-155 -100 -172 3 -4 -2 -27 -10 -50 -20 -58 -21 -206 0 -217 20 -12 7 -96 -16
-101 -40 -8 -60 29 -71 134 -13 111 3 213 43 289 10 19 19 41 19 49 0 7 31 45
68 83 95 97 128 108 332 108 142 0 159 2 202 23 82 41 135 143 126 243 -6 63
-31 98 -93 127 l-48 23 -33 -32 c-55 -53 -46 -128 14 -120 44 5 70 -42 38 -68
-8 -7 -30 -15 -50 -18 -32 -5 -40 -1 -76 35 -35 35 -40 45 -40 86 0 58 19 97
64 131 62 47 113 54 178 26z m-2207 -31 c17 -19 15 -50 -5 -50 -15 0 -50 38
-50 55 0 21 34 19 55 -5z m-602 -82 c-2 -105 -1 -98 -13 -98 -6 0 -10 37 -10
90 0 65 3 90 13 90 9 0 12 -22 10 -82z m2213 7 c-3 -8 -8 -38 -12 -67 -5 -42
-15 -62 -45 -95 -44 -48 -46 -58 -22 -85 13 -15 15 -23 7 -36 -17 -26 -50 -26
-68 0 -30 42 -17 84 45 153 14 17 30 43 33 59 l7 28 -41 -33 c-22 -19 -55 -44
-73 -56 -18 -13 -37 -27 -44 -32 -15 -13 -82 6 -90 25 -8 22 6 64 24 71 10 4
22 -2 33 -17 21 -28 34 -21 61 31 22 44 26 47 95 59 80 13 97 12 90 -5z m744
0 c0 -8 -4 -15 -10 -15 -5 0 -10 7 -10 15 0 8 5 15 10 15 6 0 10 -7 10 -15z
m-1974 -43 c14 -9 27 -62 15 -62 -10 0 -41 44 -41 60 0 12 10 13 26 2z m-226
-21 c13 -25 13 -61 1 -61 -10 0 -61 62 -61 73 0 16 50 5 60 -12z m2210 10 c0
-12 -20 -25 -27 -18 -7 7 6 27 18 27 5 0 9 -4 9 -9z m-1124 -147 c26 -34 27
-37 12 -62 -27 -46 -162 -109 -293 -138 -35 -8 -65 -31 -65 -51 0 -10 6 -12
23 -7 57 18 78 -17 36 -62 -45 -48 -132 -12 -132 55 0 56 51 97 168 132 179
54 224 78 186 98 -25 14 -27 28 -4 53 24 26 39 22 69 -18z m-986 6 c0 -11 -4
-20 -10 -20 -5 0 -10 9 -10 20 0 11 5 20 10 20 6 0 10 -9 10 -20z m-684 -15
c10 -8 29 -15 40 -15 59 -1 134 -126 134 -223 0 -38 1 -39 28 -33 80 20 121
18 167 -4 71 -34 97 -110 53 -157 -44 -47 -81 -19 -59 44 18 48 3 63 -63 63
-59 0 -85 -14 -117 -66 -21 -34 -21 -40 -10 -103 27 -149 78 -194 221 -195
163 -2 317 106 336 234 16 100 5 272 -19 298 -25 27 -21 34 15 30 50 -5 72
-69 72 -218 1 -106 -1 -120 -28 -180 -33 -76 -81 -130 -151 -170 -96 -55 -139
-65 -272 -62 -118 3 -124 2 -181 -27 -139 -70 -188 -254 -89 -337 36 -31 67
-30 117 1 62 39 69 115 13 136 -31 11 -63 37 -63 50 0 23 49 41 83 30 63 -21
79 -49 82 -143 2 -95 -13 -127 -68 -141 -136 -35 -210 -10 -256 88 -70 148 -9
298 158 392 54 30 62 37 45 43 -52 20 -87 135 -78 263 9 121 9 132 -4 201 -14
73 -35 106 -67 106 -28 0 -32 -12 -10 -30 32 -27 3 -80 -45 -80 -47 0 -64 31
-62 113 1 61 4 75 23 90 26 21 30 21 55 2z m2790 -40 c8 -21 -9 -88 -24 -93
-13 -4 -18 89 -5 101 11 11 23 8 29 -8z m-972 -81 c9 -4 21 -15 27 -25 21 -40
-28 -78 -59 -47 -28 28 -112 -115 -112 -189 0 -29 -44 -102 -76 -126 -11 -8
-37 -19 -57 -22 -32 -6 -40 -3 -67 23 -36 36 -38 58 -8 89 32 34 66 30 82 -9
l14 -31 31 43 c17 24 31 49 31 56 0 8 16 55 36 104 45 113 97 157 158 134z
m-1174 -59 c7 -9 10 -18 7 -22 -8 -7 -37 15 -37 28 0 14 16 11 30 -6z m-809
-82 c1 -21 3 -54 5 -73 4 -43 -3 -80 -16 -80 -6 0 -10 40 -10 95 0 57 4 95 10
95 6 0 10 -17 11 -37z m1398 -119 c27 -34 27 -76 0 -100 -28 -25 -54 -8 -54
36 0 19 -6 35 -13 38 -33 11 -112 -109 -112 -169 0 -59 -95 -179 -140 -179
-11 0 -34 13 -52 29 -28 25 -30 31 -19 45 17 20 45 21 61 1 19 -23 55 14 80
84 12 31 27 70 34 86 8 17 21 47 29 67 27 64 59 88 116 88 42 0 53 -4 70 -26z
m-1394 -134 c0 -50 -4 -75 -12 -77 -10 -4 -13 16 -13 77 0 61 3 81 13 78 8 -3
12 -28 12 -78z m1576 -42 c24 -11 27 -18 27 -58 -1 -25 -7 -55 -15 -67 -17
-26 -118 -75 -216 -104 -110 -32 -155 -66 -112 -83 18 -7 20 -37 3 -54 -20
-20 -69 -15 -75 8 -3 11 -9 20 -14 20 -5 0 -9 11 -9 24 0 36 120 136 163 136
32 0 151 45 177 66 37 31 39 47 5 38 -33 -8 -55 11 -55 47 0 48 49 59 121 27z
m-1573 -90 c-4 -27 -28 -36 -28 -10 0 20 8 32 22 32 5 0 8 -10 6 -22z m2 -123
c0 -36 -4 -65 -9 -65 -12 0 -24 85 -16 110 13 40 25 18 25 -45z m1020 -27 c0
-13 3 -33 6 -45 5 -16 -5 -34 -40 -71 -38 -40 -45 -53 -38 -71 8 -21 10 -20
59 28 42 41 58 51 86 51 48 0 67 -62 30 -102 -21 -24 -37 -23 -54 3 -20 29
-61 11 -94 -41 -24 -39 -27 -40 -80 -40 -61 0 -68 6 -55 46 5 16 12 40 14 54
3 15 25 41 56 64 61 47 65 66 13 63 -46 -2 -57 27 -23 58 19 18 22 18 56 2 44
-21 44 -21 44 3 0 11 5 20 10 20 6 0 10 -10 10 -22z m1100 -58 c0 -11 -4 -20
-10 -20 -5 0 -10 9 -10 20 0 11 5 20 10 20 6 0 10 -9 10 -20z m148 -182 c19
-16 14 -28 -11 -28 -26 0 -47 17 -47 38 0 14 34 8 58 -10z m153 -119 c14 -27
-1 -44 -30 -34 -23 7 -27 25 -9 43 17 17 26 15 39 -9z m-309 -56 c26 -23 23
-43 -7 -43 -23 0 -45 24 -45 49 0 17 31 13 52 -6z"/>
<path d="M2380 3185 c0 -8 5 -15 10 -15 6 0 10 7 10 15 0 8 -4 15 -10 15 -5 0
-10 -7 -10 -15z"/>
<path d="M1483 2533 c-25 -19 -8 -27 60 -28 34 -1 70 -5 80 -9 11 -5 42 -4 75
4 51 11 54 13 37 26 -14 10 -36 12 -81 8 -35 -4 -71 -3 -81 1 -28 13 -71 11
-90 -2z"/>
<path d="M17 2430 c-24 -29 -23 -80 2 -80 26 0 36 17 20 36 -9 11 -8 18 5 32
9 10 13 22 9 25 -10 11 -17 8 -36 -13z"/>
<path d="M80 2125 c0 -14 5 -25 10 -25 6 0 10 11 10 25 0 14 -4 25 -10 25 -5
0 -10 -11 -10 -25z"/>
<path d="M125 34 l-40 -34 68 0 67 0 0 35 c0 34 -14 48 -23 23 -3 -10 -7 -10
-18 -1 -11 9 -22 4 -54 -23z"/>
</g>
</svg>

<path d="M0 2875 c0 -277 2 -325 14 -325 14 0 46 -36 46 -51 0 -4 -13 -10 -30
-14 -28 -6 -30 -9 -30 -56 0 -46 2 -49 26 -49 31 0 28 -23 -4 -28 -15 -2 -22
-10 -22 -26 0 -31 40 -49 77 -35 18 6 30 6 36 0 16 -16 4 -22 -57 -28 -46 -5
-56 -9 -56 -24 0 -12 7 -19 20 -19 11 0 20 -4 20 -10 0 -5 -4 -10 -10 -10 -5
0 -10 -7 -10 -15 0 -8 -4 -15 -10 -15 -7 0 -10 -368 -10 -1085 l0 -1085 119 0
c86 0 121 4 125 13 5 9 7 9 12 0 6 -15 1964 -20 1964 -5 -1 18 -33 47 -62 57
-37 12 -45 27 -23 48 9 10 11 18 5 22 -5 3 -10 1 -10 -4 0 -15 -73 -14 -92 2
-9 6 -19 23 -23 36 -6 21 -5 23 11 16 59 -24 90 -10 80 35 -4 25 -2 27 27 26
18 -1 38 -7 45 -14 22 -20 31 -5 20 35 -21 81 -21 110 1 132 12 12 28 21 36
21 28 0 65 -24 65 -42 0 -23 14 -23 40 -1 21 19 26 48 10 58 -16 10 -12 23 8
27 13 2 19 19 27 73 12 83 38 103 48 38 6 -35 22 -54 71 -85 6 -4 11 -22 11
-40 0 -25 4 -32 17 -30 20 3 93 -73 93 -98 0 -27 105 -133 183 -184 79 -52 78
-51 57 -73 -13 -13 -13 -46 0 -61 8 -9 45 11 45 25 0 8 6 13 13 10 6 -2 11
-12 11 -21 -2 -13 8 -16 53 -16 54 0 54 0 39 22 -18 26 -20 38 -7 38 6 0 18
-13 28 -30 17 -29 20 -30 85 -30 l68 0 -1 463 c-1 254 -4 452 -6 440 -5 -29
-10 -29 -34 0 -24 29 -24 40 1 32 14 -5 20 -2 20 9 0 9 5 16 10 16 6 0 10 25
10 55 0 44 -3 53 -15 49 -9 -4 -15 0 -15 10 0 9 7 16 15 16 13 0 15 50 14 390
-1 225 -5 390 -10 390 -5 0 -9 8 -9 18 0 9 -7 30 -15 46 -19 36 -19 46 0 46
23 0 35 34 35 98 0 55 -2 60 -20 55 -23 -6 -27 12 -5 21 8 3 15 10 15 16 0 5
-7 10 -15 10 -21 0 -19 13 5 28 15 9 20 23 20 56 0 47 -20 67 -46 45 -8 -6
-20 -9 -29 -6 -8 4 -17 2 -20 -3 -4 -6 -33 -10 -66 -10 -33 0 -59 -4 -59 -10
0 -5 -5 -10 -11 -10 -6 0 -9 6 -6 13 4 11 -6 13 -44 9 -60 -6 -66 12 -16 46
42 28 84 28 114 0 17 -16 23 -18 23 -7 0 16 -49 49 -73 49 -15 0 -67 68 -67
88 0 7 13 12 29 12 21 0 30 6 34 21 9 34 32 17 30 -22 -1 -19 1 -26 4 -16 3
12 11 17 23 14 15 -4 16 0 9 32 -15 62 -13 64 32 57 22 -4 57 -1 78 5 33 10
37 14 33 37 -4 20 -2 24 11 19 14 -5 15 24 17 267 0 150 -2 280 -6 289 -9 24
-794 26 -794 2 0 -8 -4 -15 -10 -15 -5 0 -10 7 -10 15 0 13 -71 15 -579 15
-565 0 -579 0 -584 -19 -6 -25 0 -31 33 -31 14 0 31 -5 36 -10 15 -15 94 -1
94 16 0 27 21 14 27 -17 3 -19 14 -34 25 -36 30 -9 21 -20 -52 -69 -38 -25
-72 -50 -76 -55 -10 -18 -24 -9 -24 16 0 14 -5 25 -11 25 -6 0 -8 -9 -4 -21 6
-19 4 -21 -13 -17 -25 7 -142 -95 -142 -122 0 -9 -11 -31 -25 -50 -14 -19 -25
-40 -25 -47 0 -20 -34 -15 -48 7 -7 11 -21 20 -32 20 -23 0 -27 15 -6 23 8 3
21 20 29 37 15 30 15 31 -9 42 -32 15 -77 -16 -82 -56 -4 -32 -50 -85 -60 -69
-22 36 -92 -23 -92 -77 0 -11 -4 -20 -9 -20 -5 0 -13 -9 -16 -20 -4 -14 -15
-20 -35 -20 -33 0 -90 -44 -90 -68 0 -16 41 -42 64 -42 17 0 100 80 91 88 -4
4 -10 1 -12 -5 -6 -18 -23 -16 -23 2 0 9 8 19 18 22 21 8 36 21 64 51 22 23
58 30 58 11 0 -6 -14 -16 -30 -22 -32 -12 -59 -70 -47 -101 8 -20 27 -21 27
-1 0 8 6 15 14 15 7 0 21 11 30 25 9 14 21 25 27 25 6 0 20 11 31 25 11 14 26
25 34 25 8 0 14 4 14 9 0 11 50 44 57 38 8 -8 -99 -137 -114 -137 -7 0 -13 -8
-13 -18 0 -19 -59 -82 -77 -82 -6 0 -16 -7 -23 -16 -37 -44 -144 -67 -204 -45
-34 14 -88 73 -101 113 -9 26 -20 36 -51 46 -43 14 -107 75 -112 107 -8 54 -9
126 -1 131 5 3 9 16 9 29 0 13 11 32 25 43 14 11 25 24 25 30 0 5 19 26 43 45
23 20 65 56 92 81 28 25 56 46 63 46 7 0 21 5 32 12 24 15 34 6 25 -21 -4 -14
-15 -21 -30 -21 -27 0 -42 -15 -23 -24 9 -4 8 -9 -6 -18 -10 -7 -31 -25 -46
-40 -15 -16 -38 -28 -51 -29 -13 0 -18 -3 -11 -6 17 -7 15 -33 -3 -33 -8 0
-15 -5 -15 -11 0 -7 7 -8 18 -4 9 5 32 13 50 19 18 6 35 19 38 28 3 10 11 18
18 18 8 0 24 15 37 34 31 46 89 64 89 27 0 -48 71 -52 92 -5 19 41 -30 90 -53
53 -4 -7 -11 -10 -16 -6 -4 5 -3 11 2 15 20 14 65 81 65 96 0 24 -52 21 -68
-4 -7 -11 -19 -20 -28 -20 -11 0 -13 6 -9 20 6 20 2 20 -344 20 l-351 0 0
-325z m160 85 c0 -16 -4 -30 -10 -30 -5 0 -10 14 -10 30 0 17 5 30 10 30 6 0
10 -13 10 -30z m0 -55 c0 -8 -4 -15 -10 -15 -5 0 -10 7 -10 15 0 8 5 15 10 15
6 0 10 -7 10 -15z m10 -129 c0 -22 -11 -46 -21 -46 -5 0 -9 14 -9 30 0 20 5
30 15 30 8 0 15 -6 15 -14z m770 -50 c0 -8 -7 -17 -16 -20 -21 -8 -26 -3 -18
18 8 20 34 21 34 2z m-790 -76 c0 -11 -4 -20 -10 -20 -5 0 -10 2 -10 4 0 2 -3
11 -6 20 -4 11 -1 16 10 16 9 0 16 -8 16 -20z m136 -39 c14 -17 37 -31 52 -33
25 -3 27 -8 32 -53 l5 -50 45 -5 c34 -4 46 -10 48 -24 3 -11 10 -26 18 -34 18
-18 18 -31 -2 -39 -11 -4 -13 -13 -9 -34 5 -22 3 -29 -9 -29 -9 0 -16 -4 -16
-10 0 -5 7 -10 15 -10 8 0 15 -4 15 -10 0 -24 -128 -4 -135 21 -8 23 -25 25
-25 4 0 -31 -36 -14 -63 30 -16 25 -33 45 -38 45 -13 0 -11 115 3 145 9 21 9
28 -1 34 -13 9 4 51 21 51 5 0 8 7 8 15 0 22 8 19 36 -14z m-143 -33 c2 -13 8
-31 12 -40 5 -13 3 -18 -9 -18 -13 0 -14 -4 -4 -25 6 -14 17 -25 25 -25 7 0
13 -11 13 -25 0 -16 -6 -25 -15 -25 -8 0 -15 -9 -15 -19 0 -23 16 -37 22 -19
7 21 28 -3 28 -33 0 -35 -12 -37 -34 -6 l-17 22 6 -27 c2 -14 8 -33 11 -42 4
-11 1 -16 -10 -16 -19 0 -39 46 -33 76 2 12 -2 55 -9 95 -7 41 -9 78 -4 83 5
5 6 15 3 22 -6 17 3 44 16 44 5 0 11 -10 14 -22z m41 6 c9 -22 8 -24 -9 -24
-8 0 -15 9 -15 20 0 24 15 27 24 4z m1382 -45 c5 -8 30 -10 78 -6 109 10 134
-23 29 -39 -23 -3 -48 -2 -55 2 -7 5 -41 9 -75 9 -85 1 -101 19 -31 35 47 11
46 11 54 -1z m364 -19 c0 -5 -9 -10 -20 -10 -11 0 -20 5 -20 10 0 6 9 10 20
10 11 0 20 -4 20 -10z m-1880 -84 c0 -16 -18 -31 -27 -22 -8 8 5 36 17 36 5 0
10 -6 10 -14z m164 -182 c17 -7 21 -50 8 -72 -10 -15 -42 -5 -42 13 0 8 5 17
10 20 6 4 8 15 5 26 -7 21 -5 22 19 13z m2136 -3 c0 -10 -24 -21 -46 -21 -8 0
-14 4 -14 9 0 8 10 12 53 20 4 0 7 -3 7 -8z m596 -11 c16 0 18 -9 5 -29 -7
-10 -12 -10 -30 5 -25 22 -28 39 -5 30 9 -3 22 -6 30 -6z m74 -25 c29 -17 86
-20 95 -5 17 28 26 4 24 -66 -1 -50 2 -79 11 -87 10 -9 14 -9 17 1 9 24 25 12
19 -14 -10 -39 -33 -59 -51 -44 -11 9 -20 8 -41 -9 -41 -32 -61 -27 -73 17
-15 51 -14 72 4 72 8 0 15 7 15 15 0 9 -9 15 -25 15 -14 0 -28 -7 -31 -15 -8
-19 -23 -19 -30 0 -3 8 4 29 17 46 18 26 20 35 11 50 -25 39 -8 50 38 24z
m-2492 -1 c36 -10 26 -27 -13 -21 -47 8 -59 -24 -21 -54 33 -26 33 -35 -3 -53
-15 -8 -34 -28 -40 -45 -7 -16 -21 -31 -32 -34 -10 -3 -19 -11 -19 -19 0 -27
-39 -41 -65 -24 -29 19 -52 20 -58 4 -9 -27 -18 2 -9 33 6 24 15 35 30 37 26
4 28 15 7 32 -8 7 -15 17 -15 22 0 6 -11 23 -25 40 -33 39 -32 44 10 45 19 1
35 -3 35 -8 0 -15 28 2 33 21 4 15 12 17 45 13 22 -3 48 0 58 6 21 12 49 14
82 5z m-338 -64 c0 -5 -7 -10 -15 -10 -8 0 -15 5 -15 10 0 6 7 10 15 10 8 0
15 -4 15 -10z m-90 -25 c0 -14 -4 -25 -10 -25 -5 0 -10 11 -10 25 0 14 5 25
10 25 6 0 10 -11 10 -25z m120 5 c0 -13 -7 -20 -20 -20 -23 0 -26 10 -8 28 18
18 28 15 28 -8z m586 -26 c34 -16 81 -52 122 -94 175 -177 224 -233 249 -282
37 -77 181 -226 238 -248 36 -14 31 -30 -11 -30 -28 0 -37 -5 -41 -20 -6 -21
-17 -25 -95 -34 -42 -5 -48 -3 -48 13 0 10 -7 22 -16 25 -30 11 -34 -5 -10
-37 13 -18 26 -44 30 -59 3 -16 13 -28 21 -28 8 0 15 -7 15 -15 0 -19 -61 -18
-100 0 -16 8 -33 9 -48 4 -12 -5 -29 -6 -37 -3 -10 4 -15 0 -15 -15 0 -12 5
-21 10 -21 6 0 10 -19 10 -43 0 -24 4 -47 10 -53 12 -12 -5 -80 -22 -90 -6 -4
-24 7 -39 24 -16 18 -34 32 -40 32 -7 0 -27 11 -46 26 -34 26 -44 54 -18 54 8
0 15 5 15 10 0 6 -13 10 -28 10 -22 0 -33 8 -49 38 -12 20 -33 47 -47 59 -14
13 -26 29 -26 35 0 7 -18 26 -40 41 -22 16 -40 33 -40 38 0 5 -5 9 -11 9 -18
0 -75 48 -165 139 -90 90 -93 95 -67 110 17 9 16 11 -5 34 -14 15 -20 30 -16
40 3 10 1 17 -5 17 -6 0 -11 -4 -11 -10 0 -5 -7 -10 -15 -10 -22 0 -19 65 5
116 23 47 53 71 95 76 29 3 35 10 57 66 17 44 100 102 146 102 18 0 58 -12 88
-26z m2382 -12 c2 -7 -3 -12 -12 -12 -9 0 -16 7 -16 16 0 17 22 14 28 -4z
m-3008 -12 c0 -11 6 -20 14 -20 18 0 24 -20 27 -80 3 -68 0 -80 -16 -80 -12 0
-14 8 -9 40 4 27 3 40 -5 40 -6 0 -11 11 -11 24 0 14 -6 31 -14 39 -9 8 -12
24 -9 36 7 27 23 28 23 1z m1590 -25 c0 -8 -4 -15 -10 -15 -5 0 -10 7 -10 15
0 8 5 15 10 15 6 0 10 -7 10 -15z m-1560 -240 c0 -8 -4 -15 -10 -15 -5 0 -10
7 -10 15 0 8 5 15 10 15 6 0 10 -7 10 -15z m20 -40 c0 -8 -4 -15 -10 -15 -5 0
-10 7 -10 15 0 8 5 15 10 15 6 0 10 -7 10 -15z m10 -275 c0 -16 -4 -30 -10
-30 -5 0 -10 14 -10 30 0 17 5 30 10 30 6 0 10 -13 10 -30z m2950 5 c0 -8 -4
-15 -10 -15 -5 0 -10 7 -10 15 0 8 5 15 10 15 6 0 10 -7 10 -15z m-820 -111
c0 -9 -16 -35 -36 -58 -19 -22 -39 -46 -45 -53 -5 -7 -9 -32 -9 -57 0 -49 -32
-85 -65 -72 -24 9 -18 30 15 49 28 17 40 37 22 37 -25 0 -60 -28 -76 -61 -13
-26 -27 -40 -46 -44 -31 -7 -52 -46 -96 -183 -24 -72 -57 -132 -73 -132 -4 0
-13 11 -19 25 -14 31 -48 33 -79 3 -29 -27 -29 -55 -2 -84 12 -13 19 -29 16
-37 -6 -17 -57 -29 -72 -17 -19 15 -74 21 -94 10 -14 -7 -21 -21 -21 -39 0
-36 22 -55 55 -47 34 9 32 -7 -5 -38 -26 -21 -145 -66 -177 -66 -35 0 -163
-99 -163 -127 0 -26 -27 -43 -69 -43 -27 0 -44 -6 -53 -19 -7 -10 -28 -31 -46
-46 -28 -23 -35 -26 -43 -14 -12 19 -11 20 43 77 33 35 44 53 37 63 -10 16
-12 60 -3 83 4 11 14 13 33 10 51 -10 151 106 151 175 0 60 79 180 112 169 7
-3 13 -19 13 -38 0 -44 26 -61 54 -36 24 21 27 53 9 90 -18 42 11 66 71 59 40
-4 49 -2 69 20 43 46 23 81 -35 63 -17 -5 -23 -3 -23 7 0 23 32 44 85 56 173
41 297 116 280 170 -6 20 61 54 107 54 15 0 28 4 28 8 0 4 9 11 20 14 11 4 41
24 66 46 49 42 64 48 64 23z m-2140 -44 c0 -11 -7 -20 -15 -20 -15 0 -21 21
-8 33 12 13 23 7 23 -13z m2958 -72 c-3 -7 -11 -13 -18 -13 -7 0 -15 6 -17 13
-3 7 4 12 17 12 13 0 20 -5 18 -12z m2 -247 c0 -12 -20 -25 -27 -18 -7 7 6 27
18 27 5 0 9 -4 9 -9z m-30 -201 c0 -11 -4 -20 -10 -20 -5 0 -10 9 -10 20 0 11
5 20 10 20 6 0 10 -9 10 -20z m-1100 -18 c0 -15 -28 -47 -35 -40 -8 8 13 48
25 48 6 0 10 -4 10 -8z m1120 -52 c0 -11 -7 -20 -15 -20 -8 0 -15 2 -15 4 0 2
-3 11 -6 20 -4 12 0 16 15 16 14 0 21 -6 21 -20z m1 -100 c5 -111 3 -130 -9
-130 -9 0 -11 -7 -7 -20 4 -12 1 -28 -6 -36 -10 -13 -10 -17 2 -25 12 -8 12
-10 -1 -19 -10 -6 -11 -10 -2 -10 6 0 12 -7 12 -15 0 -8 -8 -15 -19 -15 -14 0
-21 12 -29 52 -10 55 -1 88 27 88 9 0 11 7 7 20 -3 11 -9 29 -12 40 -5 14 -2
20 10 20 20 0 21 19 1 26 -23 9 -19 54 5 54 15 0 20 -7 21 -30z m-2961 -210
c0 -11 -4 -20 -10 -20 -5 0 -10 9 -10 20 0 11 5 20 10 20 6 0 10 -9 10 -20z
m50 1 c0 -12 -20 -25 -27 -18 -7 7 6 27 18 27 5 0 9 -4 9 -9z m-50 -141 c0
-11 -7 -20 -15 -20 -17 0 -18 2 -9 24 9 23 24 20 24 -4z m2950 -14 c0 -16 -18
-31 -27 -22 -8 8 5 36 17 36 5 0 10 -6 10 -14z m-20 -73 c0 -5 -4 -15 -10 -23
-11 -18 -25 -7 -17 15 6 15 27 21 27 8z"/>
<path d="M287 2374 c-8 -8 3 -34 14 -34 11 0 12 27 0 34 -4 3 -11 3 -14 0z"/>
<path d="M710 2023 c-16 -6 -40 -32 -40 -43 0 -20 84 -38 94 -21 6 9 -25 72
-34 70 -3 0 -12 -3 -20 -6z"/>
<path d="M647 1867 c-9 -44 -30 -56 -56 -33 -24 22 -52 20 -58 -4 -4 -15 -11
-19 -24 -15 -14 5 -19 1 -19 -14 0 -14 6 -20 18 -19 52 4 64 -1 58 -27 -5 -18
-1 -27 13 -35 27 -14 50 10 44 44 -5 23 -2 26 21 26 19 0 26 5 26 20 0 11 5
20 10 20 6 0 9 10 9 23 -1 16 -2 18 -6 5 -7 -29 -21 -21 -25 15 l-3 32 -8 -38z"/>
<path d="M846 1851 c-9 -14 22 -34 41 -26 17 6 17 7 -1 21 -23 16 -33 18 -40
5z"/>
<path d="M980 1832 c0 -5 3 -12 7 -16 11 -11 13 -76 2 -76 -5 0 -9 6 -9 14 0
26 -107 36 -116 11 -4 -10 -20 -15 -49 -15 -24 0 -47 -4 -50 -10 -3 -5 -17
-10 -31 -10 -21 0 -24 -4 -19 -20 8 -24 2 -25 -30 -4 -30 19 -49 11 -35 -16
16 -30 13 -32 -40 -25 -34 5 -50 3 -50 -4 0 -12 10 -14 53 -11 20 1 27 -3 27
-17 0 -14 12 -21 45 -29 25 -6 47 -8 50 -6 10 10 5 51 -7 55 -7 2 -10 7 -6 11
3 4 20 0 37 -8 16 -9 37 -16 46 -16 8 0 24 -4 35 -10 11 -5 29 -14 40 -20 31
-15 42 -12 35 10 -11 33 20 24 52 -16 27 -34 31 -35 51 -23 26 16 28 36 5 61
-14 15 -14 22 -3 42 8 16 10 40 6 71 -7 45 -7 47 15 40 14 -5 19 -4 15 4 -4 6
-15 11 -26 11 -10 0 -20 7 -24 15 -6 16 -26 21 -26 7z"/>
<path d="M1121 1616 c-16 -19 11 -70 32 -63 19 6 18 30 -1 55 -16 21 -20 22
-31 8z"/>
<path d="M766 1561 c-3 -5 6 -21 19 -35 42 -45 32 -62 -12 -22 -28 26 -82 41
-96 27 -9 -9 42 -51 62 -51 15 0 14 -17 -1 -24 -18 -7 19 -36 37 -30 8 3 27
-4 43 -16 44 -32 74 -20 70 28 -2 29 -8 37 -28 42 -18 4 -25 13 -26 30 -2 57
-3 60 -33 60 -17 0 -32 -4 -35 -9z"/>
<path d="M920 1423 c0 -11 51 -73 61 -73 12 0 12 36 -1 61 -10 17 -60 28 -60
12z"/>
<path d="M838 1354 c12 -8 27 -12 32 -9 17 10 1 25 -28 25 l-26 0 22 -16z"/>
<path d="M1672 901 c2 -7 7 -12 11 -12 12 1 9 15 -3 20 -7 2 -11 -2 -8 -8z"/>
<path d="M1167 3181 c-5 -22 1 -33 14 -25 12 7 12 44 0 44 -5 0 -11 -9 -14
-19z"/>
<path d="M1110 3052 c0 -10 -12 -22 -29 -28 -52 -20 -50 -94 4 -94 38 0 70 65
46 94 -6 7 -9 21 -5 30 3 9 1 16 -5 16 -6 0 -11 -8 -11 -18z"/>
<path d="M906 2984 c-3 -8 1 -14 9 -14 20 0 28 17 11 23 -8 3 -17 -1 -20 -9z"/>
<path d="M599 2918 c-32 -36 -34 -55 -7 -71 38 -25 89 32 73 82 -9 30 -32 26
-66 -11z"/>
<path d="M820 2854 c0 -8 5 -12 10 -9 6 3 10 10 10 16 0 5 -4 9 -10 9 -5 0
-10 -7 -10 -16z"/>
<path d="M485 2767 c-29 -24 -26 -50 7 -68 36 -20 95 45 73 80 -11 18 -53 12
-80 -12z"/>
<path d="M600 2705 c-14 -16 -3 -20 19 -6 8 5 9 11 3 15 -5 3 -15 -1 -22 -9z"/>
<path d="M3140 2535 c0 -8 4 -15 9 -15 5 0 11 7 15 15 3 9 0 15 -9 15 -8 0
-15 -7 -15 -15z"/>
<path d="M3180 2506 c0 -8 5 -18 10 -21 6 -3 10 3 10 14 0 12 -4 21 -10 21 -5
0 -10 -6 -10 -14z"/>
<path d="M3148 2434 c-2 -19 0 -37 4 -40 4 -3 8 4 8 15 0 12 7 21 15 21 10 0
15 -10 15 -30 0 -23 -4 -30 -20 -30 -11 0 -20 -7 -20 -15 0 -9 9 -15 25 -15
23 0 25 3 25 51 0 38 -5 55 -17 65 -27 20 -30 17 -35 -22z"/>
<path d="M2450 238 c0 -21 21 -38 47 -38 40 0 23 30 -24 44 -16 5 -23 3 -23
-6z"/>
<path d="M2495 121 c-4 -13 4 -29 25 -50 23 -22 30 -37 25 -51 -5 -16 -2 -20
18 -20 31 0 43 27 22 50 -8 9 -15 25 -15 36 -1 46 -62 75 -75 35z"/>
<path d="M2615 110 c-17 -19 -17 -20 9 -31 35 -16 53 -1 37 30 -14 26 -23 26
-46 1z"/>
<path d="M2450 71 c0 -18 36 -40 50 -31 16 10 15 12 -22 28 -16 6 -28 8 -28 3z"/>
<path d="M2300 59 c0 -25 22 -49 45 -49 30 0 33 20 7 43 -21 19 -52 23 -52 6z"/>
</g>
</svg>

<path d="M0 2155 c0 -690 3 -1045 10 -1045 6 0 10 -18 10 -40 0 -22 -4 -40
-10 -40 -6 0 -10 -63 -10 -170 0 -107 4 -170 10 -170 6 0 10 -7 10 -15 0 -8
-4 -15 -10 -15 -6 0 -10 -117 -10 -330 l0 -330 1559 0 c1554 0 1559 0 1554 20
-4 14 0 20 11 20 9 0 16 -4 16 -10 0 -5 7 -7 15 -4 9 4 15 0 15 -10 0 -9 7
-16 15 -16 13 0 15 30 14 213 0 116 -3 206 -6 200 -11 -28 -20 -10 -22 42 -1
62 16 75 22 18 2 -21 4 30 5 114 2 113 -1 153 -10 157 -10 5 -10 7 0 12 15 7
18 234 3 234 -5 0 -11 -10 -13 -22 -5 -35 -32 -28 -36 8 -3 28 0 32 30 38 31
7 32 8 14 21 -20 15 -20 15 0 30 18 14 18 16 2 29 -22 16 -22 23 -2 43 22 22
15 141 -9 155 -22 12 -22 28 1 28 19 0 24 34 9 58 -5 7 -4 19 3 27 18 22 -1
152 -24 168 -8 5 -8 9 1 15 9 5 10 24 4 67 -9 67 -5 89 15 81 8 -3 14 1 14 8
0 9 -7 12 -19 9 -26 -7 -34 11 -26 63 7 48 25 60 25 17 0 -22 2 -25 10 -13 14
21 13 187 -1 192 -8 3 -8 14 0 43 6 22 11 68 11 103 0 59 -1 62 -20 50 -10 -7
-23 -9 -27 -4 -4 4 0 12 10 17 21 12 12 32 -11 25 -17 -6 -50 9 -42 18 3 2 21
7 42 11 30 6 37 4 41 -12 2 -10 5 165 6 390 2 403 1 407 -19 407 -25 0 -25 10
0 38 13 14 20 35 20 62 l0 40 -134 0 c-98 0 -136 -3 -140 -12 -5 -10 -7 -10
-12 0 -4 9 -226 12 -1060 12 -972 0 -1054 -1 -1054 -16 0 -30 -70 -103 -118
-124 -29 -13 -56 -34 -71 -56 -14 -20 -30 -33 -38 -30 -8 3 -13 -2 -13 -12 0
-17 -56 -49 -67 -38 -8 8 -1 15 118 129 21 21 39 44 39 52 0 8 10 20 23 26 28
14 67 50 67 61 0 4 -166 8 -370 8 l-370 0 0 -1045z m144 1009 c9 -3 16 -13 16
-21 0 -20 -34 -12 -38 10 -4 19 -1 20 22 11z m1376 -14 c0 -12 -9 -22 -24 -26
-48 -12 -63 18 -18 34 39 15 42 14 42 -8z m820 -20 c8 -5 12 -12 9 -15 -8 -8
-39 5 -39 16 0 11 11 11 30 -1z m140 -5 c0 -8 -4 -15 -10 -15 -5 0 -10 7 -10
15 0 8 5 15 10 15 6 0 10 -7 10 -15z m-50 -25 c0 -5 -7 -10 -15 -10 -8 0 -15
5 -15 10 0 6 7 10 15 10 8 0 15 -4 15 -10z m620 -119 c0 -10 -30 -24 -37 -17
-3 3 -2 9 2 15 8 13 35 15 35 2z m-1770 -9 c0 -5 -17 -24 -37 -43 -21 -19 -43
-44 -49 -54 -11 -20 -34 -32 -34 -18 0 12 101 123 112 123 4 0 8 -4 8 -8z
m-344 -186 c9 -24 -56 -99 -72 -83 -6 6 20 82 31 89 16 12 35 9 41 -6z m72 -8
c22 -22 13 -44 -30 -75 -24 -17 -64 -52 -91 -77 -26 -25 -54 -46 -61 -46 -8 0
-16 -6 -19 -12 -9 -26 -19 2 -13 36 6 31 15 39 76 72 57 30 71 42 84 75 16 40
33 48 54 27z m500 -26 c2 -7 -3 -12 -12 -12 -9 0 -16 7 -16 16 0 17 22 14 28
-4z m-1406 -39 c3 -31 0 -53 -8 -62 -19 -20 -21 -14 -16 52 5 69 18 75 24 10z
m2058 32 c7 -9 11 -18 8 -20 -9 -10 -38 7 -38 21 0 18 14 18 30 -1z m-530 -5
c0 -5 -7 -10 -15 -10 -8 0 -15 5 -15 10 0 6 7 10 15 10 8 0 15 -4 15 -10z
m-1480 -45 c0 -8 -4 -15 -10 -15 -5 0 -10 7 -10 15 0 8 5 15 10 15 6 0 10 -7
10 -15z m105 -52 c-8 -32 -13 -39 -21 -30 -10 9 5 57 17 57 7 0 9 -10 4 -27z
m515 2 c0 -8 -9 -15 -20 -15 -20 0 -26 11 -13 23 12 13 33 7 33 -8z m-700 -65
c0 -11 -7 -20 -15 -20 -17 0 -18 2 -9 24 9 23 24 20 24 -4z m143 -7 c9 -49 -5
-183 -19 -183 -10 0 -12 14 -9 55 2 30 0 55 -5 55 -18 0 -23 43 -6 52 9 5 16
18 16 28 0 29 17 24 23 -7z m2937 18 c0 -12 -20 -25 -27 -18 -7 7 6 27 18 27
5 0 9 -4 9 -9z m-190 -91 c0 -11 -4 -20 -10 -20 -5 0 -10 9 -10 20 0 11 5 20
10 20 6 0 10 -9 10 -20z m-1460 -30 c0 -5 -7 -10 -15 -10 -8 0 -15 5 -15 10 0
6 7 10 15 10 8 0 15 -4 15 -10z m-90 -10 c0 -5 -7 -10 -15 -10 -8 0 -15 5 -15
10 0 6 7 10 15 10 8 0 15 -4 15 -10z m1120 -10 c0 -11 -4 -20 -10 -20 -5 0
-10 9 -10 20 0 11 5 20 10 20 6 0 10 -9 10 -20z m645 0 c0 -7 -6 -15 -12 -17
-8 -3 -13 4 -13 17 0 13 5 20 13 18 6 -3 12 -11 12 -18z m-659 -62 c-12 -60
-45 -95 -95 -102 -56 -7 -276 0 -291 9 -5 3 -10 15 -10 25 0 21 9 21 113 -2
35 -7 65 -7 105 1 31 6 73 12 92 13 30 3 38 8 55 46 23 50 40 55 31 10z
m-1626 15 c-1 -18 -72 -83 -95 -88 -14 -3 -36 -7 -49 -10 -14 -3 -28 -14 -31
-25 -3 -11 -13 -20 -20 -20 -18 0 -32 23 -17 28 29 9 7 21 -45 24 -31 2 -58 8
-60 14 -3 8 30 10 107 8 l111 -3 41 39 c38 38 58 49 58 33z m470 -13 c8 -5 11
-12 8 -16 -10 -9 -38 3 -38 16 0 12 10 13 30 0z m-836 -16 c27 -10 18 -20 -19
-20 -35 0 -46 10 -22 19 18 8 23 8 41 1z m771 -60 c38 -25 31 -39 -20 -41 -25
-1 -45 3 -45 8 0 5 4 9 9 9 5 0 11 9 14 20 6 24 11 25 42 4z m189 -9 c3 -8 12
-15 21 -15 8 0 15 -4 15 -10 0 -11 -19 -12 -72 -4 -40 7 -52 24 -18 24 11 0
20 5 20 10 0 16 27 12 34 -5z m1176 0 c0 -8 -7 -15 -15 -15 -16 0 -20 12 -8
23 11 12 23 8 23 -8z m-2095 -25 c0 -8 -8 -16 -17 -18 -13 -2 -18 3 -18 18 0
15 5 20 18 18 9 -2 17 -10 17 -18z m1305 10 c0 -5 -10 -10 -22 -10 -13 0 -33
-3 -45 -6 -13 -4 -23 -2 -23 4 0 12 22 19 63 21 15 0 27 -3 27 -9z m680 0 c0
-5 -7 -10 -15 -10 -8 0 -15 5 -15 10 0 6 7 10 15 10 8 0 15 -4 15 -10z m-1930
-10 c0 -5 -7 -10 -15 -10 -8 0 -15 5 -15 10 0 6 7 10 15 10 8 0 15 -4 15 -10z
m-292 -26 c13 -4 22 -14 22 -26 0 -13 -5 -18 -14 -15 -7 3 -23 -6 -35 -19 -15
-17 -28 -23 -41 -19 -27 9 -25 -7 5 -43 14 -17 25 -34 25 -40 0 -5 7 -15 15
-22 21 -17 19 -30 -5 -30 -10 0 -24 -9 -30 -20 -15 -28 -39 -25 -45 5 -3 14
-7 36 -10 50 -3 14 0 35 6 46 8 16 8 23 0 28 -8 5 -5 21 9 54 23 51 47 64 98
51z m2062 -4 c0 -5 -7 -10 -15 -10 -8 0 -15 5 -15 10 0 6 7 10 15 10 8 0 15
-4 15 -10z m-1970 -10 c0 -5 7 -10 15 -10 8 0 15 5 15 10 0 6 5 10 10 10 18 0
11 -29 -9 -40 -25 -13 -71 -13 -71 0 0 13 22 39 33 40 4 0 7 -4 7 -10z m110
-5 c0 -8 -7 -15 -15 -15 -8 0 -15 7 -15 15 0 8 7 15 15 15 8 0 15 -7 15 -15z
m428 3 c-5 -16 -48 -24 -48 -9 0 8 17 16 43 20 5 0 7 -5 5 -11z m202 2 c0 -5
-7 -10 -15 -10 -8 0 -15 5 -15 10 0 6 7 10 15 10 8 0 15 -4 15 -10z m1040 0
c0 -5 -13 -10 -29 -10 -16 0 -31 -6 -34 -12 -2 -7 -8 -10 -12 -6 -4 4 -5 14
-2 23 7 17 77 22 77 5z m230 0 c0 -5 -7 -10 -15 -10 -8 0 -15 5 -15 10 0 6 7
10 15 10 8 0 15 -4 15 -10z m-2262 -38 c2 -12 -1 -22 -7 -22 -6 0 -11 4 -11 9
0 5 -3 17 -7 27 -4 12 -2 15 8 12 8 -2 15 -14 17 -26z m2760 -19 c2 -8 -5 -13
-17 -13 -12 0 -21 6 -21 16 0 18 31 15 38 -3z m-2363 -24 c0 -17 -47 -19 -52
-2 -2 6 4 13 14 16 26 7 38 2 38 -14z m855 6 c7 -8 21 -15 31 -15 14 0 19 -7
19 -25 0 -33 -42 -35 -64 -3 -28 40 -15 79 14 43z m954 -14 c32 -18 54 -46 43
-57 -3 -4 -20 7 -36 25 -30 32 -89 43 -129 22 -9 -5 -30 -15 -47 -22 -39 -17
-75 -49 -75 -66 0 -7 -6 -13 -13 -13 -7 0 -23 -20 -37 -45 -34 -62 -52 -64
-26 -2 60 143 213 219 320 158z m142 -6 c16 -39 19 -115 4 -115 -5 0 -10 19
-10 43 0 23 -7 55 -15 71 -18 34 -18 36 -4 36 5 0 17 -16 25 -35z m664 20 c0
-8 -4 -15 -10 -15 -5 0 -10 -4 -10 -10 0 -5 7 -10 15 -10 8 0 15 -4 15 -10 0
-5 -7 -10 -16 -10 -12 0 -14 -7 -9 -31 6 -24 4 -30 -6 -27 -18 6 -24 95 -8
114 15 18 29 18 29 -1z m-1566 -41 c19 -7 22 -34 4 -34 -30 0 -58 13 -58 26 0
15 27 18 54 8z m196 -44 c0 -5 -9 -10 -20 -10 -11 0 -20 5 -20 10 0 6 9 10 20
10 11 0 20 -4 20 -10z m-772 -49 c3 -8 -1 -12 -9 -9 -7 2 -15 10 -17 17 -3 8
1 12 9 9 7 -2 15 -10 17 -17z m952 -1 c0 -5 -7 -10 -15 -10 -8 0 -15 5 -15 10
0 6 7 10 15 10 8 0 15 -4 15 -10z m-530 -30 c0 -5 -7 -10 -15 -10 -8 0 -15 5
-15 10 0 6 7 10 15 10 8 0 15 -4 15 -10z m855 0 c3 -5 19 -10 36 -10 16 0 29
-5 29 -11 0 -19 -84 -6 -88 14 -4 18 13 24 23 7z m205 5 c0 -12 -24 -55 -32
-55 -11 0 -10 4 4 35 9 21 28 35 28 20z m-986 -11 c9 -3 16 -15 16 -25 0 -23
-15 -25 -24 -4 -3 8 -12 15 -21 15 -8 0 -15 5 -15 10 0 11 20 13 44 4z m-1284
-24 c0 -11 -7 -20 -15 -20 -15 0 -21 21 -8 33 12 13 23 7 23 -13z m460 10 c0
-5 -7 -10 -15 -10 -8 0 -15 5 -15 10 0 6 7 10 15 10 8 0 15 -4 15 -10z m2428
-9 c3 -8 -1 -12 -9 -9 -7 2 -15 10 -17 17 -3 8 1 12 9 9 7 -2 15 -10 17 -17z
m-2822 -6 c10 -10 35 -15 75 -15 33 0 59 -4 59 -10 0 -5 -22 -10 -50 -10 -59
0 -70 -14 -70 -89 0 -69 -13 -64 -29 12 -7 34 -17 67 -21 73 -11 12 -2 54 12
54 5 0 16 -7 24 -15z m1359 -2 c-4 -10 -10 -40 -13 -66 -3 -29 -9 -46 -16 -44
-15 5 -20 81 -6 107 14 25 45 28 35 3z m-1518 -28 c8 -22 -6 -33 -17 -15 -13
20 -12 30 0 30 6 0 13 -7 17 -15z m2303 -15 c0 -10 -58 -50 -72 -50 -17 0 -6
16 25 37 36 25 47 28 47 13z m-1291 -56 c24 -40 25 -44 12 -44 -8 0 -51 64
-51 76 0 15 21 -2 39 -32z m1160 20 c2 -2 2 -7 -2 -10 -9 -10 -77 5 -77 17 0
9 68 3 79 -7z m-2146 -38 c7 -18 -3 -56 -14 -56 -5 0 -9 16 -9 35 0 35 13 47
23 21z m1891 -12 c7 -19 -3 -64 -15 -64 -5 0 -9 18 -9 40 0 40 13 53 24 24z
m-374 -108 c0 -16 -18 -31 -27 -22 -8 8 5 36 17 36 5 0 10 -6 10 -14z m366
-43 c-6 -54 -19 -83 -31 -72 -2 3 0 21 5 40 6 18 10 46 10 61 0 16 5 28 11 28
8 0 10 -17 5 -57z m-1722 31 c9 -22 -3 -32 -14 -14 -12 19 -12 30 -1 30 5 0
12 -7 15 -16z m873 -19 c8 -22 -6 -33 -17 -15 -13 20 -12 30 0 30 6 0 13 -7
17 -15z m-1037 -30 c0 -8 -4 -15 -10 -15 -5 0 -10 7 -10 15 0 8 5 15 10 15 6
0 10 -7 10 -15z m1845 -87 c-8 -27 -32 -54 -40 -46 -7 7 27 68 38 68 5 0 5
-10 2 -22z m-1290 -48 c6 0 22 -11 37 -25 15 -14 33 -23 40 -20 7 3 27 1 43
-3 26 -7 30 -14 32 -45 3 -47 -26 -59 -68 -28 -15 12 -36 21 -46 21 -10 0 -25
5 -33 10 -13 9 -13 11 0 19 8 6 12 11 10 13 -3 2 -18 11 -35 20 -38 21 -48 54
-14 45 13 -4 29 -7 34 -7z m2263 -21 c27 -11 30 -33 2 -25 -11 3 -28 8 -38 11
-30 8 -67 -38 -52 -65 15 -29 -2 -49 -25 -30 -24 20 -18 56 16 95 32 37 35 37
97 14z m165 -16 c-6 -39 -10 -50 -17 -42 -2 2 -6 21 -10 42 -6 33 -5 37 13 37
17 0 19 -5 14 -37z m-1223 -23 c0 -13 -49 -44 -57 -37 -3 4 5 15 18 26 27 23
39 26 39 11z m-350 -30 c0 -5 -16 -10 -35 -10 -19 0 -35 5 -35 10 0 6 16 10
35 10 19 0 35 -4 35 -10z m860 -20 c0 -16 -4 -30 -10 -30 -5 0 -10 14 -10 30
0 17 5 30 10 30 6 0 10 -13 10 -30z m-1170 -30 c0 -12 -28 -25 -36 -17 -9 9 6
27 22 27 8 0 14 -5 14 -10z m500 -20 c0 -10 -63 -30 -97 -30 -40 0 -25 16 25
27 65 14 72 14 72 3z m671 -6 c12 -14 8 -21 -29 -53 -26 -23 -42 -46 -42 -60
0 -27 -24 -23 -28 5 -2 12 11 33 33 54 19 18 35 42 35 52 0 22 13 23 31 2z
m-1581 -10 c0 -9 -5 -14 -12 -12 -18 6 -21 28 -4 28 9 0 16 -7 16 -16z m2210
1 c0 -8 -4 -15 -10 -15 -5 0 -10 7 -10 15 0 8 5 15 10 15 6 0 10 -7 10 -15z
m-1550 -5 c0 -5 -18 -10 -40 -10 -22 0 -40 5 -40 10 0 6 18 10 40 10 22 0 40
-4 40 -10z m100 -5 c0 -16 -17 -19 -44 -9 -26 10 -18 24 14 24 20 0 30 -5 30
-15z m1360 0 c0 -8 -4 -15 -10 -15 -5 0 -10 7 -10 15 0 8 5 15 10 15 6 0 10
-7 10 -15z m-2172 -33 c2 -7 -6 -12 -17 -12 -21 0 -27 11 -14 24 9 9 26 2 31
-12z m-488 -7 c6 -8 9 -19 5 -25 -10 -16 -65 -12 -72 6 -11 30 44 46 67 19z
m805 -16 c4 -5 0 -18 -9 -28 -9 -10 -16 -27 -16 -39 0 -12 -4 -22 -10 -22 -11
0 -14 83 -3 93 10 10 31 8 38 -4z m963 -8 c3 -8 -1 -12 -9 -9 -7 2 -15 10 -17
17 -3 8 1 12 9 9 7 -2 15 -10 17 -17z m-848 -21 c0 -5 -13 -10 -30 -10 -16 0
-30 5 -30 10 0 6 14 10 30 10 17 0 30 -4 30 -10z m1900 -5 c0 -8 -4 -15 -10
-15 -5 0 -10 7 -10 15 0 8 5 15 10 15 6 0 10 -7 10 -15z m-890 -24 c0 -5 -12
-17 -27 -27 -16 -9 -33 -25 -40 -33 -17 -23 -25 -9 -11 21 16 33 78 64 78 39z
m-260 -9 c0 -10 -41 -35 -47 -28 -9 8 17 36 33 36 8 0 14 -3 14 -8z m-1880
-57 c0 -8 -7 -15 -15 -15 -8 0 -15 7 -15 15 0 8 7 15 15 15 8 0 15 -7 15 -15z
m1000 5 c8 -5 11 -12 8 -16 -10 -9 -38 3 -38 16 0 12 10 13 30 0z m-646 -32
c25 -35 21 -68 -8 -68 -19 0 -23 5 -23 28 0 15 -3 35 -7 45 -12 26 19 22 38
-5z m1794 -13 c0 -39 -13 -47 -22 -12 -9 35 -7 47 8 47 9 0 14 -12 14 -35z
m-1150 -63 c4 -36 -4 -41 -24 -14 -20 25 -18 54 4 50 11 -2 18 -14 20 -36z
m-528 -2 c0 -18 6 -33 15 -36 21 -9 19 -24 -4 -24 -10 0 -22 7 -25 16 -10 25
-7 74 4 74 6 0 10 -14 10 -30z m614 14 c9 -24 7 -54 -4 -54 -5 0 -10 6 -10 13
0 6 -3 22 -6 35 -7 25 11 31 20 6z m982 -16 c4 -7 2 -14 -6 -16 -8 -3 -24 -16
-37 -28 -42 -42 -47 -22 -7 25 28 34 39 38 50 19z m545 -8 c11 0 19 -4 19 -10
0 -11 -59 -14 -84 -4 -29 11 -17 27 15 20 17 -3 40 -6 50 -6z m223 -17 c-9
-37 -11 -38 -29 -23 -28 23 -17 42 28 49 4 0 4 -11 1 -26z m-2452 -5 c2 -38 3
-318 1 -318 -2 0 -12 9 -22 19 -15 15 -19 28 -14 55 5 33 4 36 -19 36 -39 0
-49 19 -36 68 12 49 23 54 32 12 7 -37 22 -39 30 -4 5 19 1 33 -13 48 -26 28
-26 38 -1 61 11 10 20 24 20 32 0 23 20 14 22 -9z m2128 13 c0 -5 -15 -12 -34
-15 -18 -4 -53 -20 -76 -37 -44 -32 -67 -32 -34 1 40 40 144 77 144 51z
m-1410 -46 c0 -8 -4 -15 -10 -15 -5 0 -10 7 -10 15 0 8 5 15 10 15 6 0 10 -7
10 -15z m-90 -20 c0 -8 -4 -15 -10 -15 -5 0 -10 7 -10 15 0 8 5 15 10 15 6 0
10 -7 10 -15z m-1090 -30 c0 -19 -4 -35 -10 -35 -5 0 -10 16 -10 35 0 19 5 35
10 35 6 0 10 -16 10 -35z m2070 -7 c0 -19 -18 -43 -25 -36 -9 9 4 48 16 48 5
0 9 -6 9 -12z m-1352 -35 c4 -26 -13 -31 -22 -8 -11 29 -74 19 -107 -17 -25
-28 -29 -40 -29 -90 0 -58 -13 -77 -24 -35 -16 59 -7 105 28 142 33 34 37 36
93 33 51 -3 58 -6 61 -25z m462 -73 c0 -11 -4 -20 -10 -20 -5 0 -10 9 -10 20
0 11 5 20 10 20 6 0 10 -9 10 -20z m1780 -30 c0 -11 -4 -20 -10 -20 -5 0 -10
9 -10 20 0 11 5 20 10 20 6 0 10 -9 10 -20z m190 0 c0 -5 -7 -10 -15 -10 -8 0
-15 5 -15 10 0 6 7 10 15 10 8 0 15 -4 15 -10z m-1980 -15 c0 -8 -4 -15 -10
-15 -5 0 -10 7 -10 15 0 8 5 15 10 15 6 0 10 -7 10 -15z m-760 -15 c0 -5 -7
-10 -15 -10 -8 0 -15 5 -15 10 0 6 7 10 15 10 8 0 15 -4 15 -10z m-245 -72
c-8 -61 -11 -66 -26 -51 -9 9 -8 24 2 57 18 62 33 58 24 -6z m985 45 c0 -14
-19 -38 -25 -32 -8 8 5 39 16 39 5 0 9 -3 9 -7z m1980 -13 c0 -14 -38 -55 -45
-49 -8 9 19 59 33 59 6 0 12 -5 12 -10z m-1250 -10 c0 -5 -7 -10 -15 -10 -8 0
-15 5 -15 10 0 6 7 10 15 10 8 0 15 -4 15 -10z m920 0 c0 -5 -7 -10 -15 -10
-8 0 -15 5 -15 10 0 6 7 10 15 10 8 0 15 -4 15 -10z m-460 -25 c0 -8 -4 -15
-10 -15 -5 0 -10 7 -10 15 0 8 5 15 10 15 6 0 10 -7 10 -15z m612 -102 c5 -74
5 -78 -11 -68 -13 7 -15 135 -2 135 5 0 11 -30 13 -67z m-102 17 c0 -23 -10
-26 -28 -8 -18 18 -15 28 8 28 13 0 20 -7 20 -20z m-500 -5 c0 -8 -4 -15 -10
-15 -5 0 -10 7 -10 15 0 8 5 15 10 15 6 0 10 -7 10 -15z m-1130 -90 c0 -8 -4
-15 -10 -15 -5 0 -10 7 -10 15 0 8 5 15 10 15 6 0 10 -7 10 -15z m-360 -15 c0
-13 -28 -25 -38 -16 -3 4 0 11 8 16 20 13 30 12 30 0z m-630 -15 c0 -8 -4 -15
-10 -15 -5 0 -10 7 -10 15 0 8 5 15 10 15 6 0 10 -7 10 -15z m430 5 c0 -5 -16
-10 -35 -10 -19 0 -35 5 -35 10 0 6 16 10 35 10 19 0 35 -4 35 -10z m110 0 c0
-5 -18 -10 -40 -10 -22 0 -40 5 -40 10 0 6 18 10 40 10 22 0 40 -4 40 -10z
m2258 -2 c-3 -7 -15 -13 -28 -13 -13 0 -25 6 -27 13 -3 8 6 12 27 12 21 0 30
-4 28 -12z m-1828 -13 c0 -17 -2 -18 -24 -9 -23 9 -20 24 4 24 11 0 20 -7 20
-15z m430 7 c0 -8 -65 -32 -84 -32 -19 0 -1 19 27 28 41 13 57 14 57 4z
m-1110 -19 c0 -5 -20 -29 -44 -55 -24 -25 -46 -52 -48 -60 -8 -22 -20 -1 -13
22 13 40 105 122 105 93z m990 -21 c0 -15 -38 -44 -49 -37 -17 10 -13 21 12
33 28 13 37 14 37 4z m-360 -50 c0 -12 -23 -32 -37 -32 -19 0 -16 28 5 33 28
8 32 7 32 -1z m2000 -28 c0 -31 -23 -28 -28 4 -2 15 2 22 12 22 11 0 16 -9 16
-26z m-1757 -30 c23 -9 22 -24 -3 -24 -11 0 -20 -4 -20 -10 0 -5 -4 -10 -10
-10 -5 0 -10 14 -10 31 0 21 4 29 13 25 6 -3 20 -9 30 -12z m-981 -39 c6 -31
-1 -75 -13 -75 -5 0 -9 23 -9 50 0 52 14 68 22 25z m638 -20 c0 -8 -4 -15 -10
-15 -5 0 -10 7 -10 15 0 8 5 15 10 15 6 0 10 -7 10 -15z m-462 -28 c2 -15 -1
-27 -7 -27 -6 0 -11 6 -11 14 0 8 -3 22 -7 32 -4 12 -2 15 8 12 8 -2 15 -17
17 -31z m672 10 c0 -13 -58 -43 -67 -34 -8 9 7 28 31 37 30 12 36 12 36 -3z
m1874 -3 c10 -25 7 -34 -9 -34 -9 0 -15 9 -15 25 0 28 15 34 24 9z m-2693 -78
c11 -14 28 -28 39 -31 11 -4 20 -11 20 -16 0 -16 -42 1 -72 29 -16 14 -28 29
-28 34 0 16 23 7 41 -16z m249 -20 c0 -19 -5 -38 -11 -41 -15 -10 -17 -4 -11
38 5 47 22 49 22 3z m2458 11 c2 -10 -4 -20 -13 -23 -21 -8 -25 -3 -18 24 6
25 26 24 31 -1z m-632 -44 c7 -10 14 -27 14 -37 0 -11 7 -27 16 -37 9 -10 13
-23 9 -28 -10 -17 -45 -13 -45 5 0 8 -14 29 -30 46 -21 21 -29 36 -25 49 8 24
43 25 61 2z m610 -18 c4 -14 3 -29 -1 -33 -8 -8 -35 26 -35 45 0 24 29 14 36
-12z m-2506 -34 c0 -12 -39 -25 -48 -16 -7 7 17 25 36 25 6 0 12 -4 12 -9z
m1841 -11 c5 0 9 -5 9 -11 0 -15 -43 -7 -48 10 -3 10 0 12 12 8 10 -4 22 -7
27 -7z"/>
</g>
</svg>

</svg>