<svg xmlns="http://www.w3.org/2000/svg" viewBox="0 0 320 320">
<rect width="100%" height="100%" fill="#e2c6b0"/>
<path d="M0 3127 l0 -73 83 -13 c213 -34 368 -106 542 -252 120 -101 158 -143
234 -264 38 -60 79 -122 91 -138 23 -28 21 -57 -3 -57 -20 0 -40 26 -81 103
-106 202 -273 359 -526 496 -47 25 -289 101 -323 101 -15 0 -17 -15 -17 -118
l0 -118 93 -16 c216 -36 321 -90 436 -223 14 -16 63 -66 109 -110 45 -45 82
-84 82 -88 0 -4 -10 -13 -23 -22 -35 -22 -92 11 -222 130 -155 142 -260 196
-412 212 l-63 6 0 -817 c0 -449 1 -816 3 -816 47 -8 474 -30 582 -30 95 0 155
-4 162 -11 17 -17 194 -21 868 -20 220 1 432 -1 470 -4 135 -10 533 -26 823
-32 l293 -6 -4 334 c-3 298 -5 341 -23 403 -24 84 -37 95 -87 71 -35 -16 -37
-16 -63 4 -35 27 -50 26 -70 -4 -16 -24 -15 -27 1 -45 16 -18 16 -20 -9 -47
-14 -15 -26 -31 -26 -35 0 -4 -22 -33 -48 -65 -65 -78 -115 -151 -134 -193
-30 -68 -58 -145 -64 -180 -13 -66 -52 -80 -95 -34 -13 14 -53 47 -87 72 -99
73 -175 219 -202 388 -6 38 -13 70 -15 72 -2 2 -32 -15 -67 -39 -104 -71 -110
-74 -178 -106 -170 -79 -434 -130 -610 -118 -106 7 -348 55 -427 84 -89 33
-197 84 -220 105 -45 39 -24 86 39 86 40 0 153 34 176 52 16 14 -8 41 -120
135 -83 71 -94 95 -58 128 18 16 21 17 44 1 14 -9 31 -16 38 -16 17 -1 58 -35
58 -50 0 -18 103 -116 136 -129 27 -11 37 -10 63 3 17 9 31 21 31 27 0 16 -37
84 -54 98 -18 15 -21 41 -5 41 12 0 74 -62 100 -100 l15 -23 75 37 c102 52
139 75 139 90 0 7 34 30 75 51 51 27 75 44 72 55 -3 16 -19 17 -49 5 -13 -5
-18 -3 -18 8 0 16 -50 30 -74 21 -8 -3 -17 -1 -21 5 -3 6 -30 11 -58 11 -29 1
-63 7 -77 15 -14 8 -41 14 -61 15 -22 0 -42 7 -53 19 -10 10 -32 22 -51 25
-52 10 -60 71 -12 93 12 6 54 25 92 43 89 42 258 143 312 186 45 37 164 109
228 139 22 10 67 35 100 55 33 21 84 46 113 56 28 10 52 23 52 29 0 7 -30 27
-67 45 -38 18 -97 52 -132 77 -36 25 -74 49 -87 53 -24 10 -36 52 -24 85 10
26 105 49 268 65 114 11 192 28 192 41 0 5 -466 9 -1085 9 l-1085 0 0 -73z"/>
<path d="M2398 3191 c-6 -18 -335 -86 -460 -96 -49 -4 -90 -10 -92 -14 -11
-18 9 -52 43 -73 84 -51 98 -59 146 -83 70 -34 156 -65 181 -65 37 0 69 -33
56 -57 -10 -18 -24 -21 -114 -26 -63 -3 -125 -12 -159 -24 -79 -27 -352 -177
-424 -233 -64 -50 -189 -130 -202 -130 -5 0 -25 -12 -46 -26 -32 -22 -38 -30
-35 -57 3 -28 9 -33 58 -50 30 -10 96 -23 145 -28 105 -11 192 -27 218 -40 11
-6 25 -6 37 1 11 6 25 8 30 5 19 -12 10 -35 -20 -50 -17 -9 -87 -56 -156 -106
-68 -49 -168 -113 -222 -141 -53 -28 -110 -62 -125 -75 -16 -13 -36 -23 -46
-23 -24 0 -51 -31 -51 -58 0 -32 -33 -46 -76 -32 -31 11 -38 10 -57 -8 -12
-11 -34 -22 -49 -26 -38 -9 -35 -33 4 -41 18 -4 38 -10 43 -14 13 -9 102 -36
185 -56 135 -33 398 -30 590 6 165 32 387 147 512 267 49 48 74 49 63 3 -3
-14 -15 -39 -27 -55 -26 -37 -35 -134 -19 -218 11 -60 18 -77 65 -178 25 -53
132 -162 155 -158 17 3 65 93 76 142 18 75 126 227 243 343 85 84 126 113 159
113 12 0 56 15 97 34 l76 35 0 358 -1 358 -37 -42 c-106 -118 -250 -337 -316
-479 -25 -55 -46 -103 -46 -107 0 -3 -11 -30 -24 -59 -49 -109 -76 -176 -76
-187 0 -6 -4 -11 -10 -11 -20 0 2 88 50 205 7 17 16 39 20 50 27 74 128 285
148 310 67 87 102 135 102 144 0 5 43 62 95 128 l95 118 0 58 c0 32 -4 57 -10
57 -15 0 -206 -97 -265 -134 -27 -18 -92 -56 -144 -85 -83 -47 -290 -182 -331
-216 -8 -7 -31 -21 -50 -31 -19 -11 -100 -64 -178 -119 -416 -291 -422 -295
-428 -295 -2 0 -48 -32 -102 -71 -100 -73 -229 -145 -240 -134 -4 4 4 15 18
26 72 57 215 162 285 209 44 29 188 128 320 220 132 92 278 191 325 221 118
74 146 97 125 105 -22 9 -194 -2 -405 -25 -96 -10 -184 -19 -195 -19 -11 0
-65 -7 -119 -16 -93 -16 -126 -15 -98 3 19 12 123 29 282 46 80 9 191 23 247
31 56 9 106 13 110 11 8 -5 92 5 258 29 49 7 141 53 305 151 41 24 117 65 168
89 88 43 112 64 75 64 -10 1 -49 5 -88 10 -38 5 -144 16 -235 25 -176 16 -200
21 -200 36 0 6 19 7 48 4 26 -3 72 -8 102 -10 116 -8 219 -16 314 -25 54 -6
100 -10 102 -10 2 0 4 70 4 155 l0 155 -399 0 c-242 0 -401 -4 -403 -9z m215
-250 c18 -18 6 -19 -140 -14 -131 6 -171 14 -125 26 32 10 254 -1 265 -12z"/>
<path d="M176 1011 c-4 -7 -40 -11 -92 -11 l-84 0 0 -315 0 -315 23 -5 c23 -5
456 -10 561 -7 33 1 65 7 72 13 9 7 23 8 46 1 104 -32 162 -35 193 -12 18 14
75 22 75 11 0 -5 21 -19 46 -30 42 -19 48 -19 75 -5 20 10 44 13 77 9 50 -6
326 -15 486 -16 54 -1 112 -5 129 -10 24 -7 45 -3 95 17 61 24 68 25 131 14
36 -7 71 -17 78 -22 7 -5 17 -7 23 -3 6 4 16 2 23 -3 15 -11 204 -9 232 3 11
5 23 13 26 18 4 5 23 7 43 3 36 -7 47 -20 24 -29 -7 -2 -10 -7 -6 -11 3 -4 14
-3 25 3 27 15 106 31 155 31 24 1 61 7 83 15 47 17 100 10 118 -15 22 -31 88
-52 182 -56 50 -3 111 -6 138 -8 l47 -3 0 318 0 317 -92 6 c-91 6 -377 17
-548 21 -47 1 -366 5 -710 9 -344 3 -692 11 -775 16 -164 11 -231 12 -435 11
-74 0 -164 4 -200 9 -36 5 -104 10 -152 10 -70 0 -89 3 -96 16 -6 11 -11 13
-16 5z"/>
<path d="M2390 320 c0 -5 9 -10 20 -10 11 0 20 5 20 10 0 6 -9 10 -20 10 -11
0 -20 -4 -20 -10z"/>
<path d="M1130 296 c0 -9 5 -16 10 -16 6 0 10 4 10 9 0 6 -4 13 -10 16 -5 3
-10 -1 -10 -9z"/>
<path d="M0 270 c0 -32 9 -37 28 -18 10 10 17 10 31 1 16 -10 20 -9 24 8 7 28
27 24 27 -6 0 -30 -5 -29 66 -10 43 11 61 12 71 4 8 -7 31 -9 58 -6 44 6 54 1
36 -19 -14 -15 -21 -58 -12 -73 7 -11 13 -9 29 7 11 11 28 25 38 31 13 9 15
14 7 17 -18 8 -16 34 2 34 8 0 15 5 15 11 0 6 9 9 20 6 13 -3 20 0 20 9 0 12
-86 20 -170 16 -3 0 -37 -3 -77 -5 -47 -4 -73 -2 -75 5 -2 6 -34 12 -71 14
l-67 4 0 -30z"/>
<path d="M703 263 c-7 -2 -13 -11 -13 -19 0 -19 -29 -18 -36 1 -4 8 -13 15
-21 15 -8 0 -21 -7 -29 -15 -9 -8 -26 -15 -39 -15 -13 0 -30 -3 -38 -6 -10 -3
-18 2 -22 15 -3 12 -10 19 -15 16 -5 -3 -6 -13 -3 -22 4 -9 -1 -19 -11 -25
-21 -12 -10 -31 14 -23 11 3 20 -1 24 -11 5 -13 9 -14 20 -4 11 9 20 9 36 0
12 -7 37 -9 55 -6 24 5 34 2 39 -9 8 -22 34 -19 41 5 8 24 15 24 59 6 24 -10
37 -11 45 -3 7 7 15 6 26 -3 18 -15 40 -1 50 31 8 23 34 25 49 3 10 -14 14
-13 38 5 15 12 33 18 42 15 19 -7 21 3 3 21 -12 11 -33 12 -124 6 -7 -1 -13
-10 -13 -21 0 -17 -7 -20 -39 -20 -22 0 -42 6 -45 13 -3 8 -8 7 -16 -5 -15
-25 -30 -22 -30 4 0 17 -3 19 -12 10 -29 -29 -39 -1 -11 30 17 18 6 24 -24 11z
m-3 -93 c0 -5 -7 -10 -15 -10 -8 0 -15 5 -15 10 0 6 7 10 15 10 8 0 15 -4 15
-10z"/>
<path d="M815 250 c-3 -5 1 -10 9 -10 9 0 16 5 16 10 0 6 -4 10 -9 10 -6 0
-13 -4 -16 -10z"/>
<path d="M1362 243 c-12 -2 -20 -9 -16 -14 3 -5 10 -7 15 -4 5 3 24 2 42 -3
22 -6 40 -6 52 0 36 21 -24 34 -93 21z"/>
<path d="M1487 232 c-8 -10 -7 -16 1 -21 7 -4 10 -15 6 -24 -8 -22 12 -22 33
-1 9 8 22 13 29 10 8 -3 14 1 14 9 0 8 7 15 15 15 8 0 15 4 15 9 0 15 -100 18
-113 3z"/>
<path d="M1930 240 c0 -5 -5 -10 -11 -10 -6 0 -17 -7 -25 -15 -14 -13 -12 -15
18 -16 67 -3 74 1 56 30 -13 22 -38 29 -38 11z"/>
<path d="M1640 229 c0 -5 9 -9 20 -9 14 0 20 -7 20 -22 0 -21 0 -21 16 -2 11
13 17 15 20 7 7 -15 40 -17 49 -3 3 6 17 10 31 10 13 0 24 -4 24 -10 0 -16 22
-12 36 8 18 23 17 32 -1 32 -8 0 -15 -4 -15 -10 0 -5 -20 -9 -45 -8 -25 0 -45
3 -45 7 0 4 -25 7 -55 7 -30 1 -55 -3 -55 -7z"/>
<path d="M2070 214 c0 -8 6 -14 14 -14 8 0 17 -6 19 -12 3 -8 6 -5 6 6 1 13 6
16 19 11 37 -16 49 -16 61 -1 15 18 16 18 -61 21 -44 2 -58 0 -58 -11z"/>
<path d="M2251 216 c-18 -22 55 -87 89 -79 31 7 39 14 23 20 -7 3 -13 11 -13
19 0 17 36 19 43 2 6 -15 27 8 27 28 0 16 -68 23 -103 11 -19 -6 -32 -6 -41 2
-10 8 -16 8 -25 -3z"/>
<path d="M137 200 c-9 -11 -23 -20 -31 -20 -7 0 -27 -7 -42 -15 -16 -8 -37
-12 -46 -9 -14 4 -18 0 -18 -22 0 -27 0 -27 55 -21 53 5 55 5 55 -19 0 -20 -5
-24 -27 -22 -63 4 -83 -1 -83 -22 0 -23 20 -25 89 -9 24 5 46 7 49 4 11 -10
-33 -34 -54 -29 -12 3 -25 1 -28 -5 -5 -8 173 -11 619 -11 397 0 624 4 620 10
-3 5 0 18 7 29 18 30 4 35 -48 17 -54 -18 -64 -19 -64 -8 0 4 13 13 30 19 51
19 47 64 -6 75 -11 2 -21 15 -25 33 l-7 30 -1 -27 c-1 -28 -31 -42 -31 -14 0
16 -51 28 -65 15 -12 -12 -45 -12 -45 1 0 15 -47 12 -53 -3 -6 -15 15 -47 32
-47 23 0 10 -18 -21 -30 -18 -6 -41 -16 -50 -21 -27 -14 -34 -11 -52 23 -18
33 -62 47 -77 25 -3 -5 -22 -10 -42 -12 -20 -2 -41 -6 -47 -10 -14 -9 -13 -32
3 -38 9 -3 7 -10 -6 -23 -17 -18 -19 -18 -28 -1 -6 9 -21 17 -35 17 -16 0 -24
5 -21 13 2 7 16 11 32 9 19 -2 26 1 22 10 -2 7 -10 12 -17 10 -7 -2 -20 0 -29
4 -23 10 -64 4 -82 -12 -8 -8 -28 -14 -42 -14 -15 0 -27 -4 -27 -10 0 -5 -7
-10 -15 -10 -18 0 -20 41 -2 59 10 10 7 12 -13 9 -19 -2 -24 -8 -23 -25 2 -20
-1 -21 -44 -18 -26 1 -53 1 -60 -2 -22 -9 -14 -23 12 -23 14 0 25 -4 25 -10 0
-5 -11 -10 -25 -10 -14 0 -25 5 -25 10 0 6 -7 10 -15 10 -8 0 -15 9 -15 20 0
16 -7 20 -35 20 -24 0 -37 6 -45 19 -16 30 -12 53 8 49 11 -3 16 -12 15 -26
-2 -18 2 -22 27 -22 18 0 30 5 30 13 0 16 -32 47 -48 47 -7 0 -12 9 -12 20 0
11 -4 20 -10 20 -5 0 -10 -9 -10 -21 0 -15 -4 -19 -16 -15 -9 3 -20 6 -25 6
-5 0 -9 7 -9 15 0 21 -12 19 -33 -5z m41 -39 c3 -8 -1 -12 -9 -9 -7 2 -15 10
-17 17 -3 8 1 12 9 9 7 -2 15 -10 17 -17z m22 -27 c0 -14 -30 -33 -44 -28 -23
9 -19 26 4 19 11 -4 20 -2 20 4 0 6 5 11 10 11 6 0 10 -3 10 -6z m1020 -18 c0
-15 -37 -32 -48 -22 -6 6 27 35 41 36 4 0 7 -6 7 -14z m-150 -16 c0 -5 -7 -10
-15 -10 -8 0 -15 5 -15 10 0 6 7 10 15 10 8 0 15 -4 15 -10z m60 0 c0 -5 -7
-10 -15 -10 -8 0 -15 5 -15 10 0 6 7 10 15 10 8 0 15 -4 15 -10z m-270 -15 c0
-8 -7 -15 -15 -15 -16 0 -20 12 -8 23 11 12 23 8 23 -8z m-582 -29 c3 -12 -1
-17 -10 -14 -7 3 -15 13 -16 22 -3 12 1 17 10 14 7 -3 15 -13 16 -22z m902 -5
c0 -11 -39 -25 -47 -18 -3 3 -2 10 2 16 8 13 45 15 45 2z"/>
<path d="M2440 207 c0 -7 -3 -23 -7 -36 -5 -20 -3 -22 16 -16 15 4 21 2 21 -8
0 -9 -5 -17 -12 -19 -15 -5 -1 -28 18 -28 8 0 14 6 14 13 0 19 61 18 83 -1 13
-12 16 -24 11 -45 -6 -28 -5 -29 20 -23 16 4 26 2 26 -5 0 -6 -9 -13 -20 -16
-43 -11 -17 -23 51 -23 44 0 68 4 64 10 -3 6 -13 10 -21 10 -8 0 -14 5 -14 10
0 6 7 10 16 10 30 0 7 25 -51 55 -32 17 -60 36 -63 43 -5 15 30 16 46 0 6 -6
15 -9 18 -5 9 9 -15 37 -32 37 -8 0 -14 6 -14 14 0 10 -15 17 -42 20 -112 14
-128 14 -128 3z m104 -23 c31 -12 17 -32 -21 -31 -35 1 -52 10 -53 30 0 8 52
9 74 1z"/>
<path d="M2731 196 c-15 -18 -10 -20 62 -16 40 2 77 -21 77 -47 0 -7 9 -13 20
-13 11 0 20 -4 20 -10 0 -5 -4 -10 -10 -10 -5 0 -10 -4 -10 -9 0 -5 6 -9 13
-8 44 1 77 -5 77 -14 0 -6 9 -24 21 -40 16 -24 27 -29 57 -28 35 1 36 2 8 8
-16 3 -33 13 -39 22 -14 22 0 70 23 76 10 3 16 11 14 18 -9 21 73 29 94 8 16
-16 17 -15 20 5 2 12 8 22 13 22 5 0 9 6 9 14 0 16 -61 23 -295 32 -141 6
-162 5 -174 -10z"/>
<path d="M1290 187 c0 -16 47 -40 61 -32 15 10 10 19 -18 33 -34 15 -43 15
-43 -1z"/>
<path d="M420 181 c0 -5 7 -11 15 -15 9 -3 15 0 15 9 0 8 -7 15 -15 15 -8 0
-15 -4 -15 -9z"/>
<path d="M2203 130 c-35 -14 -29 -34 8 -26 17 3 38 6 45 6 8 0 14 7 14 15 0
17 -32 19 -67 5z"/>
<path d="M2790 110 c0 -15 -9 -22 -30 -26 -29 -6 -38 -18 -22 -28 13 -8 82 18
82 31 0 19 -12 43 -21 43 -5 0 -9 -9 -9 -20z"/>
<path d="M1757 98 c-28 -28 -48 -28 -76 -1 -10 11 -16 11 -27 2 -9 -7 -19 -8
-26 -2 -16 11 -75 8 -91 -6 -7 -5 -36 -11 -65 -13 -40 -2 -52 -7 -52 -19 0
-21 -24 -41 -47 -39 -30 4 -43 0 -43 -10 0 -6 48 -10 125 -10 77 0 125 4 125
10 0 6 7 10 15 10 8 0 15 -4 15 -10 0 -16 47 -12 54 5 3 8 12 15 21 15 8 0 15
-7 15 -15 0 -11 12 -15 50 -15 41 0 48 3 43 16 -3 9 0 20 8 25 20 13 29 11 29
-6 0 -8 -5 -15 -11 -15 -5 0 -7 -5 -4 -10 3 -6 19 -10 35 -10 28 0 29 2 20 26
-6 14 -10 39 -10 56 0 23 -3 28 -12 20 -30 -24 -56 -24 -60 0 l-3 23 -28 -27z
m23 -33 c0 -8 -4 -15 -10 -15 -5 0 -10 7 -10 15 0 8 5 15 10 15 6 0 10 -7 10
-15z"/>
<path d="M3089 109 c-12 -8 -12 -10 1 -19 19 -13 50 -13 50 0 0 16 -35 29 -51
19z"/>
<path d="M3171 96 c-12 -14 -5 -26 16 -26 15 0 18 26 4 34 -5 3 -14 0 -20 -8z"/>
<path d="M1887 94 c-11 -11 3 -24 24 -24 12 0 19 5 17 13 -5 14 -31 21 -41 11z"/>
<path d="M2050 67 c0 -28 3 -35 15 -31 10 4 15 0 15 -11 0 -13 -6 -16 -22 -12
-13 2 -34 1 -48 -3 -14 -5 47 -8 143 -9 136 -1 167 2 167 13 0 8 -7 16 -15 20
-18 6 -45 -2 -45 -15 0 -5 -22 -9 -49 -9 -52 0 -131 34 -131 56 0 6 -7 17 -15
24 -13 11 -15 7 -15 -23z"/>
<path d="M2420 87 c0 -15 -33 -57 -45 -57 -3 0 -5 9 -5 20 0 11 -7 20 -15 20
-9 0 -15 -9 -15 -24 0 -28 25 -40 64 -30 16 4 26 2 26 -5 0 -7 26 -11 73 -10
59 0 68 2 50 11 -13 6 -23 16 -23 21 0 6 -8 3 -17 -5 -10 -9 -31 -15 -48 -14
-28 1 -30 4 -30 38 0 20 -3 40 -7 44 -5 4 -8 0 -8 -9z"/>
<path d="M2890 55 c-9 -11 -26 -15 -54 -13 -36 2 -41 0 -44 -20 -3 -20 0 -22
51 -22 49 0 55 3 66 27 14 31 1 52 -19 28z"/>
<path d="M1895 40 c-3 -5 1 -10 10 -10 8 0 18 -7 21 -15 8 -19 34 -20 34 -2 0
8 -11 19 -25 25 -31 14 -32 15 -40 2z"/>
<path d="M2951 38 c0 -9 -9 -22 -18 -27 -15 -9 -12 -10 15 -11 17 0 32 5 32
10 0 6 -4 10 -9 10 -5 0 -12 8 -14 18 -4 15 -5 15 -6 0z"/>
</g>
</svg>

<path d="M0 2800 l0 -400 23 -4 c23 -5 279 -17 447 -22 88 -2 132 -13 201 -51
3 -2 18 7 34 19 25 20 38 22 109 19 52 -2 91 -9 108 -19 26 -15 29 -15 44 0
12 12 30 14 82 11 81 -6 94 -16 63 -44 -15 -15 -21 -28 -17 -43 3 -11 6 -24 6
-28 0 -4 15 -10 34 -14 19 -3 42 -15 52 -25 11 -12 31 -19 53 -19 20 -1 47 -7
61 -15 14 -8 48 -14 77 -15 28 0 55 -5 58 -11 4 -6 13 -8 21 -5 26 10 76 -5
69 -22 -4 -11 0 -13 17 -8 40 12 52 11 55 -4 3 -11 -21 -28 -72 -55 -41 -21
-75 -44 -75 -51 0 -7 -16 -22 -34 -34 -32 -19 -43 -20 -138 -14 -78 5 -109 12
-129 27 -25 18 -28 18 -53 2 -33 -22 -147 -16 -175 9 -10 9 -23 16 -30 16 -6
0 -23 8 -38 17 -25 17 -26 17 -52 -14 -35 -41 -108 -47 -376 -33 -110 6 -251
13 -313 16 l-112 6 0 -630 0 -631 53 -5 c103 -11 298 -17 652 -22 198 -2 432
-6 520 -9 88 -2 243 -7 345 -10 102 -3 248 -10 325 -15 77 -5 190 -12 250 -15
113 -5 196 -11 300 -20 33 -2 161 -7 285 -10 124 -3 280 -8 348 -11 l122 -6 0
1296 0 1296 -1600 0 -1600 0 0 -400z"/>
<path d="M580 368 c-78 -12 -211 -13 -422 -4 l-158 6 0 -185 0 -185 1600 0
1600 0 0 143 0 142 -133 0 c-140 0 -180 9 -227 51 -31 28 -82 39 -110 24 -19
-10 -168 -32 -215 -32 -11 0 -41 6 -66 13 -43 11 -50 10 -76 -9 -27 -19 -36
-20 -148 -12 -66 4 -154 15 -195 24 -67 15 -80 15 -136 1 -34 -8 -79 -16 -100
-17 -101 -3 -367 5 -434 14 -41 5 -144 9 -228 8 -129 -1 -153 1 -158 14 -8 22
-46 20 -93 -5 l-40 -20 -76 20 c-82 23 -89 23 -185 9z"/>
</g>
</svg>

<path d="M0 3140 c0 -55 2 -60 25 -66 32 -8 32 -24 0 -24 -14 0 -25 -4 -25
-10 0 -5 7 -10 16 -10 29 0 94 -23 94 -33 0 -5 -10 -6 -22 -3 -13 4 -38 9 -55
13 l-33 6 0 -72 0 -71 33 0 c17 0 54 -7 81 -15 26 -8 53 -12 58 -9 5 3 17 0
26 -8 9 -8 44 -22 77 -33 33 -11 74 -27 90 -37 17 -10 38 -18 47 -18 9 0 21
-7 25 -15 10 -17 181 -145 194 -145 5 0 9 -9 9 -19 0 -22 118 -133 134 -128
25 8 18 41 -27 122 -16 30 -29 41 -50 43 -22 3 -27 7 -22 20 4 11 -14 35 -57
79 -67 68 -73 95 -10 44 114 -90 282 -315 282 -377 0 -15 -89 -20 -148 -8 -29
6 -137 102 -213 189 -110 128 -213 182 -414 221 -116 22 -115 23 -115 -40 l0
-53 62 -6 c81 -8 177 -39 246 -79 67 -38 242 -194 242 -215 0 -14 -19 -15
-142 -8 -79 4 -147 10 -152 15 -19 18 7 30 59 26 53 -4 53 -4 58 28 6 38 -52
106 -90 106 -14 0 -23 6 -23 15 0 20 -63 45 -114 45 -23 0 -46 4 -51 9 -10 10
-46 15 -77 13 -17 -2 -18 -48 -18 -818 l0 -816 95 3 c52 2 98 0 101 -4 4 -4
46 -7 93 -7 47 0 115 -5 151 -10 81 -12 292 -15 344 -5 30 6 38 5 34 -6 -9
-26 -152 -42 -265 -29 -139 16 -205 21 -293 23 -41 1 -79 5 -85 8 -5 3 -47 7
-92 8 l-83 2 0 -93 0 -94 45 -13 c25 -7 58 -11 74 -8 16 3 31 3 35 0 3 -4 81
-7 173 -9 93 -1 168 -3 168 -4 0 -1 11 -3 25 -5 14 -2 48 -7 75 -11 28 -4 62
-7 78 -6 15 1 35 2 45 2 9 1 40 -3 67 -8 28 -5 59 -6 70 -2 11 4 56 4 100 1
44 -4 100 -3 125 1 25 5 46 5 48 0 2 -8 84 -8 99 0 9 5 47 3 218 -12 69 -6
123 -6 144 0 19 5 37 7 41 5 7 -4 179 -18 215 -17 11 1 25 8 31 17 15 20 24
19 24 -4 0 -16 7 -18 51 -14 28 2 85 -1 127 -6 51 -6 81 -6 89 1 7 5 18 6 25
2 7 -5 65 -10 128 -11 63 -1 138 -5 165 -8 28 -3 102 -7 165 -9 63 -2 147 -7
185 -11 39 -4 77 -7 85 -6 8 0 49 2 90 3 41 2 91 0 110 -4 76 -16 80 -10 80
118 l0 114 -42 1 c-24 1 -95 3 -158 4 -281 7 -500 18 -500 25 0 12 30 17 90
15 30 -1 134 -5 230 -8 96 -4 221 -9 278 -12 98 -6 102 -6 102 14 0 20 -5 21
-184 21 -202 0 -246 5 -246 27 0 12 6 14 28 8 15 -5 111 -10 215 -12 l187 -4
0 287 c0 219 -3 293 -14 317 -29 70 -36 89 -36 106 0 28 -47 55 -74 43 -12 -5
-34 -8 -49 -5 -22 4 -27 2 -27 -15 0 -11 -7 -25 -16 -33 -8 -7 -22 -26 -31
-43 -8 -17 -32 -51 -52 -76 -34 -42 -63 -81 -86 -119 -5 -9 -23 -33 -38 -54
-17 -21 -26 -44 -23 -53 3 -8 -1 -22 -9 -30 -8 -9 -15 -24 -15 -34 0 -10 -4
-22 -10 -25 -5 -3 -14 -24 -20 -45 -14 -52 -35 -53 -26 -2 5 36 28 101 64 182
18 42 69 115 134 193 26 32 48 61 48 65 0 4 12 20 26 35 25 27 25 29 9 47 -16
18 -17 21 -1 45 20 30 35 31 70 4 26 -20 28 -20 63 -4 50 24 64 12 84 -69 10
-37 20 -70 23 -73 3 -4 6 59 6 140 l0 146 -76 -35 c-41 -19 -85 -34 -97 -34
-85 0 -370 -323 -402 -456 -11 -48 -59 -139 -75 -141 -19 -4 -128 92 -117 103
4 4 13 2 19 -4 20 -20 26 -14 48 46 12 31 35 74 51 95 17 20 36 52 44 70 13
30 62 85 148 167 21 19 37 38 37 42 0 13 72 45 117 53 23 3 47 13 54 21 6 8
27 22 45 30 21 10 34 24 34 35 0 13 7 18 28 18 15 0 52 4 82 8 l55 8 2 330 3
330 -28 -32 c-38 -44 -106 -134 -112 -148 -17 -41 -100 -131 -100 -110 0 16
132 198 203 280 30 34 38 51 35 75 -3 30 -3 30 -63 -45 -57 -71 -75 -87 -75
-66 0 5 31 47 70 93 78 93 92 135 41 125 -37 -8 -166 -68 -214 -101 -21 -14
-40 -26 -43 -26 -2 0 -23 -12 -47 -27 -23 -15 -71 -42 -106 -60 -36 -19 -81
-46 -100 -61 -20 -16 -49 -36 -66 -46 -16 -10 -53 -36 -81 -57 -28 -22 -55
-39 -60 -39 -13 0 -184 -114 -280 -187 -31 -23 -54 -30 -54 -15 0 9 225 166
280 196 19 10 42 24 50 31 40 33 247 168 340 222 58 33 139 80 180 104 42 24
110 60 153 79 l76 35 1 41 c0 40 -1 42 -37 48 -21 3 -57 6 -80 6 -24 0 -43 5
-43 10 0 11 24 14 82 11 78 -5 78 -6 78 145 l0 134 -345 0 c-200 0 -345 -4
-345 -9 0 -5 -22 -12 -50 -16 -27 -4 -52 -11 -56 -16 -3 -5 -14 -9 -25 -9 -10
0 -27 -4 -37 -9 -19 -11 -135 -37 -202 -46 -73 -9 -130 -27 -130 -39 1 -9 20
-24 100 -75 8 -5 24 -13 35 -17 19 -6 27 -8 65 -12 27 -3 83 -61 76 -79 -4 -8
-1 -22 5 -30 20 -23 2 -26 -27 -4 -15 11 -36 21 -48 21 -25 0 -111 31 -181 65
-48 24 -62 32 -146 83 -34 21 -54 55 -44 73 3 4 42 10 87 14 92 7 278 39 348
60 25 8 62 16 83 20 75 12 35 25 -78 25 -63 0 -115 -4 -115 -9 0 -13 -80 -30
-198 -42 -59 -6 -135 -17 -170 -25 -73 -16 -82 -17 -82 -6 0 4 21 15 48 24 41
15 77 20 234 33 48 4 48 4 48 15 0 7 -348 10 -1025 10 l-1025 0 0 -60z m1708
-85 c0 -47 -12 -60 -23 -24 -8 23 1 69 14 69 4 0 8 -20 9 -45z m-1618 -5 c0
-5 -7 -10 -15 -10 -8 0 -15 5 -15 10 0 6 7 10 15 10 8 0 15 -4 15 -10z m107
-14 c12 -12 -3 -15 -45 -9 -23 3 -42 10 -42 16 0 10 76 4 87 -7z m92 -22 c28
-6 67 -31 60 -39 -8 -7 -139 38 -139 48 0 5 12 6 26 3 15 -4 38 -9 53 -12z
m-86 -30 c15 -4 27 -10 27 -15 0 -13 -42 -11 -73 4 -33 15 -36 32 -4 23 12 -4
34 -9 50 -12z m1611 -33 c39 -27 101 -63 139 -81 37 -18 67 -38 67 -45 0 -6
-24 -19 -52 -29 -29 -11 -85 -38 -124 -62 -68 -42 -94 -52 -94 -36 1 9 116 82
129 82 6 0 15 10 22 21 13 26 -2 69 -25 69 -8 0 -38 19 -68 43 -29 23 -62 47
-72 52 -11 6 -21 16 -24 23 -8 25 34 10 102 -37z m726 20 c0 -12 -52 -17 -117
-13 -85 6 -61 22 32 22 47 0 85 -4 85 -9z m-2140 -11 c8 -5 12 -12 9 -15 -8
-8 -39 5 -39 16 0 11 11 11 30 -1z m2349 -6 c149 -20 161 -22 161 -34 0 -6
-10 -8 -22 -5 -13 3 -50 7 -83 10 -33 2 -77 6 -97 8 -20 3 -64 8 -97 12 -34 4
-61 11 -61 16 0 13 68 11 199 -7z m-2450 -5 c17 -6 31 -15 31 -21 0 -6 -7 -7
-16 -4 -9 3 -27 9 -40 12 -13 3 -24 10 -24 15 0 12 10 11 49 -2z m2239 -24
c39 -13 -3 -20 -110 -16 -127 3 -133 4 -125 18 5 8 210 6 235 -2z m-2033 -20
c16 -13 26 -27 23 -30 -7 -7 -78 36 -78 48 0 14 25 6 55 -18z m2515 15 c0 -5
-20 -10 -45 -10 -25 0 -45 5 -45 10 0 6 20 10 45 10 25 0 45 -4 45 -10z
m-2642 -18 c3 -9 -2 -13 -14 -10 -9 1 -19 9 -22 16 -3 9 2 13 14 10 9 -1 19
-9 22 -16z m2341 2 c12 -12 -14 -15 -78 -8 -39 3 -71 11 -71 17 0 9 139 1 149
-9z m111 -14 c0 -5 -13 -10 -30 -10 -16 0 -30 5 -30 10 0 6 14 10 30 10 17 0
30 -4 30 -10z m-2386 -21 c16 -15 0 -20 -28 -10 -32 13 -36 35 -3 26 12 -4 26
-11 31 -16z m2581 6 c61 -8 118 -15 128 -15 38 0 12 -20 -100 -76 -142 -71
-133 -68 -133 -57 1 11 79 67 105 73 11 4 20 14 20 25 0 17 -10 21 -60 27 -96
12 -125 18 -125 28 0 14 36 12 165 -5z m-2397 -57 c84 -65 170 -153 238 -244
97 -129 107 -136 215 -155 100 -18 129 -16 164 8 11 7 27 13 37 13 24 0 119
51 125 68 3 6 12 12 20 12 8 0 29 11 47 25 18 14 36 25 40 25 3 0 28 15 54 33
49 35 109 67 124 67 21 0 4 -17 -39 -40 -27 -14 -75 -46 -108 -71 -72 -55
-234 -153 -328 -199 -56 -27 -72 -31 -90 -22 -12 6 -51 13 -86 15 -44 4 -70
11 -82 24 -17 17 -111 161 -148 226 -18 32 -106 120 -193 193 -53 44 -69 64
-52 64 4 0 32 -19 62 -42z m-116 6 c35 -25 49 -44 30 -44 -13 0 -82 50 -82 60
0 16 11 12 52 -16z m1748 -54 c0 -9 -14 -12 -100 -24 -149 -21 -181 -29 -230
-54 -185 -94 -277 -147 -295 -168 -12 -13 -24 -24 -29 -24 -4 0 -26 -15 -49
-34 -23 -18 -62 -44 -86 -58 -62 -34 -73 -54 -41 -78 26 -20 49 -25 233 -56
100 -17 110 -21 123 -46 18 -35 18 -42 -2 -34 -8 3 -24 1 -34 -4 -13 -7 -26
-7 -37 -1 -26 13 -113 29 -218 40 -49 5 -115 18 -145 28 -49 17 -55 22 -58 50
-3 27 3 35 35 57 21 14 41 26 46 26 13 0 138 80 202 130 50 39 213 133 355
206 61 31 162 53 248 53 46 1 82 -3 82 -9z m650 -57 c0 -8 -20 -20 -160 -98
-80 -45 -182 -74 -257 -75 -40 0 -25 18 20 25 76 12 108 27 101 48 -8 26 13
47 48 47 21 0 31 -6 35 -20 3 -11 7 -20 10 -20 11 0 71 35 96 56 16 13 37 24
47 24 10 0 22 5 25 10 7 12 35 14 35 3z m-1170 -33 c0 -5 -7 -10 -15 -10 -8 0
-15 5 -15 10 0 6 7 10 15 10 8 0 15 -4 15 -10z m720 -140 c0 -5 -15 -10 -32
-10 -18 0 -43 -3 -55 -6 -17 -5 -23 -2 -23 10 0 13 11 16 55 16 30 0 55 -4 55
-10z m-160 -8 c0 -8 -135 -32 -178 -32 -38 0 -24 20 16 21 20 1 51 5 67 9 41
10 95 12 95 2z m760 -21 c0 -13 -29 -35 -37 -28 -7 8 15 37 28 37 5 0 9 -4 9
-9z m-990 -11 c0 -5 -11 -10 -25 -10 -14 0 -25 5 -25 10 0 6 11 10 25 10 14 0
25 -4 25 -10z m-162 -18 c2 -8 -11 -12 -42 -12 -53 0 -62 17 -13 23 42 5 50 3
55 -11z m82 8 c0 -5 -13 -10 -30 -10 -16 0 -30 5 -30 10 0 6 14 10 30 10 17 0
30 -4 30 -10z m380 -5 c0 -8 -8 -15 -17 -16 -77 -3 -159 -10 -176 -15 -14 -4
-18 -2 -15 7 3 9 36 18 99 25 52 6 97 12 102 13 4 0 7 -6 7 -14z m160 7 c0
-14 -40 -46 -115 -92 -38 -23 -128 -83 -198 -132 -71 -49 -132 -87 -135 -83
-4 4 2 13 13 21 11 8 47 36 79 62 32 26 72 54 87 62 16 9 37 21 46 27 10 7 44
29 76 50 61 40 73 63 32 63 -16 0 -25 6 -25 15 0 12 14 15 70 15 39 0 70 -4
70 -8z m-720 -21 c0 -10 -61 -24 -69 -16 -8 9 21 25 47 25 12 0 22 -4 22 -9z
m320 -11 c0 -5 -13 -10 -30 -10 -16 0 -30 5 -30 10 0 6 14 10 30 10 17 0 30
-4 30 -10z m884 -12 c-4 -13 -21 -41 -39 -63 -18 -22 -38 -50 -44 -62 -13 -26
-36 -31 -27 -6 4 9 27 47 52 85 45 68 72 89 58 46z m-1294 2 c0 -5 -4 -10 -10
-10 -5 0 -10 -4 -10 -10 0 -5 7 -10 15 -10 8 0 15 -4 15 -10 0 -16 -40 -12
-46 4 -3 8 0 22 8 30 15 18 28 20 28 6z m340 1 c0 -12 -52 -21 -121 -21 -55 0
-82 14 -41 22 42 8 162 7 162 -1z m-1832 -23 c31 -31 14 -38 -98 -38 -60 0
-110 4 -110 9 0 14 21 19 57 13 18 -2 39 1 47 7 11 9 20 9 34 2 15 -8 23 -7
32 4 15 18 22 19 38 3z m1642 2 c0 -5 -13 -10 -30 -10 -16 0 -30 5 -30 10 0 6
14 10 30 10 17 0 30 -4 30 -10z m-80 -10 c0 -5 -11 -10 -25 -10 -14 0 -25 5
-25 10 0 6 11 10 25 10 14 0 25 -4 25 -10z m1090 -164 c0 -5 -101 -220 -106
-225 -2 -2 -7 -2 -10 2 -8 7 96 227 108 227 4 0 8 -2 8 -4z m54 -28 c-3 -13
-12 -30 -18 -38 -7 -8 -21 -34 -31 -57 -10 -24 -22 -43 -27 -43 -13 0 -11 6
28 86 34 70 64 101 48 52z m-864 -55 c-1 -10 -170 -127 -175 -121 -11 10 9 48
25 48 10 0 38 15 62 34 55 41 88 56 88 39z m-260 -13 c0 -6 -21 -30 -47 -54
-141 -128 -209 -186 -220 -186 -7 0 -13 -7 -13 -15 0 -9 -9 -15 -22 -15 -37 0
-152 -48 -270 -112 -25 -14 -58 -62 -58 -84 0 -31 208 -52 460 -48 217 3 270
10 347 45 24 10 48 19 54 19 5 0 26 12 44 26 19 14 38 23 43 20 5 -3 19 5 31
18 12 13 34 26 49 29 15 4 43 20 62 37 39 34 89 64 97 57 6 -7 -85 -91 -151
-138 -68 -48 -243 -139 -311 -161 -182 -59 -525 -75 -695 -33 -83 20 -172 47
-185 56 -5 4 -25 10 -42 14 -40 8 -43 32 -5 41 15 4 37 15 49 26 19 18 26 19
57 8 43 -14 76 0 76 32 0 27 27 58 51 58 10 0 30 11 46 24 36 30 205 116 228
116 10 0 35 17 55 39 51 54 235 187 263 190 4 1 7 -4 7 -9z m296 -46 c-3 -9
-6 -18 -6 -20 0 -2 -7 -4 -15 -4 -18 0 -19 12 -3 28 17 17 31 15 24 -4z m-66
-42 c0 -12 -39 -45 -85 -72 -22 -13 -63 -41 -91 -62 -28 -21 -54 -38 -59 -38
-4 0 -22 -12 -40 -27 -78 -67 -151 -113 -238 -152 -53 -24 -57 -24 -57 -13 0
5 24 19 52 33 29 13 101 59 161 102 59 42 109 77 112 77 4 0 48 30 160 109 71
50 85 57 85 43z m804 -24 c-4 -13 -17 -47 -30 -77 -13 -29 -24 -57 -24 -62 0
-5 -13 -38 -30 -72 -16 -35 -30 -68 -30 -74 0 -17 -40 -57 -48 -48 -4 4 -1 10
6 12 6 3 12 9 12 15 0 10 23 65 72 176 10 24 28 68 39 98 20 52 48 79 33 32z
m-974 -15 c0 -5 -35 -30 -77 -58 -90 -59 -268 -187 -300 -217 -13 -12 -26 -18
-30 -14 -13 13 124 131 211 183 16 10 61 39 100 65 67 45 96 57 96 41z m900
-27 c0 -16 -18 -31 -27 -22 -8 8 5 36 17 36 5 0 10 -6 10 -14z m-2570 -25 c0
-11 -53 -30 -64 -23 -6 4 -31 7 -55 7 -27 0 -46 5 -49 13 -3 9 17 12 82 11 47
-1 86 -5 86 -8z m90 -11 c0 -5 -18 -10 -40 -10 -22 0 -40 5 -40 10 0 6 18 10
40 10 22 0 40 -4 40 -10z m248 -12 c-3 -7 -12 -13 -21 -12 -9 0 -53 1 -97 2
-119 3 -100 22 21 22 76 0 100 -3 97 -12z m342 -81 c64 -57 105 -100 105 -112
0 -24 -108 -64 -172 -65 -53 0 -56 17 -5 25 98 17 117 36 83 84 -12 17 -26 31
-31 31 -5 0 -27 17 -50 37 -43 39 -112 68 -137 59 -21 -8 -113 4 -113 15 0 7
38 11 175 17 37 1 47 -5 145 -91z m236 76 c24 -15 64 -80 64 -102 0 -6 -14
-18 -31 -27 -26 -13 -36 -14 -63 -3 -35 14 -142 117 -131 127 4 4 34 10 68 13
34 3 63 7 65 7 1 1 14 -5 28 -15z m1630 0 c-3 -10 -20 -62 -38 -115 -31 -93
-48 -120 -48 -79 0 16 26 92 62 184 11 29 34 38 24 10z m-1433 -9 c20 -4 37
-10 37 -14 0 -7 -103 -60 -115 -60 -7 0 -45 62 -45 73 0 9 71 9 123 1z m1067
-147 c0 -7 -4 -17 -9 -22 -17 -19 -31 -115 -24 -175 8 -78 -13 -82 -23 -4 -9
76 1 158 23 188 20 28 33 33 33 13z m-94 -152 c8 -54 0 -68 -22 -37 -16 24
-39 19 -99 -22 -214 -146 -594 -225 -860 -179 -102 18 -218 44 -236 53 -9 5
-38 12 -65 16 -101 14 -274 123 -274 171 0 26 20 32 20 6 1 -32 23 -49 120
-93 124 -55 180 -73 336 -104 194 -38 283 -42 454 -17 232 34 429 112 575 227
40 32 43 31 51 -21z m24 -125 c0 -11 -4 -20 -10 -20 -5 0 -10 9 -10 20 0 11 5
20 10 20 6 0 10 -9 10 -20z m58 -24 c3 -12 -1 -17 -10 -14 -7 3 -15 13 -16 22
-3 12 1 17 10 14 7 -3 15 -13 16 -22z m-34 -42 c6 -24 2 -43 -8 -33 -11 10
-17 59 -8 59 5 0 13 -12 16 -26z m61 -25 c4 -11 4 -23 0 -27 -7 -7 -25 17 -25
36 0 20 18 14 25 -9z m113 -213 c31 -24 66 -53 76 -65 11 -11 30 -21 43 -21
12 0 23 -4 23 -10 0 -24 -60 -9 -93 23 -58 56 -82 72 -99 69 -10 -2 -18 1 -18
6 0 6 -3 17 -6 26 -11 27 15 18 74 -28z m-478 -6 c0 -5 -7 -10 -15 -10 -8 0
-15 5 -15 10 0 6 7 10 15 10 8 0 15 -4 15 -10z m-1540 -166 c91 -2 184 -3 208
-4 23 0 42 -4 42 -10 0 -6 -51 -10 -132 -10 -188 0 -558 22 -558 34 0 5 52 6
138 1 75 -4 211 -9 302 -11z m2075 -24 c3 -5 15 -10 26 -10 36 0 99 -25 99
-39 0 -12 -21 -13 -127 -8 -71 4 -163 7 -205 7 -75 0 -97 10 -60 25 9 5 55 9
102 10 47 2 96 8 110 13 33 14 47 14 55 2z m-1785 -10 c0 -5 -7 -10 -15 -10
-8 0 -15 5 -15 10 0 6 7 10 15 10 8 0 15 -4 15 -10z m108 4 c37 -10 25 -24
-23 -24 -43 0 -60 12 -32 23 17 8 29 8 55 1z m182 -14 c0 -6 -30 -10 -70 -10
-40 0 -70 4 -70 10 0 6 30 10 70 10 40 0 70 -4 70 -10z m70 0 c0 -5 -9 -10
-20 -10 -11 0 -20 5 -20 10 0 6 9 10 20 10 11 0 20 -4 20 -10z m110 1 c0 -10
-61 -24 -69 -16 -8 9 21 25 47 25 12 0 22 -4 22 -9z m230 -1 c0 -6 -42 -10
-105 -10 -63 0 -105 4 -105 10 0 6 42 10 105 10 63 0 105 -4 105 -10z m200 0
c0 -6 -37 -10 -90 -10 -53 0 -90 4 -90 10 0 6 37 10 90 10 53 0 90 -4 90 -10z
m160 0 c0 -6 -32 -10 -75 -10 -43 0 -75 4 -75 10 0 6 32 10 75 10 43 0 75 -4
75 -10z m328 -4 c3 -3 3 -8 1 -11 -10 -9 -309 8 -309 18 0 11 297 3 308 -7z
m572 -21 c7 -9 10 -18 7 -22 -8 -7 -37 15 -37 28 0 14 16 11 30 -6z m-1880
-15 c0 -5 -7 -10 -15 -10 -8 0 -15 5 -15 10 0 6 7 10 15 10 8 0 15 -4 15 -10z
m140 0 c0 -6 -27 -10 -60 -10 -33 0 -60 4 -60 10 0 6 27 10 60 10 33 0 60 -4
60 -10z m889 -15 c321 -3 586 -7 589 -10 19 -19 -13 -19 -813 -12 -465 4 -655
12 -655 29 0 6 59 7 148 4 81 -4 410 -8 731 -11z"/>
<path d="M1055 1869 c-10 -15 3 -25 16 -12 7 7 7 13 1 17 -6 3 -14 1 -17 -5z"/>
<path d="M0 515 l0 -215 23 -1 c12 -1 41 -2 65 -3 42 -2 62 -16 62 -43 0 -20
-17 -15 -34 9 -12 17 -18 20 -28 10 -7 -7 -21 -12 -33 -12 -34 -1 -55 -24 -55
-63 0 -43 19 -53 63 -33 59 27 71 27 90 0 25 -33 22 -35 -73 -48 -68 -9 -80
-13 -80 -29 0 -17 5 -19 40 -13 22 3 40 2 40 -3 0 -14 83 18 103 40 21 23 33
24 41 4 3 -9 19 -15 41 -15 28 0 35 -4 35 -20 0 -11 7 -20 15 -20 8 0 15 -4
15 -10 0 -5 11 -10 25 -10 14 0 25 5 25 10 0 6 -11 10 -25 10 -26 0 -34 14
-12 23 25 9 107 -2 122 -17 9 -8 23 -12 31 -9 9 3 20 0 24 -8 7 -11 11 -9 16
6 12 32 46 54 82 55 31 0 45 -21 22 -35 -19 -12 -10 -22 17 -17 17 3 30 -1 38
-12 9 -12 18 -14 35 -8 21 8 21 9 5 25 -22 23 -12 47 20 47 27 0 48 -31 27
-38 -7 -2 -12 -8 -12 -13 0 -6 8 -5 20 1 12 6 31 10 43 8 14 -2 23 3 25 15 3
15 0 18 -17 12 -18 -5 -21 -2 -21 20 0 21 4 26 16 21 9 -3 22 -6 29 -6 7 0 23
-16 35 -36 20 -31 24 -33 39 -21 9 8 28 17 43 21 26 6 27 5 24 -29 -2 -36 10
-44 48 -29 24 9 20 33 -4 27 -14 -4 -20 0 -20 11 0 9 8 16 20 16 30 0 24 16
-12 31 -37 15 -48 26 -48 52 0 24 19 21 43 -5 13 -16 21 -19 24 -11 3 7 12 13
20 13 9 0 13 -6 10 -15 -4 -8 -2 -17 4 -21 6 -3 13 3 16 15 6 24 16 27 32 7 6
-7 22 -11 36 -8 26 5 31 -3 16 -26 -5 -8 -22 -13 -42 -11 -41 4 -60 -6 -52
-27 4 -11 8 -12 13 -4 3 6 14 8 23 4 19 -7 22 -20 7 -29 -17 -10 -11 -25 10
-25 11 0 20 -7 20 -15 0 -21 18 -19 25 4 3 11 20 24 37 30 36 13 46 8 29 -13
-14 -16 -8 -21 37 -31 20 -4 32 -3 32 4 0 6 7 11 15 11 8 0 15 -6 15 -12 0 -9
3 -9 8 -2 4 6 15 14 25 17 11 4 21 16 24 27 4 14 17 21 52 25 25 3 54 10 63
16 30 16 66 11 73 -10 6 -20 6 -20 26 0 19 19 49 26 49 12 0 -12 59 -43 81
-43 11 0 19 7 19 16 0 11 -6 14 -20 9 -22 -7 -26 5 -8 23 17 17 38 15 38 -4 0
-9 6 -14 13 -11 53 20 59 19 55 -4 -2 -16 -12 -25 -35 -31 -43 -11 -65 -48
-29 -48 16 0 27 7 31 20 8 26 27 26 43 0 7 -11 23 -20 37 -20 29 0 33 15 8 29
-27 15 -9 23 21 10 14 -7 26 -18 26 -26 0 -16 5 -16 49 -3 20 5 40 6 50 1 10
-6 26 -4 44 6 18 9 33 11 40 5 21 -17 117 -23 117 -8 0 17 25 27 45 20 8 -4
15 -12 15 -20 0 -11 25 -13 135 -11 74 1 135 5 135 8 0 4 11 10 25 13 14 4 23
11 20 17 -4 5 -15 7 -26 4 -16 -5 -19 -1 -19 21 0 15 -9 38 -21 50 -16 18 -19
26 -10 42 9 17 7 21 -12 26 -44 12 -76 6 -87 -14 -17 -32 -33 -24 -25 13 4 17
8 32 9 33 0 1 34 -2 75 -6 52 -5 76 -12 83 -24 5 -9 15 -16 22 -16 17 0 41
-28 32 -37 -3 -4 -12 -1 -18 5 -16 16 -51 15 -46 0 3 -7 31 -26 63 -43 64 -33
78 -52 43 -57 -21 -3 -20 -5 11 -21 47 -24 81 -23 81 3 0 16 7 20 35 20 19 0
35 -5 35 -10 0 -20 47 -29 81 -17 25 9 33 9 36 -1 3 -6 14 -12 25 -12 19 0 19
0 -1 29 -24 34 -26 41 -8 41 7 0 20 -15 30 -33 18 -33 19 -33 98 -36 l79 -2 0
36 c0 24 -4 35 -15 35 -8 0 -15 7 -15 15 0 8 7 15 15 15 10 0 15 10 15 30 0
17 -4 30 -10 30 -5 0 -10 -7 -10 -15 0 -17 -26 -21 -32 -5 -5 15 -88 1 -88
-15 0 -7 -7 -16 -16 -19 -22 -9 -24 -8 -24 9 0 8 4 15 9 15 5 0 12 7 15 16 5
14 0 15 -40 9 -33 -5 -49 -3 -55 6 -5 9 -41 14 -110 16 -110 4 -115 5 -104 24
8 12 230 8 398 -7 l67 -7 0 211 0 210 -112 6 c-62 3 -221 8 -353 11 -132 3
-262 8 -290 10 -71 8 -173 14 -300 20 -60 3 -173 10 -250 15 -77 5 -221 12
-320 15 -99 3 -252 8 -340 10 -88 3 -322 7 -520 9 -339 4 -507 10 -652 22
l-63 5 0 -216z m2430 -195 c0 -5 -9 -10 -20 -10 -11 0 -20 5 -20 10 0 6 9 10
20 10 11 0 20 -4 20 -10z m-1990 -46 c0 -10 -28 -34 -39 -34 -6 0 -11 -2 -11
-4 0 -2 -3 -12 -6 -20 -5 -12 -2 -15 10 -10 28 11 17 -11 -14 -29 -16 -10 -30
-22 -30 -28 0 -14 -17 -11 -23 5 -7 17 14 76 26 76 4 0 6 4 2 9 -3 5 -28 8
-55 5 -27 -2 -52 0 -55 5 -3 5 -23 7 -45 4 -35 -5 -50 3 -35 19 7 7 275 9 275
2z m290 -13 c0 -6 -4 -13 -10 -16 -5 -3 -10 -16 -10 -28 0 -16 3 -18 12 -9 16
16 28 15 28 -3 0 -11 7 -14 25 -9 21 5 25 3 25 -16 0 -20 -3 -21 -27 -14 -36
11 -143 12 -143 2 0 -9 -32 -11 -54 -2 -24 9 -20 23 20 60 42 40 57 43 48 9
-4 -16 -2 -25 6 -25 14 0 40 25 40 38 0 10 15 19 33 21 4 1 7 -3 7 -8z m210
-21 c13 -7 21 -7 25 0 9 14 34 12 51 -4 19 -20 18 -28 -5 -21 -10 3 -24 -1
-31 -10 -14 -17 -50 -21 -50 -5 0 6 -11 10 -25 10 -29 0 -35 26 -7 33 9 3 18
5 20 6 2 0 12 -4 22 -9z m518 -8 c3 -10 -6 -12 -34 -10 -20 2 -39 9 -42 16 -3
10 6 12 34 10 20 -2 39 -9 42 -16z m508 1 c19 -25 17 -33 -6 -33 -15 0 -20 7
-20 25 0 29 8 32 26 8z m-366 -3 c0 -5 -7 -10 -15 -10 -8 0 -15 -5 -15 -11 0
-7 -10 -9 -25 -7 -13 3 -26 0 -28 -6 -2 -7 -10 -4 -21 7 -9 9 -14 21 -11 27 8
13 115 13 115 0z m108 -5 c11 -11 -6 -15 -36 -9 -18 4 -32 11 -32 17 0 9 58 3
68 -8z m49 0 c8 -9 12 -19 8 -23 -4 -4 -10 -1 -12 6 -3 6 -11 12 -19 12 -8 0
-14 5 -14 10 0 15 19 12 37 -5z m113 5 c0 -5 -4 -10 -10 -10 -5 0 -10 -7 -10
-15 0 -8 -7 -15 -15 -15 -8 0 -15 7 -15 15 0 8 7 15 15 15 8 0 15 5 15 10 0 6
5 10 10 10 6 0 10 -4 10 -10z m240 -15 c0 -8 -9 -15 -20 -15 -11 0 -20 7 -20
15 0 8 9 15 20 15 11 0 20 -7 20 -15z m75 -5 c0 -8 -7 -16 -15 -17 -22 -4 -44
13 -35 26 10 17 50 9 50 -9z m211 10 c25 0 31 -15 13 -40 -8 -11 -12 -12 -16
-2 -6 15 -43 16 -43 1 0 -7 -9 -9 -24 -5 -14 3 -26 1 -28 -5 -6 -18 -48 12
-48 33 0 23 9 23 26 1 12 -17 14 -17 26 -2 16 20 38 29 56 23 8 -2 25 -4 38
-4z m-2156 -15 c0 -8 -4 -15 -10 -15 -5 0 -10 7 -10 15 0 8 5 15 10 15 6 0 10
-7 10 -15z m258 -7 c-6 -18 -28 -21 -28 -4 0 9 7 16 16 16 9 0 14 -5 12 -12z
m382 -6 c0 -18 -28 -45 -38 -38 -23 14 -14 46 13 46 14 0 25 -4 25 -8z m463
-8 c20 -7 22 -20 5 -30 -6 -4 -14 -2 -16 4 -2 7 -12 12 -23 12 -19 0 -25 11
-12 24 4 3 12 4 17 1 6 -3 19 -8 29 -11z m-1065 -16 c18 -18 15 -28 -8 -28
-11 0 -20 2 -20 4 0 2 -3 11 -6 20 -7 19 16 22 34 4z m422 -18 c0 -5 -7 -10
-15 -10 -8 0 -15 5 -15 10 0 6 7 10 15 10 8 0 15 -4 15 -10z m1840 -9 c0 -15
-16 -22 -34 -15 -25 9 -19 24 9 24 14 0 25 -4 25 -9z m-270 -16 c0 -8 -7 -15
-15 -15 -8 0 -15 7 -15 15 0 8 7 15 15 15 8 0 15 -7 15 -15z m210 -11 c0 -17
-22 -14 -28 4 -2 7 3 12 12 12 9 0 16 -7 16 -16z m-270 -4 c0 -5 -7 -10 -15
-10 -8 0 -15 5 -15 10 0 6 7 10 15 10 8 0 15 -4 15 -10z m925 -11 c4 -6 5 -13
1 -16 -8 -8 -56 6 -56 17 0 13 47 13 55 -1z m-2435 -9 c0 -5 -7 -10 -15 -10
-8 0 -15 5 -15 10 0 6 7 10 15 10 8 0 15 -4 15 -10z m530 -5 c0 -8 -7 -15 -15
-15 -8 0 -15 7 -15 15 0 8 7 15 15 15 8 0 15 -7 15 -15z m698 -2 c2 -8 -5 -13
-17 -13 -12 0 -21 6 -21 16 0 18 31 15 38 -3z m507 -25 c-9 -39 -5 -34 -32
-42 -29 -9 -30 7 -3 34 11 11 20 25 20 30 0 6 5 10 11 10 7 0 8 -12 4 -32z
m345 13 c0 -12 -29 -23 -41 -15 -18 10 -9 24 16 24 14 0 25 -4 25 -9z m-1470
-16 c0 -8 -7 -15 -15 -15 -8 0 -15 7 -15 15 0 8 7 15 15 15 8 0 15 -7 15 -15z
m1060 -20 c0 -8 -4 -15 -10 -15 -5 0 -10 7 -10 15 0 8 5 15 10 15 6 0 10 -7
10 -15z m540 0 c0 -8 -7 -15 -15 -15 -8 0 -15 7 -15 15 0 8 7 15 15 15 8 0 15
-7 15 -15z"/>
<path d="M250 60 c11 -21 22 -25 33 -13 9 9 -12 33 -30 33 -11 0 -11 -4 -3
-20z"/>
<path d="M63 38 c-2 -5 -17 -8 -34 -8 -16 0 -29 -4 -29 -9 0 -14 43 -21 57 -9
7 5 19 8 28 5 8 -4 27 0 42 8 15 8 24 16 18 16 -31 5 -78 3 -82 -3z"/>
<path d="M1667 24 c-14 -14 -7 -25 13 -22 12 2 21 8 21 13 0 12 -24 18 -34 9z"/>
<path d="M1580 10 c0 -13 20 -13 40 0 12 8 9 10 -12 10 -16 0 -28 -4 -28 -10z"/>
</g>
</svg>

</svg>