<svg xmlns="http://www.w3.org/2000/svg" viewBox="0 0 320 320">
<rect width="100%" height="100%" fill="#d7c0a5"/>
<path d="M200 3193 c1 -18 38 -150 48 -168 17 -33 43 -146 48 -215 2 -35 8
-68 13 -74 5 -6 12 -26 16 -44 4 -18 13 -45 21 -60 8 -15 14 -35 14 -45 0 -10
17 -43 38 -74 20 -31 45 -69 54 -84 9 -16 44 -55 77 -88 33 -33 64 -69 71 -80
6 -12 16 -21 22 -21 7 0 24 -11 38 -25 31 -30 173 -90 250 -106 30 -6 62 -14
70 -16 32 -12 186 0 258 18 41 11 77 17 80 14 11 -11 -50 -62 -88 -75 -21 -7
-48 -23 -58 -35 -11 -12 -46 -30 -78 -40 -33 -9 -67 -21 -76 -26 -10 -5 -29
-9 -42 -9 -14 0 -28 -4 -31 -10 -3 -5 -17 -10 -31 -10 -13 0 -24 -5 -24 -11 0
-6 -7 -8 -16 -5 -8 3 -25 1 -36 -5 -32 -17 -229 -10 -266 10 -11 6 -28 8 -36
5 -9 -3 -30 3 -48 14 -18 11 -55 26 -83 33 -59 14 -97 33 -143 72 -18 15 -47
33 -65 40 -31 14 -125 113 -159 168 -10 16 -22 29 -28 29 -7 0 -10 -153 -10
-451 l0 -451 22 6 c48 13 195 27 230 21 21 -4 104 -7 184 -7 89 0 166 -6 197
-14 28 -7 56 -10 61 -5 6 4 26 11 44 14 27 6 32 3 32 -12 0 -15 -11 -20 -56
-26 -99 -12 -44 -23 126 -26 152 -2 210 -11 210 -30 0 -4 -47 -5 -105 -2 -73
4 -105 2 -105 -6 0 -11 29 -15 83 -11 15 1 27 -3 27 -8 0 -4 14 -7 30 -4 23 3
30 0 30 -12 0 -10 8 -16 21 -16 17 0 20 -5 16 -21 -5 -19 -2 -21 51 -18 31 2
63 0 70 -4 17 -11 32 0 25 18 -6 18 25 20 60 4 19 -9 31 -7 55 5 17 9 42 16
55 16 32 0 60 33 60 70 0 18 6 30 14 30 18 0 16 47 -3 54 -9 3 -67 6 -130 6
-63 0 -114 4 -114 9 0 15 100 22 345 26 227 3 234 3 241 -17 4 -15 9 -17 17
-9 23 23 37 12 37 -29 0 -35 -3 -40 -22 -39 -13 0 -41 -4 -63 -10 -22 -5 -51
-7 -63 -4 -20 5 -23 2 -20 -13 3 -20 58 -34 58 -15 0 19 29 12 40 -9 6 -12 10
-42 8 -68 -3 -46 -4 -47 -37 -47 -19 0 -36 -6 -38 -12 -3 -7 -13 -13 -23 -13
-10 0 -20 -5 -22 -12 -2 -6 -10 -8 -17 -4 -7 5 -10 14 -7 22 3 8 1 14 -4 14
-5 0 -12 -11 -16 -24 -6 -27 -29 -40 -47 -29 -7 4 -172 8 -367 10 -522 3 -789
10 -803 21 -7 5 -42 16 -79 26 -62 15 -71 15 -115 0 -26 -9 -57 -25 -69 -35
-11 -10 -33 -19 -50 -19 -16 0 -39 -3 -51 -6 l-23 -6 0 -343 0 -343 36 -6 c46
-9 65 6 57 45 -5 25 -2 29 16 29 12 0 19 4 16 10 -3 5 2 23 12 40 23 40 54 39
93 -2 26 -28 30 -38 25 -68 -4 -19 -14 -43 -22 -52 -18 -20 -16 -21 42 -18 25
1 47 9 58 21 20 22 62 25 81 6 36 -36 11 -147 -34 -147 -10 0 -20 -8 -24 -17
-3 -10 -10 -25 -15 -33 -5 -8 -12 -23 -15 -33 -4 -11 -16 -17 -36 -17 -27 0
-30 -2 -24 -25 6 -26 -10 -36 -19 -11 -7 17 -59 30 -87 21 -16 -5 -19 -10 -10
-20 6 -8 18 -11 26 -8 9 3 25 1 37 -5 12 -6 31 -12 42 -14 12 -2 20 -11 20
-23 0 -49 61 -48 116 3 39 34 47 37 103 37 34 0 67 4 74 8 16 11 42 -9 42 -33
0 -9 -9 -29 -20 -43 -42 -53 -34 -57 118 -57 l138 0 17 29 c9 16 17 36 17 45
0 9 8 16 20 16 12 0 32 7 45 16 20 13 28 14 40 4 12 -10 16 -9 21 4 7 18 30
21 39 5 9 -13 -23 -49 -43 -49 -8 0 -23 -11 -34 -25 -11 -14 -27 -25 -36 -25
-9 0 -24 -5 -32 -10 -10 -6 392 -10 1143 -10 l1157 0 0 585 0 585 -26 6 c-26
7 -91 1 -131 -12 -19 -5 -23 -2 -23 15 0 23 -15 28 -23 8 -6 -16 -92 -20 -119
-6 -13 7 -18 6 -18 -5 0 -37 -229 -27 -256 12 -21 30 -34 27 -34 -8 0 -16 -3
-30 -7 -31 -24 -3 -203 -11 -228 -10 -73 3 -134 10 -179 20 -28 6 -52 8 -55 3
-3 -4 -17 -8 -31 -8 -14 0 -41 -4 -61 -8 -57 -12 -75 14 -78 115 -2 71 1 86
21 115 13 19 30 34 39 34 20 0 32 -40 23 -75 -3 -14 -2 -25 3 -25 15 0 33 23
33 42 0 10 8 18 18 19 13 0 12 2 -5 9 -50 20 -12 59 56 60 32 0 51 -6 68 -22
22 -21 24 -21 36 -4 13 18 107 29 227 27 25 0 60 4 79 9 20 5 39 6 45 1 20
-17 83 -23 105 -11 35 18 209 2 230 -21 8 -11 26 -19 38 -19 16 0 23 -6 23
-20 0 -57 143 -128 168 -84 12 21 32 10 32 -17 0 -35 25 -20 27 16 1 25 -3 35
-13 35 -19 0 -18 16 1 24 26 9 16 27 -12 24 -24 -3 -28 -7 -25 -30 3 -27 -11
-38 -23 -18 -3 5 -12 7 -20 3 -15 -5 -65 15 -98 41 -16 12 -16 17 -5 35 15 24
24 26 31 7 6 -15 115 -16 150 -1 16 7 17 59 17 896 l0 889 -235 0 -235 0 5
-22 c7 -31 -28 -72 -54 -63 -14 4 -24 -1 -36 -18 -24 -37 -60 -53 -81 -36 -14
11 -18 11 -30 -6 -40 -57 -50 -68 -77 -82 -23 -11 -31 -12 -37 -3 -5 9 -11 6
-21 -8 -15 -21 -112 -35 -136 -19 -7 5 -17 6 -22 3 -5 -4 -21 -2 -36 4 -20 8
-25 15 -20 30 4 11 2 20 -4 20 -20 0 -12 21 25 66 l36 44 70 0 c66 0 69 -1 66
-22 -2 -19 2 -24 27 -26 27 -3 30 0 30 25 0 15 -4 34 -9 42 -5 8 -4 16 4 21 9
5 9 9 1 14 -6 4 -14 0 -17 -8 -8 -22 -134 -23 -134 -2 0 8 5 18 10 21 18 11
11 25 -13 25 -16 0 -28 -9 -35 -25 -6 -14 -18 -25 -27 -25 -9 0 -15 9 -15 25
l0 25 -305 0 c-269 0 -305 -2 -305 -16 0 -8 16 -22 35 -30 19 -8 35 -21 35
-29 0 -18 6 -17 -103 -20 -100 -4 -126 -10 -110 -26 6 -6 57 -13 113 -16 l102
-6 -5 -39 c-7 -51 -13 -56 -34 -29 -13 15 -22 18 -33 11 -12 -8 -13 -12 -2
-19 27 -17 -46 -78 -103 -86 -124 -19 -217 5 -310 80 -22 18 -50 36 -63 39
-12 4 -27 17 -33 29 -7 12 -18 26 -25 30 -22 13 -16 37 11 47 34 13 105 61
105 71 0 5 -218 9 -485 9 -267 0 -485 -3 -485 -7z m94 -49 c4 -9 4 -19 2 -21
-8 -8 -26 8 -26 23 0 19 16 18 24 -2z m1707 -261 c36 -44 56 -193 31 -238 -5
-11 -13 -42 -16 -70 -9 -70 -59 -226 -71 -222 -13 5 -7 281 10 470 8 80 18 93
46 60z m-177 -108 c9 -14 14 -29 11 -34 -2 -5 2 -22 10 -37 18 -34 20 -115 3
-132 -8 -8 -8 -15 2 -27 18 -22 9 -180 -12 -202 -20 -19 -48 -10 -48 15 0 10
-9 29 -20 42 -22 26 -26 38 -34 115 -4 28 -9 67 -12 88 -4 24 -2 37 5 37 6 0
11 15 11 34 0 41 12 77 37 105 22 27 27 26 47 -4z m906 -281 c19 -1 43 -2 53
-3 24 -1 21 -22 -8 -49 -13 -13 -22 -29 -19 -36 3 -9 -6 -15 -25 -19 -36 -7
-42 -27 -8 -27 12 0 35 -7 51 -15 15 -8 41 -15 56 -15 16 0 30 -7 34 -15 3 -8
14 -15 25 -15 11 0 23 -4 26 -10 3 -5 31 -22 61 -36 64 -30 69 -44 14 -41 -22
1 -40 4 -40 8 0 6 -45 16 -98 22 -12 1 -27 9 -32 17 -8 12 -10 11 -10 -8 0
-40 -143 -75 -195 -48 -41 21 -55 20 -55 -5 0 -19 -4 -21 -37 -14 -21 4 -61
18 -89 31 -28 13 -56 24 -62 24 -6 0 -20 9 -31 21 -13 14 -26 19 -39 15 -14
-5 -28 1 -44 17 -14 14 -34 28 -46 31 -13 5 -22 16 -23 29 -2 77 -2 98 4 103
4 4 44 -11 91 -34 66 -32 86 -37 90 -26 3 9 20 14 48 14 34 0 52 7 80 30 31
26 41 29 57 20 16 -8 22 -6 31 10 6 11 19 20 30 20 10 0 22 5 25 10 4 6 16 8
28 4 12 -4 38 -8 57 -10z m230 -1069 c0 -17 -2 -18 -24 -9 -23 9 -20 24 4 24
11 0 20 -7 20 -15z m-2150 -70 c0 -8 -4 -15 -10 -15 -5 0 -10 7 -10 15 0 8 5
15 10 15 6 0 10 -7 10 -15z m138 -2 c-2 -10 -9 -18 -16 -17 -6 1 -32 2 -57 3
-33 1 -45 5 -45 16 0 12 13 15 61 15 52 0 60 -2 57 -17z m170 -61 c2 -7 -3
-12 -12 -12 -9 0 -16 7 -16 16 0 17 22 14 28 -4z m-30 -54 c-6 -18 -28 -21
-28 -4 0 9 7 16 16 16 9 0 14 -5 12 -12z m1329 -298 c11 0 13 -5 8 -17 -10
-23 -7 -85 5 -97 5 -5 6 -23 3 -40 -5 -26 -3 -29 8 -18 18 16 29 15 29 -3 0
-8 -7 -15 -15 -15 -17 0 -18 -2 -9 -24 5 -14 9 -13 31 4 38 29 49 25 50 -21
l2 -40 -32 7 c-18 4 -48 8 -67 8 -31 1 -35 4 -35 29 0 15 -6 32 -14 36 -10 6
-12 21 -8 50 3 23 1 44 -4 47 -6 3 -7 15 -4 25 4 11 1 26 -5 34 -15 19 6 49
27 40 8 -3 21 -5 30 -5z m-659 -19 c10 -6 11 -22 6 -59 -8 -64 -26 -82 -54
-57 -25 23 -26 39 -1 32 24 -6 35 17 19 42 -20 32 1 61 30 42z m-625 -38 c15
-8 31 -22 34 -31 4 -9 15 -23 25 -30 42 -30 19 -50 -52 -44 -195 15 -177 10
-183 45 -5 34 16 73 43 80 25 7 103 -5 133 -20z m508 -33 c10 0 19 -5 19 -10
0 -23 45 -70 66 -70 31 0 40 -18 18 -36 -18 -13 -18 -14 4 -20 12 -3 22 -10
22 -15 0 -12 -60 -37 -110 -44 -25 -4 -62 -16 -83 -27 -49 -24 -57 -21 -85 34
-24 50 -22 135 4 145 8 3 14 12 14 20 0 12 8 14 36 10 26 -4 37 -2 41 9 3 8
12 13 20 10 8 -3 23 -6 34 -6z m1459 -15 c0 -8 -7 -15 -15 -15 -16 0 -20 12
-8 23 11 12 23 8 23 -8z m-280 -230 c0 -8 -4 -15 -10 -15 -5 0 -10 7 -10 15 0
8 5 15 10 15 6 0 10 -7 10 -15z m-385 -177 c14 -6 25 -14 25 -18 0 -12 -52
-29 -79 -27 -26 2 -43 27 -18 27 8 0 20 7 27 15 15 18 13 18 45 3z m-105 -62
c0 -29 -22 -49 -44 -40 -18 7 -19 4 -10 -20 4 -11 13 -14 31 -10 21 6 24 3 21
-12 -2 -12 -12 -19 -25 -19 -30 0 -36 -10 -23 -35 9 -16 9 -25 1 -33 -20 -20
-34 9 -37 74 -3 57 -2 63 27 90 38 35 59 37 59 5z m590 4 c0 -5 10 -10 23 -10
25 0 97 -73 97 -97 0 -7 5 -13 10 -13 12 0 26 -33 35 -84 6 -29 4 -36 -9 -36
-11 0 -16 9 -16 29 0 35 -19 52 -26 24 -3 -11 -19 -28 -36 -38 -28 -16 -32
-16 -43 -2 -6 9 -23 19 -38 22 -35 9 -44 25 -23 41 15 11 13 14 -23 30 -21 9
-44 28 -51 42 -10 23 -8 29 32 63 42 38 68 48 68 29z m-1896 -166 c25 -9 19
-24 -9 -24 -16 0 -25 6 -25 15 0 16 9 19 34 9z"/>
<path d="M2540 3140 c0 -5 9 -10 20 -10 11 0 20 5 20 10 0 6 -9 10 -20 10 -11
0 -20 -4 -20 -10z"/>
<path d="M2492 3058 c-7 -7 -12 -16 -12 -21 0 -5 7 -1 16 8 9 9 14 18 12 20
-2 3 -10 -1 -16 -7z"/>
<path d="M45 2980 c-22 -24 -18 -43 13 -73 l29 -28 26 21 c46 36 29 92 -29 95
-14 0 -31 -7 -39 -15z"/>
<path d="M2530 1400 c0 -11 -1 -23 -2 -27 -1 -5 5 -9 14 -11 20 -4 32 26 17
44 -16 20 -29 17 -29 -6z"/>
<path d="M2795 1409 c-16 -5 -43 -8 -59 -7 -17 2 -31 -2 -33 -9 -3 -7 2 -13
10 -13 8 0 21 -9 28 -19 18 -26 59 -18 94 16 41 42 28 53 -40 32z"/>
<path d="M2460 1373 c-13 -15 -12 -16 4 -10 10 4 20 7 22 7 2 0 4 5 4 10 0 15
-13 12 -30 -7z"/>
<path d="M2167 1364 c-19 -19 -1 -25 70 -22 51 2 78 7 81 16 3 10 -3 11 -25 5
-34 -9 -60 -9 -93 1 -14 4 -29 4 -33 0z"/>
<path d="M500 1340 c0 -5 7 -10 15 -10 8 0 15 5 15 10 0 6 -7 10 -15 10 -8 0
-15 -4 -15 -10z"/>
<path d="M2930 1305 c0 -9 9 -15 21 -15 18 0 19 2 5 15 -8 8 -17 15 -20 15 -3
0 -6 -7 -6 -15z"/>
<path d="M129 1299 c-12 -8 -12 -10 1 -19 17 -11 32 -8 37 7 5 15 -21 23 -38
12z"/>
<path d="M610 1290 c0 -5 7 -10 15 -10 8 0 15 5 15 10 0 6 -7 10 -15 10 -8 0
-15 -4 -15 -10z"/>
<path d="M2253 1293 c-35 -5 -46 -23 -14 -23 34 0 81 12 81 21 0 9 -8 9 -67 2z"/>
<path d="M2684 1288 c-18 -29 -12 -68 12 -74 28 -7 40 -1 47 25 6 23 -47 68
-59 49z"/>
<path d="M1631 1230 c-25 -34 -21 -51 9 -43 11 3 20 1 20 -5 0 -7 10 -6 30 1
39 15 42 53 4 67 -36 14 -38 13 -63 -20z"/>
<path d="M2227 1226 c-7 -18 27 -46 44 -35 8 4 31 7 51 5 21 -2 40 -1 43 4 6
9 -50 21 -68 14 -8 -3 -20 2 -27 11 -15 19 -36 20 -43 1z"/>
<path d="M2145 1220 c-4 -6 -3 -16 3 -22 6 -6 12 -6 17 2 4 6 3 16 -3 22 -6 6
-12 6 -17 -2z"/>
<path d="M3155 1219 c-10 -15 1 -23 20 -15 9 3 13 10 10 16 -8 13 -22 13 -30
-1z"/>
<path d="M986 1213 c-7 -7 13 -33 25 -33 5 0 9 6 9 14 0 15 -24 28 -34 19z"/>
<path d="M2460 1208 c0 -4 -8 -8 -18 -8 -22 0 -34 -9 -26 -21 2 -5 15 -3 28 2
17 8 29 8 45 0 12 -7 21 -8 21 -2 0 5 2 16 5 24 4 10 -2 14 -25 14 -16 0 -30
-4 -30 -9z"/>
<path d="M610 1194 c0 -8 5 -12 10 -9 6 3 10 10 10 16 0 5 -4 9 -10 9 -5 0
-10 -7 -10 -16z"/>
<path d="M878 1203 c12 -2 32 -2 45 0 12 2 2 4 -23 4 -25 0 -35 -2 -22 -4z"/>
<path d="M690 1190 c0 -5 4 -10 9 -10 6 0 13 5 16 10 3 6 -1 10 -9 10 -9 0
-16 -4 -16 -10z"/>
<path d="M190 255 c7 -8 16 -12 21 -9 13 8 1 24 -18 24 -13 0 -13 -3 -3 -15z"/>
<path d="M275 263 c11 -3 25 -12 31 -21 10 -14 13 -13 23 6 11 21 10 22 -31
21 -24 -1 -34 -4 -23 -6z"/>
<path d="M0 120 c0 -45 3 -61 13 -58 6 3 13 14 15 26 2 12 10 22 17 22 14 0
65 42 65 53 0 3 -17 5 -37 4 -21 -1 -46 3 -55 7 -16 7 -18 2 -18 -54z"/>
<path d="M156 92 c-3 -5 -8 -28 -12 -50 l-7 -42 40 0 c38 0 39 1 35 29 -4 31
-46 79 -56 63z"/>
</g>
</svg>

<path d="M0 2150 l0 -1049 53 6 c28 3 61 13 72 22 31 26 65 38 123 40 49 2 53
0 63 -26 10 -26 12 -27 23 -11 15 20 37 23 53 7 7 -7 90 -12 224 -15 117 -2
214 -6 216 -7 2 -2 109 -2 239 0 162 3 240 1 249 -7 10 -8 15 -8 20 0 4 6 14
9 23 6 10 -3 59 -6 110 -8 52 -1 96 -6 99 -11 3 -4 16 -1 29 8 14 9 50 17 81
19 32 2 59 8 61 14 2 7 8 12 13 12 20 0 69 44 69 62 0 10 7 18 15 18 8 0 15 7
15 15 0 8 -4 15 -10 15 -14 0 -12 38 2 42 8 3 11 24 9 62 -1 31 2 63 8 69 15
18 21 120 8 135 -8 10 -7 16 4 22 11 8 10 12 -10 26 -20 14 -22 23 -18 58 3
22 14 46 24 54 15 10 15 14 4 21 -11 7 -15 41 -17 140 -1 73 -6 157 -10 188
-6 51 -5 56 11 50 9 -4 21 -5 25 -2 14 9 0 34 -16 28 -11 -4 -14 4 -14 33 0
22 -3 49 -6 62 -5 16 -2 22 10 22 9 0 16 -4 16 -10 0 -5 4 -10 9 -10 5 0 11
29 13 65 3 61 -3 78 -17 55 -3 -5 -9 -10 -13 -10 -10 0 -2 213 9 226 4 5 6 20
2 32 -3 13 -1 22 6 22 6 0 11 5 11 10 0 6 -7 10 -15 10 -25 0 -20 72 6 88 18
11 20 20 15 50 -4 20 -8 74 -10 120 -1 48 -7 86 -13 90 -6 4 -14 21 -18 37 -4
17 -11 43 -17 58 -9 22 -8 31 1 36 8 5 10 18 5 34 l-6 27 -919 0 -919 0 0
-1050z m1820 994 c0 -31 -23 -28 -28 4 -2 15 2 22 12 22 11 0 16 -9 16 -26z
m-1692 -182 c2 -15 -2 -22 -12 -22 -9 0 -16 4 -16 9 0 5 -3 17 -6 26 -5 13 -2
16 12 13 11 -2 20 -13 22 -26z m-10 -54 c-5 -16 -48 -24 -48 -9 0 8 17 16 43
20 5 0 7 -5 5 -11z m192 -93 c0 -8 -4 -15 -10 -15 -5 0 -10 7 -10 15 0 8 5 15
10 15 6 0 10 -7 10 -15z m1420 -10 c0 -18 -5 -25 -20 -25 -22 0 -26 20 -8 38
19 19 28 14 28 -13z m140 -19 c0 -16 -18 -31 -27 -22 -8 8 5 36 17 36 5 0 10
-6 10 -14z m-150 -36 c0 -11 -4 -20 -10 -20 -5 0 -10 9 -10 20 0 11 5 20 10
20 6 0 10 -9 10 -20z m-32 -64 c3 -12 -1 -17 -10 -14 -7 3 -15 13 -16 22 -3
12 1 17 10 14 7 -3 15 -13 16 -22z m12 -46 c0 -21 -8 -24 -34 -14 -25 10 -19
34 9 34 18 0 25 -5 25 -20z m-36 -72 c-19 -64 -44 -92 -59 -67 -11 16 4 59 20
59 8 0 15 7 15 15 0 8 7 15 16 15 11 0 14 -6 8 -22z m-54 -100 c0 -35 -127
-234 -156 -245 -21 -8 -27 2 -20 32 4 15 13 25 25 25 24 0 51 42 58 88 7 54
23 92 39 92 8 0 14 -5 14 -11 0 -5 5 -7 10 -4 6 4 8 11 5 16 -7 11 3 29 16 29
5 0 9 -10 9 -22z"/>
<path d="M1983 3165 c-1 -24 3 -35 13 -35 16 0 19 -16 4 -25 -5 -3 -10 -15
-10 -27 0 -13 -5 -18 -13 -15 -15 5 -15 1 -16 -181 0 -45 -8 -107 -16 -137
-10 -33 -13 -61 -8 -72 10 -21 10 -103 1 -119 -10 -15 -11 -63 -4 -162 3 -51
1 -94 -6 -110 -18 -44 -19 -791 -1 -820 8 -12 11 -27 8 -32 -3 -6 1 -7 9 -4
26 10 30 -23 7 -53 -33 -40 -28 -180 6 -220 15 -17 22 -35 19 -48 -3 -11 -6
-26 -6 -32 0 -17 -37 -17 -43 0 -4 9 -8 8 -16 -3 -8 -12 -12 -12 -29 3 -14 13
-21 14 -31 4 -8 -8 -40 -11 -102 -8 -76 3 -93 0 -110 -15 -17 -15 -25 -16 -50
-7 -17 7 -37 9 -45 6 -8 -3 -20 -1 -27 4 -6 6 -70 11 -142 12 -71 1 -134 2
-140 2 -5 1 -111 -4 -235 -10 -124 -6 -263 -9 -310 -6 -47 3 -103 4 -125 4
-47 -2 -19 -2 -323 6 l-242 7 0 -536 0 -536 966 0 966 0 -6 33 c-3 18 -3 37 1
41 5 4 8 20 8 34 0 21 6 28 23 30 19 3 21 6 11 18 -6 8 -8 25 -5 39 4 17 2 27
-7 31 -10 3 -14 31 -16 102 -1 53 -4 104 -7 114 -3 9 0 19 6 23 5 3 10 19 10
36 0 16 5 29 10 29 6 0 10 7 10 15 0 9 -6 12 -15 9 -21 -8 -23 2 -30 159 l-6
137 24 0 c19 0 26 -7 31 -27 9 -36 19 -353 20 -615 l1 -208 603 0 602 0 0
1600 0 1600 -608 0 -608 0 -1 -35z m111 -212 c12 -87 18 -273 8 -273 -6 0 -13
34 -17 75 -4 41 -11 78 -16 81 -5 3 -9 29 -9 57 0 93 23 133 34 60z m-46 -20
c2 -8 -5 -13 -17 -13 -12 0 -21 6 -21 16 0 18 31 15 38 -3z m82 -294 c0 -5 9
-31 21 -56 11 -25 18 -47 16 -49 -7 -7 -37 7 -37 17 0 5 -7 9 -16 9 -12 0 -15
6 -10 23 3 12 6 32 6 45 0 12 5 22 10 22 6 0 10 -5 10 -11z m-32 -811 c-3 -7
-11 -13 -18 -13 -7 0 -15 6 -17 13 -3 7 4 12 17 12 13 0 20 -5 18 -12z m1079
-662 c16 -16 -23 -30 -82 -31 -70 0 -87 15 -37 34 27 11 108 9 119 -3z m-459
-33 c3 -10 -12 -13 -52 -13 -51 0 -66 7 -50 23 11 11 97 2 102 -10z m-158 -8
c6 -3 10 -1 10 4 0 6 7 11 15 11 18 0 20 -30 3 -31 -7 0 -57 0 -110 1 -54 1
-103 -2 -109 -6 -7 -4 -84 -7 -173 -8 -145 -1 -161 -3 -164 -18 -5 -24 -29
-23 -37 2 -8 24 0 39 29 50 23 9 521 4 536 -5z m-650 -90 c0 -8 -4 -15 -10
-15 -5 0 -10 7 -10 15 0 8 5 15 10 15 6 0 10 -7 10 -15z m18 -43 c2 -7 -3 -12
-12 -12 -9 0 -16 7 -16 16 0 17 22 14 28 -4z m46 -14 c3 -13 6 -40 6 -60 0
-31 -4 -38 -20 -38 -11 0 -20 -4 -20 -10 0 -5 -4 -10 -9 -10 -16 0 -21 94 -5
106 8 6 14 16 14 23 0 20 28 11 34 -11z m1211 -629 c0 -7 -8 -15 -17 -17 -18
-3 -25 18 -11 32 10 10 28 1 28 -15z"/>
</g>
</svg>

<path d="M0 2300 l0 -900 35 0 c19 0 35 -4 35 -9 0 -5 -16 -12 -35 -15 l-35
-7 0 -469 c0 -365 3 -470 13 -474 10 -5 10 -7 0 -12 -9 -4 -13 -38 -13 -119
l0 -113 28 -11 c16 -7 41 -9 55 -5 15 3 27 3 27 -1 0 -15 -51 -55 -70 -55 -13
0 -17 -5 -13 -20 3 -12 -1 -22 -11 -26 -10 -4 -16 -18 -16 -35 l0 -29 69 0 69
0 6 45 c4 26 13 45 20 45 19 0 44 -31 48 -60 l3 -25 301 -3 301 -2 30 67 c17
38 38 90 48 117 10 27 40 72 66 100 45 49 49 51 99 51 46 0 55 -4 81 -33 51
-57 30 -132 -54 -198 -45 -35 -74 -41 -47 -9 10 12 10 18 -1 31 -12 14 -14 14
-25 -1 -8 -11 -20 -15 -30 -11 -9 4 -27 0 -39 -8 -12 -8 -32 -16 -46 -18 -14
-2 -23 -9 -21 -17 1 -7 -4 -24 -13 -37 -8 -13 -15 -25 -15 -28 0 -3 169 -5
375 -6 l375 -1 -25 27 c-30 33 -32 71 -5 124 27 52 25 71 -7 102 -40 39 -74
48 -169 48 -47 0 -84 4 -84 10 0 16 130 50 195 50 47 0 68 -5 88 -20 14 -11
30 -20 35 -20 16 0 71 -67 87 -107 30 -72 5 -166 -53 -197 -24 -14 57 -15 758
-15 528 0 777 4 760 10 -13 6 -31 16 -40 23 -8 7 -69 35 -135 62 -127 52 -180
88 -201 141 -25 58 -7 93 18 38 6 -14 22 -28 34 -31 17 -4 24 -14 26 -37 2
-24 10 -33 33 -40 17 -6 35 -17 41 -25 10 -13 16 -13 46 6 44 27 56 28 60 2 5
-35 23 -21 21 15 -3 48 5 44 62 -32 l50 -67 3 534 c2 420 -1 536 -10 543 -10
7 -10 10 -1 14 9 3 13 27 12 76 -1 40 -4 62 -6 50 -7 -35 -18 -27 -31 22 -17
65 -16 75 13 75 19 0 25 5 25 21 0 16 -4 19 -17 14 -10 -4 -46 -9 -81 -10 -51
-2 -62 0 -58 11 3 8 -1 14 -9 14 -8 0 -15 4 -15 9 0 6 37 7 90 4 l90 -6 0 882
0 881 -225 0 -225 0 5 -23 c7 -25 -27 -78 -41 -65 -4 5 1 17 10 27 11 13 15
27 11 40 -6 20 -13 21 -217 21 -189 0 -212 -2 -224 -17 -27 -36 -17 -43 55
-43 72 0 107 -18 83 -42 -6 -6 -8 -17 -5 -24 4 -10 -3 -14 -21 -14 -21 0 -26
5 -26 25 0 24 -2 25 -68 25 l-69 0 -42 -49 c-34 -42 -39 -51 -26 -59 20 -10 9
-42 -14 -42 -9 0 -25 7 -35 15 -29 22 -53 18 -60 -9 -5 -19 -12 -24 -34 -23
-21 2 -28 -3 -30 -20 -4 -26 -30 -31 -39 -7 -7 19 26 182 38 190 15 9 10 24
-7 24 -12 0 -15 6 -11 21 11 41 -1 49 -75 49 l-70 0 7 -30 c8 -36 -19 -44 -29
-8 -4 17 -8 20 -17 11 -16 -16 -7 -47 19 -58 29 -13 30 -19 33 -145 3 -97 -7
-200 -18 -200 -3 0 -13 10 -23 22 l-17 22 -7 -22 c-7 -22 -26 -31 -26 -12 0 5
9 27 20 49 l21 39 -22 41 c-23 45 -39 46 -39 2 0 -31 -27 -91 -41 -91 -5 0 -6
26 -3 59 7 64 -5 84 -34 58 -36 -31 -212 -80 -212 -58 0 12 25 21 60 21 19 0
35 9 48 25 11 14 25 25 31 25 11 0 15 13 12 38 -3 17 18 15 25 -3 10 -25 21
-17 32 25 12 47 10 50 -43 50 -87 0 -165 12 -165 26 0 10 18 14 68 16 69 1
107 3 130 6 25 4 11 32 -23 46 -19 8 -35 22 -35 30 0 14 -27 16 -210 16 -117
0 -210 -4 -210 -9 0 -9 -91 -71 -103 -71 -17 0 -4 20 28 41 19 13 35 27 35 32
0 4 -193 7 -430 7 l-430 0 0 -34 c0 -19 5 -38 11 -41 6 -4 8 -13 5 -20 -2 -7
6 -39 19 -71 13 -33 29 -88 35 -124 37 -195 115 -391 196 -490 87 -106 107
-128 144 -152 152 -101 348 -146 497 -113 85 19 199 60 224 82 22 19 26 17 27
-15 1 -33 -76 -106 -101 -96 -8 3 -49 -4 -92 -15 -231 -61 -542 26 -651 182
-15 20 -32 37 -39 37 -16 0 -26 25 -19 44 3 8 1 17 -5 21 -7 3 -8 0 -5 -9 3
-9 1 -16 -5 -16 -11 0 -101 130 -101 147 0 6 -8 21 -19 34 -10 13 -21 35 -25
49 -4 14 -11 34 -16 45 -19 47 -41 149 -36 170 3 12 3 25 -1 29 -4 4 -17 44
-29 89 -13 45 -35 124 -50 175 l-28 92 -103 0 -103 0 0 -900z m2580 840 c0 -5
-9 -10 -20 -10 -11 0 -20 5 -20 10 0 6 9 10 20 10 11 0 20 -4 20 -10z m110
-30 c12 -9 8 -17 -25 -46 -41 -36 -184 -114 -210 -114 -21 0 -19 18 4 25 18 5
38 27 75 80 14 19 15 19 34 2 19 -17 21 -16 58 22 43 45 43 45 64 31z m-1650
-12 c0 -6 7 -20 17 -30 22 -25 8 -36 -17 -13 -21 19 -27 55 -10 55 6 0 10 -5
10 -12z m108 -107 c3 -8 -1 -12 -9 -9 -7 2 -15 10 -17 17 -3 8 1 12 9 9 7 -2
15 -10 17 -17z m1278 -32 c10 -17 -13 -36 -27 -22 -12 12 -4 33 11 33 5 0 12
-5 16 -11z m-366 -54 c0 -8 -4 -15 -10 -15 -5 0 -10 7 -10 15 0 8 5 15 10 15
6 0 10 -7 10 -15z m6 -63 c7 -10 15 -50 19 -90 4 -40 11 -75 16 -78 12 -7 12
-74 0 -74 -5 0 -11 9 -14 20 -9 36 -25 21 -38 -34 -13 -61 -24 -84 -35 -73 -8
7 4 85 23 157 9 34 3 121 -12 168 -9 28 24 32 41 4z m-208 -121 c3 -8 -1 -12
-9 -9 -7 2 -15 10 -17 17 -3 8 1 12 9 9 7 -2 15 -10 17 -17z m-118 -71 c0 -5
-7 -10 -15 -10 -8 0 -15 5 -15 10 0 6 7 10 15 10 8 0 15 -4 15 -10z m-70 -30
c0 -6 -7 -13 -15 -16 -8 -4 -15 -15 -15 -25 0 -10 -7 -19 -15 -19 -19 0 -19
15 1 45 16 25 44 34 44 15z m64 -62 c9 -34 7 -78 -3 -78 -9 0 -21 47 -21 81 0
26 16 24 24 -3z m446 -53 c30 -31 32 -36 18 -47 -19 -15 -25 -45 -13 -71 15
-35 -8 -31 -41 7 -35 41 -42 74 -24 120 13 34 19 33 60 -9z m460 0 c0 -8 -9
-15 -20 -15 -11 0 -23 -7 -26 -15 -7 -17 -40 -20 -49 -5 -9 15 12 38 38 43 44
9 57 7 57 -8z m60 5 c0 -5 -7 -10 -15 -10 -8 0 -15 5 -15 10 0 6 7 10 15 10 8
0 15 -4 15 -10z m-180 -49 c0 -21 -59 -51 -99 -51 -39 0 -61 19 -23 20 9 1 33
9 52 19 39 21 70 26 70 12z m270 -18 c0 -14 -19 -38 -25 -32 -8 8 5 39 16 39
5 0 9 -3 9 -7z m-426 -34 c5 -5 7 -12 3 -15 -9 -9 -67 16 -67 28 0 12 50 2 64
-13z m-584 -24 c0 -8 -4 -15 -10 -15 -5 0 -10 7 -10 15 0 8 5 15 10 15 6 0 10
-7 10 -15z m1143 -25 c58 -22 180 -108 195 -138 18 -35 22 -82 7 -82 -8 0 -18
6 -22 13 -4 8 -29 19 -55 27 -50 13 -64 30 -25 30 22 1 22 1 2 16 -11 9 -39
24 -62 35 -24 10 -43 25 -43 32 0 10 -8 13 -25 9 -17 -3 -27 1 -31 12 -4 9
-18 16 -34 16 -15 0 -41 7 -56 15 -16 8 -39 15 -51 15 -25 0 -31 15 -10 24 24
11 156 -4 210 -24z m-1413 -15 c0 -23 -30 -65 -46 -65 -18 0 -18 15 -1 32 7 7
16 21 20 31 8 21 27 23 27 2z m833 -86 c22 -25 16 -34 -15 -25 -41 11 -56 24
-38 36 22 15 34 12 53 -11z m570 -25 c55 -9 45 -24 -15 -24 -29 0 -73 -6 -98
-14 -62 -18 -140 -29 -140 -19 0 8 46 23 113 38 15 3 30 12 33 19 5 14 18 14
107 0z m-513 -4 c0 -5 -7 -10 -15 -10 -8 0 -15 5 -15 10 0 6 7 10 15 10 8 0
15 -4 15 -10z m51 -20 c5 0 9 -5 9 -11 0 -15 -43 -7 -48 10 -3 10 0 12 12 8
10 -4 22 -7 27 -7z m147 -18 c2 -15 -2 -22 -12 -22 -9 0 -16 4 -16 9 0 5 -3
17 -6 26 -5 13 -2 16 12 13 11 -2 20 -13 22 -26z m52 -12 c0 -5 -7 -10 -15
-10 -8 0 -15 5 -15 10 0 6 7 10 15 10 8 0 15 -4 15 -10z m-1670 -250 c0 -12
-28 -25 -36 -17 -9 9 6 27 22 27 8 0 14 -5 14 -10z m892 -426 c-2 -32 -8 -63
-13 -68 -5 -6 -9 -38 -9 -73 0 -47 -4 -63 -14 -63 -9 0 -16 -19 -20 -60 -6
-51 -10 -60 -26 -60 -17 0 -20 7 -20 43 0 23 -7 53 -16 65 -20 29 -15 34 33
37 36 2 38 4 41 39 2 21 -2 44 -9 52 -9 11 -9 18 -1 26 6 6 8 17 5 24 -3 8 1
14 11 14 18 0 22 16 6 22 -7 2 -6 15 2 36 19 49 33 33 30 -34z m938 -54 c0 -5
-7 -10 -15 -10 -8 0 -15 5 -15 10 0 6 7 10 15 10 8 0 15 -4 15 -10z m-607 -14
c17 -13 24 -36 10 -36 -10 0 -43 32 -43 42 0 12 12 10 33 -6z m-783 -6 c0 -5
-11 -10 -25 -10 -14 0 -25 5 -25 10 0 6 11 10 25 10 14 0 25 -4 25 -10z m-230
-16 c0 -10 -6 -14 -15 -11 -8 4 -17 2 -20 -3 -4 -6 45 -10 129 -10 74 0 141
-3 150 -6 21 -8 21 -54 0 -54 -10 0 -14 -5 -10 -15 11 -29 -28 -79 -65 -86
-19 -3 -45 -11 -57 -18 -25 -13 -37 -10 -119 25 -42 19 -43 18 -43 -16 0 -29
-2 -30 -45 -30 -49 0 -56 8 -24 28 30 19 19 34 -26 38 -146 10 -205 18 -205
26 0 7 39 8 105 5 86 -4 105 -2 105 9 0 14 -22 19 -72 15 -35 -3 -42 12 -23
49 9 17 11 30 5 30 -5 0 -10 -4 -10 -10 0 -5 -13 -10 -30 -10 -16 0 -30 5 -30
11 0 15 -174 6 -193 -9 -9 -8 -27 -8 -64 2 -31 8 -112 14 -213 14 -147 1 -182
4 -169 16 2 2 197 8 434 13 237 5 447 10 468 11 28 2 37 -2 37 -14z m60 6 c0
-5 -9 -10 -20 -10 -11 0 -20 5 -20 10 0 6 9 10 20 10 11 0 20 -4 20 -10z
m1610 -9 c0 -16 -51 -59 -78 -64 -20 -4 -31 -1 -41 14 -7 10 -20 19 -27 19
-33 0 -10 20 24 21 20 1 48 5 62 9 35 11 60 12 60 1z m140 -1 c0 -5 -9 -10
-20 -10 -11 0 -20 5 -20 10 0 6 9 10 20 10 11 0 20 -4 20 -10z m-950 -59 c0
-19 -26 -48 -36 -39 -3 3 -2 17 2 32 7 30 34 36 34 7z m158 13 c34 -10 26 -24
-13 -24 -33 0 -43 8 -28 23 8 8 12 8 41 1z m110 -6 c-5 -16 -58 -24 -58 -9 0
8 13 13 53 20 5 0 7 -5 5 -11z m-1525 -10 c4 -10 8 -9 17 2 9 11 13 12 17 3 2
-7 11 -13 19 -13 8 0 14 -4 14 -10 0 -6 -38 -10 -95 -10 -133 0 -127 13 17 39
3 0 9 -5 11 -11z m-263 -8 c0 -5 -7 -10 -15 -10 -8 0 -15 5 -15 10 0 6 7 10
15 10 8 0 15 -4 15 -10z m2538 -8 c3 -9 -2 -13 -14 -10 -9 1 -19 9 -22 16 -3
9 2 13 14 10 9 -1 19 -9 22 -16z m-2148 -2 c0 -5 -11 -10 -25 -10 -14 0 -25 5
-25 10 0 6 11 10 25 10 14 0 25 -4 25 -10z m2030 -25 c0 -8 -4 -15 -10 -15 -5
0 -10 7 -10 15 0 8 5 15 10 15 6 0 10 -7 10 -15z m190 1 c0 -16 -18 -31 -27
-22 -8 8 5 36 17 36 5 0 10 -6 10 -14z m-2500 -16 c0 -5 -7 -10 -15 -10 -8 0
-15 5 -15 10 0 6 7 10 15 10 8 0 15 -4 15 -10z m1680 1 c0 -9 -47 -21 -81 -21
-32 0 -21 18 14 23 59 7 67 7 67 -2z m403 -16 c24 -18 19 -59 -8 -63 -31 -4
-43 10 -38 46 6 35 18 39 46 17z m-1029 -25 c33 -12 36 -55 5 -63 -20 -6 -89
2 -89 10 0 8 44 63 51 63 4 0 19 -4 33 -10z m580 -32 c13 -22 3 -32 -23 -23
-25 8 -29 48 -5 43 9 -2 22 -11 28 -20z m906 -3 c0 -8 -7 -15 -15 -15 -16 0
-20 12 -8 23 11 12 23 8 23 -8z m-1010 -5 c0 -5 -7 -10 -15 -10 -8 0 -15 5
-15 10 0 6 7 10 15 10 8 0 15 -4 15 -10z m160 0 c0 -5 -7 -10 -15 -10 -8 0
-15 5 -15 10 0 6 7 10 15 10 8 0 15 -4 15 -10z m186 -6 c-3 -9 -6 -18 -6 -20
0 -2 -7 -4 -15 -4 -18 0 -19 12 -3 28 17 17 31 15 24 -4z m-1496 -10 c0 -17
-22 -14 -28 4 -2 7 3 12 12 12 9 0 16 -7 16 -16z m170 1 c0 -8 -4 -15 -10 -15
-5 0 -10 7 -10 15 0 8 5 15 10 15 6 0 10 -7 10 -15z m1405 -5 c0 -7 -6 -15
-12 -17 -8 -3 -13 4 -13 17 0 13 5 20 13 18 6 -3 12 -11 12 -18z m-145 0 c0
-5 -7 -10 -15 -10 -8 0 -15 5 -15 10 0 6 7 10 15 10 8 0 15 -4 15 -10z m483
-20 c21 0 28 -4 25 -17 -2 -13 -14 -17 -51 -18 -43 0 -47 1 -47 23 0 20 4 23
23 18 12 -3 35 -6 50 -6z m-1202 -16 c10 -13 10 -17 -2 -25 -26 -16 -46 -2
-35 26 7 19 20 19 37 -1z m1069 -14 c0 -5 -7 -10 -15 -10 -8 0 -15 5 -15 10 0
6 7 10 15 10 8 0 15 -4 15 -10z m230 0 c0 -5 -11 -10 -25 -10 -14 0 -25 5 -25
10 0 6 11 10 25 10 14 0 25 -4 25 -10z m-1030 -15 c0 -8 -4 -15 -10 -15 -5 0
-10 7 -10 15 0 8 5 15 10 15 6 0 10 -7 10 -15z m177 -63 c126 -37 241 -57 288
-49 41 7 57 -16 48 -64 -7 -39 32 -158 90 -272 40 -80 66 -116 119 -169 37
-36 68 -69 68 -72 0 -19 -33 2 -85 54 -33 33 -65 60 -72 60 -7 0 -33 13 -58
29 -62 40 -145 68 -245 85 -84 14 -110 30 -110 66 0 32 -52 176 -77 215 -14
22 -46 59 -71 81 -33 30 -43 46 -38 59 4 11 13 15 24 12 9 -3 63 -19 119 -35z
m-290 3 c3 -9 -1 -23 -10 -33 -68 -77 -101 -223 -72 -318 8 -27 15 -52 15 -56
0 -13 -64 -38 -98 -38 -54 0 -143 -27 -229 -69 -74 -36 -100 -55 -212 -149
-48 -41 -61 -48 -61 -34 0 5 34 40 75 77 46 40 75 75 75 87 0 11 11 38 24 61
31 54 66 178 66 237 0 48 13 70 41 70 9 0 50 11 91 25 40 14 84 25 98 25 16 1
49 23 95 65 72 67 91 76 102 50z m1206 -148 c35 -21 67 -64 67 -90 0 -6 -14
-26 -32 -44 -38 -39 -71 -42 -128 -13 -62 32 -95 27 -128 -19 -16 -24 -38 -41
-54 -45 -16 -3 -28 -10 -28 -16 0 -6 10 -8 24 -4 23 5 24 4 29 -73 2 -43 8
-88 12 -100 15 -46 -25 -25 -45 23 -24 55 -24 54 -5 54 8 0 15 7 15 15 0 18
-17 20 -23 3 -9 -27 -20 4 -24 69 -6 79 7 114 67 190 54 69 181 94 253 50z
m-2113 -24 c0 -3 -6 -14 -14 -22 -20 -23 -9 -81 14 -81 10 0 21 -6 23 -12 4
-10 8 -10 15 1 7 9 20 12 43 7 19 -4 59 -7 89 -8 70 -2 83 -15 88 -89 7 -90
-49 -252 -76 -224 -7 7 -5 31 6 71 15 58 15 64 -3 109 -27 72 -56 95 -121 95
-32 0 -54 4 -54 11 0 6 -8 8 -19 4 -45 -14 -67 72 -30 119 19 24 39 34 39 19z
m-778 -300 c10 -9 18 -21 18 -26 0 -5 8 -16 17 -23 10 -7 15 -16 10 -20 -4 -4
-16 2 -27 14 -33 35 -65 29 -87 -18 -10 -22 -24 -40 -32 -40 -10 0 -12 -8 -8
-29 7 -31 -7 -51 -35 -51 -15 0 -17 5 -12 28 19 81 87 182 123 182 8 0 23 -7
33 -17z m76 -161 c3 -18 8 -21 29 -16 19 5 24 3 21 -7 -5 -16 -98 -26 -98 -10
0 5 5 13 10 16 6 3 10 15 10 26 0 27 24 19 28 -9z m160 1 c2 -16 -2 -23 -12
-23 -9 0 -16 5 -16 10 0 6 -13 10 -30 10 -35 0 -40 17 -7 23 43 9 62 3 65 -20z
m2132 5 c62 -15 120 -46 120 -63 0 -19 -18 -29 -33 -18 -28 21 -98 36 -142 30
-58 -8 -100 -37 -125 -87 -11 -21 -25 -42 -31 -45 -7 -5 -3 -15 12 -31 25 -27
21 -46 -16 -70 -53 -34 -114 -14 -137 46 -24 63 16 177 74 209 35 20 49 6 17
-16 -61 -43 -69 -58 -65 -123 3 -64 17 -93 37 -73 8 8 8 17 -1 32 -14 27 -4
44 20 36 21 -7 34 9 26 32 -5 13 -9 13 -22 2 -13 -10 -17 -10 -25 2 -14 22
-11 32 7 25 24 -9 44 12 44 45 0 29 13 38 25 19 8 -13 51 -13 78 1 32 17 32
18 11 34 -43 33 19 39 126 13z m-170 4 c0 -14 -23 -32 -42 -32 -23 0 -23 16 0
29 21 13 42 14 42 3z m-1942 -70 c2 -15 -2 -22 -12 -22 -11 0 -16 9 -16 26 0
31 23 28 28 -4z m2422 -1 c0 -10 -62 -61 -73 -61 -19 0 -3 31 26 49 35 23 47
26 47 12z m70 -1 c0 -5 -7 -10 -15 -10 -8 0 -15 5 -15 10 0 6 7 10 15 10 8 0
15 -4 15 -10z m-2500 -45 c0 -30 -103 -145 -117 -131 -4 4 -2 15 5 24 7 9 15
25 18 35 4 9 15 17 25 17 10 0 25 13 34 30 13 26 35 41 35 25z m2618 -63 c2
-7 -3 -12 -12 -12 -9 0 -16 7 -16 16 0 17 22 14 28 -4z m-2738 -7 c0 -8 -7
-15 -15 -15 -8 0 -15 7 -15 15 0 8 7 15 15 15 8 0 15 -7 15 -15z m2760 -30 c0
-8 -4 -15 -10 -15 -5 0 -10 7 -10 15 0 8 5 15 10 15 6 0 10 -7 10 -15z m-1120
-15 c0 -5 -7 -10 -15 -10 -8 0 -15 5 -15 10 0 6 7 10 15 10 8 0 15 -4 15 -10z
m-1358 -55 c13 -30 5 -43 -17 -25 -12 10 -18 10 -29 1 -16 -13 -106 -5 -106 9
0 8 40 26 75 33 48 11 66 7 77 -18z m-307 -12 c-7 -28 -22 -50 -28 -42 -2 2
-7 19 -10 37 -6 29 -4 32 19 32 23 0 25 -3 19 -27z m1663 8 c3 -8 -1 -12 -9
-9 -7 2 -15 10 -17 17 -3 8 1 12 9 9 7 -2 15 -10 17 -17z m-1744 -1 c14 -5 26
-16 26 -25 0 -18 -19 -19 -43 -1 -10 8 -27 12 -37 9 -11 -3 -20 -1 -20 4 0 24
31 30 74 13z"/>
<path d="M1106 1391 c-4 -5 -2 -12 3 -15 5 -4 12 -2 15 3 4 5 2 12 -3 15 -5 4
-12 2 -15 -3z"/>
<path d="M1085 1300 c-3 -6 1 -13 10 -16 19 -8 30 0 20 15 -8 14 -22 14 -30 1z"/>
<path d="M2360 935 c-10 -12 -10 -18 0 -30 7 -8 9 -22 6 -31 -4 -9 -2 -22 3
-28 6 -7 7 -27 1 -49 -6 -30 -5 -39 9 -46 9 -6 16 -22 16 -38 0 -27 2 -28 48
-29 26 -1 54 -7 61 -13 18 -15 24 -4 23 42 -1 40 -11 45 -45 21 -22 -15 -42
-12 -42 7 0 5 7 9 15 9 8 0 15 7 15 16 0 11 -6 14 -21 9 -19 -6 -21 -4 -16 16
3 13 1 29 -5 36 -6 8 -8 34 -6 63 4 36 2 50 -8 50 -7 0 -19 2 -27 5 -7 3 -20
-1 -27 -10z"/>
<path d="M1723 914 c-3 -9 -1 -25 6 -36 14 -23 7 -38 -20 -38 -24 0 -24 -12 1
-35 28 -25 46 -7 54 57 5 37 4 53 -6 59 -19 13 -28 11 -35 -7z"/>
<path d="M1682 881 c4 -13 18 -16 19 -4 0 4 -5 9 -11 12 -7 2 -11 -2 -8 -8z"/>
<path d="M1584 843 c-7 -11 -15 -12 -37 -4 -23 9 -29 8 -34 -7 -4 -9 -12 -21
-19 -27 -25 -21 -26 -94 -2 -142 28 -56 36 -59 85 -35 21 11 58 23 83 27 51 7
110 32 110 45 0 5 -8 14 -17 19 -15 9 -16 12 -4 20 19 12 5 31 -23 31 -22 0
-51 30 -67 69 -7 19 -63 22 -75 4z"/>
<path d="M3075 840 c-8 -13 4 -32 16 -25 12 8 12 35 0 35 -6 0 -13 -4 -16 -10z"/>
<path d="M1740 3179 c0 -24 23 -21 28 4 2 10 -3 17 -12 17 -10 0 -16 -9 -16
-21z"/>
<path d="M2197 3180 c-3 -11 -1 -23 4 -26 17 -10 49 7 49 27 0 27 -46 26 -53
-1z"/>
<path d="M3183 1353 c-18 -7 -16 -23 2 -23 8 0 15 7 15 15 0 8 -1 15 -2 14 -2
0 -9 -3 -15 -6z"/>
<path d="M990 195 c0 -9 9 -15 25 -15 28 0 34 15 9 24 -25 10 -34 7 -34 -9z"/>
</g>
</svg>

</svg>