<svg xmlns="http://www.w3.org/2000/svg" viewBox="0 0 320 320">
<rect width="100%" height="100%" fill="#d0bfa7"/>
<path d="M0 2855 c0 -223 4 -345 10 -345 6 0 10 -7 10 -15 0 -8 -4 -15 -10
-15 -6 0 -10 -37 -10 -90 0 -73 3 -90 15 -90 9 0 15 -9 15 -23 0 -13 9 -33 20
-45 20 -21 28 -72 11 -72 -5 0 -16 18 -25 40 -31 77 -36 48 -36 -195 l0 -235
70 0 c40 0 70 -4 70 -10 0 -5 -21 -10 -47 -10 -97 0 -93 7 -93 -151 0 -132 1
-139 20 -139 21 0 27 -24 9 -35 -6 -4 -7 -19 -4 -36 5 -22 3 -29 -9 -29 -14 0
-16 -16 -16 -100 0 -55 3 -100 8 -100 19 1 31 18 34 49 5 53 28 52 28 -2 0
-42 1 -44 25 -39 33 6 32 -9 -4 -32 -16 -11 -36 -32 -46 -48 -9 -15 -23 -28
-31 -28 -10 0 -14 -12 -14 -40 0 -39 1 -40 35 -40 24 0 37 -6 45 -20 12 -22
44 -26 84 -10 33 12 116 88 116 106 0 14 18 29 26 21 10 -9 -24 -62 -65 -102
-29 -28 -41 -47 -41 -68 0 -33 -16 -67 -31 -67 -6 0 -8 9 -4 20 7 23 2 25 -25
8 -29 -18 -36 -1 -9 21 l24 20 -27 1 c-16 0 -28 -3 -28 -8 0 -14 -66 -43 -83
-36 -15 6 -17 -5 -17 -121 0 -120 1 -126 19 -120 13 4 23 0 30 -12 10 -17 11
-16 17 5 10 35 24 26 24 -17 0 -49 -8 -71 -26 -71 -10 0 -13 7 -9 23 5 18 1
26 -20 35 -14 7 -28 12 -30 12 -3 0 -5 -135 -5 -300 l0 -300 500 0 501 0 24
26 c30 32 30 31 5 69 -26 39 -25 67 3 93 32 30 37 28 37 -14 0 -28 -3 -35 -15
-30 -10 4 -15 -1 -15 -14 0 -11 7 -20 15 -20 21 0 20 -73 -1 -94 -14 -15 31
-16 490 -16 l506 0 6 28 c3 15 10 40 15 56 5 16 9 42 9 57 0 16 5 29 11 29 13
0 8 -66 -9 -132 l-10 -38 304 0 c261 0 303 2 298 14 -8 20 -69 66 -88 66 -9 0
-16 6 -16 13 0 19 75 77 99 77 10 0 21 5 23 12 6 16 28 0 28 -20 1 -31 34 -60
77 -67 59 -9 106 32 107 96 1 38 -2 44 -21 47 -42 6 -23 30 55 70 83 44 178
96 229 127 l33 20 0 1373 0 1372 -615 0 c-403 0 -615 -3 -615 -10 0 -5 -9 -10
-20 -10 -11 0 -20 5 -20 10 0 6 -9 10 -20 10 -11 0 -20 -7 -20 -15 0 -8 -7
-15 -15 -15 -8 0 -15 7 -15 15 0 13 -36 15 -265 15 -236 0 -265 -2 -265 -16 0
-20 -39 -53 -63 -54 -24 0 -34 30 -14 42 35 19 14 28 -63 28 -47 0 -80 -4 -80
-10 0 -5 -7 -10 -15 -10 -8 0 -15 5 -15 10 0 18 -16 11 -29 -13 -10 -19 -10
-34 1 -78 21 -81 13 -136 -20 -142 -36 -7 -36 -6 -23 50 7 27 11 81 9 121 l-3
72 -507 0 -508 0 0 -345z m1830 278 c-1 -15 -39 -58 -45 -51 -8 8 24 58 36 58
5 0 9 -3 9 -7z m540 -27 c0 -16 -34 -31 -50 -21 -15 10 -12 23 8 28 32 9 42 7
42 -7z m-2206 -31 c16 -12 17 -18 8 -27 -9 -9 -15 -8 -27 8 -26 35 -16 45 19
19z m1771 -45 c10 -31 -34 -66 -50 -40 -6 10 23 60 35 60 5 0 12 -9 15 -20z
m-1665 -55 c37 -38 42 -47 30 -55 -8 -6 -21 -8 -28 -5 -8 3 -19 5 -26 5 -17 0
-48 63 -40 83 9 25 15 22 64 -28z m1860 29 c0 -10 -33 -33 -47 -34 -21 0 -14
20 10 30 27 11 37 12 37 4z m-2046 -20 c9 -24 7 -34 -8 -34 -13 0 -26 20 -26
41 0 15 27 10 34 -7z m1842 -44 c-2 -43 -16 -53 -55 -39 -37 13 -36 26 5 50
42 25 52 23 50 -11z m430 14 c-3 -9 -6 -20 -6 -25 0 -5 -4 -9 -10 -9 -11 0
-14 33 -3 43 12 13 25 7 19 -9z m-316 -23 c0 -12 -20 -25 -27 -18 -7 7 6 27
18 27 5 0 9 -4 9 -9z m280 -41 c0 -5 -7 -10 -15 -10 -8 0 -15 5 -15 10 0 6 7
10 15 10 8 0 15 -4 15 -10z m-2071 -49 c20 -16 31 -33 27 -39 -19 -30 -76 4
-76 45 0 30 7 29 49 -6z m89 11 c2 -8 -9 -12 -32 -12 -40 0 -49 16 -13 23 30
6 40 3 45 -11z m1202 -17 c0 -12 -54 -65 -67 -65 -7 0 -13 3 -13 7 0 12 33 43
47 43 7 0 13 5 13 10 0 6 5 10 10 10 6 0 10 -2 10 -5z m250 -13 c0 -5 11 -15
25 -22 33 -18 32 -32 -5 -53 -19 -12 -34 -32 -41 -57 -14 -45 -29 -53 -29 -15
0 20 -21 43 -57 60 -1 1 3 18 9 38 8 24 20 39 37 46 33 12 61 13 61 3z m-1238
-26 c19 -8 40 -22 48 -30 7 -9 20 -16 29 -16 9 0 22 -9 29 -20 7 -11 19 -20
28 -20 28 0 138 -140 122 -156 -2 -1 -20 -5 -40 -9 -30 -6 -38 -4 -38 8 0 8 7
17 15 21 25 9 17 20 -28 40 -53 25 -97 64 -97 88 0 19 -16 25 -22 8 -2 -6 -25
-1 -56 12 -41 17 -52 27 -49 40 3 10 1 21 -4 24 -16 9 -10 24 10 24 10 0 34
-6 53 -14z m1338 -16 c0 -5 -7 -10 -15 -10 -8 0 -15 5 -15 10 0 6 7 10 15 10
8 0 15 -4 15 -10z m-1440 -15 c0 -8 -7 -15 -15 -15 -16 0 -20 12 -8 23 11 12
23 8 23 -8z m-34 -33 c30 -34 27 -56 -9 -60 -19 -2 -27 1 -27 12 0 9 -8 16
-20 16 -21 0 -38 40 -25 60 11 18 54 3 81 -28z m614 -2 c0 -32 -14 -40 -24
-15 -6 18 2 45 15 45 5 0 9 -13 9 -30z m1210 10 c0 -5 11 -10 24 -10 32 0 42
-18 22 -38 -13 -14 -20 -14 -36 -5 -12 8 -21 9 -25 3 -20 -32 -33 6 -15 41 11
20 30 26 30 9z m248 -42 c-4 -30 -48 -39 -48 -10 0 24 8 32 32 32 14 0 19 -6
16 -22z m-938 -3 c0 -15 -26 -32 -36 -23 -2 3 -2 13 2 22 8 20 34 21 34 1z
m60 0 c0 -8 -4 -15 -10 -15 -5 0 -10 7 -10 15 0 8 5 15 10 15 6 0 10 -7 10
-15z m-1452 -18 c2 -10 -3 -17 -12 -17 -10 0 -16 9 -16 21 0 24 23 21 28 -4z
m892 -16 c0 -13 -29 -35 -37 -28 -7 8 15 37 28 37 5 0 9 -4 9 -9z m1380 -1 c0
-6 -10 -14 -22 -19 -20 -8 -71 -56 -157 -148 -22 -24 -51 -31 -51 -13 0 6 4
10 9 10 5 0 49 41 97 90 79 80 124 109 124 80z m-791 -40 l34 -29 -31 -30
c-18 -16 -32 -38 -32 -50 0 -12 -4 -21 -10 -21 -5 0 -10 7 -10 15 0 8 -9 23
-20 32 -24 21 -25 40 -4 81 19 39 30 39 73 2z m461 21 c0 -11 -31 -24 -39 -16
-3 3 1 10 9 15 19 12 30 12 30 1z m-1548 -38 c38 -36 35 -45 -13 -41 -49 3
-71 27 -50 52 19 22 31 20 63 -11z m488 -42 c0 -28 -15 -49 -27 -38 -8 8 7 67
18 67 5 0 9 -13 9 -29z m870 -11 c0 -11 -7 -20 -15 -20 -8 0 -15 9 -15 20 0
11 7 20 15 20 8 0 15 -9 15 -20z m-56 4 c9 -3 16 -13 16 -21 0 -20 -34 -12
-38 10 -4 19 -1 20 22 11z m-1249 -30 c0 -15 -7 -19 -39 -19 -23 0 -41 5 -43
13 -3 7 5 12 21 12 13 0 28 5 31 11 10 16 30 5 30 -17z m807 -16 c3 -23 48
-40 48 -19 0 19 28 12 35 -8 3 -11 15 -23 26 -26 27 -9 20 -39 -9 -43 -18 -3
-22 -10 -22 -39 0 -39 -18 -42 -35 -5 -5 12 -13 22 -17 22 -5 0 -8 14 -8 32
l0 31 -20 -23 c-11 -13 -20 -28 -20 -33 0 -6 -6 -18 -14 -26 -18 -21 -27 -73
-15 -91 7 -13 9 -12 9 3 0 19 25 23 36 6 3 -6 19 -9 35 -5 36 7 38 -7 4 -22
-24 -11 -47 -49 -49 -82 -1 -8 -10 -15 -21 -15 -20 0 -22 10 -10 52 6 17 2 22
-17 25 -29 4 -38 66 -14 103 9 14 16 34 16 45 0 11 9 38 20 60 11 22 20 48 20
60 0 27 18 26 22 -2z m556 -16 c2 -7 -5 -12 -17 -12 -11 0 -23 -4 -26 -10 -8
-12 -45 -13 -45 -1 0 5 -24 -15 -52 -45 -29 -30 -59 -54 -65 -54 -18 0 -16
-17 2 -24 8 -3 15 -10 15 -16 0 -17 -26 -11 -44 9 -15 16 -15 22 -4 40 7 12
17 20 22 18 12 -4 106 86 106 101 0 16 102 11 108 -6z m-280 -21 c24 -21 28
-31 10 -31 -14 0 -48 30 -48 42 0 13 13 9 38 -11z m-648 -46 c0 -32 -4 -45
-14 -45 -19 0 -27 24 -19 60 9 48 33 38 33 -15z m2045 35 c9 -15 -14 -40 -36
-40 -20 0 -23 8 -13 34 7 18 39 22 49 6z m-2285 -25 c0 -8 -4 -15 -10 -15 -5
0 -10 7 -10 15 0 8 5 15 10 15 6 0 10 -7 10 -15z m-564 -6 c7 -12 -12 -29 -33
-29 -7 0 -13 9 -13 20 0 22 34 28 46 9z m1874 -14 c0 -10 10 -15 30 -15 35 0
38 -13 10 -57 -22 -37 -45 -45 -35 -12 6 19 4 21 -16 16 -16 -4 -32 1 -46 13
-29 23 -29 30 -1 27 17 -1 24 4 26 21 4 24 32 31 32 7z m-1380 -19 c0 -8 7
-16 15 -20 27 -10 16 -26 -19 -26 -43 0 -52 13 -29 39 22 23 33 26 33 7z
m1130 -6 c0 -12 -40 -33 -48 -25 -4 4 2 13 12 21 23 16 36 18 36 4z m-1702
-27 c28 -7 28 -19 0 -26 -14 -4 -29 0 -40 10 -23 21 -23 37 0 28 9 -4 27 -10
40 -12z m895 -58 c-1 -22 -3 -58 -6 -80 -2 -22 -4 -52 -5 -67 -1 -16 -8 -28
-15 -28 -9 0 -12 23 -13 79 0 49 -5 86 -13 95 -16 20 5 47 34 43 17 -2 20 -9
18 -42z m-273 20 c0 -8 -4 -15 -10 -15 -5 0 -10 7 -10 15 0 8 5 15 10 15 6 0
10 -7 10 -15z m1185 -35 c4 -25 12 -40 21 -40 17 0 18 -12 2 -28 -18 -18 -41
-15 -34 4 3 8 2 12 -4 9 -6 -3 -10 -13 -10 -21 0 -19 -29 -18 -71 3 -19 9 -36
18 -39 20 -8 7 24 23 47 23 16 0 20 5 16 19 -3 14 3 23 24 34 40 21 41 21 48
-23z m135 1 c0 -12 -20 -25 -27 -18 -7 7 6 27 18 27 5 0 9 -4 9 -9z m-1940
-16 c0 -8 -4 -15 -10 -15 -5 0 -10 7 -10 15 0 8 5 15 10 15 6 0 10 -7 10 -15z
m700 -29 c0 -18 -15 -36 -31 -36 -22 0 -24 11 -7 28 11 11 38 17 38 8z m-596
-31 c22 -33 22 -33 -24 -33 -22 0 -40 1 -40 4 0 10 33 54 40 54 4 0 15 -11 24
-25z m286 5 c0 -11 -7 -20 -15 -20 -17 0 -18 2 -9 24 9 23 24 20 24 -4z m190
7 c0 -16 -47 -44 -56 -34 -7 7 35 46 49 47 4 0 7 -6 7 -13z m-246 -3 c26 -10
18 -21 -14 -21 -18 0 -30 6 -30 14 0 14 18 17 44 7z m990 -10 c10 -26 7 -34
-15 -34 -15 0 -19 4 -15 16 3 9 6 20 6 25 0 15 17 10 24 -7z m-854 -9 c0 -8 9
-15 20 -15 11 0 20 -6 20 -14 0 -8 3 -21 6 -30 11 -29 -33 -18 -60 15 -31 37
-33 59 -6 59 11 0 20 -7 20 -15z m1178 -2 c-3 -44 2 -53 32 -53 40 0 38 -14
-7 -37 -41 -20 -66 -53 -45 -60 22 -8 13 -30 -19 -43 -26 -11 -32 -11 -39 1
-7 11 -13 10 -32 -8 -32 -30 -188 -30 -188 0 0 13 5 17 14 14 17 -7 76 8 124
30 25 12 36 13 45 4 16 -16 20 -15 59 32 33 40 34 44 14 40 -40 -8 -42 26 -4
62 39 38 48 41 46 18z m1282 -22 c14 -26 13 -74 -2 -89 -7 -7 -32 -12 -56 -12
l-44 0 7 37 c10 52 21 71 47 76 13 2 26 5 30 6 4 0 12 -8 18 -18z m-1857 -31
c9 -22 17 -46 17 -53 0 -6 7 -21 15 -31 8 -11 15 -23 15 -28 0 -14 -30 -8 -36
7 -4 8 -15 15 -25 15 -22 0 -26 38 -6 59 10 10 7 16 -11 31 -13 11 -21 24 -17
30 13 20 31 9 48 -30z m357 24 c0 -12 6 -15 25 -10 14 4 25 2 25 -4 0 -10 -21
-16 -87 -23 -44 -5 -51 1 -37 37 9 22 74 22 74 0z m-1240 -33 c0 -17 -18 -31
-41 -31 -10 0 -12 33 -2 43 14 15 43 7 43 -12z m405 -11 c3 -11 13 -20 21 -20
8 0 14 -4 14 -10 0 -15 -19 -12 -36 5 -8 8 -21 12 -29 9 -18 -7 -20 7 -3 24
17 17 26 15 33 -8z m-168 -16 c3 -8 1 -25 -5 -37 -31 -61 -7 -89 28 -32 12 19
28 35 35 35 7 0 15 6 18 13 3 9 7 9 20 -2 22 -18 22 -31 -1 -31 -10 0 -29 -12
-43 -27 -14 -16 -34 -33 -44 -39 -11 -6 -21 -20 -23 -31 -3 -19 -51 -43 -83
-43 -20 1 -59 35 -59 53 0 36 11 46 46 40 38 -6 73 24 74 64 0 47 24 71 37 37z
m1343 -4 c0 -5 -7 -10 -15 -10 -8 0 -15 5 -15 10 0 6 7 10 15 10 8 0 15 -4 15
-10z m-1512 -26 c3 -23 -21 -49 -38 -39 -5 3 -10 20 -10 36 0 26 3 30 23 27
13 -2 23 -11 25 -24z m623 16 c24 -13 24 -25 -1 -50 -25 -25 -34 -25 -27 0 3
13 -1 21 -14 25 -22 7 -25 21 -6 28 19 8 27 8 48 -3z m1584 -2 c27 -12 36 -34
9 -24 -9 3 -27 9 -40 12 -26 7 -33 24 -9 24 8 0 26 -5 40 -12z m-965 -13 c0
-8 -4 -15 -10 -15 -5 0 -10 7 -10 15 0 8 5 15 10 15 6 0 10 -7 10 -15z m1300
6 c0 -8 -43 -41 -55 -41 -15 0 -2 32 18 40 29 12 37 12 37 1z m-2815 -21 c10
-11 26 -20 37 -20 10 0 18 -6 18 -14 0 -8 16 -23 35 -35 40 -23 54 -49 34 -61
-10 -7 -6 -12 14 -19 16 -6 33 -11 38 -11 5 0 9 -5 9 -11 0 -30 -129 23 -178
73 -60 60 -91 118 -57 104 8 -3 15 -1 15 4 0 16 16 11 35 -10z m1365 -15 c0
-8 -9 -15 -20 -15 -20 0 -26 11 -13 23 12 13 33 7 33 -8z m350 -4 c0 -12 -20
-25 -27 -18 -7 7 6 27 18 27 5 0 9 -4 9 -9z m-1490 -56 c5 -14 16 -25 25 -25
8 0 15 -4 15 -10 0 -14 -57 -13 -66 1 -3 6 -17 8 -30 5 -17 -5 -24 -2 -24 9 0
8 9 15 20 15 11 0 23 7 26 15 9 22 23 18 34 -10z m2100 3 c0 -11 -11 -23 -25
-28 -14 -5 -25 -13 -25 -18 0 -5 -13 -9 -30 -9 -17 0 -30 6 -30 13 0 7 -6 14
-12 17 -10 3 -8 10 6 25 25 29 116 29 116 0z m60 12 c0 -5 -7 -10 -15 -10 -8
0 -15 5 -15 10 0 6 7 10 15 10 8 0 15 -4 15 -10z m-760 -75 c0 -8 -7 -15 -15
-15 -8 0 -15 7 -15 15 0 8 7 15 15 15 8 0 15 -7 15 -15z m-590 -14 c0 -15 -8
-21 -32 -23 -23 -2 -36 -10 -43 -25 -11 -25 -25 -31 -25 -10 0 17 19 40 50 61
32 21 50 20 50 -3z m-760 -21 c0 -23 -8 -25 -32 -6 -25 18 -22 26 7 26 18 0
25 -5 25 -20z m640 0 c0 -11 -7 -20 -15 -20 -8 0 -15 9 -15 20 0 11 7 20 15
20 8 0 15 -9 15 -20z m310 5 c0 -8 -4 -15 -10 -15 -5 0 -10 7 -10 15 0 8 5 15
10 15 6 0 10 -7 10 -15z m-85 -15 c0 -8 -8 -16 -17 -18 -13 -2 -18 3 -18 18 0
15 5 20 18 18 9 -2 17 -10 17 -18z m995 -5 c0 -26 -7 -29 -34 -19 -19 7 -21
30 -3 37 26 11 37 6 37 -18z m-1760 1 c0 -15 -88 -61 -99 -51 -9 9 61 64 82
65 9 0 17 -6 17 -14z m218 -14 c3 -17 -2 -22 -18 -22 -16 0 -20 4 -16 16 3 9
6 20 6 26 0 19 25 1 28 -20z m698 17 c3 -6 17 -8 30 -5 14 4 24 2 24 -4 0 -5
-4 -10 -8 -10 -5 0 -19 -20 -32 -45 -13 -25 -27 -45 -32 -45 -11 0 -10 7 3 32
8 14 8 23 0 31 -13 13 -15 57 -2 57 6 0 13 -5 17 -11z m-416 -8 c0 -10 -30
-24 -37 -17 -3 3 -2 9 2 15 8 13 35 15 35 2z m140 -31 c0 -12 7 -20 16 -20 9
0 14 -7 12 -17 -4 -22 -16 -23 -46 -1 -20 13 -22 19 -13 37 15 27 31 27 31 1z
m-540 -20 c0 -5 -7 -10 -15 -10 -8 0 -15 5 -15 10 0 6 7 10 15 10 8 0 15 -4
15 -10z m410 -13 c0 -14 -20 -37 -32 -37 -10 0 -11 34 -1 43 11 12 33 8 33 -6z
m218 -19 c-3 -7 -13 -13 -23 -13 -10 0 -20 6 -22 13 -3 7 5 12 22 12 17 0 25
-5 23 -12z m-163 -24 c28 -18 33 -34 10 -34 -8 0 -15 -4 -15 -10 0 -5 -4 -10
-10 -10 -5 0 -10 7 -10 16 0 9 -9 18 -20 21 -25 7 -26 20 -2 26 9 3 18 5 20 6
1 0 14 -6 27 -15z m1883 -3 c3 -8 -1 -12 -9 -9 -7 2 -15 10 -17 17 -3 8 1 12
9 9 7 -2 15 -10 17 -17z m-2067 -3 c0 -10 2 -10 6 0 8 21 31 13 68 -23 35 -35
35 -36 18 -60 -23 -32 -29 -31 -63 6 -23 26 -33 30 -56 25 -16 -4 -30 -3 -34
3 -22 36 -221 31 -248 -6 -10 -15 -14 -15 -21 -4 -7 11 -13 11 -32 -3 -29 -20
-39 -20 -39 -2 0 17 -27 22 -190 38 -71 7 -130 16 -130 20 0 4 156 7 346 7
191 0 349 3 352 6 10 9 22 5 23 -7z m664 -9 c5 -6 4 -14 -3 -21 -9 -9 -15 -9
-24 0 -7 7 -22 12 -35 12 -22 0 -30 10 -17 23 8 8 66 -3 79 -14z m793 6 c11
-11 -8 -16 -72 -17 -70 -1 -83 3 -71 23 8 11 131 7 143 -6z m402 5 c0 -5 -9
-10 -20 -10 -11 0 -20 5 -20 10 0 6 9 10 20 10 11 0 20 -4 20 -10z m430 0 c0
-5 -11 -10 -25 -10 -14 0 -25 5 -25 10 0 6 11 10 25 10 14 0 25 -4 25 -10z
m-1760 -26 c0 -13 5 -26 10 -29 14 -9 12 -25 -2 -25 -7 0 -24 -6 -39 -13 -32
-17 -139 -31 -139 -18 0 5 6 11 13 14 6 2 9 8 5 12 -8 9 -38 -18 -38 -35 0 -6
-8 -10 -17 -8 -13 3 -17 12 -16 31 1 16 -3 27 -11 27 -11 0 -56 44 -56 55 0 5
80 10 198 11 89 1 92 0 92 -22z m350 16 c8 -5 12 -11 10 -13 -9 -7 -90 5 -90
14 0 12 61 11 80 -1z m360 0 c0 -5 -9 -10 -20 -10 -11 0 -20 5 -20 10 0 6 9
10 20 10 11 0 20 -4 20 -10z m115 -43 c31 -3 31 -35 -1 -47 -15 -6 -28 -9 -28
-8 -1 2 -10 15 -19 30 -22 36 -21 42 6 34 12 -4 31 -8 42 -9z m-1116 -6 c8 -6
10 -14 5 -22 -5 -8 -7 -22 -6 -31 4 -20 -19 -24 -49 -8 -24 13 -25 46 -1 59
21 13 33 13 51 2z m-649 -46 c0 -8 -4 -15 -10 -15 -5 0 -10 7 -10 15 0 8 5 15
10 15 6 0 10 -7 10 -15z m310 -12 c0 -5 -4 -15 -10 -23 -11 -18 -25 -7 -17 15
6 15 27 21 27 8z m40 -11 c0 -4 -9 -25 -20 -47 l-21 -40 25 27 c13 15 26 33
29 40 2 7 7 10 11 7 23 -22 -46 -95 -78 -83 -16 6 -23 34 -8 34 5 0 16 16 25
35 15 31 37 48 37 27z m-262 -20 c2 -7 -3 -12 -12 -12 -9 0 -16 7 -16 16 0 17
22 14 28 -4z m518 4 c10 -8 16 -17 12 -21 -8 -8 -48 13 -48 25 0 14 13 12 36
-4z m-354 -47 c-4 -49 -6 -54 -21 -44 -12 7 -15 78 -4 89 17 16 28 -4 25 -45z
m-42 12 c0 -5 -7 -12 -16 -15 -28 -11 -54 -6 -54 9 0 10 11 15 35 15 19 0 35
-4 35 -9z m-412 -23 c-7 -20 -48 -23 -48 -4 0 11 9 16 26 16 16 0 24 -5 22
-12z m2108 -23 c19 -19 14 -49 -8 -53 -20 -4 -40 30 -32 52 8 20 21 20 40 1z
m-1266 -20 c0 -8 -7 -15 -15 -15 -16 0 -20 12 -8 23 11 12 23 8 23 -8z m74 0
c3 -8 17 -15 31 -15 28 0 35 -20 8 -20 -10 0 -26 -6 -35 -13 -15 -12 -15 -14
3 -25 20 -13 27 -52 9 -52 -5 0 -10 5 -10 10 0 6 -11 15 -24 21 -43 20 -43
107 0 109 7 0 14 -7 18 -15z m399 -11 c47 -8 48 -24 2 -24 -20 0 -48 -6 -63
-14 -15 -7 -42 -17 -60 -21 -31 -6 -33 -5 -30 16 6 41 62 57 151 43z m-1440
-14 c27 0 27 -1 23 -47 -4 -41 -10 -53 -43 -80 -38 -32 -53 -37 -60 -16 -2 6
8 13 22 17 14 4 25 11 25 16 0 14 -18 12 -22 -2 -5 -13 -58 29 -58 46 0 6 10
16 23 21 16 7 21 17 19 34 -3 21 -1 23 20 18 12 -4 35 -7 51 -7z m775 -34 c0
-25 3 -54 7 -65 5 -16 2 -20 -17 -19 -13 1 -28 6 -35 11 -8 6 -22 2 -40 -11
-25 -17 -38 -23 -94 -38 -11 -3 -22 11 -38 47 l-24 51 21 21 c12 11 25 18 29
14 3 -4 2 -12 -4 -18 -16 -16 26 -79 51 -79 22 0 56 27 56 45 0 13 45 55 60
55 6 0 10 7 10 15 0 8 4 15 8 15 5 0 9 -20 10 -44z m-688 4 c0 -12 -40 -34
-47 -26 -9 8 17 36 33 36 8 0 14 -4 14 -10z m84 -7 c5 -11 -1 -23 -15 -34 -16
-12 -19 -18 -9 -24 9 -5 26 6 52 33 42 45 53 50 62 27 3 -9 18 -15 36 -15 19
0 33 -6 37 -16 7 -19 -14 -44 -25 -28 -4 6 -26 10 -50 9 -44 -3 -72 -30 -72
-71 0 -19 -21 -29 -31 -13 -7 11 -11 10 -23 -6 -9 -11 -16 -25 -16 -31 0 -6
-18 -14 -39 -18 -34 -5 -40 -10 -46 -36 -4 -16 -11 -30 -17 -30 -15 0 0 48 22
73 28 29 27 71 0 62 -35 -11 -23 16 28 62 26 23 54 49 62 57 21 20 37 19 44
-1z m752 -24 c4 -7 0 -15 -8 -20 -10 -5 -14 -18 -10 -34 3 -18 0 -25 -12 -25
-16 0 -24 68 -9 83 10 11 31 8 39 -4z m44 -19 c0 -5 -7 -10 -15 -10 -8 0 -15
5 -15 10 0 6 7 10 15 10 8 0 15 -4 15 -10z m480 -9 c0 -19 -35 -39 -47 -27 -7
7 26 46 39 46 4 0 8 -9 8 -19z m-433 -18 c7 -15 10 -29 7 -32 -10 -10 -39 16
-42 38 -5 30 20 26 35 -6z m550 11 c23 -11 32 -22 28 -32 -8 -21 12 -41 35
-35 11 3 20 1 20 -5 0 -6 9 -8 20 -5 24 6 39 -22 21 -40 -9 -9 -14 -9 -20 1
-4 7 -25 15 -47 19 -50 7 -64 19 -64 53 0 19 -6 29 -20 33 -11 3 -20 10 -20
16 0 15 6 14 47 -5z m-187 -8 c0 -7 -7 -19 -15 -26 -8 -7 -15 -19 -15 -26 0
-19 -16 -18 -24 1 -3 8 -12 15 -21 15 -25 0 -17 15 18 33 40 20 57 21 57 3z
m-1080 -31 c5 -14 14 -25 20 -25 16 0 12 -42 -7 -62 -15 -17 -15 -21 -1 -51 9
-19 14 -45 11 -60 -6 -31 -23 -36 -23 -7 0 26 1 26 -75 -20 -76 -47 -78 -47
-70 -17 6 20 4 20 -19 -5 -28 -31 -36 -34 -36 -15 0 17 39 53 67 61 12 4 32
19 43 33 25 32 39 23 16 -12 -21 -31 -10 -32 29 0 l29 24 -22 21 c-28 27 -28
38 4 71 26 27 25 49 -2 49 -17 0 -18 12 -2 28 18 18 27 15 38 -13z m508 -14
c3 -8 -1 -12 -9 -9 -7 2 -15 10 -17 17 -3 8 1 12 9 9 7 -2 15 -10 17 -17z
m695 -10 c15 -8 27 -18 27 -22 0 -12 -53 -7 -62 6 -10 13 -10 38 0 33 4 -2 19
-10 35 -17z m-1045 -14 c6 -7 18 -35 27 -62 10 -28 24 -58 32 -67 8 -9 12 -21
9 -27 -10 -15 -66 -10 -66 6 0 7 -4 13 -10 13 -5 0 -10 -3 -10 -7 0 -11 -49
-67 -53 -62 -2 2 -10 19 -17 37 -13 33 -12 34 33 78 48 46 58 70 32 80 -8 4
-15 10 -15 15 0 13 26 11 38 -4z m321 -9 c11 -10 14 -10 18 0 8 21 23 13 23
-13 0 -17 -5 -25 -17 -25 -22 1 -53 23 -53 39 0 15 13 14 29 -1z m119 -60 c-2
-42 -7 -54 -21 -56 -14 -3 -18 1 -14 15 3 10 8 35 12 56 9 56 27 45 23 -15z
m837 27 c0 -10 -6 -20 -12 -22 -8 -3 -13 5 -13 22 0 17 5 25 13 23 6 -3 12
-13 12 -23z m-92 -37 c7 -47 -5 -56 -63 -50 -41 4 -50 2 -50 -12 0 -9 -4 -16
-10 -16 -11 0 -13 20 -4 43 4 11 15 14 40 10 30 -5 35 -2 51 26 23 39 30 39
36 -1z m147 -3 c0 -8 -4 -15 -10 -15 -5 0 -10 7 -10 15 0 8 5 15 10 15 6 0 10
-7 10 -15z m-584 -17 c4 -6 0 -16 -9 -23 -10 -7 -17 -20 -17 -29 0 -19 26 -22
33 -3 3 8 10 6 21 -8 21 -27 15 -39 -22 -43 -38 -4 -52 -38 -34 -86 13 -35 8
-46 -13 -25 -18 18 -28 216 -11 223 21 8 45 6 52 -6z m634 4 c0 -5 -9 -17 -21
-28 -13 -12 -18 -26 -15 -40 4 -14 0 -24 -10 -28 -44 -17 -45 33 -3 74 32 30
49 38 49 22z m-560 -12 c0 -5 -13 -10 -30 -10 -16 0 -30 5 -30 10 0 6 14 10
30 10 17 0 30 -4 30 -10z m-685 -30 c0 -8 -8 -16 -17 -18 -13 -2 -18 3 -18 18
0 15 5 20 18 18 9 -2 17 -10 17 -18z m1105 10 c0 -5 -4 -10 -10 -10 -5 0 -10
-7 -10 -15 0 -8 -7 -15 -15 -15 -18 0 -20 21 -3 38 15 15 38 16 38 2z m-1530
-10 c0 -5 -11 -10 -25 -10 -14 0 -25 5 -25 10 0 6 11 10 25 10 14 0 25 -4 25
-10z m1560 -5 c0 -8 -7 -15 -15 -15 -16 0 -20 12 -8 23 11 12 23 8 23 -8z
m145 -12 c10 -16 24 -32 32 -36 13 -8 19 -47 7 -47 -6 0 -39 34 -72 74 -13 16
-9 36 7 36 5 0 17 -12 26 -27z m-987 -27 c4 -51 -5 -86 -22 -86 -10 0 -13 13
-12 46 1 25 -2 48 -6 50 -18 12 -7 35 15 32 18 -2 23 -10 25 -42z m628 -3 c19
-25 17 -35 -5 -28 -11 3 -22 1 -26 -5 -9 -15 -35 -12 -35 4 0 11 35 44 49 45
2 1 10 -7 17 -16z m-103 0 c3 -5 8 -23 12 -41 6 -31 5 -33 -13 -28 -11 4 -23
2 -27 -4 -3 -5 -1 -10 4 -10 16 0 13 -19 -4 -37 -18 -17 -17 -17 -35 16 -11
22 -10 27 14 47 14 13 26 32 26 44 0 19 14 28 23 13z m-1023 -48 c0 -8 4 -15
9 -15 5 0 11 -9 14 -20 8 -30 25 -24 48 15 19 32 39 46 39 28 0 -27 -23 -82
-35 -87 -8 -3 -15 -16 -15 -28 0 -35 -57 -112 -175 -235 -77 -81 -113 -113
-130 -113 -13 0 -31 -10 -39 -22 -19 -27 -13 -36 9 -14 35 35 45 16 16 -28
-13 -20 -18 -39 -14 -57 7 -35 -4 -79 -18 -79 -6 0 -9 6 -6 14 5 14 -10 36
-25 36 -4 0 -8 -8 -8 -18 0 -26 -60 -78 -98 -87 -27 -6 -32 -4 -32 12 0 11 -4
23 -9 29 -5 5 -13 26 -17 48 -9 52 17 45 29 -8 12 -47 32 -56 61 -25 43 48 79
159 51 159 -16 0 -20 6 -28 40 -6 24 -5 25 53 27 77 2 114 20 118 57 3 24 7
27 27 23 14 -2 22 0 19 5 -3 4 8 20 25 34 17 14 31 35 31 46 0 14 5 18 15 14
9 -3 15 0 15 8 0 7 11 23 25 36 34 32 32 40 -10 40 -33 0 -35 -2 -46 -45 -14
-57 -28 -58 -29 -2 0 23 -1 55 -2 71 0 18 7 35 18 43 23 17 34 17 34 -2 0 -8
11 -22 25 -31 24 -16 27 -16 45 1 26 23 25 51 0 67 -28 18 -27 78 2 78 4 0 8
-7 8 -15z m1390 -4 c0 -27 -15 -41 -41 -41 -16 0 -29 5 -29 10 0 6 6 10 14 10
7 0 19 7 26 15 14 17 30 20 30 6z m1110 -16 c0 -8 -4 -15 -10 -15 -5 0 -10 7
-10 15 0 8 5 15 10 15 6 0 10 -7 10 -15z m-1026 -21 c9 -22 -3 -32 -14 -14
-12 19 -12 30 -1 30 5 0 12 -7 15 -16z m120 -46 c22 -43 20 -48 -14 -48 -16 0
-30 4 -30 9 0 5 -13 14 -30 20 -16 5 -30 14 -30 20 0 18 21 23 37 9 13 -11 18
-10 27 5 15 24 22 22 40 -15z m-1105 -15 c6 -20 7 -41 2 -47 -17 -23 -19 -56
-4 -65 9 -4 13 -13 9 -20 -10 -15 -36 -14 -37 2 -5 47 -8 144 -4 155 8 23 24
12 34 -25z m874 16 c31 -16 31 -16 13 -35 -16 -15 -18 -15 -35 0 -10 9 -23 16
-29 16 -16 0 -15 17 1 23 19 8 27 8 50 -4z m97 -14 c0 -8 -4 -15 -10 -15 -5 0
-10 7 -10 15 0 8 5 15 10 15 6 0 10 -7 10 -15z m-482 -33 c2 -13 -3 -25 -13
-28 -20 -8 -32 3 -18 17 6 6 9 18 6 27 -4 10 -1 13 8 10 8 -2 15 -14 17 -26z
m252 11 c11 -10 20 -23 20 -30 0 -7 7 -13 15 -13 8 0 15 -4 15 -10 0 -15 -19
-12 -37 5 -14 14 -17 13 -39 -10 -12 -14 -28 -25 -34 -25 -5 0 -10 -7 -10 -15
0 -8 -4 -15 -10 -15 -5 0 -10 7 -10 15 0 8 3 15 8 15 9 0 32 49 32 70 0 33 20
38 50 13z m492 -41 c13 -16 51 -42 85 -57 44 -20 63 -34 67 -51 4 -13 13 -24
22 -24 18 0 44 -24 44 -40 0 -6 -8 -9 -17 -7 -10 3 -35 8 -55 12 -40 6 -49 19
-22 29 13 5 14 9 4 21 -7 8 -17 15 -22 15 -5 0 -26 11 -46 25 -24 16 -40 21
-46 15 -6 -6 -13 -10 -17 -10 -8 0 -49 76 -49 90 0 20 29 9 52 -18z m-1872 8
c0 -5 -7 -10 -15 -10 -8 0 -15 5 -15 10 0 6 7 10 15 10 8 0 15 -4 15 -10z
m1080 -15 c0 -8 -5 -15 -11 -15 -7 0 -8 -11 -4 -30 6 -26 4 -30 -14 -30 -12 0
-21 5 -21 10 0 6 -6 10 -14 10 -14 0 -46 36 -46 52 0 13 22 9 40 -7 15 -14 19
-13 35 5 22 24 35 26 35 5z m-1120 -7 c0 -6 -7 -20 -17 -30 -13 -15 -14 -23
-4 -44 12 -28 7 -44 -14 -44 -20 0 -45 -40 -45 -72 0 -37 -16 -36 -24 3 -6 32
13 73 40 83 8 3 14 17 14 31 0 30 26 85 40 85 6 0 10 -5 10 -12z m1710 -18 c0
-5 -11 -10 -25 -10 -14 0 -25 5 -25 10 0 6 11 10 25 10 14 0 25 -4 25 -10z
m-1800 -20 c0 -11 -4 -20 -10 -20 -5 0 -10 9 -10 20 0 11 5 20 10 20 6 0 10
-9 10 -20z m1330 0 c0 -11 -4 -20 -10 -20 -5 0 -10 9 -10 20 0 11 5 20 10 20
6 0 10 -9 10 -20z m-20 -47 c0 -17 -19 -35 -29 -29 -18 12 -12 36 9 36 11 0
20 -3 20 -7z m-1190 -13 c0 -5 -7 -10 -15 -10 -8 0 -15 5 -15 10 0 6 7 10 15
10 8 0 15 -4 15 -10z m1260 0 c0 -5 -7 -10 -15 -10 -8 0 -15 5 -15 10 0 6 7
10 15 10 8 0 15 -4 15 -10z m678 -34 c3 -13 -1 -17 -14 -14 -11 2 -20 11 -22
22 -3 13 1 17 14 14 11 -2 20 -11 22 -22z m-608 -23 c12 -46 20 -58 43 -66 23
-9 22 -27 -2 -27 -11 0 -26 -3 -34 -6 -18 -6 -28 23 -30 89 -2 56 8 61 23 10z
m-1490 17 c0 -5 -9 -10 -20 -10 -11 0 -20 5 -20 10 0 6 9 10 20 10 11 0 20 -4
20 -10z m2338 -2 c-5 -15 -48 -24 -48 -10 0 14 12 22 33 22 10 0 17 -5 15 -12z
m-614 -14 c10 -26 7 -36 -8 -31 -20 8 -38 -16 -30 -38 5 -13 3 -16 -7 -13 -20
7 -23 43 -5 61 9 9 16 20 16 26 0 17 27 13 34 -5z m51 -4 c10 -11 15 -23 12
-27 -8 -7 -47 25 -47 39 0 14 16 9 35 -12z m-432 -35 c28 -26 44 -34 59 -29
15 4 19 2 16 -7 -3 -8 -13 -16 -24 -18 -10 -2 -23 -8 -27 -15 -6 -8 -10 -7
-14 4 -4 8 -19 26 -35 40 -26 22 -39 60 -20 60 4 0 24 -16 45 -35z m-1420 -12
c6 -32 3 -38 -12 -28 -13 8 -15 55 -2 55 5 0 11 -12 14 -27z m872 8 c3 -11 16
-21 28 -23 14 -2 23 -11 25 -25 3 -23 -12 -31 -23 -13 -8 13 -25 3 -25 -16 0
-8 9 -14 20 -14 11 0 20 -4 20 -10 0 -5 -9 -19 -20 -30 -23 -23 -26 -40 -7
-40 16 0 43 -47 33 -57 -4 -4 -15 -2 -24 5 -9 7 -25 15 -34 18 -10 4 -19 16
-19 28 -4 66 -3 188 0 192 9 9 20 3 26 -15z m1365 -31 c0 -33 -19 -40 -40 -15
-11 13 -10 18 6 30 28 21 34 18 34 -15z m-132 -39 c3 -8 -1 -12 -9 -9 -7 2
-15 10 -17 17 -3 8 1 12 9 9 7 -2 15 -10 17 -17z m-548 -16 c0 -8 -4 -15 -10
-15 -5 0 -10 7 -10 15 0 8 5 15 10 15 6 0 10 -7 10 -15z m768 -3 c2 -8 -8 -12
-27 -12 -33 0 -42 16 -13 23 23 6 35 3 40 -11z m102 8 c0 -5 -20 -10 -45 -10
-25 0 -45 5 -45 10 0 6 20 10 45 10 25 0 45 -4 45 -10z m-915 -30 c10 -11 25
-20 34 -20 28 -1 63 -37 56 -59 -14 -46 -35 -48 -72 -6 -28 33 -63 89 -63 102
0 11 30 0 45 -17z m315 -35 c0 -26 -14 -33 -25 -15 -9 14 1 40 15 40 5 0 10
-11 10 -25z m60 -5 c0 -5 7 -10 15 -10 9 0 18 -7 21 -15 4 -8 14 -15 24 -15
10 0 22 -9 25 -21 7 -22 -5 -43 -12 -21 -3 6 -11 12 -19 12 -8 0 -14 5 -14 10
0 6 -6 10 -14 10 -8 0 -18 9 -21 20 -5 15 -12 19 -26 15 -13 -4 -19 -2 -19 9
0 9 9 16 20 16 11 0 20 -4 20 -10z m251 -41 c7 -14 8 -24 1 -31 -15 -15 -32 0
-32 28 0 30 15 31 31 3z m-1451 -14 c0 -8 -4 -15 -10 -15 -5 0 -10 7 -10 15 0
8 5 15 10 15 6 0 10 -7 10 -15z m1008 0 c32 -9 27 -27 -5 -19 -46 10 -53 13
-53 24 0 6 8 9 18 6 9 -2 27 -7 40 -11z m-62 -20 c14 -13 14 -17 0 -31 -18
-18 -36 -11 -36 15 0 32 14 38 36 16z m410 5 c8 0 14 -7 14 -16 0 -11 -5 -14
-16 -10 -9 3 -22 6 -30 6 -8 0 -14 7 -14 16 0 11 5 14 16 10 9 -3 22 -6 30 -6z
m-188 -22 c-6 -18 -28 -21 -28 -4 0 9 7 16 16 16 9 0 14 -5 12 -12z m-20 -37
c3 -8 -1 -12 -9 -9 -7 2 -15 10 -17 17 -3 8 1 12 9 9 7 -2 15 -10 17 -17z
m-908 1 c0 -5 -11 -18 -25 -30 -14 -12 -25 -26 -25 -32 0 -5 -4 -10 -10 -10
-14 0 -12 54 2 68 14 14 58 16 58 4z m766 -46 c16 -17 19 -36 4 -36 -9 0 -30
31 -30 44 0 10 11 7 26 -8z m244 -16 c0 -11 -4 -20 -9 -20 -14 0 -23 18 -16
30 10 17 25 11 25 -10z m-790 1 c0 -12 -20 -25 -27 -18 -7 7 6 27 18 27 5 0 9
-4 9 -9z m700 -51 c0 -28 -13 -40 -24 -22 -7 12 5 52 15 52 5 0 9 -13 9 -30z
m-86 -6 c10 -25 7 -34 -9 -34 -9 0 -15 9 -15 25 0 28 15 34 24 9z m-849 -36
c6 -36 4 -43 -16 -59 -34 -26 -35 -25 -37 41 -2 58 -2 60 22 60 21 0 25 -6 31
-42z m1043 -1 c2 -15 -1 -27 -7 -27 -6 0 -11 6 -11 14 0 8 -3 22 -7 32 -4 12
-2 15 8 12 8 -2 15 -17 17 -31z m-698 -47 c0 -5 -7 -10 -15 -10 -8 0 -15 5
-15 10 0 6 7 10 15 10 8 0 15 -4 15 -10z m-60 -36 c0 -21 -4 -25 -22 -22 -28
4 -36 35 -11 41 32 8 33 7 33 -19z m700 -109 c0 -8 -9 -20 -20 -27 -11 -7 -20
-18 -20 -25 0 -7 -9 -13 -20 -13 -27 0 -25 6 12 46 35 37 48 42 48 19z"/>
<path d="M520 2760 c0 -5 7 -10 16 -10 8 0 12 5 9 10 -3 6 -10 10 -16 10 -5 0
-9 -4 -9 -10z"/>
<path d="M1280 1725 c0 -8 5 -15 10 -15 6 0 10 -7 10 -15 0 -20 66 -11 93 13
29 26 20 32 -48 32 -51 0 -65 -3 -65 -15z"/>
<path d="M610 1226 c0 -9 5 -16 10 -16 6 0 10 4 10 9 0 6 -4 13 -10 16 -5 3
-10 -1 -10 -9z"/>
<path d="M0 932 c0 -9 6 -12 16 -8 9 3 22 6 30 6 8 0 14 4 14 8 0 5 -13 9 -30
9 -19 0 -30 -5 -30 -15z"/>
<path d="M3190 231 c0 -5 -16 -15 -36 -21 -32 -11 -38 -10 -46 4 -15 26 -84
-14 -208 -121 -21 -18 -42 -33 -47 -33 -6 0 -26 -11 -46 -24 -20 -14 -46 -26
-59 -29 -13 -2 84 -5 215 -6 l237 -1 0 120 c0 66 -2 120 -5 120 -3 0 -5 -4 -5
-9z"/>
<path d="M2630 111 c0 -6 5 -13 10 -16 6 -3 10 1 10 9 0 9 -4 16 -10 16 -5 0
-10 -4 -10 -9z"/>
<path d="M2680 75 c-7 -9 -11 -18 -8 -20 9 -10 38 7 38 21 0 18 -14 18 -30 -1z"/>
</g>
</svg>

<path d="M40 3192 c0 -4 5 -13 12 -20 13 -13 -15 -52 -39 -52 -18 0 -16 -10 5
-26 16 -13 16 -15 0 -28 -24 -18 -26 -126 -3 -126 21 0 19 -30 -2 -31 -11 0
-13 -3 -6 -6 15 -6 17 -33 3 -33 -5 0 -10 -8 -10 -18 0 -13 13 -23 41 -32 31
-10 44 -22 55 -48 16 -40 11 -55 -11 -26 -21 28 -20 -4 1 -34 21 -30 10 -41
-16 -17 -33 30 -23 7 20 -44 37 -44 50 -71 33 -71 -4 0 -31 23 -60 52 -29 28
-56 48 -60 44 -4 -4 -1 -11 7 -17 13 -8 13 -10 0 -19 -13 -9 -13 -11 0 -21 11
-8 12 -12 2 -16 -6 -2 -12 -8 -12 -13 0 -14 42 -19 60 -8 14 9 25 5 56 -18 37
-28 51 -39 134 -112 42 -36 34 -53 -10 -22 -26 19 -36 21 -56 11 -45 -20 -20
-58 30 -45 46 11 148 -16 187 -49 19 -18 57 -49 82 -70 47 -38 58 -57 34 -57
-17 0 -85 35 -108 56 -11 9 -19 13 -19 7 0 -5 14 -19 30 -32 23 -16 29 -28 25
-42 -7 -21 5 -25 22 -8 14 14 68 -13 83 -40 14 -28 1 -107 -22 -128 -10 -9
-35 -17 -53 -17 -25 0 -37 -5 -41 -18 -7 -25 -19 -23 -42 7 -23 29 -37 32 -51
8 -14 -26 -36 -9 -87 65 -24 34 -45 58 -48 53 -3 -5 1 -14 9 -21 8 -7 21 -24
28 -39 7 -14 20 -36 27 -48 8 -12 11 -25 7 -29 -9 -9 -97 75 -97 92 0 6 -8 22
-18 35 -10 13 -26 50 -37 82 -10 32 -23 61 -27 64 -15 8 -22 -5 -11 -19 6 -7
16 -31 23 -53 7 -22 17 -45 22 -52 19 -24 48 -87 42 -92 -8 -8 -58 55 -79 98
-9 20 -24 52 -34 71 -10 19 -23 54 -31 78 -7 23 -17 42 -22 42 -4 0 -8 -193
-8 -430 0 -376 2 -430 15 -430 8 0 15 -4 15 -10 0 -5 -7 -10 -15 -10 -12 0
-15 -15 -15 -75 l0 -75 27 6 c23 6 25 4 19 -11 -4 -11 -1 -22 6 -26 10 -7 11
-12 0 -29 -6 -11 -12 -33 -12 -49 0 -21 -6 -32 -20 -36 -16 -5 -20 -15 -20
-56 0 -57 19 -66 46 -21 9 15 45 49 80 77 35 27 64 54 64 60 0 20 46 55 72 55
28 0 88 44 88 64 0 32 26 66 50 66 14 0 35 3 48 6 16 5 22 2 22 -10 0 -9 -8
-16 -18 -16 -11 0 -26 -8 -35 -18 -18 -20 -14 -34 8 -26 26 10 27 -18 1 -45
-14 -15 -26 -35 -26 -46 0 -25 -45 -82 -72 -90 -29 -9 -68 -44 -68 -62 0 -18
10 -16 26 4 22 31 25 8 4 -32 -51 -100 -180 -171 -210 -115 -13 25 -80 29 -80
5 0 -8 5 -15 10 -15 6 0 10 -7 10 -15 0 -8 -4 -15 -10 -15 -5 0 -10 -11 -10
-24 0 -37 32 -42 79 -11 58 36 86 31 40 -8 -28 -24 -16 -34 15 -13 33 21 39
20 31 -4 -4 -11 -2 -20 4 -20 15 0 31 34 31 67 0 21 12 40 41 68 22 22 51 61
64 86 18 35 38 55 85 82 73 44 70 43 70 11 0 -14 4 -23 9 -20 17 11 19 60 3
92 -19 40 -10 53 53 84 35 17 48 19 64 10 31 -16 26 -35 -26 -84 -43 -42 -46
-47 -35 -71 17 -38 17 -39 -44 -107 -31 -35 -60 -73 -65 -85 -5 -13 -16 -23
-26 -23 -38 -1 -83 -56 -83 -102 0 -34 -50 -69 -88 -62 -22 4 -36 -1 -60 -21
-39 -32 -41 -63 -7 -95 14 -13 25 -32 25 -43 0 -10 9 -21 20 -24 16 -4 18 -11
13 -32 -17 -70 -64 -151 -87 -151 -25 0 -41 61 -38 143 3 89 -2 105 -26 84
-10 -8 -27 -18 -39 -21 -30 -9 -30 -34 0 -38 18 -2 23 -11 28 -48 7 -47 3 -63
-10 -42 -11 17 -41 4 -41 -18 0 -20 26 -34 35 -20 11 17 35 11 35 -9 0 -11 5
-23 10 -26 14 -8 13 -62 -1 -71 -17 -10 -30 17 -25 48 7 36 -8 44 -22 13 -7
-14 -16 -25 -22 -25 -6 0 -10 -26 -10 -60 0 -33 4 -60 10 -60 6 0 10 -6 10
-14 0 -8 6 -16 13 -19 7 -2 8 -8 3 -13 -5 -5 -11 -4 -13 4 -14 39 -23 -2 -23
-108 l0 -120 86 0 c76 0 85 2 74 15 -21 25 -2 30 23 7 23 -21 30 -22 301 -22
l277 0 13 33 c8 17 17 56 21 85 8 57 14 63 33 31 11 -18 11 -23 -2 -32 -9 -7
-17 -33 -20 -64 l-5 -52 315 -1 c272 0 314 2 314 15 0 8 5 15 10 15 6 0 10 -7
10 -15 0 -14 74 -15 658 -13 l657 3 39 28 c21 15 44 27 51 27 7 0 19 7 26 17
18 20 109 91 157 120 39 24 72 30 72 13 0 -5 7 -10 15 -10 8 0 15 -4 15 -10 0
-17 -74 -160 -83 -160 -4 0 -20 9 -36 21 -35 26 -73 18 -102 -22 l-20 -29 138
0 c95 0 143 4 151 12 9 9 12 216 12 871 l0 860 -100 -6 c-103 -5 -108 -4 -86
26 15 19 126 26 126 7 0 -5 11 -10 25 -10 26 0 34 15 13 22 -9 3 -8 9 4 22 16
15 17 70 18 706 l0 690 -636 0 -636 0 6 -27 c13 -74 17 -143 7 -143 -6 0 -11
5 -11 10 0 18 -17 10 -35 -16 -12 -19 -14 -29 -5 -39 13 -16 5 -35 -14 -35
-15 0 -96 -84 -96 -100 0 -6 -18 -19 -39 -28 -22 -10 -54 -37 -73 -62 -19 -25
-44 -46 -56 -48 -16 -2 -22 -10 -22 -27 0 -13 -5 -27 -10 -30 -6 -4 -21 -28
-34 -54 -14 -26 -45 -64 -71 -85 -47 -39 -69 -41 -47 -6 7 11 12 30 12 44 0
15 20 44 55 81 30 31 55 62 55 69 0 15 52 66 68 66 6 0 18 15 26 33 8 17 27
46 43 62 59 62 74 88 68 115 -7 33 80 170 119 188 15 6 26 16 26 22 0 12 -879
14 -881 3 -1 -5 -2 -49 -3 -99 -3 -96 -8 -114 -33 -114 -13 0 -14 8 -9 40 5
32 3 40 -9 40 -17 0 -20 21 -6 36 8 8 15 58 12 92 -2 20 -891 18 -891 -3 0 -8
-4 -15 -10 -15 -5 0 -10 7 -10 15 0 8 -4 15 -10 15 -5 0 -10 -4 -10 -8z m1940
-37 c0 -8 -4 -15 -10 -15 -5 0 -10 7 -10 15 0 8 5 15 10 15 6 0 10 -7 10 -15z
m-1858 -22 c19 -17 24 -33 9 -33 -12 0 -41 29 -41 41 0 14 11 11 32 -8z m2098
-37 c0 -16 -18 -31 -27 -22 -8 8 5 36 17 36 5 0 10 -6 10 -14z m108 -15 c18
-11 8 -90 -19 -148 -10 -24 -19 -53 -19 -66 0 -55 -102 -168 -192 -212 -22
-11 -41 -24 -41 -30 2 -20 68 -3 101 26 18 16 38 29 45 30 84 8 187 5 187 -5
0 -6 -40 -52 -90 -101 -85 -85 -90 -88 -108 -72 -47 43 -108 3 -114 -73 l-3
-44 -44 -1 c-35 -1 -49 -7 -69 -30 -14 -17 -35 -34 -46 -40 -12 -6 -22 -20
-24 -32 -2 -14 -13 -23 -32 -27 -16 -3 -50 -26 -75 -51 -28 -28 -55 -45 -70
-45 -26 0 -75 -51 -75 -80 0 -24 -16 -35 -69 -48 -57 -14 -61 -11 -61 43 0 50
16 65 70 65 47 0 124 40 108 56 -3 2 -24 -5 -47 -17 -42 -20 -74 -18 -37 3 41
23 81 67 71 77 -8 8 -23 -1 -50 -29 -43 -44 -65 -51 -65 -20 0 25 59 84 110
110 37 19 44 20 83 6 47 -15 90 -14 112 4 17 14 20 40 4 40 -6 0 -8 9 -4 20 8
24 -3 25 -33 4 -35 -24 -39 -8 -8 25 19 20 45 32 87 41 68 15 78 24 53 51 -13
15 -20 16 -31 8 -27 -23 -26 1 2 41 20 29 25 44 18 51 -8 8 -16 4 -28 -15 -19
-29 -35 -34 -35 -12 0 24 -21 30 -27 7 -6 -24 -23 -28 -23 -6 0 8 -4 15 -10
15 -17 0 -11 -46 10 -73 20 -25 20 -28 5 -51 -16 -23 -77 -76 -89 -76 -16 0
-3 37 21 62 18 19 24 31 17 38 -19 19 -58 -36 -59 -82 -1 -40 -3 -43 -56 -70
-51 -27 -139 -102 -139 -120 0 -4 -4 -8 -10 -8 -17 0 -11 24 16 63 14 21 23
41 20 44 -12 13 -47 -32 -58 -74 -5 -24 -14 -43 -19 -43 -14 0 -20 39 -9 60 6
11 10 30 9 43 -5 55 1 99 14 94 21 -7 107 72 107 100 0 29 52 83 80 83 22 0
63 53 79 102 13 38 62 78 96 78 10 0 57 39 104 88 87 89 264 216 311 225 14 2
27 5 30 5 3 1 11 -2 18 -7z m-1190 -23 c-6 -18 -28 -21 -28 -4 0 9 7 16 16 16
9 0 14 -5 12 -12z m1242 -48 c0 -16 -4 -30 -10 -30 -5 0 -10 14 -10 30 0 17 5
30 10 30 6 0 10 -13 10 -30z m-2310 11 c0 -6 -4 -13 -10 -16 -15 -9 -12 -31 6
-49 18 -19 36 -12 27 9 -3 9 1 15 11 15 9 0 16 -8 16 -19 0 -10 7 -21 15 -25
8 -3 15 -12 15 -21 0 -24 -48 -18 -76 10 -14 14 -29 25 -34 25 -19 0 -22 42
-4 61 18 20 34 25 34 10z m1910 -36 c0 -8 -4 -15 -10 -15 -5 0 -10 7 -10 15 0
8 5 15 10 15 6 0 10 -7 10 -15z m-1772 -23 c2 -7 -3 -12 -12 -12 -9 0 -16 7
-16 16 0 17 22 14 28 -4z m840 -19 c14 -13 17 -38 18 -130 1 -114 -8 -147 -21
-72 -5 26 -18 51 -36 68 -35 34 -51 91 -25 91 15 0 21 12 17 34 -2 8 17 25 27
26 2 0 11 -8 20 -17z m-808 -33 c0 -5 8 -10 18 -10 18 -1 52 -22 52 -34 0 -3
-9 -6 -20 -6 -11 0 -20 -4 -20 -10 0 -16 -23 -11 -48 10 -17 14 -22 25 -17 40
6 20 35 29 35 10z m1730 -4 c0 -16 -28 -42 -36 -33 -3 3 -3 15 1 26 7 23 35
29 35 7z m-1770 -64 c0 -25 34 -55 57 -50 12 3 17 11 16 26 -3 29 44 30 103 3
71 -32 71 -54 1 -55 -54 -1 -63 -32 -21 -71 46 -43 111 -22 70 24 -25 28 -19
34 27 27 68 -11 223 -94 206 -111 -3 -3 -28 4 -54 15 -73 31 -76 18 -3 -17 73
-35 147 -93 166 -130 19 -35 6 -41 -26 -11 -24 23 -83 58 -97 58 -16 0 0 -18
40 -43 75 -48 132 -127 91 -127 -7 0 -20 10 -29 23 -20 31 -93 80 -106 72 -6
-3 -11 -21 -11 -40 0 -40 49 -85 94 -85 54 0 46 -64 -15 -122 -49 -46 -64 -47
-83 -5 -8 17 -21 43 -30 57 -30 52 -66 153 -66 185 0 32 2 34 37 37 53 4 53
26 -1 84 -48 53 -77 54 -84 3 -2 -13 -11 -29 -20 -36 -10 -7 -12 -13 -5 -13
14 0 43 -28 43 -41 0 -6 -9 -7 -20 -4 -26 8 -25 -2 3 -26 20 -18 21 -20 5 -29
-20 -12 -24 -30 -6 -30 19 0 58 -42 58 -62 0 -22 -13 -23 -30 -3 -16 19 -31
19 -24 0 3 -8 15 -17 25 -20 42 -14 99 -95 67 -95 -19 0 -180 140 -185 160 -3
12 -12 16 -27 13 -16 -3 -35 5 -58 26 -20 17 -40 31 -45 31 -5 0 -21 12 -34
28 -14 15 -41 39 -60 54 -26 21 -31 29 -20 36 10 7 11 14 2 31 -7 12 -8 27 -4
34 4 6 8 35 9 63 1 44 -1 51 -15 47 -16 -4 -48 43 -37 54 8 8 26 -7 26 -23 0
-8 5 -14 10 -14 6 0 8 11 4 25 -5 21 -3 25 16 25 17 0 20 4 15 20 -5 14 -2 20
9 20 9 0 16 -8 16 -18z m2117 -57 c8 -9 14 -17 12 -19 -28 -19 -60 -36 -69
-36 -15 0 -12 16 5 34 8 8 15 19 15 25 0 16 19 13 37 -4z m-1307 -19 c0 -14
-5 -28 -10 -31 -7 -4 -1 -16 15 -31 24 -22 25 -26 11 -40 -19 -18 -20 -26 -6
-40 7 -7 6 -19 -2 -37 -18 -39 -28 -33 -28 16 0 23 -7 61 -15 84 -14 41 -12
65 8 91 15 19 27 14 27 -12z m1520 -55 c0 -12 -20 -25 -27 -18 -7 7 6 27 18
27 5 0 9 -4 9 -9z m-1470 -156 c0 -25 -4 -45 -10 -45 -5 0 -10 20 -10 45 0 25
5 45 10 45 6 0 10 -20 10 -45z m-33 -50 c8 -9 13 -18 11 -21 -9 -9 -38 8 -38
22 0 18 8 18 27 -1z m1223 -40 c0 -12 -40 -84 -51 -90 -21 -14 -19 4 6 40 14
21 25 42 25 46 0 5 5 9 10 9 6 0 10 -2 10 -5z m-1240 -20 c0 -8 -4 -15 -10
-15 -5 0 -10 7 -10 15 0 8 5 15 10 15 6 0 10 -7 10 -15z m-8 -45 c7 -11 21
-20 30 -20 10 0 18 -7 18 -15 0 -8 -8 -15 -18 -15 -10 0 -24 -6 -31 -12 -11
-10 -14 -10 -18 0 -7 19 -23 14 -23 -7 0 -11 -5 -23 -10 -26 -7 -4 -6 -14 2
-28 7 -12 13 -31 13 -41 0 -11 6 -21 14 -24 9 -3 11 1 7 16 -8 24 12 41 26 21
5 -8 6 -38 3 -66 -3 -33 -1 -53 5 -53 5 0 10 -5 10 -11 0 -6 -7 -9 -15 -5 -8
3 -15 1 -15 -4 0 -6 -5 -10 -11 -10 -8 0 -9 15 -4 46 5 36 4 45 -7 42 -31 -11
-37 -145 -8 -179 l21 -24 -6 43 c-6 35 -4 42 10 42 10 0 15 -5 12 -14 -3 -7 6
-25 19 -40 24 -25 24 -29 12 -64 -7 -20 -19 -43 -26 -50 -14 -15 -42 -9 -42 9
0 6 -13 28 -28 48 -16 20 -35 52 -43 71 -20 49 -18 174 4 228 24 59 22 65 -13
57 -19 -4 -30 -3 -30 4 0 6 5 11 11 11 6 0 17 7 25 15 9 8 24 15 36 15 13 0
24 10 31 30 13 35 22 37 39 10z m418 11 c0 -12 -20 -25 -27 -18 -7 7 6 27 18
27 5 0 9 -4 9 -9z m1760 -50 c0 -17 -12 -41 -21 -41 -10 0 -12 33 -2 43 9 10
23 9 23 -2z m-1340 -10 c0 -11 -31 -24 -39 -16 -3 3 1 10 9 15 19 12 30 12 30
1z m280 -7 c0 -13 -21 -44 -30 -44 -14 0 -12 24 2 38 13 13 28 16 28 6z
m-1040 -40 c0 -17 -22 -14 -28 4 -2 7 3 12 12 12 9 0 16 -7 16 -16z m1066 -9
c20 -19 9 -37 -19 -30 -18 5 -25 -1 -36 -27 -19 -45 -42 -70 -58 -64 -7 3 -30
-12 -49 -34 -37 -40 -54 -50 -54 -29 0 7 -7 17 -17 24 -15 11 -15 14 3 38 10
15 25 27 33 27 8 0 34 20 58 45 41 43 63 56 63 36 0 -6 -4 -13 -10 -16 -5 -3
-10 -11 -10 -16 0 -11 20 4 52 39 26 26 25 26 44 7z m460 -37 c4 -6 2 -14 -4
-16 -7 -2 -12 -12 -12 -23 0 -23 -15 -25 -24 -3 -12 32 23 69 40 42z m-1150
-24 c7 -28 0 -38 -35 -49 -22 -7 -23 -5 -17 21 14 56 41 70 52 28z m-386 1 c0
-8 -4 -15 -10 -15 -5 0 -10 7 -10 15 0 8 5 15 10 15 6 0 10 -7 10 -15z m-216
-47 c7 -30 8 -128 0 -128 -5 0 -18 9 -84 60 l-25 20 39 35 c44 41 61 44 70 13z
m234 10 c19 -25 25 -78 9 -84 -14 -5 -13 -8 1 -25 25 -29 41 -23 62 26 20 48
30 54 49 31 10 -12 9 -20 -3 -38 -17 -26 -12 -39 22 -57 22 -11 23 -17 20 -94
-3 -94 10 -108 57 -61 14 14 29 23 33 19 4 -4 1 -10 -5 -12 -19 -7 -16 -23 5
-21 88 7 120 -61 49 -106 -15 -10 -54 -14 -130 -14 -99 0 -142 -8 -109 -19 17
-7 15 -33 -4 -33 -8 0 -19 12 -25 28 -11 31 -49 53 -80 45 -22 -6 -22 1 -2 53
3 8 -5 10 -23 6 -39 -7 -27 20 14 33 26 7 32 14 32 36 0 15 7 32 15 39 11 9
13 16 5 24 -5 5 -10 18 -10 28 0 10 -7 18 -15 18 -18 0 -20 37 -3 42 10 4 10
10 0 32 -30 65 -1 149 36 104z m2082 -3 c0 -8 -4 -15 -10 -15 -5 0 -10 7 -10
15 0 8 5 15 10 15 6 0 10 -7 10 -15z m-2010 -25 c0 -5 -7 -10 -15 -10 -8 0
-15 5 -15 10 0 6 7 10 15 10 8 0 15 -4 15 -10z m730 -38 c0 -15 -70 -82 -85
-82 -43 0 -23 41 34 70 42 21 51 23 51 12z m1274 -48 c4 -9 4 -19 2 -21 -8 -8
-26 8 -26 23 0 19 16 18 24 -2z m-2378 -14 c51 -25 115 -92 143 -151 21 -43
28 -89 13 -89 -10 0 -100 94 -142 148 -18 24 -34 41 -37 38 -8 -8 63 -110 106
-151 62 -59 49 -73 -34 -35 -46 21 -138 120 -156 167 -5 13 -13 21 -19 18 -7
-4 -6 -13 1 -27 14 -26 3 -35 -46 -40 -34 -2 -40 0 -40 16 0 10 8 24 19 30 10
6 33 23 50 39 17 15 36 27 43 27 7 0 13 7 13 15 0 21 36 19 86 -5z m1864 -120
c0 -5 -9 -10 -20 -10 -11 0 -20 5 -20 10 0 6 9 10 20 10 11 0 20 -4 20 -10z
m-1950 -45 c26 -32 -26 -65 -102 -65 -16 0 -28 -5 -28 -10 0 -7 27 -10 73 -9
42 2 81 -2 95 -10 16 -9 27 -9 43 0 17 9 29 7 60 -7 21 -11 39 -22 39 -26 0
-5 -119 -8 -265 -8 -146 0 -265 4 -265 8 0 19 30 46 51 48 36 2 119 44 119 60
0 8 9 14 19 14 11 0 23 5 26 10 10 16 121 12 135 -5z m775 4 c4 -6 5 -13 2
-15 -8 -9 -97 7 -97 17 0 13 87 11 95 -2z m-707 -57 c2 -7 -3 -12 -12 -12 -9
0 -16 7 -16 16 0 17 22 14 28 -4z m732 9 c0 -6 -5 -13 -11 -17 -7 -4 -8 -20
-4 -41 5 -31 4 -35 -10 -29 -9 3 -21 6 -26 6 -13 0 -11 18 7 56 15 31 44 47
44 25z m718 -80 c3 -8 -1 -12 -9 -9 -7 2 -15 10 -17 17 -3 8 1 12 9 9 7 -2 15
-10 17 -17z m726 -6 c3 -8 15 -15 27 -15 12 0 19 -5 16 -12 -2 -8 -17 -12 -38
-10 -42 5 -42 5 -34 31 7 25 20 27 29 6z m-1934 -19 c0 -20 -19 -31 -32 -18
-6 6 -7 15 -4 21 10 16 36 13 36 -3z m1628 -8 c3 -15 -4 -18 -32 -18 -39 0
-39 0 -30 25 9 22 58 16 62 -7z m80 10 c20 -20 13 -29 -20 -26 -40 4 -54 38
-16 38 13 0 29 -5 36 -12z m62 -3 c0 -8 -4 -15 -10 -15 -5 0 -10 7 -10 15 0 8
5 15 10 15 6 0 10 -7 10 -15z m-1086 -2 c11 -11 96 -12 96 -2 0 5 14 9 30 9
17 0 30 -4 30 -10 0 -5 23 -10 50 -10 28 0 50 4 50 10 0 5 23 9 53 7 44 -2 52
-5 52 -22 0 -11 -6 -20 -12 -19 -7 1 -114 2 -238 3 -218 1 -225 2 -225 21 0
18 7 20 53 20 30 0 57 -3 61 -7z m531 -5 c36 -16 31 -31 -7 -23 -39 9 -42 11
-33 24 8 14 8 14 40 -1z m-2065 -8 c0 -6 -27 -10 -60 -10 -33 0 -60 4 -60 10
0 6 27 10 60 10 33 0 60 -4 60 -10z m130 0 c0 -5 -22 -10 -50 -10 -27 0 -50 5
-50 10 0 6 23 10 50 10 28 0 50 -4 50 -10z m528 -7 c31 -7 28 -18 -18 -60 -31
-27 -38 -39 -29 -47 8 -8 13 -7 16 2 10 27 66 82 89 88 33 9 88 -49 79 -83 -7
-30 10 -63 34 -63 22 0 18 33 -6 61 -13 16 -9 49 7 49 5 0 12 -9 15 -20 3 -11
11 -20 16 -20 5 0 9 -7 9 -15 0 -8 3 -15 8 -16 4 0 22 -2 40 -4 28 -2 32 0 27
16 -4 13 -2 19 8 19 8 0 17 -14 21 -31 9 -49 7 -69 -7 -69 -16 0 -57 -33 -57
-46 0 -4 5 -3 12 4 30 30 80 -11 65 -52 -7 -18 -52 -22 -62 -6 -3 6 -22 10
-41 10 -33 0 -48 20 -24 35 13 8 -10 44 -25 39 -15 -6 -19 -114 -4 -114 7 0 9
-9 6 -22 -7 -29 17 -79 26 -54 4 9 16 16 27 16 15 0 20 7 20 26 0 46 25 20 28
-29 3 -51 -21 -77 -40 -44 -16 29 -34 9 -30 -33 4 -34 1 -40 -16 -40 -16 0
-21 9 -26 50 -4 28 -16 69 -28 91 -16 31 -19 53 -16 98 l4 59 -35 -34 c-69
-64 -125 -114 -131 -114 -3 0 -13 13 -22 28 -13 22 -16 49 -14 121 1 51 -1 94
-5 96 -3 3 -21 -2 -38 -11 -34 -17 -81 -12 -116 12 -11 8 -36 14 -57 14 -49 0
-50 20 -3 56 35 26 36 26 50 8 13 -18 14 -18 15 -1 0 21 45 40 76 33 13 -4 26
-1 30 5 6 10 60 7 122 -8z m710 5 c-5 -14 -65 -31 -84 -24 -26 10 -14 25 24
29 20 2 43 4 50 5 8 1 12 -3 10 -10z m922 -3 c0 -8 -4 -15 -10 -15 -5 0 -10 7
-10 15 0 8 5 15 10 15 6 0 10 -7 10 -15z m48 -3 c3 -9 -2 -13 -14 -10 -9 1
-19 9 -22 16 -3 9 2 13 14 10 9 -1 19 -9 22 -16z m-1088 -3 c0 -13 -41 -36
-77 -44 -26 -5 -33 -3 -33 9 0 9 -4 16 -10 16 -5 0 -10 7 -10 15 0 12 13 15
65 14 36 -1 65 -5 65 -10z m930 -9 c8 -5 11 -12 8 -16 -10 -9 -38 3 -38 16 0
12 10 13 30 0z m-1840 -7 c0 -4 -9 -16 -19 -27 -41 -44 -32 -58 47 -77 109
-27 115 -35 52 -64 -40 -18 -41 -18 -71 4 -17 13 -49 26 -70 28 -24 4 -39 11
-39 19 0 8 5 14 10 14 6 0 10 7 10 16 0 9 9 27 19 41 11 13 17 31 14 39 -4 10
2 14 21 14 14 0 26 -3 26 -7z m560 -12 c0 -11 -29 -35 -35 -29 -10 9 7 38 21
38 8 0 14 -4 14 -9z m115 -33 c14 -6 25 -15 25 -19 0 -4 20 -18 45 -30 25 -12
45 -29 45 -38 0 -8 10 -25 22 -38 32 -34 13 -48 -49 -37 -35 7 -51 15 -58 32
-5 12 -18 22 -27 22 -11 0 -18 8 -18 20 0 24 17 26 42 3 14 -13 21 -14 30 -5
9 9 9 12 -3 12 -20 0 -89 58 -89 76 0 17 2 17 35 2z m135 -43 c0 -30 -7 -31
-37 -6 -30 25 -29 31 7 31 25 0 30 -4 30 -25z m-930 -25 c0 -5 -7 -10 -15 -10
-8 0 -15 5 -15 10 0 6 7 10 15 10 8 0 15 -4 15 -10z m1080 -97 c-1 -30 -52
-56 -91 -48 -33 7 -39 25 -9 25 11 0 20 4 20 9 0 8 18 14 68 20 6 0 12 -2 12
-6z m220 -3 c0 -5 -7 -10 -15 -10 -8 0 -15 5 -15 10 0 6 7 10 15 10 8 0 15 -4
15 -10z m-1300 -32 c0 -14 -50 -68 -62 -68 -15 0 -8 28 8 34 10 4 13 13 9 26
-5 16 -2 20 19 20 14 0 26 -5 26 -12z m-90 -6 c0 -4 -13 -15 -29 -25 -32 -19
-81 -72 -81 -88 0 -6 9 -7 20 -4 24 8 28 -29 6 -57 -17 -23 -23 -23 -63 8 -41
31 -42 47 -2 75 17 12 34 31 38 42 9 25 111 70 111 49z m2140 -16 c0 -2 -3
-11 -6 -20 -9 -23 -24 -20 -24 4 0 11 7 20 15 20 8 0 15 -2 15 -4z m-1214 -52
c18 -43 15 -69 -8 -69 -10 0 -23 -6 -30 -13 -21 -21 -68 -15 -68 8 0 11 5 20
10 20 6 0 10 7 10 16 0 12 7 14 31 9 30 -7 30 -7 24 29 -9 48 11 48 31 0z
m1924 21 c0 -8 -4 -15 -10 -15 -5 0 -10 7 -10 15 0 8 5 15 10 15 6 0 10 -7 10
-15z m-2100 -9 c0 -22 -11 -46 -21 -46 -5 0 -9 14 -9 30 0 20 5 30 15 30 8 0
15 -6 15 -14z m1895 4 c3 -5 17 -10 31 -10 17 0 24 -5 24 -20 0 -11 -5 -20
-10 -20 -14 0 -70 42 -70 52 0 11 18 10 25 -2z m-2217 -19 c3 -8 -1 -12 -9 -9
-7 2 -15 10 -17 17 -3 8 1 12 9 9 7 -2 15 -10 17 -17z m177 -1 c3 -5 14 -10
24 -10 10 0 21 -8 24 -17 2 -10 8 -26 12 -35 11 -27 -6 -22 -42 12 -18 17 -37
30 -42 30 -12 0 -14 13 -4 23 9 10 21 9 28 -3z m1703 -2 c-6 -18 -28 -21 -28
-4 0 9 7 16 16 16 9 0 14 -5 12 -12z m-918 -28 c0 -22 -20 -26 -38 -8 -19 19
-14 28 13 28 18 0 25 -5 25 -20z m-939 -12 c12 -16 21 -19 26 -12 13 18 56 29
51 13 -3 -8 -14 -15 -26 -17 -11 -2 -24 -12 -27 -23 -9 -29 -24 -23 -41 16
-22 53 -16 61 17 23z m1809 8 c0 -7 -7 -19 -15 -26 -8 -7 -15 -24 -15 -37 0
-15 -5 -23 -12 -21 -22 8 -21 36 2 68 23 32 40 39 40 16z m-1057 -36 c19 -75
72 -92 123 -40 36 37 44 37 44 2 0 -15 5 -33 12 -40 15 -15 -28 -99 -55 -106
-23 -6 -97 40 -97 60 0 8 -9 14 -20 14 -12 0 -20 7 -20 18 0 9 -10 35 -22 58
-23 44 -19 78 9 72 10 -2 21 -18 26 -38z m1295 21 c3 -8 -1 -12 -9 -9 -7 2
-15 10 -17 17 -3 8 1 12 9 9 7 -2 15 -10 17 -17z m302 -36 c0 -14 -4 -25 -10
-25 -5 0 -10 11 -10 25 0 14 5 25 10 25 6 0 10 -11 10 -25z m-252 -14 c3 -8
-1 -12 -9 -9 -7 2 -15 10 -17 17 -3 8 1 12 9 9 7 -2 15 -10 17 -17z m-995 -13
c32 -17 75 -73 64 -84 -12 -12 -56 18 -76 51 -29 50 -28 55 12 33z m1247 -48
c0 -16 -4 -30 -10 -30 -5 0 -10 14 -10 30 0 17 5 30 10 30 6 0 10 -13 10 -30z
m-200 1 c13 -26 13 -31 -4 -31 -13 0 -26 20 -26 41 0 16 19 10 30 -10z m-2453
-18 c4 -12 -35 -38 -44 -30 -2 3 1 15 7 27 12 22 31 23 37 3z m633 -38 c0 -19
-4 -35 -9 -35 -10 0 -22 51 -14 62 11 19 23 5 23 -27z m428 -2 c19 -21 23 -33
18 -62 -10 -55 -9 -82 3 -94 9 -9 14 -8 20 2 5 7 14 10 20 7 15 -9 14 17 -1
32 -28 28 5 23 41 -6 47 -38 65 -26 20 12 -17 15 -29 30 -25 33 9 10 47 -11
94 -52 48 -42 54 -72 22 -120 -21 -32 -26 -65 -10 -65 6 0 10 7 10 15 0 8 6
15 14 15 8 0 16 6 19 13 3 8 14 3 34 -15 36 -35 55 -37 23 -3 -13 14 -21 28
-17 31 9 10 24 -3 72 -66 42 -55 45 -63 43 -111 -2 -37 1 -53 11 -57 9 -3 11
1 6 17 -7 22 9 30 20 10 4 -6 14 -8 23 -4 9 3 27 -5 44 -22 41 -40 34 -15 -9
29 -36 37 -40 66 -6 36 34 -29 41 -29 39 2 -2 45 -29 67 -61 50 -29 -16 -45
-5 -101 71 -39 54 -42 63 -14 56 23 -6 27 11 5 19 -8 4 -15 10 -15 14 0 16 33
20 54 7 18 -12 23 -12 39 3 17 17 17 19 -9 39 -15 11 -30 21 -34 21 -15 0 -60
-42 -60 -56 0 -31 -36 -11 -106 60 -78 78 -87 91 -54 81 17 -6 19 -3 14 23 -8
42 18 66 67 59 20 -3 42 0 48 6 15 15 24 2 13 -20 -25 -46 12 -117 69 -131 44
-11 59 2 59 52 0 40 24 31 48 -19 23 -49 27 -71 13 -77 -5 -2 -12 -17 -15 -34
-8 -37 24 -84 58 -84 27 0 66 26 66 45 0 21 19 28 35 15 13 -10 15 -8 15 12 0
13 -5 29 -12 36 -13 13 -5 27 11 17 29 -18 140 -219 127 -232 -9 -10 -104 -9
-167 2 -48 8 -79 -8 -42 -22 10 -4 30 -20 44 -37 15 -16 42 -37 60 -45 40 -20
70 -76 77 -142 4 -45 3 -49 -17 -49 -32 0 -143 40 -171 62 -14 11 -40 26 -58
34 -19 8 -43 25 -54 39 -31 39 -36 30 -17 -29 10 -29 21 -86 24 -127 3 -40 10
-78 16 -85 6 -7 8 -18 4 -24 -4 -6 -8 -38 -9 -70 -3 -90 -23 -93 -47 -5 -19
66 -41 104 -96 163 -29 30 -53 57 -53 59 0 3 33 -3 73 -14 9 -2 17 1 17 7 0 6
-12 13 -27 16 -37 7 -71 33 -57 42 20 13 35 53 28 75 -8 27 -43 67 -60 67 -11
0 -25 27 -38 75 -9 30 -82 67 -97 49 -19 -23 -42 -18 -34 9 18 58 17 62 -28
110 -50 53 -57 56 -57 27 0 -12 -10 -25 -22 -30 -13 -6 -31 -15 -40 -22 -15
-11 -23 -7 -53 22 -32 31 -46 60 -28 60 3 0 26 -12 50 -26 49 -28 72 -24 34 7
l-24 20 22 22 c11 13 21 31 21 41 0 16 -65 107 -82 114 -5 2 -8 11 -8 19 0 27
100 9 128 -24z m-881 -3 c-4 -17 -2 -20 14 -15 26 9 25 -19 -4 -69 -26 -46
-46 -56 -54 -27 -3 12 -10 21 -15 21 -15 0 0 49 22 73 11 11 20 24 20 29 0 4
5 8 11 8 6 0 9 -9 6 -20z m1426 -61 c54 -68 69 -99 48 -99 -6 0 -13 5 -16 10
-4 6 -15 8 -25 5 -14 -5 -20 1 -25 27 -4 18 -18 49 -31 70 -13 21 -24 42 -24
48 0 23 20 6 73 -61z m867 16 c0 -8 -4 -15 -10 -15 -5 0 -10 7 -10 15 0 8 5
15 10 15 6 0 10 -7 10 -15z m-2130 -102 c-1 -37 -7 -55 -26 -77 -35 -39 -41
-26 -15 33 11 27 21 59 21 70 0 12 5 21 10 21 6 0 10 -21 10 -47z m2100 -12
c0 -12 -20 -25 -27 -18 -7 7 6 27 18 27 5 0 9 -4 9 -9z m-567 -62 c17 -17 48
-42 69 -55 33 -21 50 -44 32 -44 -14 0 -124 63 -139 80 -13 15 -12 50 2 50 2
0 18 -14 36 -31z m-1783 -28 c0 -12 -68 -71 -81 -71 -6 0 -8 10 -4 23 4 12 9
30 11 40 6 18 74 26 74 8z m180 -46 c0 -2 -9 -20 -20 -40 -11 -20 -20 -42 -20
-50 0 -8 -5 -15 -12 -15 -7 0 -31 -19 -55 -42 -60 -59 -65 -39 -7 28 27 31 59
71 72 90 19 29 42 45 42 29z m304 -20 c3 -8 12 -12 21 -9 9 4 15 0 15 -10 0
-17 -42 -32 -59 -21 -6 3 -11 14 -11 24 0 31 23 42 34 16z m1332 -10 c18 -14
37 -25 43 -25 23 0 10 -30 -15 -36 -29 -7 -67 23 -79 64 -9 30 9 29 51 -3z
m-1896 -19 c0 -16 -71 -76 -89 -76 -6 0 -11 -11 -11 -24 0 -28 -14 -42 -53
-51 -28 -7 -28 -7 -22 31 4 22 9 46 11 54 5 17 58 50 82 50 9 0 26 7 36 15 25
19 46 19 46 1z m1025 4 c3 -6 26 -15 51 -21 36 -9 47 -18 58 -44 8 -18 19 -36
25 -39 13 -8 15 -26 3 -26 -10 0 -156 119 -160 131 -5 12 15 12 23 -1z m1065
-20 c0 -5 -9 -10 -20 -10 -11 0 -20 5 -20 10 0 6 9 10 20 10 11 0 20 -4 20
-10z m-1480 -24 c0 -8 -16 -24 -36 -36 -29 -19 -40 -21 -60 -11 -44 20 -27 37
32 32 12 -1 24 5 28 14 7 19 36 20 36 1z m1800 -35 c0 -11 -31 -24 -39 -16 -3
3 1 10 9 15 19 12 30 12 30 1z m-2120 -26 c0 -8 -4 -15 -10 -15 -5 0 -10 7
-10 15 0 8 5 15 10 15 6 0 10 -7 10 -15z m2070 -4 c0 -12 -20 -25 -27 -18 -7
7 6 27 18 27 5 0 9 -4 9 -9z m-2051 -30 c12 -8 11 -15 -10 -45 -13 -20 -27
-36 -30 -36 -17 0 -17 35 -2 61 19 32 21 33 42 20z m947 -2 c11 -18 -13 -34
-31 -19 -8 7 -15 16 -15 21 0 13 38 11 46 -2z m-1166 -16 c0 -14 -52 -73 -65
-73 -8 0 -30 -13 -48 -30 -34 -30 -57 -38 -57 -21 0 9 150 131 162 131 5 0 8
-3 8 -7z m2120 -13 c0 -5 -7 -10 -15 -10 -8 0 -15 5 -15 10 0 6 7 10 15 10 8
0 15 -4 15 -10z m-1006 -10 c25 -9 53 -47 42 -57 -3 -3 -19 6 -36 21 -17 14
-36 26 -41 26 -5 0 -9 5 -9 10 0 13 12 13 44 0z m641 -20 c0 -7 -6 -15 -12
-17 -8 -3 -13 4 -13 17 0 13 5 20 13 18 6 -3 12 -11 12 -18z m-1995 1 c0 -12
-20 -25 -27 -18 -7 7 6 27 18 27 5 0 9 -4 9 -9z m2230 -11 c0 -5 -11 -10 -25
-10 -14 0 -25 5 -25 10 0 6 11 10 25 10 14 0 25 -4 25 -10z m-1820 -35 c0 -8
-4 -15 -10 -15 -5 0 -10 7 -10 15 0 8 5 15 10 15 6 0 10 -7 10 -15z m190 -18
c0 -23 8 -41 25 -57 26 -24 26 -24 60 -6 32 17 55 16 55 -5 0 -5 -9 -9 -20 -9
-11 0 -20 -5 -20 -11 0 -7 -12 -9 -35 -5 -19 3 -50 9 -68 12 -29 5 -35 2 -45
-20 -14 -32 -37 -35 -28 -3 4 12 9 36 13 52 7 34 39 85 54 85 5 0 9 -15 9 -33z
m160 3 c0 -11 -7 -20 -15 -20 -17 0 -18 2 -9 24 9 23 24 20 24 -4z m2070 -40
c0 -12 -28 -25 -36 -17 -9 9 6 27 22 27 8 0 14 -5 14 -10z m-2790 -15 c0 -8
-9 -15 -20 -15 -11 0 -20 -4 -20 -10 0 -5 -4 -10 -10 -10 -17 0 -11 28 8 39
25 15 42 13 42 -4z m1733 -11 c11 -4 16 -13 13 -21 -3 -8 -6 -21 -6 -29 0 -24
-19 -16 -35 16 -18 35 -19 54 -2 46 6 -3 20 -9 30 -12z m-1393 -22 c0 -41 -21
-51 -97 -45 -40 3 -73 10 -73 14 0 5 7 9 15 9 8 0 15 4 15 9 0 5 20 6 44 4 31
-4 47 -1 57 10 19 22 39 21 39 -1z m-432 -26 c3 -23 -2 -29 -27 -39 -17 -6
-31 -17 -31 -24 0 -7 -4 -13 -9 -13 -5 0 -16 -16 -25 -35 -14 -28 -36 -48 -36
-31 0 19 36 78 65 105 19 19 35 43 35 53 0 30 25 16 28 -16z m812 16 c0 -12
-49 -37 -56 -29 -4 3 -4 13 -1 22 7 15 57 22 57 7z m722 -39 c41 -40 47 -53
23 -53 -8 0 -24 -5 -35 -12 -10 -7 -21 -10 -23 -8 -8 9 -16 110 -9 110 3 0 23
-17 44 -37z m-1492 12 c0 -8 -4 -15 -10 -15 -5 0 -10 7 -10 15 0 8 5 15 10 15
6 0 10 -7 10 -15z m1970 5 c0 -5 -11 -10 -25 -10 -14 0 -25 5 -25 10 0 6 11
10 25 10 14 0 25 -4 25 -10z m-1114 -31 c4 -7 -1 -16 -10 -21 -9 -5 -16 -16
-16 -23 0 -8 -4 -15 -10 -15 -11 0 -12 15 -4 48 7 23 28 29 40 11z m-308 -96
c-2 -50 -7 -78 -15 -81 -14 -4 -19 138 -6 151 18 19 24 0 21 -70z m826 33 c26
-23 35 -56 16 -56 -5 0 -10 4 -10 8 0 5 -11 15 -25 22 -14 7 -25 22 -25 32 0
24 14 23 44 -6z m-624 -12 c0 -9 -7 -14 -17 -12 -25 5 -28 28 -4 28 12 0 21
-6 21 -16z m1070 1 c0 -8 -4 -15 -10 -15 -5 0 -10 7 -10 15 0 8 5 15 10 15 6
0 10 -7 10 -15z m-1750 -65 c0 -16 -4 -30 -10 -30 -5 0 -10 14 -10 30 0 17 5
30 10 30 6 0 10 -13 10 -30z m306 -11 c32 -30 30 -39 -10 -39 -26 0 -35 5 -39
21 -4 15 -12 20 -28 17 -19 -2 -23 -10 -25 -44 -1 -23 -5 -51 -9 -63 -11 -36
-25 -23 -23 22 1 23 -2 54 -6 69 -7 24 -5 29 15 38 36 15 98 5 125 -21z m738
16 c10 -7 15 -18 11 -24 -8 -13 -35 -15 -35 -2 0 5 -3 16 -6 25 -8 20 5 20 30
1z m186 -64 c0 -27 -15 -34 -40 -19 -25 16 -25 25 -2 31 34 9 42 7 42 -12z
m-530 2 c0 -10 -42 -53 -52 -53 -17 0 -7 28 15 43 24 17 37 21 37 10z m-360
-42 c0 -35 -9 -61 -21 -61 -10 0 -12 73 -2 83 14 15 23 6 23 -22z m1990 4 c0
-8 -7 -15 -15 -15 -16 0 -20 12 -8 23 11 12 23 8 23 -8z m-757 -17 c7 -25 3
-33 -12 -23 -13 8 -15 45 -2 45 5 0 11 -10 14 -22z m187 2 c0 -11 -4 -20 -10
-20 -5 0 -10 9 -10 20 0 11 5 20 10 20 6 0 10 -9 10 -20z m500 -20 c0 -12 -40
-34 -47 -26 -9 8 17 36 33 36 8 0 14 -4 14 -10z m-2500 -14 c0 -2 -3 -11 -6
-20 -9 -23 -24 -20 -24 4 0 11 7 20 15 20 8 0 15 -2 15 -4z m948 -8 c-6 -18
-28 -21 -28 -4 0 9 7 16 16 16 9 0 14 -5 12 -12z m-668 -8 c0 -5 -7 -10 -15
-10 -8 0 -15 5 -15 10 0 6 7 10 15 10 8 0 15 -4 15 -10z m1290 -20 c0 -22 -8
-25 -30 -10 -13 9 -13 11 0 20 22 15 30 12 30 -10z m-1010 3 c0 -16 -40 -73
-51 -73 -12 0 -11 2 16 47 19 31 35 43 35 26z m354 -16 c8 -12 8 -22 0 -34
-21 -33 -34 -26 -34 17 0 43 13 50 34 17z m916 -12 c0 -14 -4 -25 -10 -25 -5
0 -10 11 -10 25 0 14 5 25 10 25 6 0 10 -11 10 -25z m760 1 c0 -14 -29 -31
-38 -21 -6 6 18 35 29 35 5 0 9 -6 9 -14z m-610 -31 c0 -8 -4 -15 -10 -15 -5
0 -10 7 -10 15 0 8 5 15 10 15 6 0 10 -7 10 -15z"/>
<path d="M1650 2502 c0 -32 45 -82 59 -66 14 15 23 94 11 94 -6 0 -13 -13 -16
-30 -4 -16 -11 -30 -15 -30 -5 0 -12 14 -15 30 -8 38 -24 39 -24 2z"/>
<path d="M194 2705 c4 -22 7 -55 7 -72 0 -39 5 -40 29 -11 15 19 20 20 34 9
22 -18 20 -31 -3 -31 -11 0 -23 -4 -26 -10 -3 -5 -1 -10 5 -10 16 0 70 -39 70
-51 0 -5 -7 -9 -15 -9 -20 0 -9 -25 20 -44 l23 -15 -5 73 c-4 49 -2 75 6 80 8
5 5 18 -9 45 -16 33 -25 39 -60 44 -23 3 -51 14 -62 24 -20 18 -21 18 -14 -22z
m114 -54 c3 -8 -1 -12 -9 -9 -7 2 -15 10 -17 17 -3 8 1 12 9 9 7 -2 15 -10 17
-17z"/>
<path d="M240 2546 c0 -9 5 -16 10 -16 6 0 10 4 10 9 0 6 -4 13 -10 16 -5 3
-10 -1 -10 -9z"/>
<path d="M350 2442 c0 -12 19 -26 26 -19 2 2 -2 10 -11 17 -9 8 -15 8 -15 2z"/>
<path d="M1106 1911 c-21 -22 -27 -36 -23 -52 4 -13 1 -29 -5 -36 -8 -10 -3
-15 18 -24 44 -16 142 -18 155 -2 13 14 8 16 -35 13 -23 -1 -28 2 -23 14 4 10
1 16 -8 16 -18 0 -18 5 -4 32 32 60 -26 90 -75 39z m44 -23 c0 -14 -30 -48
-42 -48 -12 0 -10 34 4 48 15 15 38 16 38 0z"/>
<path d="M735 1694 c-19 -16 -19 -16 5 -9 31 9 50 25 30 25 -8 0 -24 -8 -35
-16z"/>
<path d="M811 1629 c-11 -19 -25 -39 -30 -46 -29 -32 18 -56 51 -26 34 30 41
61 19 85 l-20 20 -20 -33z"/>
<path d="M891 1593 c-7 -8 -11 -16 -8 -19 2 -2 10 2 17 11 17 20 9 27 -9 8z"/>
<path d="M1066 1563 c5 -5 12 -12 16 -18 4 -6 8 -2 8 8 0 9 -7 17 -17 17 -9 0
-12 -3 -7 -7z"/>
<path d="M1880 911 c0 -5 7 -11 15 -15 8 -3 15 -1 15 3 0 5 -7 11 -15 15 -8 3
-15 1 -15 -3z"/>
<path d="M0 2510 c0 -16 5 -30 10 -30 6 0 10 7 10 15 0 9 7 18 15 21 24 9 17
24 -10 24 -21 0 -25 -5 -25 -30z"/>
<path d="M0 2436 c0 -24 68 -86 93 -86 13 0 28 -5 34 -11 12 -12 53 -3 53 10
0 5 -13 11 -29 14 -21 4 -34 17 -47 44 -17 34 -23 38 -61 41 -33 2 -43 0 -43
-12z"/>
<path d="M147 2293 c-14 -14 -6 -40 23 -75 26 -32 37 -37 78 -40 45 -3 47 -5
50 -34 2 -22 17 -44 48 -74 43 -40 46 -41 59 -24 22 29 18 50 -16 89 -33 38
-28 65 12 65 28 0 23 15 -8 29 -31 14 -39 13 -35 -6 2 -7 -4 -13 -12 -13 -9 0
-12 -7 -9 -20 3 -11 0 -20 -6 -20 -6 0 -11 4 -11 9 0 5 -11 12 -25 15 -14 4
-32 20 -41 39 -9 17 -23 40 -32 50 -15 17 -62 23 -75 10z"/>
<path d="M265 1189 c-4 -6 -5 -12 -3 -15 8 -7 68 8 68 17 0 13 -58 11 -65 -2z"/>
<path d="M250 880 c0 -11 5 -20 10 -20 6 0 10 9 10 20 0 11 -4 20 -10 20 -5 0
-10 -9 -10 -20z"/>
</g>
</svg>

<path d="M0 2720 c0 -264 4 -480 8 -480 5 0 25 -32 46 -71 35 -67 36 -72 19
-85 -10 -7 -24 -11 -30 -9 -7 3 -20 8 -28 11 -13 5 -15 -39 -15 -360 0 -319 2
-366 15 -366 19 0 19 -24 0 -44 -13 -13 -15 -88 -15 -555 0 -298 3 -541 8
-541 4 0 23 -30 42 -66 19 -36 52 -86 73 -110 l39 -44 227 0 227 0 26 28 c37
39 58 96 58 159 0 71 -10 88 -65 109 -75 28 -170 -10 -125 -51 13 -12 20 -31
20 -55 0 -96 -128 -101 -160 -5 -26 78 11 164 95 220 39 26 93 30 189 13 17
-2 22 8 37 67 21 91 30 110 76 169 63 82 139 110 193 74 l35 -24 1 -89 c0 -93
-6 -115 -36 -115 -27 0 -48 31 -52 75 -4 54 -25 52 -61 -6 -27 -45 -29 -55
-37 -212 -9 -156 -30 -300 -51 -339 -9 -17 6 -18 277 -18 269 0 286 1 279 18
-18 43 -36 109 -34 127 1 11 -3 34 -10 50 -7 17 -15 44 -17 60 -10 58 -39 110
-86 158 -52 53 -58 55 -58 28 0 -11 -4 -23 -10 -26 -5 -3 -10 -20 -10 -36 0
-17 -6 -32 -15 -36 -24 -9 -31 5 -15 30 10 15 14 58 15 139 1 65 5 121 9 125
3 4 20 -1 35 -10 16 -9 36 -17 45 -17 51 0 164 -171 187 -282 12 -64 25 -98
38 -98 4 0 25 16 46 35 47 42 97 67 151 73 40 4 42 3 88 -56 25 -33 46 -71 46
-84 0 -36 -60 -90 -96 -86 -40 4 -55 48 -32 88 24 42 3 57 -48 35 -72 -30
-113 -93 -117 -179 l-2 -51 258 -3 c222 -2 257 0 257 13 0 10 10 14 33 13 56
-1 64 1 47 12 -13 8 -12 12 8 25 12 9 22 26 22 38 0 19 -5 17 -41 -21 -23 -23
-44 -42 -48 -42 -3 0 -7 32 -8 70 -2 41 1 70 7 70 6 0 10 6 10 14 0 8 5 16 12
18 9 3 12 40 13 124 0 110 5 144 23 144 12 0 53 -80 47 -91 -4 -5 -1 -17 7
-26 16 -20 18 -222 1 -273 -6 -19 -14 -47 -17 -62 l-6 -28 186 0 186 0 60 40
c80 53 112 53 167 0 l41 -40 115 0 c67 0 115 4 115 10 0 15 42 50 61 50 9 0
28 -9 42 -20 36 -28 41 -26 71 33 14 29 44 80 66 112 l39 60 1 103 c0 56 -4
102 -9 102 -4 0 -19 -8 -32 -18 -20 -16 -101 -60 -283 -157 -25 -13 -23 -29 6
-36 38 -9 31 -83 -11 -121 -73 -65 -170 5 -171 122 0 24 119 150 141 150 5 0
28 14 51 30 22 17 73 39 112 51 39 11 75 25 80 30 6 5 18 9 27 9 28 0 31 17 9
48 -37 50 -8 108 50 100 l30 -5 0 441 c0 480 4 456 -54 376 -48 -66 -86 -153
-86 -198 0 -40 -2 -43 -23 -37 -21 6 -21 5 -4 -9 33 -26 6 -174 -52 -283 -72
-135 -90 -155 -177 -198 -101 -50 -135 -65 -149 -65 -7 0 -25 -6 -41 -14 -64
-31 -312 -27 -377 6 -46 24 -57 28 -70 28 -8 0 -22 9 -32 20 -17 18 -17 22 -4
35 21 21 76 2 82 -28 4 -19 4 -18 6 4 1 33 46 42 166 32 104 -8 164 -6 178 5
7 5 33 13 59 16 26 4 68 18 93 32 42 24 155 137 155 156 0 5 12 34 26 65 35
72 29 167 -13 222 -128 167 -297 202 -384 80 -24 -34 -20 -65 12 -111 24 -33
40 -35 57 -8 9 14 23 20 50 20 48 0 62 -14 62 -62 0 -49 -34 -74 -100 -71
-141 5 -226 152 -166 288 14 31 23 61 20 66 -3 5 -30 9 -61 9 -44 0 -73 8
-137 39 -94 45 -109 60 -109 104 0 18 -6 40 -15 49 -25 29 -8 48 42 48 36 0
48 -4 57 -22 9 -17 9 -24 -5 -33 -20 -15 -21 -25 -2 -25 7 0 19 -6 25 -13 6
-8 38 -22 71 -32 34 -10 60 -24 60 -32 0 -7 -5 -13 -10 -13 -6 0 -3 -11 6 -25
20 -30 40 -32 54 -5 9 16 8 22 -5 26 -26 10 -16 24 18 24 17 0 57 -7 87 -15
30 -8 71 -15 91 -15 86 0 253 -80 344 -165 27 -25 51 -45 53 -45 2 0 1 20 -2
44 -12 78 7 120 87 197 40 38 79 69 88 69 22 0 29 29 29 131 0 85 0 85 -36
120 -20 18 -56 64 -79 100 -24 37 -48 70 -54 74 -20 12 -11 25 17 25 36 0 52
16 52 53 0 99 -90 84 -106 -18 l-7 -47 -93 -45 c-92 -45 -97 -46 -226 -54
-136 -8 -210 -17 -234 -26 -8 -3 -14 0 -14 6 0 6 11 16 25 21 14 5 25 14 25
20 0 5 0 13 0 18 0 4 -10 7 -23 8 -49 2 -57 4 -57 13 0 5 11 12 25 15 13 3 35
10 48 15 l24 10 -18 53 c-24 69 -24 119 1 172 45 101 140 128 216 62 35 -31
38 -36 29 -62 -15 -42 -56 -53 -101 -29 -30 16 -37 17 -45 4 -31 -49 31 -149
104 -168 177 -44 335 69 354 253 4 34 11 56 18 56 18 0 48 37 40 49 -8 14 -45
14 -45 1 0 -23 -17 -8 -29 26 -37 101 -138 201 -238 235 -73 24 -190 22 -323
-6 -109 -23 -127 -24 -139 -12 -16 16 -14 37 7 44 9 4 35 19 57 33 64 42 136
60 241 60 51 0 103 -4 116 -9 13 -5 43 -15 68 -22 102 -30 197 -112 268 -230
29 -49 40 -83 73 -209 5 -19 6 -96 3 -171 -7 -141 0 -175 40 -208 15 -12 16
39 16 547 0 436 -3 562 -12 569 -7 6 -35 18 -61 29 -27 10 -60 29 -73 42 l-25
22 -399 0 -400 0 -6 -27 c-4 -16 -15 -40 -25 -55 -11 -14 -19 -30 -19 -36 0
-15 -71 -83 -83 -79 -13 5 -11 84 2 101 5 6 11 23 15 38 3 14 9 33 12 42 6 14
-31 16 -385 16 -350 0 -391 -2 -391 -16 0 -29 -53 -149 -83 -186 -44 -55 -118
-79 -185 -62 -21 6 -23 12 -21 63 2 31 -3 80 -10 109 -10 40 -10 57 -2 65 24
24 4 27 -185 27 l-195 0 6 -22 c20 -67 104 -153 127 -130 9 9 8 16 -5 30 -23
25 -21 44 6 70 36 34 79 29 117 -14 41 -47 36 -84 -20 -136 -45 -44 -81 -48
-145 -19 -57 25 -143 123 -157 177 l-12 44 -293 0 -293 0 0 -480z m200 309 c7
-11 9 -23 6 -26 -8 -9 -36 17 -36 33 0 21 18 17 30 -7z m2160 6 c0 -8 -4 -15
-10 -15 -5 0 -10 7 -10 15 0 8 5 15 10 15 6 0 10 -7 10 -15z m-610 -74 c0 -6
-25 -38 -56 -73 -31 -35 -60 -72 -66 -83 -5 -11 -32 -38 -59 -59 -27 -22 -49
-42 -49 -46 0 -5 -86 -125 -119 -166 -5 -6 -14 -27 -19 -45 -13 -44 -31 -95
-49 -140 -21 -52 -14 -103 15 -107 25 -4 27 -14 11 -44 -22 -41 -2 -42 130
-12 23 5 24 4 17 -42 -3 -26 -13 -59 -22 -72 -15 -22 -14 -25 5 -39 12 -8 21
-22 21 -32 0 -33 226 -16 284 22 14 9 31 14 39 12 7 -3 50 19 95 50 44 30 85
55 90 55 5 0 29 21 53 48 60 63 237 222 249 222 60 0 -74 -188 -237 -332 -110
-96 -284 -177 -309 -143 -16 22 -34 18 -34 -7 0 -21 -1 -21 -122 -13 -162 11
-273 12 -325 1 -43 -9 -43 -9 -43 22 0 22 6 31 21 35 18 5 20 10 14 39 -4 18
-13 43 -21 55 -8 12 -14 27 -14 33 0 6 -8 30 -19 53 -16 36 -17 53 -10 122 5
44 13 89 18 100 5 11 19 46 32 78 12 33 28 61 36 64 7 3 13 15 13 27 0 12 15
44 33 71 17 27 39 61 47 75 8 15 28 38 44 51 47 39 106 98 106 108 0 10 105
91 118 91 5 0 15 7 22 15 14 16 60 21 60 6z m-1343 -87 c31 -19 63 -34 70 -34
7 0 13 -7 13 -15 0 -8 -4 -15 -10 -15 -5 0 -7 -7 -4 -15 9 -21 -5 -19 -51 10
-22 13 -48 25 -57 25 -10 0 -24 13 -32 29 -9 16 -22 31 -31 34 -8 4 -15 11
-15 17 0 19 55 2 117 -36z m1499 23 c20 1 21 -3 17 -41 -7 -50 -16 -62 -51
-69 -42 -8 -85 21 -77 53 13 50 34 72 63 64 15 -4 37 -7 48 -7z m-198 -177
c38 -23 42 -55 11 -94 -26 -33 -49 -33 -88 0 -39 32 -38 37 2 79 38 41 34 40
75 15z m-948 -130 c0 -5 -7 -10 -15 -10 -8 0 -15 5 -15 10 0 6 7 10 15 10 8 0
15 -4 15 -10z m-190 -46 c0 -11 -6 -15 -20 -11 -12 3 -24 -1 -29 -11 -12 -22
-37 -1 -28 22 9 23 77 22 77 0z m277 -30 c6 -21 12 -84 12 -140 l1 -100 -75
-75 c-41 -40 -75 -80 -75 -86 0 -7 -7 -13 -15 -13 -11 0 -15 11 -15 39 0 33 5
43 29 57 16 9 36 35 45 58 10 22 22 50 28 61 21 37 23 159 3 189 -10 15 -16
28 -14 30 15 12 46 25 54 22 5 -1 15 -20 22 -42z m721 26 c44 -41 14 -100 -44
-86 -35 9 -41 48 -12 79 29 31 30 31 56 7z m626 -52 c34 -48 14 -88 -43 -88
-35 0 -61 28 -61 64 0 43 78 61 104 24z m-1498 -53 c9 -14 14 -32 10 -40 -9
-24 -45 -18 -58 9 -23 51 18 77 48 31z m-604 -19 c11 -26 5 -56 -12 -56 -17 0
-50 39 -50 60 0 30 47 27 62 -4z m1366 -53 c32 -70 -10 -110 -67 -62 l-24 20
33 34 c41 42 42 42 58 8z m606 -13 c23 -22 16 -33 -37 -67 -39 -24 -41 -25
-54 -7 -19 26 -16 54 9 81 24 26 50 23 82 -7z m-1154 -54 c0 -2 -7 -20 -15
-39 -8 -20 -15 -48 -15 -62 0 -14 -4 -25 -10 -25 -15 0 -12 56 4 95 12 28 36
49 36 31z m-690 -21 c18 -21 4 -65 -20 -65 -22 0 -25 4 -35 48 -6 29 -5 32 18
32 13 0 30 -7 37 -15z m1656 -61 c39 -19 40 -21 17 -46 -24 -26 -79 -24 -86 4
-7 24 8 58 24 58 6 0 26 -7 45 -16z m-1263 -48 c34 -42 49 -86 28 -86 -5 0
-19 -16 -31 -35 -12 -19 -26 -35 -31 -35 -12 0 -12 57 1 65 16 10 12 33 -15
76 -45 71 -9 82 48 15z m-233 -31 c7 -9 10 -18 7 -22 -8 -7 -37 15 -37 28 0
14 16 11 30 -6z m760 -15 c0 -28 -13 -40 -24 -22 -7 12 5 52 15 52 5 0 9 -13
9 -30z m594 15 c8 -8 19 -15 25 -15 17 0 13 -12 -17 -48 -25 -30 -29 -32 -54
-20 -32 15 -37 51 -11 80 20 22 37 23 57 3z m-1366 -38 c2 -10 -3 -17 -12 -17
-9 0 -16 2 -16 4 0 2 -3 12 -6 21 -5 13 -2 16 12 13 10 -2 20 -11 22 -21z
m512 8 c0 -8 -4 -15 -10 -15 -5 0 -10 7 -10 15 0 8 5 15 10 15 6 0 10 -7 10
-15z m90 -25 c0 -11 -4 -20 -10 -20 -5 0 -10 9 -10 20 0 11 5 20 10 20 6 0 10
-9 10 -20z m-77 -52 c4 -12 4 -24 1 -27 -8 -9 -37 27 -30 38 11 17 23 13 29
-11z m1467 -15 c0 -3 -7 -15 -17 -25 -15 -17 -15 -18 0 -18 10 0 17 -7 17 -16
0 -11 6 -14 20 -9 11 3 20 2 20 -4 0 -5 -17 -15 -37 -21 -49 -16 -60 -27 -45
-42 26 -26 8 -88 -26 -88 -9 0 -11 7 -7 20 4 11 2 20 -4 20 -6 0 -11 -9 -11
-20 0 -31 -44 -26 -65 7 -32 48 9 128 89 174 52 29 66 34 66 22z m-2014 -54
c4 -7 22 -9 45 -6 29 4 45 0 63 -14 13 -10 31 -19 40 -19 9 0 16 -5 16 -11 0
-8 -11 -9 -31 -5 -26 5 -30 3 -25 -10 4 -10 -1 -22 -11 -30 -27 -21 -32 -17
-26 20 l5 34 -70 -2 c-76 -1 -86 2 -76 27 9 24 58 35 70 16z m362 -27 c2 -7
-3 -12 -12 -12 -9 0 -16 7 -16 16 0 17 22 14 28 -4z m261 -29 c6 -16 12 -50
13 -78 3 -45 1 -50 -19 -53 -26 -4 -31 15 -8 32 13 10 13 17 0 60 -17 57 -18
66 -6 66 5 0 14 -12 20 -27z m-259 -63 c0 -5 -13 -10 -30 -10 -16 0 -30 5 -30
10 0 6 14 10 30 10 17 0 30 -4 30 -10z m360 -185 c0 -8 -4 -15 -10 -15 -5 0
-10 7 -10 15 0 8 5 15 10 15 6 0 10 -7 10 -15z m-648 -79 c32 -8 72 -26 89
-40 l30 -26 37 24 c20 13 56 26 80 29 39 5 44 3 57 -23 19 -37 19 -64 0 -80
-28 -23 -29 -73 -1 -128 26 -51 35 -122 16 -122 -5 0 -10 -9 -10 -20 0 -14 7
-20 21 -20 21 0 21 -4 17 -72 -10 -143 -130 -327 -306 -466 -48 -38 -101 -77
-119 -86 -32 -16 -63 -21 -63 -10 0 17 73 123 106 154 155 147 259 298 283
410 6 29 17 60 23 67 8 10 7 18 -5 31 -8 9 -23 40 -32 69 -22 68 -35 78 -82
65 -21 -5 -46 -13 -55 -17 -13 -5 -18 -2 -18 9 0 9 -4 16 -10 16 -15 0 -12 28
6 55 21 33 12 55 -23 55 -17 0 -36 9 -47 21 -17 20 -24 21 -104 15 -48 -3 -91
-11 -96 -16 -16 -16 -27 -12 -24 8 2 12 -5 18 -24 20 -16 2 -28 9 -28 17 0 22
66 47 104 40 28 -6 36 -3 45 14 14 25 49 27 133 7z m938 -75 c0 -10 -30 -24
-37 -17 -3 3 -2 9 2 15 8 13 35 15 35 2z m-1272 -28 c-3 -19 -48 -32 -48 -14
0 10 28 30 43 31 5 0 7 -8 5 -17z m1212 7 c0 -5 24 -17 54 -25 57 -17 118 -9
203 26 46 19 215 -10 296 -52 99 -50 385 -352 403 -425 8 -32 -2 -41 -26 -26
-11 7 -25 12 -32 12 -7 0 -25 19 -40 43 -15 23 -57 73 -93 110 -37 39 -64 75
-63 85 2 10 -4 17 -17 17 -36 3 -60 16 -79 43 -47 69 -246 158 -246 111 0 -5
-5 -9 -11 -9 -6 0 -8 8 -5 18 5 14 0 17 -28 17 -19 0 -38 -3 -42 -7 -4 -5 -18
-8 -31 -8 -27 0 -94 -32 -111 -53 -10 -11 -7 -26 13 -71 14 -31 25 -59 25 -61
0 -7 -81 5 -112 17 -40 15 -57 -7 -57 -73 -1 -95 8 -139 39 -184 17 -24 30
-51 30 -60 0 -9 20 -38 45 -64 25 -26 45 -53 45 -59 0 -6 9 -14 21 -17 11 -4
27 -21 34 -38 8 -18 39 -59 69 -91 31 -33 56 -64 56 -68 0 -5 18 -32 39 -61
45 -61 69 -143 46 -166 -37 -38 -104 33 -105 113 0 37 -8 49 -107 151 -143
147 -274 307 -290 353 -16 46 -17 167 -1 247 14 74 12 203 -3 221 -20 25 -2
44 41 44 22 0 40 -4 40 -10z m-160 -80 c0 -5 -9 -10 -20 -10 -11 0 -20 5 -20
10 0 6 9 10 20 10 11 0 20 -4 20 -10z m474 -36 c12 -30 6 -64 -14 -84 -58 -58
-130 23 -78 88 15 18 85 16 92 -4z m147 -65 c22 -19 23 -22 8 -47 -18 -33 -54
-40 -80 -16 -23 21 -24 42 -2 66 21 24 44 23 74 -3z m160 -155 c14 -38 -11
-74 -51 -74 -45 0 -66 52 -34 84 26 26 73 21 85 -10z m-486 -48 c28 -42 -17
-93 -69 -80 -28 7 -45 66 -25 90 19 24 76 18 94 -10z m-888 -68 c34 -28 -8
-89 -47 -68 -28 15 -44 58 -28 77 12 15 52 10 75 -9z m1542 -53 c12 -12 12
-19 3 -40 -10 -22 -18 -26 -49 -23 -48 4 -62 27 -39 63 19 29 55 29 85 0z
m-527 -52 c26 -24 22 -83 -7 -83 -7 0 -15 -6 -17 -12 -7 -21 -57 7 -68 38 -12
30 0 50 35 64 30 13 37 12 57 -7z m-1139 -14 c7 -28 -7 -65 -28 -73 -55 -21
-80 15 -44 64 27 36 64 40 72 9z m1261 -118 c10 -11 16 -31 14 -48 -3 -24 -8
-28 -40 -31 -33 -3 -39 0 -53 28 -15 30 -15 33 1 51 22 24 56 24 78 0z m846
-1 c0 -5 -7 -10 -15 -10 -8 0 -15 5 -15 10 0 6 7 10 15 10 8 0 15 -4 15 -10z
m-2276 -42 c12 -46 7 -68 -19 -80 -57 -26 -113 45 -65 84 32 26 76 24 84 -4z
m1545 -110 c14 -24 14 -28 -3 -47 -35 -39 -86 -21 -86 29 0 55 62 68 89 18z
m211 -95 c0 -5 3 -18 6 -30 5 -20 2 -23 -20 -23 -22 0 -26 4 -26 30 0 23 4 30
20 30 11 0 20 -3 20 -7z m-1880 -178 c0 -16 -27 -32 -37 -21 -7 7 16 36 28 36
5 0 9 -7 9 -15z m1768 -17 c-6 -18 -28 -21 -28 -4 0 9 7 16 16 16 9 0 14 -5
12 -12z m32 -103 c0 -8 -4 -15 -10 -15 -5 0 -10 7 -10 15 0 8 5 15 10 15 6 0
10 -7 10 -15z"/>
<path d="M2243 1903 c-18 -7 -16 -30 3 -37 27 -10 34 -7 34 19 0 24 -11 29
-37 18z"/>
<path d="M1080 3191 c0 -5 7 -12 16 -15 14 -5 16 -17 11 -76 -7 -83 2 -88 55
-32 32 33 68 98 68 123 0 5 -34 9 -75 9 -41 0 -75 -4 -75 -9z"/>
<path d="M1257 3178 c-21 -23 -16 -48 10 -48 24 1 63 34 63 54 0 23 -51 19
-73 -6z"/>
<path d="M2582 2112 c-18 -6 -14 -28 6 -28 9 0 27 -4 40 -8 12 -4 22 -4 22 1
0 12 -54 40 -68 35z"/>
<path d="M2923 2090 c-13 -5 -23 -16 -23 -25 0 -21 10 -19 45 10 31 25 20 32
-22 15z"/>
<path d="M2505 2020 c-4 -6 -3 -16 3 -22 6 -6 12 -6 17 2 4 6 3 16 -3 22 -6 6
-12 6 -17 -2z"/>
<path d="M2365 709 c-4 -6 -20 -7 -38 -3 l-32 6 39 -26 c45 -32 59 -30 60 7 2
27 -17 37 -29 16z"/>
<path d="M1275 379 c-12 -19 5 -23 22 -6 16 16 16 17 1 17 -9 0 -20 -5 -23
-11z"/>
<path d="M1296 220 c7 -28 32 -52 45 -44 12 7 11 51 -1 59 -5 3 -10 1 -10 -4
0 -15 -27 -14 -34 2 -3 6 -3 1 0 -13z"/>
<path d="M3180 15 c-10 -12 -10 -15 4 -15 9 0 16 7 16 15 0 8 -2 15 -4 15 -2
0 -9 -7 -16 -15z"/>
</g>
</svg>

</svg>