<svg xmlns="http://www.w3.org/2000/svg" width="1200" height="1200" viewBox="0 0 1200 1200">
<rect width="1200" height="1200" fill="#F6EBD7"/>
<rect x="0" y="380" width="1200" height="440" fill="#F2E5CF"/>
<line x1="0" y1="410" x2="1200" y2="410" stroke="#123E8A" stroke-width="10"/>
<line x1="0" y1="790" x2="1200" y2="790" stroke="#123E8A" stroke-width="10"/>
<path d="M -240.00,600.00 L -236.96,609.53 L -233.92,619.01 L -230.89,628.36 L -227.85,637.54 L -224.81,646.47 L -221.77,655.12 L -218.73,663.41 L -215.70,671.30 L -212.66,678.75 L -209.62,685.69 L -206.58,692.10 L -203.54,697.92 L -200.51,703.12 L -197.47,707.67 L -194.43,711.54 L -191.39,714.70 L -188.35,717.14 L -185.32,718.84 L -182.28,719.79 L -179.24,719.98 L -176.20,719.41 L -173.16,718.08 L -170.13,716.01 L -167.09,713.21 L -164.05,709.69 L -161.01,705.48 L -157.97,700.60 L -154.94,695.08 L -151.90,688.96 L -148.86,682.28 L -145.82,675.08 L -142.78,667.41 L -139.75,659.31 L -136.71,650.83 L -133.67,642.04 L -130.63,632.97 L -127.59,623.70 L -124.56,614.28 L -121.52,604.77 L -118.48,595.23 L -115.44,585.72 L -112.41,576.30 L -109.37,567.03 L -106.33,557.96 L -103.29,549.17 L -100.25,540.69 L -97.22,532.59 L -94.18,524.92 L -91.14,517.72 L -88.10,511.04 L -85.06,504.92 L -82.03,499.40 L -78.99,494.52 L -75.95,490.31 L -72.91,486.79 L -69.87,483.99 L -66.84,481.92 L -63.80,480.59 L -60.76,480.02 L -57.72,480.21 L -54.68,481.16 L -51.65,482.86 L -48.61,485.30 L -45.57,488.46 L -42.53,492.33 L -39.49,496.88 L -36.46,502.08 L -33.42,507.90 L -30.38,514.31 L -27.34,521.25 L -24.30,528.70 L -21.27,536.59 L -18.23,544.88 L -15.19,553.53 L -12.15,562.46 L -9.11,571.64 L -6.08,580.99 L -3.04,590.47 L 0.00,600.00" fill="none" stroke="#2C67B1" stroke-width="16" stroke-linecap="round"/>
<path d="M -240.00,600.00 L -236.96,609.53 L -233.92,619.01 L -230.89,628.36 L -227.85,637.54 L -224.81,646.47 L -221.77,655.12 L -218.73,663.41 L -215.70,671.30 L -212.66,678.75 L -209.62,685.69 L -206.58,692.10 L -203.54,697.92 L -200.51,703.12 L -197.47,707.67 L -194.43,711.54 L -191.39,714.70 L -188.35,717.14 L -185.32,718.84 L -182.28,719.79 L -179.24,719.98 L -176.20,719.41 L -173.16,718.08 L -170.13,716.01 L -167.09,713.21 L -164.05,709.69 L -161.01,705.48 L -157.97,700.60 L -154.94,695.08 L -151.90,688.96 L -148.86,682.28 L -145.82,675.08 L -142.78,667.41 L -139.75,659.31 L -136.71,650.83 L -133.67,642.04 L -130.63,632.97 L -127.59,623.70 L -124.56,614.28 L -121.52,604.77 L -118.48,595.23 L -115.44,585.72 L -112.41,576.30 L -109.37,567.03 L -106.33,557.96 L -103.29,549.17 L -100.25,540.69 L -97.22,532.59 L -94.18,524.92 L -91.14,517.72 L -88.10,511.04 L -85.06,504.92 L -82.03,499.40 L -78.99,494.52 L -75.95,490.31 L -72.91,486.79 L -69.87,483.99 L -66.84,481.92 L -63.80,480.59 L -60.76,480.02 L -57.72,480.21 L -54.68,481.16 L -51.65,482.86 L -48.61,485.30 L -45.57,488.46 L -42.53,492.33 L -39.49,496.88 L -36.46,502.08 L -33.42,507.90 L -30.38,514.31 L -27.34,521.25 L -24.30,528.70 L -21.27,536.59 L -18.23,544.88 L -15.19,553.53 L -12.15,562.46 L -9.11,571.64 L -6.08,580.99 L -3.04,590.47 L 0.00,600.00" fill="none" stroke="#123E8A" stroke-width="4" stroke-linecap="round"/>
<path d="M 0.00,600.00 L 3.04,609.53 L 6.08,619.01 L 9.11,628.36 L 12.15,637.54 L 15.19,646.47 L 18.23,655.12 L 21.27,663.41 L 24.30,671.30 L 27.34,678.75 L 30.38,685.69 L 33.42,692.10 L 36.46,697.92 L 39.49,703.12 L 42.53,707.67 L 45.57,711.54 L 48.61,714.70 L 51.65,717.14 L 54.68,718.84 L 57.72,719.79 L 60.76,719.98 L 63.80,719.41 L 66.84,718.08 L 69.87,716.01 L 72.91,713.21 L 75.95,709.69 L 78.99,705.48 L 82.03,700.60 L 85.06,695.08 L 88.10,688.96 L 91.14,682.28 L 94.18,675.08 L 97.22,667.41 L 100.25,659.31 L 103.29,650.83 L 106.33,642.04 L 109.37,632.97 L 112.41,623.70 L 115.44,614.28 L 118.48,604.77 L 121.52,595.23 L 124.56,585.72 L 127.59,576.30 L 130.63,567.03 L 133.67,557.96 L 136.71,549.17 L 139.75,540.69 L 142.78,532.59 L 145.82,524.92 L 148.86,517.72 L 151.90,511.04 L 154.94,504.92 L 157.97,499.40 L 161.01,494.52 L 164.05,490.31 L 167.09,486.79 L 170.13,483.99 L 173.16,481.92 L 176.20,480.59 L 179.24,480.02 L 182.28,480.21 L 185.32,481.16 L 188.35,482.86 L 191.39,485.30 L 194.43,488.46 L 197.47,492.33 L 200.51,496.88 L 203.54,502.08 L 206.58,507.90 L 209.62,514.31 L 212.66,521.25 L 215.70,528.70 L 218.73,536.59 L 221.77,544.88 L 224.81,553.53 L 227.85,562.46 L 230.89,571.64 L 233.92,580.99 L 236.96,590.47 L 240.00,600.00" fill="none" stroke="#2C67B1" stroke-width="16" stroke-linecap="round"/>
<path d="M 0.00,600.00 L 3.04,609.53 L 6.08,619.01 L 9.11,628.36 L 12.15,637.54 L 15.19,646.47 L 18.23,655.12 L 21.27,663.41 L 24.30,671.30 L 27.34,678.75 L 30.38,685.69 L 33.42,692.10 L 36.46,697.92 L 39.49,703.12 L 42.53,707.67 L 45.57,711.54 L 48.61,714.70 L 51.65,717.14 L 54.68,718.84 L 57.72,719.79 L 60.76,719.98 L 63.80,719.41 L 66.84,718.08 L 69.87,716.01 L 72.91,713.21 L 75.95,709.69 L 78.99,705.48 L 82.03,700.60 L 85.06,695.08 L 88.10,688.96 L 91.14,682.28 L 94.18,675.08 L 97.22,667.41 L 100.25,659.31 L 103.29,650.83 L 106.33,642.04 L 109.37,632.97 L 112.41,623.70 L 115.44,614.28 L 118.48,604.77 L 121.52,595.23 L 124.56,585.72 L 127.59,576.30 L 130.63,567.03 L 133.67,557.96 L 136.71,549.17 L 139.75,540.69 L 142.78,532.59 L 145.82,524.92 L 148.86,517.72 L 151.90,511.04 L 154.94,504.92 L 157.97,499.40 L 161.01,494.52 L 164.05,490.31 L 167.09,486.79 L 170.13,483.99 L 173.16,481.92 L 176.20,480.59 L 179.24,480.02 L 182.28,480.21 L 185.32,481.16 L 188.35,482.86 L 191.39,485.30 L 194.43,488.46 L 197.47,492.33 L 200.51,496.88 L 203.54,502.08 L 206.58,507.90 L 209.62,514.31 L 212.66,521.25 L 215.70,528.70 L 218.73,536.59 L 221.77,544.88 L 224.81,553.53 L 227.85,562.46 L 230.89,571.64 L 233.92,580.99 L 236.96,590.47 L 240.00,600.00" fill="none" stroke="#123E8A" stroke-width="4" stroke-linecap="round"/>
<path d="M 240.00,600.00 L 243.04,609.53 L 246.08,619.01 L 249.11,628.36 L 252.15,637.54 L 255.19,646.47 L 258.23,655.12 L 261.27,663.41 L 264.30,671.30 L 267.34,678.75 L 270.38,685.69 L 273.42,692.10 L 276.46,697.92 L 279.49,703.12 L 282.53,707.67 L 285.57,711.54 L 288.61,714.70 L 291.65,717.14 L 294.68,718.84 L 297.72,719.79 L 300.76,719.98 L 303.80,719.41 L 306.84,718.08 L 309.87,716.01 L 312.91,713.21 L 315.95,709.69 L 318.99,705.48 L 322.03,700.60 L 325.06,695.08 L 328.10,688.96 L 331.14,682.28 L 334.18,675.08 L 337.22,667.41 L 340.25,659.31 L 343.29,650.83 L 346.33,642.04 L 349.37,632.97 L 352.41,623.70 L 355.44,614.28 L 358.48,604.77 L 361.52,595.23 L 364.56,585.72 L 367.59,576.30 L 370.63,567.03 L 373.67,557.96 L 376.71,549.17 L 379.75,540.69 L 382.78,532.59 L 385.82,524.92 L 388.86,517.72 L 391.90,511.04 L 394.94,504.92 L 397.97,499.40 L 401.01,494.52 L 404.05,490.31 L 407.09,486.79 L 410.13,483.99 L 413.16,481.92 L 416.20,480.59 L 419.24,480.02 L 422.28,480.21 L 425.32,481.16 L 428.35,482.86 L 431.39,485.30 L 434.43,488.46 L 437.47,492.33 L 440.51,496.88 L 443.54,502.08 L 446.58,507.90 L 449.62,514.31 L 452.66,521.25 L 455.70,528.70 L 458.73,536.59 L 461.77,544.88 L 464.81,553.53 L 467.85,562.46 L 470.89,571.64 L 473.92,580.99 L 476.96,590.47 L 480.00,600.00" fill="none" stroke="#2C67B1" stroke-width="16" stroke-linecap="round"/>
<path d="M 240.00,600.00 L 243.04,609.53 L 246.08,619.01 L 249.11,628.36 L 252.15,637.54 L 255.19,646.47 L 258.23,655.12 L 261.27,663.41 L 264.30,671.30 L 267.34,678.75 L 270.38,685.69 L 273.42,692.10 L 276.46,697.92 L 279.49,703.12 L 282.53,707.67 L 285.57,711.54 L 288.61,714.70 L 291.65,717.14 L 294.68,718.84 L 297.72,719.79 L 300.76,719.98 L 303.80,719.41 L 306.84,718.08 L 309.87,716.01 L 312.91,713.21 L 315.95,709.69 L 318.99,705.48 L 322.03,700.60 L 325.06,695.08 L 328.10,688.96 L 331.14,682.28 L 334.18,675.08 L 337.22,667.41 L 340.25,659.31 L 343.29,650.83 L 346.33,642.04 L 349.37,632.97 L 352.41,623.70 L 355.44,614.28 L 358.48,604.77 L 361.52,595.23 L 364.56,585.72 L 367.59,576.30 L 370.63,567.03 L 373.67,557.96 L 376.71,549.17 L 379.75,540.69 L 382.78,532.59 L 385.82,524.92 L 388.86,517.72 L 391.90,511.04 L 394.94,504.92 L 397.97,499.40 L 401.01,494.52 L 404.05,490.31 L 407.09,486.79 L 410.13,483.99 L 413.16,481.92 L 416.20,480.59 L 419.24,480.02 L 422.28,480.21 L 425.32,481.16 L 428.35,482.86 L 431.39,485.30 L 434.43,488.46 L 437.47,492.33 L 440.51,496.88 L 443.54,502.08 L 446.58,507.90 L 449.62,514.31 L 452.66,521.25 L 455.70,528.70 L 458.73,536.59 L 461.77,544.88 L 464.81,553.53 L 467.85,562.46 L 470.89,571.64 L 473.92,580.99 L 476.96,590.47 L 480.00,600.00" fill="none" stroke="#123E8A" stroke-width="4" stroke-linecap="round"/>
<path d="M 480.00,600.00 L 483.04,609.53 L 486.08,619.01 L 489.11,628.36 L 492.15,637.54 L 495.19,646.47 L 498.23,655.12 L 501.27,663.41 L 504.30,671.30 L 507.34,678.75 L 510.38,685.69 L 513.42,692.10 L 516.46,697.92 L 519.49,703.12 L 522.53,707.67 L 525.57,711.54 L 528.61,714.70 L 531.65,717.14 L 534.68,718.84 L 537.72,719.79 L 540.76,719.98 L 543.80,719.41 L 546.84,718.08 L 549.87,716.01 L 552.91,713.21 L 555.95,709.69 L 558.99,705.48 L 562.03,700.60 L 565.06,695.08 L 568.10,688.96 L 571.14,682.28 L 574.18,675.08 L 577.22,667.41 L 580.25,659.31 L 583.29,650.83 L 586.33,642.04 L 589.37,632.97 L 592.41,623.70 L 595.44,614.28 L 598.48,604.77 L 601.52,595.23 L 604.56,585.72 L 607.59,576.30 L 610.63,567.03 L 613.67,557.96 L 616.71,549.17 L 619.75,540.69 L 622.78,532.59 L 625.82,524.92 L 628.86,517.72 L 631.90,511.04 L 634.94,504.92 L 637.97,499.40 L 641.01,494.52 L 644.05,490.31 L 647.09,486.79 L 650.13,483.99 L 653.16,481.92 L 656.20,480.59 L 659.24,480.02 L 662.28,480.21 L 665.32,481.16 L 668.35,482.86 L 671.39,485.30 L 674.43,488.46 L 677.47,492.33 L 680.51,496.88 L 683.54,502.08 L 686.58,507.90 L 689.62,514.31 L 692.66,521.25 L 695.70,528.70 L 698.73,536.59 L 701.77,544.88 L 704.81,553.53 L 707.85,562.46 L 710.89,571.64 L 713.92,580.99 L 716.96,590.47 L 720.00,600.00" fill="none" stroke="#2C67B1" stroke-width="16" stroke-linecap="round"/>
<path d="M 480.00,600.00 L 483.04,609.53 L 486.08,619.01 L 489.11,628.36 L 492.15,637.54 L 495.19,646.47 L 498.23,655.12 L 501.27,663.41 L 504.30,671.30 L 507.34,678.75 L 510.38,685.69 L 513.42,692.10 L 516.46,697.92 L 519.49,703.12 L 522.53,707.67 L 525.57,711.54 L 528.61,714.70 L 531.65,717.14 L 534.68,718.84 L 537.72,719.79 L 540.76,719.98 L 543.80,719.41 L 546.84,718.08 L 549.87,716.01 L 552.91,713.21 L 555.95,709.69 L 558.99,705.48 L 562.03,700.60 L 565.06,695.08 L 568.10,688.96 L 571.14,682.28 L 574.18,675.08 L 577.22,667.41 L 580.25,659.31 L 583.29,650.83 L 586.33,642.04 L 589.37,632.97 L 592.41,623.70 L 595.44,614.28 L 598.48,604.77 L 601.52,595.23 L 604.56,585.72 L 607.59,576.30 L 610.63,567.03 L 613.67,557.96 L 616.71,549.17 L 619.75,540.69 L 622.78,532.59 L 625.82,524.92 L 628.86,517.72 L 631.90,511.04 L 634.94,504.92 L 637.97,499.40 L 641.01,494.52 L 644.05,490.31 L 647.09,486.79 L 650.13,483.99 L 653.16,481.92 L 656.20,480.59 L 659.24,480.02 L 662.28,480.21 L 665.32,481.16 L 668.35,482.86 L 671.39,485.30 L 674.43,488.46 L 677.47,492.33 L 680.51,496.88 L 683.54,502.08 L 686.58,507.90 L 689.62,514.31 L 692.66,521.25 L 695.70,528.70 L 698.73,536.59 L 701.77,544.88 L 704.81,553.53 L 707.85,562.46 L 710.89,571.64 L 713.92,580.99 L 716.96,590.47 L 720.00,600.00" fill="none" stroke="#123E8A" stroke-width="4" stroke-linecap="round"/>
<path d="M 720.00,600.00 L 723.04,609.53 L 726.08,619.01 L 729.11,628.36 L 732.15,637.54 L 735.19,646.47 L 738.23,655.12 L 741.27,663.41 L 744.30,671.30 L 747.34,678.75 L 750.38,685.69 L 753.42,692.10 L 756.46,697.92 L 759.49,703.12 L 762.53,707.67 L 765.57,711.54 L 768.61,714.70 L 771.65,717.14 L 774.68,718.84 L 777.72,719.79 L 780.76,719.98 L 783.80,719.41 L 786.84,718.08 L 789.87,716.01 L 792.91,713.21 L 795.95,709.69 L 798.99,705.48 L 802.03,700.60 L 805.06,695.08 L 808.10,688.96 L 811.14,682.28 L 814.18,675.08 L 817.22,667.41 L 820.25,659.31 L 823.29,650.83 L 826.33,642.04 L 829.37,632.97 L 832.41,623.70 L 835.44,614.28 L 838.48,604.77 L 841.52,595.23 L 844.56,585.72 L 847.59,576.30 L 850.63,567.03 L 853.67,557.96 L 856.71,549.17 L 859.75,540.69 L 862.78,532.59 L 865.82,524.92 L 868.86,517.72 L 871.90,511.04 L 874.94,504.92 L 877.97,499.40 L 881.01,494.52 L 884.05,490.31 L 887.09,486.79 L 890.13,483.99 L 893.16,481.92 L 896.20,480.59 L 899.24,480.02 L 902.28,480.21 L 905.32,481.16 L 908.35,482.86 L 911.39,485.30 L 914.43,488.46 L 917.47,492.33 L 920.51,496.88 L 923.54,502.08 L 926.58,507.90 L 929.62,514.31 L 932.66,521.25 L 935.70,528.70 L 938.73,536.59 L 941.77,544.88 L 944.81,553.53 L 947.85,562.46 L 950.89,571.64 L 953.92,580.99 L 956.96,590.47 L 960.00,600.00" fill="none" stroke="#2C67B1" stroke-width="16" stroke-linecap="round"/>
<path d="M 720.00,600.00 L 723.04,609.53 L 726.08,619.01 L 729.11,628.36 L 732.15,637.54 L 735.19,646.47 L 738.23,655.12 L 741.27,663.41 L 744.30,671.30 L 747.34,678.75 L 750.38,685.69 L 753.42,692.10 L 756.46,697.92 L 759.49,703.12 L 762.53,707.67 L 765.57,711.54 L 768.61,714.70 L 771.65,717.14 L 774.68,718.84 L 777.72,719.79 L 780.76,719.98 L 783.80,719.41 L 786.84,718.08 L 789.87,716.01 L 792.91,713.21 L 795.95,709.69 L 798.99,705.48 L 802.03,700.60 L 805.06,695.08 L 808.10,688.96 L 811.14,682.28 L 814.18,675.08 L 817.22,667.41 L 820.25,659.31 L 823.29,650.83 L 826.33,642.04 L 829.37,632.97 L 832.41,623.70 L 835.44,614.28 L 838.48,604.77 L 841.52,595.23 L 844.56,585.72 L 847.59,576.30 L 850.63,567.03 L 853.67,557.96 L 856.71,549.17 L 859.75,540.69 L 862.78,532.59 L 865.82,524.92 L 868.86,517.72 L 871.90,511.04 L 874.94,504.92 L 877.97,499.40 L 881.01,494.52 L 884.05,490.31 L 887.09,486.79 L 890.13,483.99 L 893.16,481.92 L 896.20,480.59 L 899.24,480.02 L 902.28,480.21 L 905.32,481.16 L 908.35,482.86 L 911.39,485.30 L 914.43,488.46 L 917.47,492.33 L 920.51,496.88 L 923.54,502.08 L 926.58,507.90 L 929.62,514.31 L 932.66,521.25 L 935.70,528.70 L 938.73,536.59 L 941.77,544.88 L 944.81,553.53 L 947.85,562.46 L 950.89,571.64 L 953.92,580.99 L 956.96,590.47 L 960.00,600.00" fill="none" stroke="#123E8A" stroke-width="4" stroke-linecap="round"/>
<path d="M 960.00,600.00 L 963.04,609.53 L 966.08,619.01 L 969.11,628.36 L 972.15,637.54 L 975.19,646.47 L 978.23,655.12 L 981.27,663.41 L 984.30,671.30 L 987.34,678.75 L 990.38,685.69 L 993.42,692.10 L 996.46,697.92 L 999.49,703.12 L 1002.53,707.67 L 1005.57,711.54 L 1008.61,714.70 L 1011.65,717.14 L 1014.68,718.84 L 1017.72,719.79 L 1020.76,719.98 L 1023.80,719.41 L 1026.84,718.08 L 1029.87,716.01 L 1032.91,713.21 L 1035.95,709.69 L 1038.99,705.48 L 1042.03,700.60 L 1045.06,695.08 L 1048.10,688.96 L 1051.14,682.28 L 1054.18,675.08 L 1057.22,667.41 L 1060.25,659.31 L 1063.29,650.83 L 1066.33,642.04 L 1069.37,632.97 L 1072.41,623.70 L 1075.44,614.28 L 1078.48,604.77 L 1081.52,595.23 L 1084.56,585.72 L 1087.59,576.30 L 1090.63,567.03 L 1093.67,557.96 L 1096.71,549.17 L 1099.75,540.69 L 1102.78,532.59 L 1105.82,524.92 L 1108.86,517.72 L 1111.90,511.04 L 1114.94,504.92 L 1117.97,499.40 L 1121.01,494.52 L 1124.05,490.31 L 1127.09,486.79 L 1130.13,483.99 L 1133.16,481.92 L 1136.20,480.59 L 1139.24,480.02 L 1142.28,480.21 L 1145.32,481.16 L 1148.35,482.86 L 1151.39,485.30 L 1154.43,488.46 L 1157.47,492.33 L 1160.51,496.88 L 1163.54,502.08 L 1166.58,507.90 L 1169.62,514.31 L 1172.66,521.25 L 1175.70,528.70 L 1178.73,536.59 L 1181.77,544.88 L 1184.81,553.53 L 1187.85,562.46 L 1190.89,571.64 L 1193.92,580.99 L 1196.96,590.47 L 1200.00,600.00" fill="none" stroke="#2C67B1" stroke-width="16" stroke-linecap="round"/>
<path d="M 960.00,600.00 L 963.04,609.53 L 966.08,619.01 L 969.11,628.36 L 972.15,637.54 L 975.19,646.47 L 978.23,655.12 L 981.27,663.41 L 984.30,671.30 L 987.34,678.75 L 990.38,685.69 L 993.42,692.10 L 996.46,697.92 L 999.49,703.12 L 1002.53,707.67 L 1005.57,711.54 L 1008.61,714.70 L 1011.65,717.14 L 1014.68,718.84 L 1017.72,719.79 L 1020.76,719.98 L 1023.80,719.41 L 1026.84,718.08 L 1029.87,716.01 L 1032.91,713.21 L 1035.95,709.69 L 1038.99,705.48 L 1042.03,700.60 L 1045.06,695.08 L 1048.10,688.96 L 1051.14,682.28 L 1054.18,675.08 L 1057.22,667.41 L 1060.25,659.31 L 1063.29,650.83 L 1066.33,642.04 L 1069.37,632.97 L 1072.41,623.70 L 1075.44,614.28 L 1078.48,604.77 L 1081.52,595.23 L 1084.56,585.72 L 1087.59,576.30 L 1090.63,567.03 L 1093.67,557.96 L 1096.71,549.17 L 1099.75,540.69 L 1102.78,532.59 L 1105.82,524.92 L 1108.86,517.72 L 1111.90,511.04 L 1114.94,504.92 L 1117.97,499.40 L 1121.01,494.52 L 1124.05,490.31 L 1127.09,486.79 L 1130.13,483.99 L 1133.16,481.92 L 1136.20,480.59 L 1139.24,480.02 L 1142.28,480.21 L 1145.32,481.16 L 1148.35,482.86 L 1151.39,485.30 L 1154.43,488.46 L 1157.47,492.33 L 1160.51,496.88 L 1163.54,502.08 L 1166.58,507.90 L 1169.62,514.31 L 1172.66,521.25 L 1175.70,528.70 L 1178.73,536.59 L 1181.77,544.88 L 1184.81,553.53 L 1187.85,562.46 L 1190.89,571.64 L 1193.92,580.99 L 1196.96,590.47 L 1200.00,600.00" fill="none" stroke="#123E8A" stroke-width="4" stroke-linecap="round"/>
<path d="M 1200.00,600.00 L 1203.04,609.53 L 1206.08,619.01 L 1209.11,628.36 L 1212.15,637.54 L 1215.19,646.47 L 1218.23,655.12 L 1221.27,663.41 L 1224.30,671.30 L 1227.34,678.75 L 1230.38,685.69 L 1233.42,692.10 L 1236.46,697.92 L 1239.49,703.12 L 1242.53,707.67 L 1245.57,711.54 L 1248.61,714.70 L 1251.65,717.14 L 1254.68,718.84 L 1257.72,719.79 L 1260.76,719.98 L 1263.80,719.41 L 1266.84,718.08 L 1269.87,716.01 L 1272.91,713.21 L 1275.95,709.69 L 1278.99,705.48 L 1282.03,700.60 L 1285.06,695.08 L 1288.10,688.96 L 1291.14,682.28 L 1294.18,675.08 L 1297.22,667.41 L 1300.25,659.31 L 1303.29,650.83 L 1306.33,642.04 L 1309.37,632.97 L 1312.41,623.70 L 1315.44,614.28 L 1318.48,604.77 L 1321.52,595.23 L 1324.56,585.72 L 1327.59,576.30 L 1330.63,567.03 L 1333.67,557.96 L 1336.71,549.17 L 1339.75,540.69 L 1342.78,532.59 L 1345.82,524.92 L 1348.86,517.72 L 1351.90,511.04 L 1354.94,504.92 L 1357.97,499.40 L 1361.01,494.52 L 1364.05,490.31 L 1367.09,486.79 L 1370.13,483.99 L 1373.16,481.92 L 1376.20,480.59 L 1379.24,480.02 L 1382.28,480.21 L 1385.32,481.16 L 1388.35,482.86 L 1391.39,485.30 L 1394.43,488.46 L 1397.47,492.33 L 1400.51,496.88 L 1403.54,502.08 L 1406.58,507.90 L 1409.62,514.31 L 1412.66,521.25 L 1415.70,528.70 L 1418.73,536.59 L 1421.77,544.88 L 1424.81,553.53 L 1427.85,562.46 L 1430.89,571.64 L 1433.92,580.99 L 1436.96,590.47 L 1440.00,600.00" fill="none" stroke="#2C67B1" stroke-width="16" stroke-linecap="round"/>
<path d="M 1200.00,600.00 L 1203.04,609.53 L 1206.08,619.01 L 1209.11,628.36 L 1212.15,637.54 L 1215.19,646.47 L 1218.23,655.12 L 1221.27,663.41 L 1224.30,671.30 L 1227.34,678.75 L 1230.38,685.69 L 1233.42,692.10 L 1236.46,697.92 L 1239.49,703.12 L 1242.53,707.67 L 1245.57,711.54 L 1248.61,714.70 L 1251.65,717.14 L 1254.68,718.84 L 1257.72,719.79 L 1260.76,719.98 L 1263.80,719.41 L 1266.84,718.08 L 1269.87,716.01 L 1272.91,713.21 L 1275.95,709.69 L 1278.99,705.48 L 1282.03,700.60 L 1285.06,695.08 L 1288.10,688.96 L 1291.14,682.28 L 1294.18,675.08 L 1297.22,667.41 L 1300.25,659.31 L 1303.29,650.83 L 1306.33,642.04 L 1309.37,632.97 L 1312.41,623.70 L 1315.44,614.28 L 1318.48,604.77 L 1321.52,595.23 L 1324.56,585.72 L 1327.59,576.30 L 1330.63,567.03 L 1333.67,557.96 L 1336.71,549.17 L 1339.75,540.69 L 1342.78,532.59 L 1345.82,524.92 L 1348.86,517.72 L 1351.90,511.04 L 1354.94,504.92 L 1357.97,499.40 L 1361.01,494.52 L 1364.05,490.31 L 1367.09,486.79 L 1370.13,483.99 L 1373.16,481.92 L 1376.20,480.59 L 1379.24,480.02 L 1382.28,480.21 L 1385.32,481.16 L 1388.35,482.86 L 1391.39,485.30 L 1394.43,488.46 L 1397.47,492.33 L 1400.51,496.88 L 1403.54,502.08 L 1406.58,507.90 L 1409.62,514.31 L 1412.66,521.25 L 1415.70,528.70 L 1418.73,536.59 L 1421.77,544.88 L 1424.81,553.53 L 1427.85,562.46 L 1430.89,571.64 L 1433.92,580.99 L 1436.96,590.47 L 1440.00,600.00" fill="none" stroke="#123E8A" stroke-width="4" stroke-linecap="round"/>
<polygon points="24.0,600 0,566 -24.0,600 0,634" fill="#3D7E7A" stroke="#1E2A44" stroke-width="2"/>
<polygon points="96.0,600 120,566 144.0,600 120,634" fill="#3D7E7A" stroke="#1E2A44" stroke-width="2"/>
<polygon points="264.0,600 240,566 216.0,600 240,634" fill="#3D7E7A" stroke="#1E2A44" stroke-width="2"/>
<polygon points="336.0,600 360,566 384.0,600 360,634" fill="#3D7E7A" stroke="#1E2A44" stroke-width="2"/>
<polygon points="504.0,600 480,566 456.0,600 480,634" fill="#3D7E7A" stroke="#1E2A44" stroke-width="2"/>
<polygon points="576.0,600 600,566 624.0,600 600,634" fill="#3D7E7A" stroke="#1E2A44" stroke-width="2"/>
<polygon points="744.0,600 720,566 696.0,600 720,634" fill="#3D7E7A" stroke="#1E2A44" stroke-width="2"/>
<polygon points="816.0,600 840,566 864.0,600 840,634" fill="#3D7E7A" stroke="#1E2A44" stroke-width="2"/>
<polygon points="984.0,600 960,566 936.0,600 960,634" fill="#3D7E7A" stroke="#1E2A44" stroke-width="2"/>
<polygon points="1056.0,600 1080,566 1104.0,600 1080,634" fill="#3D7E7A" stroke="#1E2A44" stroke-width="2"/>
<polygon points="1224.0,600 1200,566 1176.0,600 1200,634" fill="#3D7E7A" stroke="#1E2A44" stroke-width="2"/>
<circle cx="0" cy="300" r="18" fill="#C9A23A" stroke="#1E2A44" stroke-width="2"/>
<circle cx="0" cy="900" r="18" fill="#C9A23A" stroke="#1E2A44" stroke-width="2"/>
<circle cx="300" cy="300" r="18" fill="#C9A23A" stroke="#1E2A44" stroke-width="2"/>
<circle cx="300" cy="900" r="18" fill="#C9A23A" stroke="#1E2A44" stroke-width="2"/>
<circle cx="600" cy="300" r="18" fill="#C9A23A" stroke="#1E2A44" stroke-width="2"/>
<circle cx="600" cy="900" r="18" fill="#C9A23A" stroke="#1E2A44" stroke-width="2"/>
<circle cx="900" cy="300" r="18" fill="#C9A23A" stroke="#1E2A44" stroke-width="2"/>
<circle cx="900" cy="900" r="18" fill="#C9A23A" stroke="#1E2A44" stroke-width="2"/>
<circle cx="1200" cy="300" r="18" fill="#C9A23A" stroke="#1E2A44" stroke-width="2"/>
<circle cx="1200" cy="900" r="18" fill="#C9A23A" stroke="#1E2A44" stroke-width="2"/>
</svg>