<svg xmlns="http://www.w3.org/2000/svg" width="1200" height="1200" viewBox="0 0 1200 1200">
<rect width="1200" height="1200" fill="#F6EBD7"/>
<line x1="0" y1="0" x2="0" y2="1200" stroke="#D7C7AE" stroke-width="2"/>
<line x1="0" y1="0" x2="1200" y2="0" stroke="#D7C7AE" stroke-width="2"/>
<line x1="300" y1="0" x2="300" y2="1200" stroke="#D7C7AE" stroke-width="2"/>
<line x1="0" y1="300" x2="1200" y2="300" stroke="#D7C7AE" stroke-width="2"/>
<line x1="600" y1="0" x2="600" y2="1200" stroke="#D7C7AE" stroke-width="2"/>
<line x1="0" y1="600" x2="1200" y2="600" stroke="#D7C7AE" stroke-width="2"/>
<line x1="900" y1="0" x2="900" y2="1200" stroke="#D7C7AE" stroke-width="2"/>
<line x1="0" y1="900" x2="1200" y2="900" stroke="#D7C7AE" stroke-width="2"/>
<line x1="1200" y1="0" x2="1200" y2="1200" stroke="#D7C7AE" stroke-width="2"/>
<line x1="0" y1="1200" x2="1200" y2="1200" stroke="#D7C7AE" stroke-width="2"/>
<polygon points="174.73,131.97 180.35,130.82 186.22,130.34 192.26,130.56 198.41,131.52 204.6,133.2 210.76,135.64 216.81,138.82 222.68,142.75 228.3,147.4 228.3,152.6 222.68,157.25 216.81,161.18 210.76,164.36 204.6,166.8 198.41,168.48 192.26,169.44 186.22,169.66 180.35,169.18 174.73,168.03" fill="#123E8A"/>
<polygon points="180.23,154.74 185.03,157.9 189.51,161.71 193.63,166.14 197.3,171.16 200.49,176.73 203.12,182.81 205.14,189.34 206.52,196.26 207.21,203.53 203.53,207.21 196.26,206.52 189.34,205.14 182.81,203.12 176.73,200.49 171.16,197.3 166.14,193.63 161.71,189.51 157.9,185.03 154.74,180.23" fill="#123E8A"/>
<polygon points="168.03,174.73 169.18,180.35 169.66,186.22 169.44,192.26 168.48,198.41 166.8,204.6 164.36,210.76 161.18,216.81 157.25,222.68 152.6,228.3 147.4,228.3 142.75,222.68 138.82,216.81 135.64,210.76 133.2,204.6 131.52,198.41 130.56,192.26 130.34,186.22 130.82,180.35 131.97,174.73" fill="#123E8A"/>
<polygon points="145.26,180.23 142.1,185.03 138.29,189.51 133.86,193.63 128.84,197.3 123.27,200.49 117.19,203.12 110.66,205.14 103.74,206.52 96.47,207.21 92.79,203.53 93.48,196.26 94.86,189.34 96.88,182.81 99.51,176.73 102.7,171.16 106.37,166.14 110.49,161.71 114.97,157.9 119.77,154.74" fill="#123E8A"/>
<polygon points="125.27,168.03 119.65,169.18 113.78,169.66 107.74,169.44 101.59,168.48 95.4,166.8 89.24,164.36 83.19,161.18 77.32,157.25 71.7,152.6 71.7,147.4 77.32,142.75 83.19,138.82 89.24,135.64 95.4,133.2 101.59,131.52 107.74,130.56 113.78,130.34 119.65,130.82 125.27,131.97" fill="#123E8A"/>
<polygon points="119.77,145.26 114.97,142.1 110.49,138.29 106.37,133.86 102.7,128.84 99.51,123.27 96.88,117.19 94.86,110.66 93.48,103.74 92.79,96.47 96.47,92.79 103.74,93.48 110.66,94.86 117.19,96.88 123.27,99.51 128.84,102.7 133.86,106.37 138.29,110.49 142.1,114.97 145.26,119.77" fill="#123E8A"/>
<polygon points="131.97,125.27 130.82,119.65 130.34,113.78 130.56,107.74 131.52,101.59 133.2,95.4 135.64,89.24 138.82,83.19 142.75,77.32 147.4,71.7 152.6,71.7 157.25,77.32 161.18,83.19 164.36,89.24 166.8,95.4 168.48,101.59 169.44,107.74 169.66,113.78 169.18,119.65 168.03,125.27" fill="#123E8A"/>
<polygon points="154.74,119.77 157.9,114.97 161.71,110.49 166.14,106.37 171.16,102.7 176.73,99.51 182.81,96.88 189.34,94.86 196.26,93.48 203.53,92.79 207.21,96.47 206.52,103.74 205.14,110.66 203.12,117.19 200.49,123.27 197.3,128.84 193.63,133.86 189.51,138.29 185.03,142.1 180.23,145.26" fill="#123E8A"/>
<circle cx="150" cy="150" r="26" fill="#2C67B1"/><circle cx="150" cy="150" r="10" fill="#F6EBD7"/>
<polygon points="30,12 48,30 30,48 12,30" fill="#2C67B1"/>
<polygon points="270,12 288,30 270,48 252,30" fill="#2C67B1"/>
<polygon points="30,252 48,270 30,288 12,270" fill="#2C67B1"/>
<polygon points="270,252 288,270 270,288 252,270" fill="#2C67B1"/>
<polygon points="474.73,131.97 480.35,130.82 486.22,130.34 492.26,130.56 498.41,131.52 504.6,133.2 510.76,135.64 516.81,138.82 522.68,142.75 528.3,147.4 528.3,152.6 522.68,157.25 516.81,161.18 510.76,164.36 504.6,166.8 498.41,168.48 492.26,169.44 486.22,169.66 480.35,169.18 474.73,168.03" fill="#123E8A"/>
<polygon points="480.23,154.74 485.03,157.9 489.51,161.71 493.63,166.14 497.3,171.16 500.49,176.73 503.12,182.81 505.14,189.34 506.52,196.26 507.21,203.53 503.53,207.21 496.26,206.52 489.34,205.14 482.81,203.12 476.73,200.49 471.16,197.3 466.14,193.63 461.71,189.51 457.9,185.03 454.74,180.23" fill="#123E8A"/>
<polygon points="468.03,174.73 469.18,180.35 469.66,186.22 469.44,192.26 468.48,198.41 466.8,204.6 464.36,210.76 461.18,216.81 457.25,222.68 452.6,228.3 447.4,228.3 442.75,222.68 438.82,216.81 435.64,210.76 433.2,204.6 431.52,198.41 430.56,192.26 430.34,186.22 430.82,180.35 431.97,174.73" fill="#123E8A"/>
<polygon points="445.26,180.23 442.1,185.03 438.29,189.51 433.86,193.63 428.84,197.3 423.27,200.49 417.19,203.12 410.66,205.14 403.74,206.52 396.47,207.21 392.79,203.53 393.48,196.26 394.86,189.34 396.88,182.81 399.51,176.73 402.7,171.16 406.37,166.14 410.49,161.71 414.97,157.9 419.77,154.74" fill="#123E8A"/>
<polygon points="425.27,168.03 419.65,169.18 413.78,169.66 407.74,169.44 401.59,168.48 395.4,166.8 389.24,164.36 383.19,161.18 377.32,157.25 371.7,152.6 371.7,147.4 377.32,142.75 383.19,138.82 389.24,135.64 395.4,133.2 401.59,131.52 407.74,130.56 413.78,130.34 419.65,130.82 425.27,131.97" fill="#123E8A"/>
<polygon points="419.77,145.26 414.97,142.1 410.49,138.29 406.37,133.86 402.7,128.84 399.51,123.27 396.88,117.19 394.86,110.66 393.48,103.74 392.79,96.47 396.47,92.79 403.74,93.48 410.66,94.86 417.19,96.88 423.27,99.51 428.84,102.7 433.86,106.37 438.29,110.49 442.1,114.97 445.26,119.77" fill="#123E8A"/>
<polygon points="431.97,125.27 430.82,119.65 430.34,113.78 430.56,107.74 431.52,101.59 433.2,95.4 435.64,89.24 438.82,83.19 442.75,77.32 447.4,71.7 452.6,71.7 457.25,77.32 461.18,83.19 464.36,89.24 466.8,95.4 468.48,101.59 469.44,107.74 469.66,113.78 469.18,119.65 468.03,125.27" fill="#123E8A"/>
<polygon points="454.74,119.77 457.9,114.97 461.71,110.49 466.14,106.37 471.16,102.7 476.73,99.51 482.81,96.88 489.34,94.86 496.26,93.48 503.53,92.79 507.21,96.47 506.52,103.74 505.14,110.66 503.12,117.19 500.49,123.27 497.3,128.84 493.63,133.86 489.51,138.29 485.03,142.1 480.23,145.26" fill="#123E8A"/>
<circle cx="450" cy="150" r="26" fill="#2C67B1"/><circle cx="450" cy="150" r="10" fill="#F6EBD7"/>
<polygon points="330,12 348,30 330,48 312,30" fill="#2C67B1"/>
<polygon points="570,12 588,30 570,48 552,30" fill="#2C67B1"/>
<polygon points="330,252 348,270 330,288 312,270" fill="#2C67B1"/>
<polygon points="570,252 588,270 570,288 552,270" fill="#2C67B1"/>
<polygon points="774.73,131.97 780.35,130.82 786.22,130.34 792.26,130.56 798.41,131.52 804.6,133.2 810.76,135.64 816.81,138.82 822.68,142.75 828.3,147.4 828.3,152.6 822.68,157.25 816.81,161.18 810.76,164.36 804.6,166.8 798.41,168.48 792.26,169.44 786.22,169.66 780.35,169.18 774.73,168.03" fill="#123E8A"/>
<polygon points="780.23,154.74 785.03,157.9 789.51,161.71 793.63,166.14 797.3,171.16 800.49,176.73 803.12,182.81 805.14,189.34 806.52,196.26 807.21,203.53 803.53,207.21 796.26,206.52 789.34,205.14 782.81,203.12 776.73,200.49 771.16,197.3 766.14,193.63 761.71,189.51 757.9,185.03 754.74,180.23" fill="#123E8A"/>
<polygon points="768.03,174.73 769.18,180.35 769.66,186.22 769.44,192.26 768.48,198.41 766.8,204.6 764.36,210.76 761.18,216.81 757.25,222.68 752.6,228.3 747.4,228.3 742.75,222.68 738.82,216.81 735.64,210.76 733.2,204.6 731.52,198.41 730.56,192.26 730.34,186.22 730.82,180.35 731.97,174.73" fill="#123E8A"/>
<polygon points="745.26,180.23 742.1,185.03 738.29,189.51 733.86,193.63 728.84,197.3 723.27,200.49 717.19,203.12 710.66,205.14 703.74,206.52 696.47,207.21 692.79,203.53 693.48,196.26 694.86,189.34 696.88,182.81 699.51,176.73 702.7,171.16 706.37,166.14 710.49,161.71 714.97,157.9 719.77,154.74" fill="#123E8A"/>
<polygon points="725.27,168.03 719.65,169.18 713.78,169.66 707.74,169.44 701.59,168.48 695.4,166.8 689.24,164.36 683.19,161.18 677.32,157.25 671.7,152.6 671.7,147.4 677.32,142.75 683.19,138.82 689.24,135.64 695.4,133.2 701.59,131.52 707.74,130.56 713.78,130.34 719.65,130.82 725.27,131.97" fill="#123E8A"/>
<polygon points="719.77,145.26 714.97,142.1 710.49,138.29 706.37,133.86 702.7,128.84 699.51,123.27 696.88,117.19 694.86,110.66 693.48,103.74 692.79,96.47 696.47,92.79 703.74,93.48 710.66,94.86 717.19,96.88 723.27,99.51 728.84,102.7 733.86,106.37 738.29,110.49 742.1,114.97 745.26,119.77" fill="#123E8A"/>
<polygon points="731.97,125.27 730.82,119.65 730.34,113.78 730.56,107.74 731.52,101.59 733.2,95.4 735.64,89.24 738.82,83.19 742.75,77.32 747.4,71.7 752.6,71.7 757.25,77.32 761.18,83.19 764.36,89.24 766.8,95.4 768.48,101.59 769.44,107.74 769.66,113.78 769.18,119.65 768.03,125.27" fill="#123E8A"/>
<polygon points="754.74,119.77 757.9,114.97 761.71,110.49 766.14,106.37 771.16,102.7 776.73,99.51 782.81,96.88 789.34,94.86 796.26,93.48 803.53,92.79 807.21,96.47 806.52,103.74 805.14,110.66 803.12,117.19 800.49,123.27 797.3,128.84 793.63,133.86 789.51,138.29 785.03,142.1 780.23,145.26" fill="#123E8A"/>
<circle cx="750" cy="150" r="26" fill="#2C67B1"/><circle cx="750" cy="150" r="10" fill="#F6EBD7"/>
<polygon points="630,12 648,30 630,48 612,30" fill="#2C67B1"/>
<polygon points="870,12 888,30 870,48 852,30" fill="#2C67B1"/>
<polygon points="630,252 648,270 630,288 612,270" fill="#2C67B1"/>
<polygon points="870,252 888,270 870,288 852,270" fill="#2C67B1"/>
<polygon points="1074.73,131.97 1080.35,130.82 1086.22,130.34 1092.26,130.56 1098.41,131.52 1104.6,133.2 1110.76,135.64 1116.81,138.82 1122.68,142.75 1128.3,147.4 1128.3,152.6 1122.68,157.25 1116.81,161.18 1110.76,164.36 1104.6,166.8 1098.41,168.48 1092.26,169.44 1086.22,169.66 1080.35,169.18 1074.73,168.03" fill="#123E8A"/>
<polygon points="1080.23,154.74 1085.03,157.9 1089.51,161.71 1093.63,166.14 1097.3,171.16 1100.49,176.73 1103.12,182.81 1105.14,189.34 1106.52,196.26 1107.21,203.53 1103.53,207.21 1096.26,206.52 1089.34,205.14 1082.81,203.12 1076.73,200.49 1071.16,197.3 1066.14,193.63 1061.71,189.51 1057.9,185.03 1054.74,180.23" fill="#123E8A"/>
<polygon points="1068.03,174.73 1069.18,180.35 1069.66,186.22 1069.44,192.26 1068.48,198.41 1066.8,204.6 1064.36,210.76 1061.18,216.81 1057.25,222.68 1052.6,228.3 1047.4,228.3 1042.75,222.68 1038.82,216.81 1035.64,210.76 1033.2,204.6 1031.52,198.41 1030.56,192.26 1030.34,186.22 1030.82,180.35 1031.97,174.73" fill="#123E8A"/>
<polygon points="1045.26,180.23 1042.1,185.03 1038.29,189.51 1033.86,193.63 1028.84,197.3 1023.27,200.49 1017.19,203.12 1010.66,205.14 1003.74,206.52 996.47,207.21 992.79,203.53 993.48,196.26 994.86,189.34 996.88,182.81 999.51,176.73 1002.7,171.16 1006.37,166.14 1010.49,161.71 1014.97,157.9 1019.77,154.74" fill="#123E8A"/>
<polygon points="1025.27,168.03 1019.65,169.18 1013.78,169.66 1007.74,169.44 1001.59,168.48 995.4,166.8 989.24,164.36 983.19,161.18 977.32,157.25 971.7,152.6 971.7,147.4 977.32,142.75 983.19,138.82 989.24,135.64 995.4,133.2 1001.59,131.52 1007.74,130.56 1013.78,130.34 1019.65,130.82 1025.27,131.97" fill="#123E8A"/>
<polygon points="1019.77,145.26 1014.97,142.1 1010.49,138.29 1006.37,133.86 1002.7,128.84 999.51,123.27 996.88,117.19 994.86,110.66 993.48,103.74 992.79,96.47 996.47,92.79 1003.74,93.48 1010.66,94.86 1017.19,96.88 1023.27,99.51 1028.84,102.7 1033.86,106.37 1038.29,110.49 1042.1,114.97 1045.26,119.77" fill="#123E8A"/>
<polygon points="1031.97,125.27 1030.82,119.65 1030.34,113.78 1030.56,107.74 1031.52,101.59 1033.2,95.4 1035.64,89.24 1038.82,83.19 1042.75,77.32 1047.4,71.7 1052.6,71.7 1057.25,77.32 1061.18,83.19 1064.36,89.24 1066.8,95.4 1068.48,101.59 1069.44,107.74 1069.66,113.78 1069.18,119.65 1068.03,125.27" fill="#123E8A"/>
<polygon points="1054.74,119.77 1057.9,114.97 1061.71,110.49 1066.14,106.37 1071.16,102.7 1076.73,99.51 1082.81,96.88 1089.34,94.86 1096.26,93.48 1103.53,92.79 1107.21,96.47 1106.52,103.74 1105.14,110.66 1103.12,117.19 1100.49,123.27 1097.3,128.84 1093.63,133.86 1089.51,138.29 1085.03,142.1 1080.23,145.26" fill="#123E8A"/>
<circle cx="1050" cy="150" r="26" fill="#2C67B1"/><circle cx="1050" cy="150" r="10" fill="#F6EBD7"/>
<polygon points="930,12 948,30 930,48 912,30" fill="#2C67B1"/>
<polygon points="1170,12 1188,30 1170,48 1152,30" fill="#2C67B1"/>
<polygon points="930,252 948,270 930,288 912,270" fill="#2C67B1"/>
<polygon points="1170,252 1188,270 1170,288 1152,270" fill="#2C67B1"/>
<polygon points="174.73,431.97 180.35,430.82 186.22,430.34 192.26,430.56 198.41,431.52 204.6,433.2 210.76,435.64 216.81,438.82 222.68,442.75 228.3,447.4 228.3,452.6 222.68,457.25 216.81,461.18 210.76,464.36 204.6,466.8 198.41,468.48 192.26,469.44 186.22,469.66 180.35,469.18 174.73,468.03" fill="#123E8A"/>
<polygon points="180.23,454.74 185.03,457.9 189.51,461.71 193.63,466.14 197.3,471.16 200.49,476.73 203.12,482.81 205.14,489.34 206.52,496.26 207.21,503.53 203.53,507.21 196.26,506.52 189.34,505.14 182.81,503.12 176.73,500.49 171.16,497.3 166.14,493.63 161.71,489.51 157.9,485.03 154.74,480.23" fill="#123E8A"/>
<polygon points="168.03,474.73 169.18,480.35 169.66,486.22 169.44,492.26 168.48,498.41 166.8,504.6 164.36,510.76 161.18,516.81 157.25,522.68 152.6,528.3 147.4,528.3 142.75,522.68 138.82,516.81 135.64,510.76 133.2,504.6 131.52,498.41 130.56,492.26 130.34,486.22 130.82,480.35 131.97,474.73" fill="#123E8A"/>
<polygon points="145.26,480.23 142.1,485.03 138.29,489.51 133.86,493.63 128.84,497.3 123.27,500.49 117.19,503.12 110.66,505.14 103.74,506.52 96.47,507.21 92.79,503.53 93.48,496.26 94.86,489.34 96.88,482.81 99.51,476.73 102.7,471.16 106.37,466.14 110.49,461.71 114.97,457.9 119.77,454.74" fill="#123E8A"/>
<polygon points="125.27,468.03 119.65,469.18 113.78,469.66 107.74,469.44 101.59,468.48 95.4,466.8 89.24,464.36 83.19,461.18 77.32,457.25 71.7,452.6 71.7,447.4 77.32,442.75 83.19,438.82 89.24,435.64 95.4,433.2 101.59,431.52 107.74,430.56 113.78,430.34 119.65,430.82 125.27,431.97" fill="#123E8A"/>
<polygon points="119.77,445.26 114.97,442.1 110.49,438.29 106.37,433.86 102.7,428.84 99.51,423.27 96.88,417.19 94.86,410.66 93.48,403.74 92.79,396.47 96.47,392.79 103.74,393.48 110.66,394.86 117.19,396.88 123.27,399.51 128.84,402.7 133.86,406.37 138.29,410.49 142.1,414.97 145.26,419.77" fill="#123E8A"/>
<polygon points="131.97,425.27 130.82,419.65 130.34,413.78 130.56,407.74 131.52,401.59 133.2,395.4 135.64,389.24 138.82,383.19 142.75,377.32 147.4,371.7 152.6,371.7 157.25,377.32 161.18,383.19 164.36,389.24 166.8,395.4 168.48,401.59 169.44,407.74 169.66,413.78 169.18,419.65 168.03,425.27" fill="#123E8A"/>
<polygon points="154.74,419.77 157.9,414.97 161.71,410.49 166.14,406.37 171.16,402.7 176.73,399.51 182.81,396.88 189.34,394.86 196.26,393.48 203.53,392.79 207.21,396.47 206.52,403.74 205.14,410.66 203.12,417.19 200.49,423.27 197.3,428.84 193.63,433.86 189.51,438.29 185.03,442.1 180.23,445.26" fill="#123E8A"/>
<circle cx="150" cy="450" r="26" fill="#2C67B1"/><circle cx="150" cy="450" r="10" fill="#F6EBD7"/>
<polygon points="30,312 48,330 30,348 12,330" fill="#2C67B1"/>
<polygon points="270,312 288,330 270,348 252,330" fill="#2C67B1"/>
<polygon points="30,552 48,570 30,588 12,570" fill="#2C67B1"/>
<polygon points="270,552 288,570 270,588 252,570" fill="#2C67B1"/>
<polygon points="474.73,431.97 480.35,430.82 486.22,430.34 492.26,430.56 498.41,431.52 504.6,433.2 510.76,435.64 516.81,438.82 522.68,442.75 528.3,447.4 528.3,452.6 522.68,457.25 516.81,461.18 510.76,464.36 504.6,466.8 498.41,468.48 492.26,469.44 486.22,469.66 480.35,469.18 474.73,468.03" fill="#123E8A"/>
<polygon points="480.23,454.74 485.03,457.9 489.51,461.71 493.63,466.14 497.3,471.16 500.49,476.73 503.12,482.81 505.14,489.34 506.52,496.26 507.21,503.53 503.53,507.21 496.26,506.52 489.34,505.14 482.81,503.12 476.73,500.49 471.16,497.3 466.14,493.63 461.71,489.51 457.9,485.03 454.74,480.23" fill="#123E8A"/>
<polygon points="468.03,474.73 469.18,480.35 469.66,486.22 469.44,492.26 468.48,498.41 466.8,504.6 464.36,510.76 461.18,516.81 457.25,522.68 452.6,528.3 447.4,528.3 442.75,522.68 438.82,516.81 435.64,510.76 433.2,504.6 431.52,498.41 430.56,492.26 430.34,486.22 430.82,480.35 431.97,474.73" fill="#123E8A"/>
<polygon points="445.26,480.23 442.1,485.03 438.29,489.51 433.86,493.63 428.84,497.3 423.27,500.49 417.19,503.12 410.66,505.14 403.74,506.52 396.47,507.21 392.79,503.53 393.48,496.26 394.86,489.34 396.88,482.81 399.51,476.73 402.7,471.16 406.37,466.14 410.49,461.71 414.97,457.9 419.77,454.74" fill="#123E8A"/>
<polygon points="425.27,468.03 419.65,469.18 413.78,469.66 407.74,469.44 401.59,468.48 395.4,466.8 389.24,464.36 383.19,461.18 377.32,457.25 371.7,452.6 371.7,447.4 377.32,442.75 383.19,438.82 389.24,435.64 395.4,433.2 401.59,431.52 407.74,430.56 413.78,430.34 419.65,430.82 425.27,431.97" fill="#123E8A"/>
<polygon points="419.77,445.26 414.97,442.1 410.49,438.29 406.37,433.86 402.7,428.84 399.51,423.27 396.88,417.19 394.86,410.66 393.48,403.74 392.79,396.47 396.47,392.79 403.74,393.48 410.66,394.86 417.19,396.88 423.27,399.51 428.84,402.7 433.86,406.37 438.29,410.49 442.1,414.97 445.26,419.77" fill="#123E8A"/>
<polygon points="431.97,425.27 430.82,419.65 430.34,413.78 430.56,407.74 431.52,401.59 433.2,395.4 435.64,389.24 438.82,383.19 442.75,377.32 447.4,371.7 452.6,371.7 457.25,377.32 461.18,383.19 464.36,389.24 466.8,395.4 468.48,401.59 469.44,407.74 469.66,413.78 469.18,419.65 468.03,425.27" fill="#123E8A"/>
<polygon points="454.74,419.77 457.9,414.97 461.71,410.49 466.14,406.37 471.16,402.7 476.73,399.51 482.81,396.88 489.34,394.86 496.26,393.48 503.53,392.79 507.21,396.47 506.52,403.74 505.14,410.66 503.12,417.19 500.49,423.27 497.3,428.84 493.63,433.86 489.51,438.29 485.03,442.1 480.23,445.26" fill="#123E8A"/>
<circle cx="450" cy="450" r="26" fill="#2C67B1"/><circle cx="450" cy="450" r="10" fill="#F6EBD7"/>
<polygon points="330,312 348,330 330,348 312,330" fill="#2C67B1"/>
<polygon points="570,312 588,330 570,348 552,330" fill="#2C67B1"/>
<polygon points="330,552 348,570 330,588 312,570" fill="#2C67B1"/>
<polygon points="570,552 588,570 570,588 552,570" fill="#2C67B1"/>
<polygon points="774.73,431.97 780.35,430.82 786.22,430.34 792.26,430.56 798.41,431.52 804.6,433.2 810.76,435.64 816.81,438.82 822.68,442.75 828.3,447.4 828.3,452.6 822.68,457.25 816.81,461.18 810.76,464.36 804.6,466.8 798.41,468.48 792.26,469.44 786.22,469.66 780.35,469.18 774.73,468.03" fill="#123E8A"/>
<polygon points="780.23,454.74 785.03,457.9 789.51,461.71 793.63,466.14 797.3,471.16 800.49,476.73 803.12,482.81 805.14,489.34 806.52,496.26 807.21,503.53 803.53,507.21 796.26,506.52 789.34,505.14 782.81,503.12 776.73,500.49 771.16,497.3 766.14,493.63 761.71,489.51 757.9,485.03 754.74,480.23" fill="#123E8A"/>
<polygon points="768.03,474.73 769.18,480.35 769.66,486.22 769.44,492.26 768.48,498.41 766.8,504.6 764.36,510.76 761.18,516.81 757.25,522.68 752.6,528.3 747.4,528.3 742.75,522.68 738.82,516.81 735.64,510.76 733.2,504.6 731.52,498.41 730.56,492.26 730.34,486.22 730.82,480.35 731.97,474.73" fill="#123E8A"/>
<polygon points="745.26,480.23 742.1,485.03 738.29,489.51 733.86,493.63 728.84,497.3 723.27,500.49 717.19,503.12 710.66,505.14 703.74,506.52 696.47,507.21 692.79,503.53 693.48,496.26 694.86,489.34 696.88,482.81 699.51,476.73 702.7,471.16 706.37,466.14 710.49,461.71 714.97,457.9 719.77,454.74" fill="#123E8A"/>
<polygon points="725.27,468.03 719.65,469.18 713.78,469.66 707.74,469.44 701.59,468.48 695.4,466.8 689.24,464.36 683.19,461.18 677.32,457.25 671.7,452.6 671.7,447.4 677.32,442.75 683.19,438.82 689.24,435.64 695.4,433.2 701.59,431.52 707.74,430.56 713.78,430.34 719.65,430.82 725.27,431.97" fill="#123E8A"/>
<polygon points="719.77,445.26 714.97,442.1 710.49,438.29 706.37,433.86 702.7,428.84 699.51,423.27 696.88,417.19 694.86,410.66 693.48,403.74 692.79,396.47 696.47,392.79 703.74,393.48 710.66,394.86 717.19,396.88 723.27,399.51 728.84,402.7 733.86,406.37 738.29,410.49 742.1,414.97 745.26,419.77" fill="#123E8A"/>
<polygon points="731.97,425.27 730.82,419.65 730.34,413.78 730.56,407.74 731.52,401.59 733.2,395.4 735.64,389.24 738.82,383.19 742.75,377.32 747.4,371.7 752.6,371.7 757.25,377.32 761.18,383.19 764.36,389.24 766.8,395.4 768.48,401.59 769.44,407.74 769.66,413.78 769.18,419.65 768.03,425.27" fill="#123E8A"/>
<polygon points="754.74,419.77 757.9,414.97 761.71,410.49 766.14,406.37 771.16,402.7 776.73,399.51 782.81,396.88 789.34,394.86 796.26,393.48 803.53,392.79 807.21,396.47 806.52,403.74 805.14,410.66 803.12,417.19 800.49,423.27 797.3,428.84 793.63,433.86 789.51,438.29 785.03,442.1 780.23,445.26" fill="#123E8A"/>
<circle cx="750" cy="450" r="26" fill="#2C67B1"/><circle cx="750" cy="450" r="10" fill="#F6EBD7"/>
<polygon points="630,312 648,330 630,348 612,330" fill="#2C67B1"/>
<polygon points="870,312 888,330 870,348 852,330" fill="#2C67B1"/>
<polygon points="630,552 648,570 630,588 612,570" fill="#2C67B1"/>
<polygon points="870,552 888,570 870,588 852,570" fill="#2C67B1"/>
<polygon points="1074.73,431.97 1080.35,430.82 1086.22,430.34 1092.26,430.56 1098.41,431.52 1104.6,433.2 1110.76,435.64 1116.81,438.82 1122.68,442.75 1128.3,447.4 1128.3,452.6 1122.68,457.25 1116.81,461.18 1110.76,464.36 1104.6,466.8 1098.41,468.48 1092.26,469.44 1086.22,469.66 1080.35,469.18 1074.73,468.03" fill="#123E8A"/>
<polygon points="1080.23,454.74 1085.03,457.9 1089.51,461.71 1093.63,466.14 1097.3,471.16 1100.49,476.73 1103.12,482.81 1105.14,489.34 1106.52,496.26 1107.21,503.53 1103.53,507.21 1096.26,506.52 1089.34,505.14 1082.81,503.12 1076.73,500.49 1071.16,497.3 1066.14,493.63 1061.71,489.51 1057.9,485.03 1054.74,480.23" fill="#123E8A"/>
<polygon points="1068.03,474.73 1069.18,480.35 1069.66,486.22 1069.44,492.26 1068.48,498.41 1066.8,504.6 1064.36,510.76 1061.18,516.81 1057.25,522.68 1052.6,528.3 1047.4,528.3 1042.75,522.68 1038.82,516.81 1035.64,510.76 1033.2,504.6 1031.52,498.41 1030.56,492.26 1030.34,486.22 1030.82,480.35 1031.97,474.73" fill="#123E8A"/>
<polygon points="1045.26,480.23 1042.1,485.03 1038.29,489.51 1033.86,493.63 1028.84,497.3 1023.27,500.49 1017.19,503.12 1010.66,505.14 1003.74,506.52 996.47,507.21 992.79,503.53 993.48,496.26 994.86,489.34 996.88,482.81 999.51,476.73 1002.7,471.16 1006.37,466.14 1010.49,461.71 1014.97,457.9 1019.77,454.74" fill="#123E8A"/>
<polygon points="1025.27,468.03 1019.65,469.18 1013.78,469.66 1007.74,469.44 1001.59,468.48 995.4,466.8 989.24,464.36 983.19,461.18 977.32,457.25 971.7,452.6 971.7,447.4 977.32,442.75 983.19,438.82 989.24,435.64 995.4,433.2 1001.59,431.52 1007.74,430.56 1013.78,430.34 1019.65,430.82 1025.27,431.97" fill="#123E8A"/>
<polygon points="1019.77,445.26 1014.97,442.1 1010.49,438.29 1006.37,433.86 1002.7,428.84 999.51,423.27 996.88,417.19 994.86,410.66 993.48,403.74 992.79,396.47 996.47,392.79 1003.74,393.48 1010.66,394.86 1017.19,396.88 1023.27,399.51 1028.84,402.7 1033.86,406.37 1038.29,410.49 1042.1,414.97 1045.26,419.77" fill="#123E8A"/>
<polygon points="1031.97,425.27 1030.82,419.65 1030.34,413.78 1030.56,407.74 1031.52,401.59 1033.2,395.4 1035.64,389.24 1038.82,383.19 1042.75,377.32 1047.4,371.7 1052.6,371.7 1057.25,377.32 1061.18,383.19 1064.36,389.24 1066.8,395.4 1068.48,401.59 1069.44,407.74 1069.66,413.78 1069.18,419.65 1068.03,425.27" fill="#123E8A"/>
<polygon points="1054.74,419.77 1057.9,414.97 1061.71,410.49 1066.14,406.37 1071.16,402.7 1076.73,399.51 1082.81,396.88 1089.34,394.86 1096.26,393.48 1103.53,392.79 1107.21,396.47 1106.52,403.74 1105.14,410.66 1103.12,417.19 1100.49,423.27 1097.3,428.84 1093.63,433.86 1089.51,438.29 1085.03,442.1 1080.23,445.26" fill="#123E8A"/>
<circle cx="1050" cy="450" r="26" fill="#2C67B1"/><circle cx="1050" cy="450" r="10" fill="#F6EBD7"/>
<polygon points="930,312 948,330 930,348 912,330" fill="#2C67B1"/>
<polygon points="1170,312 1188,330 1170,348 1152,330" fill="#2C67B1"/>
<polygon points="930,552 948,570 930,588 912,570" fill="#2C67B1"/>
<polygon points="1170,552 1188,570 1170,588 1152,570" fill="#2C67B1"/>
<polygon points="174.73,731.97 180.35,730.82 186.22,730.34 192.26,730.56 198.41,731.52 204.6,733.2 210.76,735.64 216.81,738.82 222.68,742.75 228.3,747.4 228.3,752.6 222.68,757.25 216.81,761.18 210.76,764.36 204.6,766.8 198.41,768.48 192.26,769.44 186.22,769.66 180.35,769.18 174.73,768.03" fill="#123E8A"/>
<polygon points="180.23,754.74 185.03,757.9 189.51,761.71 193.63,766.14 197.3,771.16 200.49,776.73 203.12,782.81 205.14,789.34 206.52,796.26 207.21,803.53 203.53,807.21 196.26,806.52 189.34,805.14 182.81,803.12 176.73,800.49 171.16,797.3 166.14,793.63 161.71,789.51 157.9,785.03 154.74,780.23" fill="#123E8A"/>
<polygon points="168.03,774.73 169.18,780.35 169.66,786.22 169.44,792.26 168.48,798.41 166.8,804.6 164.36,810.76 161.18,816.81 157.25,822.68 152.6,828.3 147.4,828.3 142.75,822.68 138.82,816.81 135.64,810.76 133.2,804.6 131.52,798.41 130.56,792.26 130.34,786.22 130.82,780.35 131.97,774.73" fill="#123E8A"/>
<polygon points="145.26,780.23 142.1,785.03 138.29,789.51 133.86,793.63 128.84,797.3 123.27,800.49 117.19,803.12 110.66,805.14 103.74,806.52 96.47,807.21 92.79,803.53 93.48,796.26 94.86,789.34 96.88,782.81 99.51,776.73 102.7,771.16 106.37,766.14 110.49,761.71 114.97,757.9 119.77,754.74" fill="#123E8A"/>
<polygon points="125.27,768.03 119.65,769.18 113.78,769.66 107.74,769.44 101.59,768.48 95.4,766.8 89.24,764.36 83.19,761.18 77.32,757.25 71.7,752.6 71.7,747.4 77.32,742.75 83.19,738.82 89.24,735.64 95.4,733.2 101.59,731.52 107.74,730.56 113.78,730.34 119.65,730.82 125.27,731.97" fill="#123E8A"/>
<polygon points="119.77,745.26 114.97,742.1 110.49,738.29 106.37,733.86 102.7,728.84 99.51,723.27 96.88,717.19 94.86,710.66 93.48,703.74 92.79,696.47 96.47,692.79 103.74,693.48 110.66,694.86 117.19,696.88 123.27,699.51 128.84,702.7 133.86,706.37 138.29,710.49 142.1,714.97 145.26,719.77" fill="#123E8A"/>
<polygon points="131.97,725.27 130.82,719.65 130.34,713.78 130.56,707.74 131.52,701.59 133.2,695.4 135.64,689.24 138.82,683.19 142.75,677.32 147.4,671.7 152.6,671.7 157.25,677.32 161.18,683.19 164.36,689.24 166.8,695.4 168.48,701.59 169.44,707.74 169.66,713.78 169.18,719.65 168.03,725.27" fill="#123E8A"/>
<polygon points="154.74,719.77 157.9,714.97 161.71,710.49 166.14,706.37 171.16,702.7 176.73,699.51 182.81,696.88 189.34,694.86 196.26,693.48 203.53,692.79 207.21,696.47 206.52,703.74 205.14,710.66 203.12,717.19 200.49,723.27 197.3,728.84 193.63,733.86 189.51,738.29 185.03,742.1 180.23,745.26" fill="#123E8A"/>
<circle cx="150" cy="750" r="26" fill="#2C67B1"/><circle cx="150" cy="750" r="10" fill="#F6EBD7"/>
<polygon points="30,612 48,630 30,648 12,630" fill="#2C67B1"/>
<polygon points="270,612 288,630 270,648 252,630" fill="#2C67B1"/>
<polygon points="30,852 48,870 30,888 12,870" fill="#2C67B1"/>
<polygon points="270,852 288,870 270,888 252,870" fill="#2C67B1"/>
<polygon points="474.73,731.97 480.35,730.82 486.22,730.34 492.26,730.56 498.41,731.52 504.6,733.2 510.76,735.64 516.81,738.82 522.68,742.75 528.3,747.4 528.3,752.6 522.68,757.25 516.81,761.18 510.76,764.36 504.6,766.8 498.41,768.48 492.26,769.44 486.22,769.66 480.35,769.18 474.73,768.03" fill="#123E8A"/>
<polygon points="480.23,754.74 485.03,757.9 489.51,761.71 493.63,766.14 497.3,771.16 500.49,776.73 503.12,782.81 505.14,789.34 506.52,796.26 507.21,803.53 503.53,807.21 496.26,806.52 489.34,805.14 482.81,803.12 476.73,800.49 471.16,797.3 466.14,793.63 461.71,789.51 457.9,785.03 454.74,780.23" fill="#123E8A"/>
<polygon points="468.03,774.73 469.18,780.35 469.66,786.22 469.44,792.26 468.48,798.41 466.8,804.6 464.36,810.76 461.18,816.81 457.25,822.68 452.6,828.3 447.4,828.3 442.75,822.68 438.82,816.81 435.64,810.76 433.2,804.6 431.52,798.41 430.56,792.26 430.34,786.22 430.82,780.35 431.97,774.73" fill="#123E8A"/>
<polygon points="445.26,780.23 442.1,785.03 438.29,789.51 433.86,793.63 428.84,797.3 423.27,800.49 417.19,803.12 410.66,805.14 403.74,806.52 396.47,807.21 392.79,803.53 393.48,796.26 394.86,789.34 396.88,782.81 399.51,776.73 402.7,771.16 406.37,766.14 410.49,761.71 414.97,757.9 419.77,754.74" fill="#123E8A"/>
<polygon points="425.27,768.03 419.65,769.18 413.78,769.66 407.74,769.44 401.59,768.48 395.4,766.8 389.24,764.36 383.19,761.18 377.32,757.25 371.7,752.6 371.7,747.4 377.32,742.75 383.19,738.82 389.24,735.64 395.4,733.2 401.59,731.52 407.74,730.56 413.78,730.34 419.65,730.82 425.27,731.97" fill="#123E8A"/>
<polygon points="419.77,745.26 414.97,742.1 410.49,738.29 406.37,733.86 402.7,728.84 399.51,723.27 396.88,717.19 394.86,710.66 393.48,703.74 392.79,696.47 396.47,692.79 403.74,693.48 410.66,694.86 417.19,696.88 423.27,699.51 428.84,702.7 433.86,706.37 438.29,710.49 442.1,714.97 445.26,719.77" fill="#123E8A"/>
<polygon points="431.97,725.27 430.82,719.65 430.34,713.78 430.56,707.74 431.52,701.59 433.2,695.4 435.64,689.24 438.82,683.19 442.75,677.32 447.4,671.7 452.6,671.7 457.25,677.32 461.18,683.19 464.36,689.24 466.8,695.4 468.48,701.59 469.44,707.74 469.66,713.78 469.18,719.65 468.03,725.27" fill="#123E8A"/>
<polygon points="454.74,719.77 457.9,714.97 461.71,710.49 466.14,706.37 471.16,702.7 476.73,699.51 482.81,696.88 489.34,694.86 496.26,693.48 503.53,692.79 507.21,696.47 506.52,703.74 505.14,710.66 503.12,717.19 500.49,723.27 497.3,728.84 493.63,733.86 489.51,738.29 485.03,742.1 480.23,745.26" fill="#123E8A"/>
<circle cx="450" cy="750" r="26" fill="#2C67B1"/><circle cx="450" cy="750" r="10" fill="#F6EBD7"/>
<polygon points="330,612 348,630 330,648 312,630" fill="#2C67B1"/>
<polygon points="570,612 588,630 570,648 552,630" fill="#2C67B1"/>
<polygon points="330,852 348,870 330,888 312,870" fill="#2C67B1"/>
<polygon points="570,852 588,870 570,888 552,870" fill="#2C67B1"/>
<polygon points="774.73,731.97 780.35,730.82 786.22,730.34 792.26,730.56 798.41,731.52 804.6,733.2 810.76,735.64 816.81,738.82 822.68,742.75 828.3,747.4 828.3,752.6 822.68,757.25 816.81,761.18 810.76,764.36 804.6,766.8 798.41,768.48 792.26,769.44 786.22,769.66 780.35,769.18 774.73,768.03" fill="#123E8A"/>
<polygon points="780.23,754.74 785.03,757.9 789.51,761.71 793.63,766.14 797.3,771.16 800.49,776.73 803.12,782.81 805.14,789.34 806.52,796.26 807.21,803.53 803.53,807.21 796.26,806.52 789.34,805.14 782.81,803.12 776.73,800.49 771.16,797.3 766.14,793.63 761.71,789.51 757.9,785.03 754.74,780.23" fill="#123E8A"/>
<polygon points="768.03,774.73 769.18,780.35 769.66,786.22 769.44,792.26 768.48,798.41 766.8,804.6 764.36,810.76 761.18,816.81 757.25,822.68 752.6,828.3 747.4,828.3 742.75,822.68 738.82,816.81 735.64,810.76 733.2,804.6 731.52,798.41 730.56,792.26 730.34,786.22 730.82,780.35 731.97,774.73" fill="#123E8A"/>
<polygon points="745.26,780.23 742.1,785.03 738.29,789.51 733.86,793.63 728.84,797.3 723.27,800.49 717.19,803.12 710.66,805.14 703.74,806.52 696.47,807.21 692.79,803.53 693.48,796.26 694.86,789.34 696.88,782.81 699.51,776.73 702.7,771.16 706.37,766.14 710.49,761.71 714.97,757.9 719.77,754.74" fill="#123E8A"/>
<polygon points="725.27,768.03 719.65,769.18 713.78,769.66 707.74,769.44 701.59,768.48 695.4,766.8 689.24,764.36 683.19,761.18 677.32,757.25 671.7,752.6 671.7,747.4 677.32,742.75 683.19,738.82 689.24,735.64 695.4,733.2 701.59,731.52 707.74,730.56 713.78,730.34 719.65,730.82 725.27,731.97" fill="#123E8A"/>
<polygon points="719.77,745.26 714.97,742.1 710.49,738.29 706.37,733.86 702.7,728.84 699.51,723.27 696.88,717.19 694.86,710.66 693.48,703.74 692.79,696.47 696.47,692.79 703.74,693.48 710.66,694.86 717.19,696.88 723.27,699.51 728.84,702.7 733.86,706.37 738.29,710.49 742.1,714.97 745.26,719.77" fill="#123E8A"/>
<polygon points="731.97,725.27 730.82,719.65 730.34,713.78 730.56,707.74 731.52,701.59 733.2,695.4 735.64,689.24 738.82,683.19 742.75,677.32 747.4,671.7 752.6,671.7 757.25,677.32 761.18,683.19 764.36,689.24 766.8,695.4 768.48,701.59 769.44,707.74 769.66,713.78 769.18,719.65 768.03,725.27" fill="#123E8A"/>
<polygon points="754.74,719.77 757.9,714.97 761.71,710.49 766.14,706.37 771.16,702.7 776.73,699.51 782.81,696.88 789.34,694.86 796.26,693.48 803.53,692.79 807.21,696.47 806.52,703.74 805.14,710.66 803.12,717.19 800.49,723.27 797.3,728.84 793.63,733.86 789.51,738.29 785.03,742.1 780.23,745.26" fill="#123E8A"/>
<circle cx="750" cy="750" r="26" fill="#2C67B1"/><circle cx="750" cy="750" r="10" fill="#F6EBD7"/>
<polygon points="630,612 648,630 630,648 612,630" fill="#2C67B1"/>
<polygon points="870,612 888,630 870,648 852,630" fill="#2C67B1"/>
<polygon points="630,852 648,870 630,888 612,870" fill="#2C67B1"/>
<polygon points="870,852 888,870 870,888 852,870" fill="#2C67B1"/>
<polygon points="1074.73,731.97 1080.35,730.82 1086.22,730.34 1092.26,730.56 1098.41,731.52 1104.6,733.2 1110.76,735.64 1116.81,738.82 1122.68,742.75 1128.3,747.4 1128.3,752.6 1122.68,757.25 1116.81,761.18 1110.76,764.36 1104.6,766.8 1098.41,768.48 1092.26,769.44 1086.22,769.66 1080.35,769.18 1074.73,768.03" fill="#123E8A"/>
<polygon points="1080.23,754.74 1085.03,757.9 1089.51,761.71 1093.63,766.14 1097.3,771.16 1100.49,776.73 1103.12,782.81 1105.14,789.34 1106.52,796.26 1107.21,803.53 1103.53,807.21 1096.26,806.52 1089.34,805.14 1082.81,803.12 1076.73,800.49 1071.16,797.3 1066.14,793.63 1061.71,789.51 1057.9,785.03 1054.74,780.23" fill="#123E8A"/>
<polygon points="1068.03,774.73 1069.18,780.35 1069.66,786.22 1069.44,792.26 1068.48,798.41 1066.8,804.6 1064.36,810.76 1061.18,816.81 1057.25,822.68 1052.6,828.3 1047.4,828.3 1042.75,822.68 1038.82,816.81 1035.64,810.76 1033.2,804.6 1031.52,798.41 1030.56,792.26 1030.34,786.22 1030.82,780.35 1031.97,774.73" fill="#123E8A"/>
<polygon points="1045.26,780.23 1042.1,785.03 1038.29,789.51 1033.86,793.63 1028.84,797.3 1023.27,800.49 1017.19,803.12 1010.66,805.14 1003.74,806.52 996.47,807.21 992.79,803.53 993.48,796.26 994.86,789.34 996.88,782.81 999.51,776.73 1002.7,771.16 1006.37,766.14 1010.49,761.71 1014.97,757.9 1019.77,754.74" fill="#123E8A"/>
<polygon points="1025.27,768.03 1019.65,769.18 1013.78,769.66 1007.74,769.44 1001.59,768.48 995.4,766.8 989.24,764.36 983.19,761.18 977.32,757.25 971.7,752.6 971.7,747.4 977.32,742.75 983.19,738.82 989.24,735.64 995.4,733.2 1001.59,731.52 1007.74,730.56 1013.78,730.34 1019.65,730.82 1025.27,731.97" fill="#123E8A"/>
<polygon points="1019.77,745.26 1014.97,742.1 1010.49,738.29 1006.37,733.86 1002.7,728.84 999.51,723.27 996.88,717.19 994.86,710.66 993.48,703.74 992.79,696.47 996.47,692.79 1003.74,693.48 1010.66,694.86 1017.19,696.88 1023.27,699.51 1028.84,702.7 1033.86,706.37 1038.29,710.49 1042.1,714.97 1045.26,719.77" fill="#123E8A"/>
<polygon points="1031.97,725.27 1030.82,719.65 1030.34,713.78 1030.56,707.74 1031.52,701.59 1033.2,695.4 1035.64,689.24 1038.82,683.19 1042.75,677.32 1047.4,671.7 1052.6,671.7 1057.25,677.32 1061.18,683.19 1064.36,689.24 1066.8,695.4 1068.48,701.59 1069.44,707.74 1069.66,713.78 1069.18,719.65 1068.03,725.27" fill="#123E8A"/>
<polygon points="1054.74,719.77 1057.9,714.97 1061.71,710.49 1066.14,706.37 1071.16,702.7 1076.73,699.51 1082.81,696.88 1089.34,694.86 1096.26,693.48 1103.53,692.79 1107.21,696.47 1106.52,703.74 1105.14,710.66 1103.12,717.19 1100.49,723.27 1097.3,728.84 1093.63,733.86 1089.51,738.29 1085.03,742.1 1080.23,745.26" fill="#123E8A"/>
<circle cx="1050" cy="750" r="26" fill="#2C67B1"/><circle cx="1050" cy="750" r="10" fill="#F6EBD7"/>
<polygon points="930,612 948,630 930,648 912,630" fill="#2C67B1"/>
<polygon points="1170,612 1188,630 1170,648 1152,630" fill="#2C67B1"/>
<polygon points="930,852 948,870 930,888 912,870" fill="#2C67B1"/>
<polygon points="1170,852 1188,870 1170,888 1152,870" fill="#2C67B1"/>
<polygon points="174.73,1031.97 180.35,1030.82 186.22,1030.34 192.26,1030.56 198.41,1031.52 204.6,1033.2 210.76,1035.64 216.81,1038.82 222.68,1042.75 228.3,1047.4 228.3,1052.6 222.68,1057.25 216.81,1061.18 210.76,1064.36 204.6,1066.8 198.41,1068.48 192.26,1069.44 186.22,1069.66 180.35,1069.18 174.73,1068.03" fill="#123E8A"/>
<polygon points="180.23,1054.74 185.03,1057.9 189.51,1061.71 193.63,1066.14 197.3,1071.16 200.49,1076.73 203.12,1082.81 205.14,1089.34 206.52,1096.26 207.21,1103.53 203.53,1107.21 196.26,1106.52 189.34,1105.14 182.81,1103.12 176.73,1100.49 171.16,1097.3 166.14,1093.63 161.71,1089.51 157.9,1085.03 154.74,1080.23" fill="#123E8A"/>
<polygon points="168.03,1074.73 169.18,1080.35 169.66,1086.22 169.44,1092.26 168.48,1098.41 166.8,1104.6 164.36,1110.76 161.18,1116.81 157.25,1122.68 152.6,1128.3 147.4,1128.3 142.75,1122.68 138.82,1116.81 135.64,1110.76 133.2,1104.6 131.52,1098.41 130.56,1092.26 130.34,1086.22 130.82,1080.35 131.97,1074.73" fill="#123E8A"/>
<polygon points="145.26,1080.23 142.1,1085.03 138.29,1089.51 133.86,1093.63 128.84,1097.3 123.27,1100.49 117.19,1103.12 110.66,1105.14 103.74,1106.52 96.47,1107.21 92.79,1103.53 93.48,1096.26 94.86,1089.34 96.88,1082.81 99.51,1076.73 102.7,1071.16 106.37,1066.14 110.49,1061.71 114.97,1057.9 119.77,1054.74" fill="#123E8A"/>
<polygon points="125.27,1068.03 119.65,1069.18 113.78,1069.66 107.74,1069.44 101.59,1068.48 95.4,1066.8 89.24,1064.36 83.19,1061.18 77.32,1057.25 71.7,1052.6 71.7,1047.4 77.32,1042.75 83.19,1038.82 89.24,1035.64 95.4,1033.2 101.59,1031.52 107.74,1030.56 113.78,1030.34 119.65,1030.82 125.27,1031.97" fill="#123E8A"/>
<polygon points="119.77,1045.26 114.97,1042.1 110.49,1038.29 106.37,1033.86 102.7,1028.84 99.51,1023.27 96.88,1017.19 94.86,1010.66 93.48,1003.74 92.79,996.47 96.47,992.79 103.74,993.48 110.66,994.86 117.19,996.88 123.27,999.51 128.84,1002.7 133.86,1006.37 138.29,1010.49 142.1,1014.97 145.26,1019.77" fill="#123E8A"/>
<polygon points="131.97,1025.27 130.82,1019.65 130.34,1013.78 130.56,1007.74 131.52,1001.59 133.2,995.4 135.64,989.24 138.82,983.19 142.75,977.32 147.4,971.7 152.6,971.7 157.25,977.32 161.18,983.19 164.36,989.24 166.8,995.4 168.48,1001.59 169.44,1007.74 169.66,1013.78 169.18,1019.65 168.03,1025.27" fill="#123E8A"/>
<polygon points="154.74,1019.77 157.9,1014.97 161.71,1010.49 166.14,1006.37 171.16,1002.7 176.73,999.51 182.81,996.88 189.34,994.86 196.26,993.48 203.53,992.79 207.21,996.47 206.52,1003.74 205.14,1010.66 203.12,1017.19 200.49,1023.27 197.3,1028.84 193.63,1033.86 189.51,1038.29 185.03,1042.1 180.23,1045.26" fill="#123E8A"/>
<circle cx="150" cy="1050" r="26" fill="#2C67B1"/><circle cx="150" cy="1050" r="10" fill="#F6EBD7"/>
<polygon points="30,912 48,930 30,948 12,930" fill="#2C67B1"/>
<polygon points="270,912 288,930 270,948 252,930" fill="#2C67B1"/>
<polygon points="30,1152 48,1170 30,1188 12,1170" fill="#2C67B1"/>
<polygon points="270,1152 288,1170 270,1188 252,1170" fill="#2C67B1"/>
<polygon points="474.73,1031.97 480.35,1030.82 486.22,1030.34 492.26,1030.56 498.41,1031.52 504.6,1033.2 510.76,1035.64 516.81,1038.82 522.68,1042.75 528.3,1047.4 528.3,1052.6 522.68,1057.25 516.81,1061.18 510.76,1064.36 504.6,1066.8 498.41,1068.48 492.26,1069.44 486.22,1069.66 480.35,1069.18 474.73,1068.03" fill="#123E8A"/>
<polygon points="480.23,1054.74 485.03,1057.9 489.51,1061.71 493.63,1066.14 497.3,1071.16 500.49,1076.73 503.12,1082.81 505.14,1089.34 506.52,1096.26 507.21,1103.53 503.53,1107.21 496.26,1106.52 489.34,1105.14 482.81,1103.12 476.73,1100.49 471.16,1097.3 466.14,1093.63 461.71,1089.51 457.9,1085.03 454.74,1080.23" fill="#123E8A"/>
<polygon points="468.03,1074.73 469.18,1080.35 469.66,1086.22 469.44,1092.26 468.48,1098.41 466.8,1104.6 464.36,1110.76 461.18,1116.81 457.25,1122.68 452.6,1128.3 447.4,1128.3 442.75,1122.68 438.82,1116.81 435.64,1110.76 433.2,1104.6 431.52,1098.41 430.56,1092.26 430.34,1086.22 430.82,1080.35 431.97,1074.73" fill="#123E8A"/>
<polygon points="445.26,1080.23 442.1,1085.03 438.29,1089.51 433.86,1093.63 428.84,1097.3 423.27,1100.49 417.19,1103.12 410.66,1105.14 403.74,1106.52 396.47,1107.21 392.79,1103.53 393.48,1096.26 394.86,1089.34 396.88,1082.81 399.51,1076.73 402.7,1071.16 406.37,1066.14 410.49,1061.71 414.97,1057.9 419.77,1054.74" fill="#123E8A"/>
<polygon points="425.27,1068.03 419.65,1069.18 413.78,1069.66 407.74,1069.44 401.59,1068.48 395.4,1066.8 389.24,1064.36 383.19,1061.18 377.32,1057.25 371.7,1052.6 371.7,1047.4 377.32,1042.75 383.19,1038.82 389.24,1035.64 395.4,1033.2 401.59,1031.52 407.74,1030.56 413.78,1030.34 419.65,1030.82 425.27,1031.97" fill="#123E8A"/>
<polygon points="419.77,1045.26 414.97,1042.1 410.49,1038.29 406.37,1033.86 402.7,1028.84 399.51,1023.27 396.88,1017.19 394.86,1010.66 393.48,1003.74 392.79,996.47 396.47,992.79 403.74,993.48 410.66,994.86 417.19,996.88 423.27,999.51 428.84,1002.7 433.86,1006.37 438.29,1010.49 442.1,1014.97 445.26,1019.77" fill="#123E8A"/>
<polygon points="431.97,1025.27 430.82,1019.65 430.34,1013.78 430.56,1007.74 431.52,1001.59 433.2,995.4 435.64,989.24 438.82,983.19 442.75,977.32 447.4,971.7 452.6,971.7 457.25,977.32 461.18,983.19 464.36,989.24 466.8,995.4 468.48,1001.59 469.44,1007.74 469.66,1013.78 469.18,1019.65 468.03,1025.27" fill="#123E8A"/>
<polygon points="454.74,1019.77 457.9,1014.97 461.71,1010.49 466.14,1006.37 471.16,1002.7 476.73,999.51 482.81,996.88 489.34,994.86 496.26,993.48 503.53,992.79 507.21,996.47 506.52,1003.74 505.14,1010.66 503.12,1017.19 500.49,1023.27 497.3,1028.84 493.63,1033.86 489.51,1038.29 485.03,1042.1 480.23,1045.26" fill="#123E8A"/>
<circle cx="450" cy="1050" r="26" fill="#2C67B1"/><circle cx="450" cy="1050" r="10" fill="#F6EBD7"/>
<polygon points="330,912 348,930 330,948 312,930" fill="#2C67B1"/>
<polygon points="570,912 588,930 570,948 552,930" fill="#2C67B1"/>
<polygon points="330,1152 348,1170 330,1188 312,1170" fill="#2C67B1"/>
<polygon points="570,1152 588,1170 570,1188 552,1170" fill="#2C67B1"/>
<polygon points="774.73,1031.97 780.35,1030.82 786.22,1030.34 792.26,1030.56 798.41,1031.52 804.6,1033.2 810.76,1035.64 816.81,1038.82 822.68,1042.75 828.3,1047.4 828.3,1052.6 822.68,1057.25 816.81,1061.18 810.76,1064.36 804.6,1066.8 798.41,1068.48 792.26,1069.44 786.22,1069.66 780.35,1069.18 774.73,1068.03" fill="#123E8A"/>
<polygon points="780.23,1054.74 785.03,1057.9 789.51,1061.71 793.63,1066.14 797.3,1071.16 800.49,1076.73 803.12,1082.81 805.14,1089.34 806.52,1096.26 807.21,1103.53 803.53,1107.21 796.26,1106.52 789.34,1105.14 782.81,1103.12 776.73,1100.49 771.16,1097.3 766.14,1093.63 761.71,1089.51 757.9,1085.03 754.74,1080.23" fill="#123E8A"/>
<polygon points="768.03,1074.73 769.18,1080.35 769.66,1086.22 769.44,1092.26 768.48,1098.41 766.8,1104.6 764.36,1110.76 761.18,1116.81 757.25,1122.68 752.6,1128.3 747.4,1128.3 742.75,1122.68 738.82,1116.81 735.64,1110.76 733.2,1104.6 731.52,1098.41 730.56,1092.26 730.34,1086.22 730.82,1080.35 731.97,1074.73" fill="#123E8A"/>
<polygon points="745.26,1080.23 742.1,1085.03 738.29,1089.51 733.86,1093.63 728.84,1097.3 723.27,1100.49 717.19,1103.12 710.66,1105.14 703.74,1106.52 696.47,1107.21 692.79,1103.53 693.48,1096.26 694.86,1089.34 696.88,1082.81 699.51,1076.73 702.7,1071.16 706.37,1066.14 710.49,1061.71 714.97,1057.9 719.77,1054.74" fill="#123E8A"/>
<polygon points="725.27,1068.03 719.65,1069.18 713.78,1069.66 707.74,1069.44 701.59,1068.48 695.4,1066.8 689.24,1064.36 683.19,1061.18 677.32,1057.25 671.7,1052.6 671.7,1047.4 677.32,1042.75 683.19,1038.82 689.24,1035.64 695.4,1033.2 701.59,1031.52 707.74,1030.56 713.78,1030.34 719.65,1030.82 725.27,1031.97" fill="#123E8A"/>
<polygon points="719.77,1045.26 714.97,1042.1 710.49,1038.29 706.37,1033.86 702.7,1028.84 699.51,1023.27 696.88,1017.19 694.86,1010.66 693.48,1003.74 692.79,996.47 696.47,992.79 703.74,993.48 710.66,994.86 717.19,996.88 723.27,999.51 728.84,1002.7 733.86,1006.37 738.29,1010.49 742.1,1014.97 745.26,1019.77" fill="#123E8A"/>
<polygon points="731.97,1025.27 730.82,1019.65 730.34,1013.78 730.56,1007.74 731.52,1001.59 733.2,995.4 735.64,989.24 738.82,983.19 742.75,977.32 747.4,971.7 752.6,971.7 757.25,977.32 761.18,983.19 764.36,989.24 766.8,995.4 768.48,1001.59 769.44,1007.74 769.66,1013.78 769.18,1019.65 768.03,1025.27" fill="#123E8A"/>
<polygon points="754.74,1019.77 757.9,1014.97 761.71,1010.49 766.14,1006.37 771.16,1002.7 776.73,999.51 782.81,996.88 789.34,994.86 796.26,993.48 803.53,992.79 807.21,996.47 806.52,1003.74 805.14,1010.66 803.12,1017.19 800.49,1023.27 797.3,1028.84 793.63,1033.86 789.51,1038.29 785.03,1042.1 780.23,1045.26" fill="#123E8A"/>
<circle cx="750" cy="1050" r="26" fill="#2C67B1"/><circle cx="750" cy="1050" r="10" fill="#F6EBD7"/>
<polygon points="630,912 648,930 630,948 612,930" fill="#2C67B1"/>
<polygon points="870,912 888,930 870,948 852,930" fill="#2C67B1"/>
<polygon points="630,1152 648,1170 630,1188 612,1170" fill="#2C67B1"/>
<polygon points="870,1152 888,1170 870,1188 852,1170" fill="#2C67B1"/>
<polygon points="1074.73,1031.97 1080.35,1030.82 1086.22,1030.34 1092.26,1030.56 1098.41,1031.52 1104.6,1033.2 1110.76,1035.64 1116.81,1038.82 1122.68,1042.75 1128.3,1047.4 1128.3,1052.6 1122.68,1057.25 1116.81,1061.18 1110.76,1064.36 1104.6,1066.8 1098.41,1068.48 1092.26,1069.44 1086.22,1069.66 1080.35,1069.18 1074.73,1068.03" fill="#123E8A"/>
<polygon points="1080.23,1054.74 1085.03,1057.9 1089.51,1061.71 1093.63,1066.14 1097.3,1071.16 1100.49,1076.73 1103.12,1082.81 1105.14,1089.34 1106.52,1096.26 1107.21,1103.53 1103.53,1107.21 1096.26,1106.52 1089.34,1105.14 1082.81,1103.12 1076.73,1100.49 1071.16,1097.3 1066.14,1093.63 1061.71,1089.51 1057.9,1085.03 1054.74,1080.23" fill="#123E8A"/>
<polygon points="1068.03,1074.73 1069.18,1080.35 1069.66,1086.22 1069.44,1092.26 1068.48,1098.41 1066.8,1104.6 1064.36,1110.76 1061.18,1116.81 1057.25,1122.68 1052.6,1128.3 1047.4,1128.3 1042.75,1122.68 1038.82,1116.81 1035.64,1110.76 1033.2,1104.6 1031.52,1098.41 1030.56,1092.26 1030.34,1086.22 1030.82,1080.35 1031.97,1074.73" fill="#123E8A"/>
<polygon points="1045.26,1080.23 1042.1,1085.03 1038.29,1089.51 1033.86,1093.63 1028.84,1097.3 1023.27,1100.49 1017.19,1103.12 1010.66,1105.14 1003.74,1106.52 996.47,1107.21 992.79,1103.53 993.48,1096.26 994.86,1089.34 996.88,1082.81 999.51,1076.73 1002.7,1071.16 1006.37,1066.14 1010.49,1061.71 1014.97,1057.9 1019.77,1054.74" fill="#123E8A"/>
<polygon points="1025.27,1068.03 1019.65,1069.18 1013.78,1069.66 1007.74,1069.44 1001.59,1068.48 995.4,1066.8 989.24,1064.36 983.19,1061.18 977.32,1057.25 971.7,1052.6 971.7,1047.4 977.32,1042.75 983.19,1038.82 989.24,1035.64 995.4,1033.2 1001.59,1031.52 1007.74,1030.56 1013.78,1030.34 1019.65,1030.82 1025.27,1031.97" fill="#123E8A"/>
<polygon points="1019.77,1045.26 1014.97,1042.1 1010.49,1038.29 1006.37,1033.86 1002.7,1028.84 999.51,1023.27 996.88,1017.19 994.86,1010.66 993.48,1003.74 992.79,996.47 996.47,992.79 1003.74,993.48 1010.66,994.86 1017.19,996.88 1023.27,999.51 1028.84,1002.7 1033.86,1006.37 1038.29,1010.49 1042.1,1014.97 1045.26,1019.77" fill="#123E8A"/>
<polygon points="1031.97,1025.27 1030.82,1019.65 1030.34,1013.78 1030.56,1007.74 1031.52,1001.59 1033.2,995.4 1035.64,989.24 1038.82,983.19 1042.75,977.32 1047.4,971.7 1052.6,971.7 1057.25,977.32 1061.18,983.19 1064.36,989.24 1066.8,995.4 1068.48,1001.59 1069.44,1007.74 1069.66,1013.78 1069.18,1019.65 1068.03,1025.27" fill="#123E8A"/>
<polygon points="1054.74,1019.77 1057.9,1014.97 1061.71,1010.49 1066.14,1006.37 1071.16,1002.7 1076.73,999.51 1082.81,996.88 1089.34,994.86 1096.26,993.48 1103.53,992.79 1107.21,996.47 1106.52,1003.74 1105.14,1010.66 1103.12,1017.19 1100.49,1023.27 1097.3,1028.84 1093.63,1033.86 1089.51,1038.29 1085.03,1042.1 1080.23,1045.26" fill="#123E8A"/>
<circle cx="1050" cy="1050" r="26" fill="#2C67B1"/><circle cx="1050" cy="1050" r="10" fill="#F6EBD7"/>
<polygon points="930,912 948,930 930,948 912,930" fill="#2C67B1"/>
<polygon points="1170,912 1188,930 1170,948 1152,930" fill="#2C67B1"/>
<polygon points="930,1152 948,1170 930,1188 912,1170" fill="#2C67B1"/>
<polygon points="1170,1152 1188,1170 1170,1188 1152,1170" fill="#2C67B1"/>
</svg>